  0
SECTION
  2
HEADER
  9
$ACADVER
  1
AC1015
  9
$ACADMAINTVER
 70
6
  9
$DWGCODEPAGE
  3
ANSI_1252
  9
$INSBASE
 10
0.0
 20
0.0
 30
0.0
  9
$EXTMIN
 10
1e+20
 20
1e+20
 30
1e+20
  9
$EXTMAX
 10
-1e+20
 20
-1e+20
 30
-1e+20
  9
$LIMMIN
 10
0.0
 20
0.0
  9
$LIMMAX
 10
420.0
 20
297.0
  9
$ORTHOMODE
 70
0
  9
$REGENMODE
 70
1
  9
$FILLMODE
 70
1
  9
$QTEXTMODE
 70
0
  9
$MIRRTEXT
 70
1
  9
$LTSCALE
 40
1.0
  9
$ATTMODE
 70
1
  9
$TEXTSIZE
 40
2.5
  9
$TRACEWID
 40
1.0
  9
$TEXTSTYLE
  7
Standard
  9
$CLAYER
  8
0
  9
$CELTYPE
  6
ByLayer
  9
$CECOLOR
 62
256
  9
$CELTSCALE
 40
1.0
  9
$DISPSILH
 70
0
  9
$DIMSCALE
 40
1.0
  9
$DIMASZ
 40
2.5
  9
$DIMEXO
 40
0.625
  9
$DIMDLI
 40
3.75
  9
$DIMRND
 40
0.0
  9
$DIMDLE
 40
0.0
  9
$DIMEXE
 40
1.25
  9
$DIMTP
 40
0.0
  9
$DIMTM
 40
0.0
  9
$DIMTXT
 40
2.5
  9
$DIMCEN
 40
2.5
  9
$DIMTSZ
 40
0.0
  9
$DIMTOL
 70
0
  9
$DIMLIM
 70
0
  9
$DIMTIH
 70
0
  9
$DIMTOH
 70
0
  9
$DIMSE1
 70
0
  9
$DIMSE2
 70
0
  9
$DIMTAD
 70
1
  9
$DIMZIN
 70
8
  9
$DIMBLK
  1

  9
$DIMASO
 70
1
  9
$DIMSHO
 70
1
  9
$DIMPOST
  1

  9
$DIMAPOST
  1

  9
$DIMALT
 70
0
  9
$DIMALTD
 70
3
  9
$DIMALTF
 40
0.03937007874
  9
$DIMLFAC
 40
1.0
  9
$DIMTOFL
 70
1
  9
$DIMTVP
 40
0.0
  9
$DIMTIX
 70
0
  9
$DIMSOXD
 70
0
  9
$DIMSAH
 70
0
  9
$DIMBLK1
  1

  9
$DIMBLK2
  1

  9
$DIMSTYLE
  2
ISO-25
  9
$DIMCLRD
 70
0
  9
$DIMCLRE
 70
0
  9
$DIMCLRT
 70
0
  9
$DIMTFAC
 40
1.0
  9
$DIMGAP
 40
0.625
  9
$DIMJUST
 70
0
  9
$DIMSD1
 70
0
  9
$DIMSD2
 70
0
  9
$DIMTOLJ
 70
0
  9
$DIMTZIN
 70
8
  9
$DIMALTZ
 70
0
  9
$DIMALTTZ
 70
0
  9
$DIMUPT
 70
0
  9
$DIMDEC
 70
2
  9
$DIMTDEC
 70
2
  9
$DIMALTU
 70
2
  9
$DIMALTTD
 70
3
  9
$DIMTXSTY
  7
Standard
  9
$DIMAUNIT
 70
0
  9
$DIMADEC
 70
0
  9
$DIMALTRND
 40
0.0
  9
$DIMAZIN
 70
0
  9
$DIMDSEP
 70
44
  9
$DIMATFIT
 70
3
  9
$DIMFRAC
 70
0
  9
$DIMLDRBLK
  1

  9
$DIMLUNIT
 70
2
  9
$DIMLWD
 70
-2
  9
$DIMLWE
 70
-2
  9
$DIMTMOVE
 70
0
  9
$LUNITS
 70
2
  9
$LUPREC
 70
4
  9
$SKETCHINC
 40
1.0
  9
$FILLETRAD
 40
10.0
  9
$AUNITS
 70
0
  9
$AUPREC
 70
2
  9
$MENU
  1
.
  9
$ELEVATION
 40
0.0
  9
$PELEVATION
 40
0.0
  9
$THICKNESS
 40
0.0
  9
$LIMCHECK
 70
0
  9
$CHAMFERA
 40
0.0
  9
$CHAMFERB
 40
0.0
  9
$CHAMFERC
 40
0.0
  9
$CHAMFERD
 40
0.0
  9
$SKPOLY
 70
0
  9
$TDCREATE
 40
2461285.0280324076
  9
$TDUCREATE
 40
2458532.153996898
  9
$TDUPDATE
 40
2461285.0280324076
  9
$TDUUPDATE
 40
2458532.1544311
  9
$TDINDWG
 40
0.0
  9
$TDUSRTIMER
 40
0.0
  9
$USRTIMER
 70
1
  9
$ANGBASE
 50
0.0
  9
$ANGDIR
 70
0
  9
$PDMODE
 70
0
  9
$PDSIZE
 40
0.0
  9
$PLINEWID
 40
0.0
  9
$SPLFRAME
 70
0
  9
$SPLINETYPE
 70
6
  9
$SPLINESEGS
 70
8
  9
$HANDSEED
  5
34
  9
$SURFTAB1
 70
6
  9
$SURFTAB2
 70
6
  9
$SURFTYPE
 70
6
  9
$SURFU
 70
6
  9
$SURFV
 70
6
  9
$UCSBASE
  2

  9
$UCSNAME
  2

  9
$UCSORG
 10
0.0
 20
0.0
 30
0.0
  9
$UCSXDIR
 10
1.0
 20
0.0
 30
0.0
  9
$UCSYDIR
 10
0.0
 20
1.0
 30
0.0
  9
$UCSORTHOREF
  2

  9
$UCSORTHOVIEW
 70
0
  9
$UCSORGTOP
 10
0.0
 20
0.0
 30
0.0
  9
$UCSORGBOTTOM
 10
0.0
 20
0.0
 30
0.0
  9
$UCSORGLEFT
 10
0.0
 20
0.0
 30
0.0
  9
$UCSORGRIGHT
 10
0.0
 20
0.0
 30
0.0
  9
$UCSORGFRONT
 10
0.0
 20
0.0
 30
0.0
  9
$UCSORGBACK
 10
0.0
 20
0.0
 30
0.0
  9
$PUCSBASE
  2

  9
$PUCSNAME
  2

  9
$PUCSORG
 10
0.0
 20
0.0
 30
0.0
  9
$PUCSXDIR
 10
1.0
 20
0.0
 30
0.0
  9
$PUCSYDIR
 10
0.0
 20
1.0
 30
0.0
  9
$PUCSORTHOREF
  2

  9
$PUCSORTHOVIEW
 70
0
  9
$PUCSORGTOP
 10
0.0
 20
0.0
 30
0.0
  9
$PUCSORGBOTTOM
 10
0.0
 20
0.0
 30
0.0
  9
$PUCSORGLEFT
 10
0.0
 20
0.0
 30
0.0
  9
$PUCSORGRIGHT
 10
0.0
 20
0.0
 30
0.0
  9
$PUCSORGFRONT
 10
0.0
 20
0.0
 30
0.0
  9
$PUCSORGBACK
 10
0.0
 20
0.0
 30
0.0
  9
$USERI1
 70
0
  9
$USERI2
 70
0
  9
$USERI3
 70
0
  9
$USERI4
 70
0
  9
$USERI5
 70
0
  9
$USERR1
 40
0.0
  9
$USERR2
 40
0.0
  9
$USERR3
 40
0.0
  9
$USERR4
 40
0.0
  9
$USERR5
 40
0.0
  9
$WORLDVIEW
 70
1
  9
$SHADEDGE
 70
3
  9
$SHADEDIF
 70
70
  9
$TILEMODE
 70
1
  9
$MAXACTVP
 70
64
  9
$PINSBASE
 10
0.0
 20
0.0
 30
0.0
  9
$PLIMCHECK
 70
0
  9
$PEXTMIN
 10
1e+20
 20
1e+20
 30
1e+20
  9
$PEXTMAX
 10
-1e+20
 20
-1e+20
 30
-1e+20
  9
$PLIMMIN
 10
0.0
 20
0.0
  9
$PLIMMAX
 10
420.0
 20
297.0
  9
$UNITMODE
 70
0
  9
$VISRETAIN
 70
1
  9
$PLINEGEN
 70
0
  9
$PSLTSCALE
 70
1
  9
$TREEDEPTH
 70
3020
  9
$CMLSTYLE
  2
Standard
  9
$CMLJUST
 70
0
  9
$CMLSCALE
 40
20.0
  9
$PROXYGRAPHICS
 70
1
  9
$MEASUREMENT
 70
1
  9
$CELWEIGHT
370
-1
  9
$ENDCAPS
280
0
  9
$JOINSTYLE
280
0
  9
$LWDISPLAY
290
0
  9
$INSUNITS
 70
4
  9
$HYPERLINKBASE
  1

  9
$STYLESHEET
  1

  9
$XEDIT
290
1
  9
$CEPSNTYPE
380
0
  9
$PSTYLEMODE
290
1
  9
$FINGERPRINTGUID
  2
{2B5C1FF0-29C2-42DA-AC91-9834EDB0B0B4}
  9
$VERSIONGUID
  2
{CAFE054B-4E4B-47C6-8890-8BD7A904152A}
  9
$EXTNAMES
290
1
  9
$PSVPSCALE
 40
0.0
  9
$OLESTARTUP
290
0
  0
ENDSEC
  0
SECTION
  2
CLASSES
  0
CLASS
  1
ACDBDICTIONARYWDFLT
  2
AcDbDictionaryWithDefault
  3
ObjectDBX Classes
 90
0
280
0
281
0
  0
CLASS
  1
SUN
  2
AcDbSun
  3
SCENEOE
 90
1153
280
0
281
0
  0
CLASS
  1
VISUALSTYLE
  2
AcDbVisualStyle
  3
ObjectDBX Classes
 90
4095
280
0
281
0
  0
CLASS
  1
MATERIAL
  2
AcDbMaterial
  3
ObjectDBX Classes
 90
1153
280
0
281
0
  0
CLASS
  1
SCALE
  2
AcDbScale
  3
ObjectDBX Classes
 90
1153
280
0
281
0
  0
CLASS
  1
TABLESTYLE
  2
AcDbTableStyle
  3
ObjectDBX Classes
 90
4095
280
0
281
0
  0
CLASS
  1
MLEADERSTYLE
  2
AcDbMLeaderStyle
  3
ACDB_MLEADERSTYLE_CLASS
 90
4095
280
0
281
0
  0
CLASS
  1
DICTIONARYVAR
  2
AcDbDictionaryVar
  3
ObjectDBX Classes
 90
0
280
0
281
0
  0
CLASS
  1
CELLSTYLEMAP
  2
AcDbCellStyleMap
  3
ObjectDBX Classes
 90
1152
280
0
281
0
  0
CLASS
  1
MENTALRAYRENDERSETTINGS
  2
AcDbMentalRayRenderSettings
  3
SCENEOE
 90
1024
280
0
281
0
  0
CLASS
  1
ACDBDETAILVIEWSTYLE
  2
AcDbDetailViewStyle
  3
ObjectDBX Classes
 90
1025
280
0
281
0
  0
CLASS
  1
ACDBSECTIONVIEWSTYLE
  2
AcDbSectionViewStyle
  3
ObjectDBX Classes
 90
1025
280
0
281
0
  0
CLASS
  1
RASTERVARIABLES
  2
AcDbRasterVariables
  3
ISM
 90
0
280
0
281
0
  0
CLASS
  1
ACDBPLACEHOLDER
  2
AcDbPlaceHolder
  3
ObjectDBX Classes
 90
0
280
0
281
0
  0
CLASS
  1
LAYOUT
  2
AcDbLayout
  3
ObjectDBX Classes
 90
0
280
0
281
0
  0
ENDSEC
  0
SECTION
  2
TABLES
  0
TABLE
  2
VPORT
  5
8
330
0
100
AcDbSymbolTable
 70
1
  0
VPORT
  5
23
330
8
100
AcDbSymbolTableRecord
100
AcDbViewportTableRecord
  2
*Active
 70
0
 10
0.0
 20
0.0
 11
1.0
 21
1.0
 12
0.0
 22
0.0
 13
0.0
 23
0.0
 14
0.5
 24
0.5
 15
0.5
 25
0.5
 16
0.0
 26
0.0
 36
1.0
 17
0.0
 27
0.0
 37
0.0
 40
1000.0
 41
1.34
 42
50.0
 43
0.0
 44
0.0
 50
0.0
 51
0.0
 71
0
 72
1000
 73
1
 74
3
 75
0
 76
0
 77
0
 78
0
281
0
 65
0
146
0.0
  0
ENDTAB
  0
TABLE
  2
LTYPE
  5
2
330
0
100
AcDbSymbolTable
 70
3
  0
LTYPE
  5
24
330
2
100
AcDbSymbolTableRecord
100
AcDbLinetypeTableRecord
  2
ByBlock
 70
0
  3

 72
65
 73
0
 40
0.0
  0
LTYPE
  5
25
330
2
100
AcDbSymbolTableRecord
100
AcDbLinetypeTableRecord
  2
ByLayer
 70
0
  3

 72
65
 73
0
 40
0.0
  0
LTYPE
  5
26
330
2
100
AcDbSymbolTableRecord
100
AcDbLinetypeTableRecord
  2
Continuous
 70
0
  3

 72
65
 73
0
 40
0.0
  0
ENDTAB
  0
TABLE
  2
LAYER
  5
1
330
0
100
AcDbSymbolTable
 70
3
  0
LAYER
  5
27
330
1
100
AcDbSymbolTableRecord
100
AcDbLayerTableRecord
  2
0
 70
0
 62
7
  6
Continuous
370
-3
390
13
  0
LAYER
  5
28
330
1
100
AcDbSymbolTableRecord
100
AcDbLayerTableRecord
  2
Defpoints
 70
0
 62
7
  6
Continuous
290
0
370
-3
390
13
  0
LAYER
  5
2F
330
1
100
AcDbSymbolTableRecord
100
AcDbLayerTableRecord
  2
Edge.Cuts
 70
0
 62
7
  6
Continuous
370
-3
390
13
  0
ENDTAB
  0
TABLE
  2
STYLE
  5
5
330
0
100
AcDbSymbolTable
 70
1
  0
STYLE
  5
29
330
5
100
AcDbSymbolTableRecord
100
AcDbTextStyleTableRecord
  2
Standard
 70
0
 40
0.0
 41
1.0
 50
0.0
 71
0
 42
2.5
  3
txt
  4

  0
ENDTAB
  0
TABLE
  2
VIEW
  5
7
330
0
100
AcDbSymbolTable
 70
0
  0
ENDTAB
  0
TABLE
  2
UCS
  5
6
330
0
100
AcDbSymbolTable
 70
0
  0
ENDTAB
  0
TABLE
  2
APPID
  5
3
330
0
100
AcDbSymbolTable
 70
3
  0
APPID
  5
2A
330
3
100
AcDbSymbolTableRecord
100
AcDbRegAppTableRecord
  2
ACAD
 70
0
  0
APPID
  5
31
330
3
100
AcDbSymbolTableRecord
100
AcDbRegAppTableRecord
  2
HATCHBACKGROUNDCOLOR
 70
0
  0
APPID
  5
32
330
3
100
AcDbSymbolTableRecord
100
AcDbRegAppTableRecord
  2
EZDXF
 70
0
  0
ENDTAB
  0
TABLE
  2
DIMSTYLE
  5
4
330
0
100
AcDbSymbolTable
 70
1
100
AcDbDimStyleTable
  0
DIMSTYLE
105
2B
330
4
100
AcDbSymbolTableRecord
100
AcDbDimStyleTableRecord
  2
Standard
 70
0
  3

  4

 40
1.0
 41
2.5
 42
0.625
 43
3.75
 44
1.25
 45
0.0
 46
0.0
 47
0.0
 48
0.0
140
2.5
141
2.5
142
0.0
143
0.03937007874
144
1.0
145
0.0
146
1.0
147
0.625
148
0.0
 71
0
 72
0
 73
0
 74
0
 75
0
 76
0
 77
1
 78
8
 79
3
170
0
171
3
172
1
173
0
174
0
175
0
176
0
177
0
178
0
179
2
271
2
272
2
273
2
274
3
275
0
276
0
277
2
278
44
279
0
280
0
281
0
282
0
283
0
284
8
285
0
286
0
288
0
289
3
371
-2
372
-2
  0
ENDTAB
  0
TABLE
  2
BLOCK_RECORD
  5
9
330
0
100
AcDbSymbolTable
 70
2
  0
BLOCK_RECORD
  5
17
330
9
100
AcDbSymbolTableRecord
100
AcDbBlockTableRecord
  2
*Model_Space
340
1A
  0
BLOCK_RECORD
  5
1B
330
9
100
AcDbSymbolTableRecord
100
AcDbBlockTableRecord
  2
*Paper_Space
340
1E
  0
ENDTAB
  0
ENDSEC
  0
SECTION
  2
BLOCKS
  0
BLOCK
  5
18
330
17
100
AcDbEntity
  8
0
100
AcDbBlockBegin
  2
*Model_Space
 70
0
 10
0.0
 20
0.0
 30
0.0
  3
*Model_Space
  1

  0
ENDBLK
  5
19
330
17
100
AcDbEntity
  8
0
100
AcDbBlockEnd
  0
BLOCK
  5
1C
330
1B
100
AcDbEntity
  8
0
100
AcDbBlockBegin
  2
*Paper_Space
 70
0
 10
0.0
 20
0.0
 30
0.0
  3
*Paper_Space
  1

  0
ENDBLK
  5
1D
330
1B
100
AcDbEntity
  8
0
100
AcDbBlockEnd
  0
ENDSEC
  0
SECTION
  2
ENTITIES
  0
LWPOLYLINE
  5
30
330
17
100
AcDbEntity
  8
Edge.Cuts
100
AcDbPolyline
 90
628
 70
1
 10
130.221134
 20
-66.888893
 10
130.54978499999999
 20
-66.893429
 10
130.802369
 20
-66.910563
 10
130.999237
 20
-66.947323
 10
131.160739
 20
-67.010733
 10
131.307225
 20
-67.10782
 10
131.459046
 20
-67.245609
 10
131.56226900000001
 20
-67.351909
 10
131.739259
 20
-67.55924
 10
131.859578
 20
-67.756697
 10
131.936509
 20
-67.947494
 10
131.990214
 20
-68.11886
 10
132.028049
 20
-68.2627
 10
132.041444
 20
-68.34401700000001
 10
132.079653
 20
-68.414229
 10
132.201237
 20
-68.470819
 10
132.246672
 20
-68.483882
 10
132.956578
 20
-68.696167
 10
133.698672
 20
-68.961395
 10
134.435834
 20
-69.265252
 10
135.130942
 20
-69.593422
 10
135.726363
 20
-69.91633
 10
136.233215
 20
-70.237093
 10
136.703401
 20
-70.588199
 10
137.166506
 20
-70.990789
 10
137.387925
 20
-71.201648
 10
137.684879
 20
-71.495332
 10
137.922287
 20
-71.7409
 10
138.11296
 20
-71.954205
 10
138.269708
 20
-72.1511
 10
138.405342
 20
-72.347437
 10
138.532671
 20
-72.55906999999999
 10
138.633353
 20
-72.74287100000001
 10
138.858089
 20
-73.16539900000001
 10
149.232319
 20
-73.16539900000001
 10
150.22713
 20
-73.165265
 10
151.196702
 20
-73.164869
 10
152.136581
 20
-73.164225
 10
153.042313
 20
-73.163346
 10
153.909444
 20
-73.162243
 10
154.733519
 20
-73.160929
 10
155.510085
 20
-73.159417
 10
156.234686
 20
-73.157719
 10
156.90287
 20
-73.15584799999999
 10
157.510182
 20
-73.153816
 10
158.052168
 20
-73.151635
 10
158.524373
 20
-73.149318
 10
158.922344
 20
-73.146879
 10
159.241626
 20
-73.144328
 10
159.477765
 20
-73.141678
 10
159.626307
 20
-73.138943
 10
159.682798
 20
-73.136135
 10
159.749424
 20
-73.082491
 10
159.759353
 20
-73.051583
 10
159.789713
 20
-72.927186
 10
159.871014
 20
-72.755184
 10
159.988777
 20
-72.559021
 10
160.128524
 20
-72.36214
 10
160.275777
 20
-72.187984
 10
160.321301
 20
-72.141676
 10
160.506686
 20
-71.97075699999999
 10
160.67261
 20
-71.846502
 10
160.840503
 20
-71.761667
 10
161.031794
 20
-71.709009
 10
161.267913
 20
-71.68128300000001
 10
161.57029
 20
-71.671247
 10
161.715018
 20
-71.670562
 10
162.049994
 20
-71.675539
 10
162.310117
 20
-71.695299
 10
162.516816
 20
-71.737087
 10
162.69152
 20
-71.808145
 10
162.85566
 20
-71.915718
 10
163.030665
 20
-72.067049
 10
163.108736
 20
-72.141676
 10
163.257959
 20
-72.306792
 10
163.402963
 20
-72.50153
 10
163.529317
 20
-72.702391
 10
163.622589
 20
-72.885874
 10
163.668347
 20
-73.028479
 10
163.670684
 20
-73.056749
 10
163.678746
 20
-73.121392
 10
163.731534
 20
-73.130128
 10
163.87225
 20
-73.13166100000001
 10
164.100339
 20
-73.133405
 10
164.411199
 20
-73.135341
 10
164.800228
 20
-73.137451
 10
165.262824
 20
-73.139715
 10
165.794385
 20
-73.142115
 10
166.390308
 20
-73.144633
 10
167.04599100000001
 20
-73.14725
 10
167.756832
 20
-73.149946
 10
168.518229
 20
-73.152704
 10
169.32558
 20
-73.155505
 10
170.174283
 20
-73.158329
 10
171.059735
 20
-73.161159
 10
171.97733399999998
 20
-73.163975
 10
172.922478
 20
-73.166759
 10
173.256083
 20
-73.167714
 10
174.41491200000002
 20
-73.17103900000001
 10
175.481297
 20
-73.17421300000001
 10
176.459369
 20
-73.17732000000001
 10
177.353262
 20
-73.18044499999999
 10
178.167109
 20
-73.183673
 10
178.90504099999998
 20
-73.187088
 10
179.571193
 20
-73.190774
 10
180.169696
 20
-73.194817
 10
180.704684
 20
-73.1993
 10
181.18028900000002
 20
-73.20430999999999
 10
181.600644
 20
-73.209929
 10
181.969881
 20
-73.21624299999999
 10
182.292135
 20
-73.223337
 10
182.571536
 20
-73.23129399999999
 10
182.812219
 20
-73.2402
 10
183.018315
 20
-73.25014
 10
183.193958
 20
-73.261197
 10
183.34328
 20
-73.273456
 10
183.470415
 20
-73.287003
 10
183.579494
 20
-73.301921
 10
183.67465099999998
 20
-73.318296
 10
183.760018
 20
-73.33621099999999
 10
183.839729
 20
-73.355752
 10
183.917915
 20
-73.377002
 10
183.95209
 20
-73.386685
 10
184.344336
 20
-73.521082
 10
184.735537
 20
-73.695773
 10
185.09788600000002
 20
-73.896281
 10
185.403573
 20
-74.108127
 10
185.50826899999998
 20
-74.19690299999999
 10
185.693043
 20
-74.36425
 10
185.887815
 20
-74.538597
 10
186.05575199999998
 20
-74.68701
 10
186.08283699999998
 20
-74.710646
 10
186.232923
 20
-74.861305
 10
186.361381
 20
-75.025401
 10
186.425766
 20
-75.136579
 10
186.511575
 20
-75.308578
 10
186.608899
 20
-75.47645
 10
186.632409
 20
-75.512423
 10
186.71527600000002
 20
-75.65965299999999
 10
186.773032
 20
-75.806605
 10
186.826936
 20
-75.974675
 10
186.900228
 20
-76.128361
 10
186.966659
 20
-76.26329799999999
 10
187.014548
 20
-76.417021
 10
187.05201
 20
-76.612784
 10
187.08054099999998
 20
-76.862403
 10
187.101635
 20
-77.177689
 10
187.11678799999999
 20
-77.570457
 10
187.123763
 20
-77.85364200000001
 10
187.144451
 20
-78.847779
 10
187.463134
 20
-78.906498
 10
187.903785
 20
-79.010343
 10
188.379687
 20
-79.161706
 10
188.851387
 20
-79.346897
 10
189.191444
 20
-79.506239
 10
189.406285
 20
-79.620927
 10
189.586734
 20
-79.732371
 10
189.757048
 20
-79.858735
 10
189.941481
 20
-80.018182
 10
190.164291
 20
-80.228874
 10
190.190593
 20
-80.254412
 10
190.516927
 20
-80.594903
 10
190.76951
 20
-80.91572
 10
190.961797
 20
-81.238694
 10
191.10724199999999
 20
-81.585658
 10
191.196959
 20
-81.88750999999999
 10
191.237951
 20
-82.112393
 10
191.268375
 20
-82.410481
 10
191.288029
 20
-82.75896
 10
191.296709
 20
-83.135014
 10
191.294215
 20
-83.515828
 10
191.280342
 20
-83.878589
 10
191.25489
 20
-84.200481
 10
191.219674
 20
-84.448299
 10
191.056191
 20
-85.096722
 10
190.807458
 20
-85.783311
 10
190.475441
 20
-86.504759
 10
190.062109
 20
-87.257757
 10
189.56942800000002
 20
-88.038996
 10
188.999368
 20
-88.845169
 10
188.353895
 20
-89.672967
 10
187.634977
 20
-90.519082
 10
187.556548
 20
-90.607462
 10
187.139163
 20
-91.07595
 10
187.139163
 20
-98.683792
 10
187.139359
 20
-99.761084
 10
187.139963
 20
-100.744635
 10
187.140994
 20
-101.637284
 10
187.142472
 20
-102.441868
 10
187.144417
 20
-103.161224
 10
187.146851
 20
-103.798189
 10
187.149792
 20
-104.35560100000001
 10
187.15326199999998
 20
-104.836297
 10
187.15728000000001
 20
-105.243115
 10
187.161867
 20
-105.578891
 10
187.167043
 20
-105.846464
 10
187.172828
 20
-106.048669
 10
187.179242
 20
-106.188346
 10
187.186306
 20
-106.26833
 10
187.251789
 20
-106.312204
 10
187.3822
 20
-106.369483
 10
187.570339
 20
-106.45683
 10
187.801919
 20
-106.567603
 10
188.062653
 20
-106.69516
 10
188.37417399999998
 20
-106.850142
 10
188.597093
 20
-106.96513
 10
188.770919
 20
-107.06320099999999
 10
188.91445
 20
-107.157182
 10
189.046483
 20
-107.259904
 10
189.185816
 20
-107.384195
 10
189.351245
 20
-107.542885
 10
189.445366
 20
-107.634969
 10
189.647625
 20
-107.834232
 10
189.795352
 20
-107.987777
 10
189.902599
 20
-108.117882
 10
189.983416
 20
-108.246826
 10
190.051854
 20
-108.39689
 10
190.121963
 20
-108.590353
 10
190.203968
 20
-108.837845
 10
190.21434399999998
 20
-108.873745
 10
190.223776
 20
-108.918212
 10
190.23229
 20
-108.975549
 10
190.23991
 20
-109.050062
 10
190.24666100000002
 20
-109.146056
 10
190.25257
 20
-109.267834
 10
190.25766
 20
-109.419703
 10
190.261959
 20
-109.605966
 10
190.26549
 20
-109.830929
 10
190.268279
 20
-110.098896
 10
190.270352
 20
-110.41417200000001
 10
190.27173299999998
 20
-110.781062
 10
190.272448
 20
-111.20387099999999
 10
190.272523
 20
-111.686903
 10
190.271982
 20
-112.234463
 10
190.270851
 20
-112.850856
 10
190.26915400000001
 20
-113.540387
 10
190.266919
 20
-114.30736
 10
190.26416799999998
 20
-115.156081
 10
190.260929
 20
-116.09085400000001
 10
190.257226
 20
-117.115983
 10
190.255436
 20
-117.602294
 10
190.223969
 20
-126.114259
 10
190.056533
 20
-126.548859
 10
189.925952
 20
-126.847541
 10
189.78168
 20
-127.08834
 10
189.64065
 20
-127.26599
 10
189.234521
 20
-127.66498
 10
188.743558
 20
-128.038504
 10
188.177372
 20
-128.381297
 10
187.545569
 20
-128.68809
 10
186.857761
 20
-128.953617
 10
186.197528
 20
-129.153291
 10
185.947012
 20
-129.220902
 10
185.705594
 20
-129.288118
 10
185.502405
 20
-129.346708
 10
185.37661500000002
 20
-129.385163
 10
185.210873
 20
-129.432162
 10
184.992459
 20
-129.485226
 10
184.7639
 20
-129.534142
 10
184.724714
 20
-129.541765
 10
184.502582
 20
-129.584712
 10
184.225792
 20
-129.63898
 10
183.934339
 20
-129.696697
 10
183.73479
 20
-129.736589
 10
183.312347
 20
-129.818448
 10
182.915011
 20
-129.888306
 10
182.521842
 20
-129.948978
 10
182.111901
 20
-130.003282
 10
181.664248
 20
-130.054034
 10
181.157943
 20
-130.10405
 10
180.692585
 20
-130.145774
 10
180.314926
 20
-130.177493
 10
179.948581
 20
-130.205897
 10
179.586924
 20
-130.231096
 10
179.22332699999998
 20
-130.253199
 10
178.85116399999998
 20
-130.272317
 10
178.463809
 20
-130.28856
 10
178.054635
 20
-130.302036
 10
177.617016
 20
-130.312858
 10
177.144325
 20
-130.321133
 10
176.629935
 20
-130.326972
 10
176.067221
 20
-130.330485
 10
175.449555
 20
-130.331781
 10
174.770311
 20
-130.330972
 10
174.022862
 20
-130.328165
 10
173.200583
 20
-130.323472
 10
172.296846
 20
-130.317002
 10
171.305025
 20
-130.308866
 10
171.010646
 20
-130.306304
 10
170.794918
 20
-130.304382
 10
170.490668
 20
-130.301634
 10
170.10594700000001
 20
-130.298134
 10
169.648808
 20
-130.293956
 10
169.127302
 20
-130.289175
 10
168.54948100000001
 20
-130.283864
 10
167.923396
 20
-130.278097
 10
167.25709799999998
 20
-130.271949
 10
166.558641
 20
-130.265494
 10
165.836074
 20
-130.258806
 10
165.097451
 20
-130.251958
 10
164.350822
 20
-130.245026
 10
164.322623
 20
-130.244764
 10
163.466599
 20
-130.236849
 10
162.530982
 20
-130.228271
 10
161.532754
 20
-130.219182
 10
160.488898
 20
-130.209734
 10
159.416395
 20
-130.200079
 10
158.332226
 20
-130.190369
 10
157.253375
 20
-130.180757
 10
156.196822
 20
-130.171394
 10
155.17955
 20
-130.162432
 10
154.21854
 20
-130.154024
 10
153.330775
 20
-130.146321
 10
153.240303
 20
-130.14554
 10
150.795536
 20
-130.124423
 10
148.445491
 20
-130.104052
 10
146.18832
 20
-130.084406
 10
144.022169
 20
-130.06546600000001
 10
141.945189
 20
-130.047211
 10
139.955527
 20
-130.029621
 10
138.051333
 20
-130.012677
 10
136.23075599999999
 20
-129.996358
 10
134.491943
 20
-129.980644
 10
132.833044
 20
-129.965515
 10
131.252209
 20
-129.950951
 10
129.747584
 20
-129.936932
 10
128.31732
 20
-129.923438
 10
126.959565
 20
-129.910449
 10
125.672467
 20
-129.897944
 10
124.454176
 20
-129.885905
 10
123.302841
 20
-129.87431
 10
122.216609
 20
-129.863139
 10
121.193631
 20
-129.852374
 10
120.232054
 20
-129.841992
 10
119.330028
 20
-129.831976
 10
118.48570000000001
 20
-129.822304
 10
117.697221
 20
-129.81295599999999
 10
116.962739
 20
-129.803912
 10
116.280402
 20
-129.795153
 10
115.64836
 20
-129.786658
 10
115.06476
 20
-129.77840700000002
 10
114.527753
 20
-129.77038
 10
114.03548599999999
 20
-129.76255700000002
 10
113.586109
 20
-129.754918
 10
113.177769
 20
-129.747443
 10
112.808617
 20
-129.740112
 10
112.476801
 20
-129.732904
 10
112.180469
 20
-129.725801
 10
111.917771
 20
-129.718781
 10
111.686854
 20
-129.711825
 10
111.48586900000001
 20
-129.704912
 10
111.312963
 20
-129.698023
 10
111.166286
 20
-129.691137
 10
111.132319
 20
-129.68935
 10
110.498357
 20
-129.652628
 10
109.903046
 20
-129.613104
 10
109.355917
 20
-129.571613
 10
108.866506
 20
-129.528989
 10
108.444344
 20
-129.486068
 10
108.09896599999999
 20
-129.443685
 10
107.839905
 20
-129.402673
 10
107.61551399999999
 20
-129.361278
 10
107.409126
 20
-129.326664
 10
107.26920100000001
 20
-129.306028
 10
106.848375
 20
-129.243059
 10
106.36033599999999
 20
-129.155911
 10
105.826673
 20
-129.049519
 10
105.268974
 20
-128.928819
 10
104.708828
 20
-128.798746
 10
104.167823
 20
-128.664238
 10
103.66754900000001
 20
-128.53023
 10
103.229592
 20
-128.401658
 10
103.024575
 20
-128.335544
 10
102.295132
 20
-128.067809
 10
101.65944300000001
 20
-127.78616600000001
 10
101.115556
 20
-127.489672
 10
100.717075
 20
-127.22006999999999
 10
100.398842
 20
-126.972176
 10
100.145763
 20
-126.75301400000001
 10
99.940272
 20
-126.541471
 10
99.764803
 20
-126.316431
 10
99.60179099999999
 20
-126.056779
 10
99.43367
 20
-125.741398
 10
99.35528
 20
-125.58308
 10
99.34357299999999
 20
-125.55765600000001
 10
99.332909
 20
-125.528717
 10
99.32326599999999
 20
-125.491986
 10
99.314619
 20
-125.443189
 10
99.306945
 20
-125.378049
 10
99.300221
 20
-125.292293
 10
99.294423
 20
-125.18164300000001
 10
99.28952699999999
 20
-125.041826
 10
99.285511
 20
-124.868565
 10
99.28235000000001
 20
-124.657584
 10
99.280021
 20
-124.40461
 10
99.278501
 20
-124.105365
 10
99.277766
 20
-123.755576
 10
99.277793
 20
-123.350966
 10
99.278557
 20
-122.887259
 10
99.280037
 20
-122.360182
 10
99.282207
 20
-121.765457
 10
99.285045
 20
-121.098811
 10
99.288528
 20
-120.35596699999999
 10
99.292631
 20
-119.53264899999999
 10
99.297331
 20
-118.624584
 10
99.302605
 20
-117.627494
 10
99.30702099999999
 20
-116.80024399999999
 10
99.352963
 20
-108.210565
 10
99.529746
 20
-107.803528
 10
99.758558
 20
-107.389746
 10
100.078749
 20
-106.987559
 10
100.485322
 20
-106.602328
 10
100.973282
 20
-106.239412
 10
101.011516
 20
-106.214225
 10
101.158953
 20
-106.129513
 10
101.37614099999999
 20
-106.019567
 10
101.64254
 20
-105.89343
 10
101.937612
 20
-105.760145
 10
102.240815
 20
-105.628753
 10
102.531612
 20
-105.508298
 10
102.789461
 20
-105.407822
 10
102.99382399999999
 20
-105.336368
 10
103.03184300000001
 20
-105.324772
 10
103.406083
 20
-105.215209
 10
103.404886
 20
-104.92043699999999
 10
103.405223
 20
-104.826827
 10
103.40258800000001
 20
-104.751031
 10
103.39021199999999
 20
-104.681593
 10
103.361327
 20
-104.60705899999999
 10
103.30916500000001
 20
-104.515976
 10
103.226958
 20
-104.396888
 10
103.10793799999999
 20
-104.238342
 10
102.945337
 20
-104.02888300000001
 10
102.732387
 20
-103.757056
 10
102.671671
 20
-103.679522
 10
102.303855
 20
-103.209716
 10
101.990656
 20
-102.80954
 10
101.727398
 20
-102.472394
 10
101.509402
 20
-102.191675
 10
101.33198999999999
 20
-101.960784
 10
101.190484
 20
-101.773118
 10
101.080206
 20
-101.622077
 10
100.996478
 20
-101.501058
 10
100.934623
 20
-101.403462
 10
100.889962
 20
-101.322686
 10
100.857817
 20
-101.252129
 10
100.83350999999999
 20
-101.185191
 10
100.812364
 20
-101.115269
 10
100.78970000000001
 20
-101.035764
 10
100.716909
 20
-100.784984
 10
100.648836
 20
-100.546203
 10
100.593133
 20
-100.346741
 10
100.538394
 20
-100.14684
 10
100.474189
 20
-99.913281
 10
100.406547
 20
-99.66789
 10
100.38212200000001
 20
-99.579468
 10
100.323004
 20
-99.364487
 10
100.269864
 20
-99.169252
 10
100.230599
 20
-99.022874
 10
100.218321
 20
-98.975855
 10
100.19673499999999
 20
-98.894865
 10
100.152878
 20
-98.73315
 10
100.09013300000001
 20
-98.503091
 10
100.011887
 20
-98.217071
 10
99.921525
 20
-97.887472
 10
99.82243199999999
 20
-97.526677
 10
99.765569
 20
-97.319911
 10
99.642437
 20
-96.872851
 10
99.540356
 20
-96.493849
 10
99.45939200000001
 20
-96.16907
 10
99.399608
 20
-95.884678
 10
99.361069
 20
-95.626838
 10
99.343839
 20
-95.381716
 10
99.347983
 20
-95.135475
 10
99.373565
 20
-94.874281
 10
99.42065
 20
-94.584299
 10
99.48930200000001
 20
-94.251693
 10
99.57958500000001
 20
-93.862629
 10
99.691565
 20
-93.40327
 10
99.785594
 20
-93.02151
 10
99.927249
 20
-92.446026
 10
100.04808
 20
-91.956528
 10
100.150149
 20
-91.545172
 10
100.23551599999999
 20
-91.204116
 10
100.30624
 20
-90.925519
 10
100.364383
 20
-90.701537
 10
100.412004
 20
-90.524329
 10
100.451165
 20
-90.386051
 10
100.483924
 20
-90.278862
 10
100.512343
 20
-90.194919
 10
100.538482
 20
-90.126379
 10
100.55896899999999
 20
-90.077751
 10
100.623074
 20
-89.966911
 10
100.73751200000001
 20
-89.803643
 10
100.887895
 20
-89.607207
 10
101.059839
 20
-89.39686
 10
101.122094
 20
-89.323927
 10
101.320522
 20
-89.092926
 10
101.55730199999999
 20
-88.815249
 10
101.809022
 20
-88.518469
 10
102.05227
 20
-88.230156
 10
102.174714
 20
-88.084286
 10
102.373807
 20
-87.847278
 10
102.566217
 20
-87.619519
 10
102.73757
 20
-87.417929
 10
102.873494
 20
-87.259427
 10
102.949615
 20
-87.172141
 10
103.082649
 20
-87.019845
 10
103.212148
 20
-86.867817
 10
103.275565
 20
-86.791257
 10
103.406083
 20
-86.630613
 10
103.406083
 20
-82.933053
 10
103.406083
 20
-79.235493
 10
102.812998
 20
-78.62696700000001
 10
102.584507
 20
-78.38945
 10
102.410943
 20
-78.19944100000001
 10
102.277463
 20
-78.037668
 10
102.16922600000001
 20
-77.88486
 10
102.07139000000001
 20
-77.721745
 10
101.97244
 20
-77.535551
 10
101.834287
 20
-77.25945300000001
 10
101.729631
 20
-77.027376
 10
101.653865
 20
-76.81789
 10
101.602385
 20
-76.609566
 10
101.570585
 20
-76.380973
 10
101.55386
 20
-76.110681
 10
101.547604
 20
-75.77726200000001
 10
101.54695699999999
 20
-75.555703
 10
101.549987
 20
-75.173609
 10
101.562263
 20
-74.86571599999999
 10
101.58856399999999
 20
-74.609752
 10
101.63367
 20
-74.383443
 10
101.70236
 20
-74.164517
 10
101.799414
 20
-73.9307
 10
101.92961
 20
-73.65972
 10
101.97179299999999
 20
-73.575855
 10
102.047766
 20
-73.43399099999999
 10
102.129497
 20
-73.303253
 10
102.228526
 20
-73.169748
 10
102.35639
 20
-73.019581
 10
102.524631
 20
-72.83885599999999
 10
102.74478500000001
 20
-72.61368
 10
102.90057
 20
-72.457473
 10
103.13319899999999
 20
-72.229353
 10
103.35854
 20
-72.01588100000001
 10
103.56237200000001
 20
-71.829964
 10
103.730475
 20
-71.68451
 10
103.848631
 20
-71.59242499999999
 10
104.100004
 20
-71.43527900000001
 10
104.08726300000001
 20
-70.686149
 10
104.085171
 20
-70.342998
 10
104.09598700000001
 20
-70.077195
 10
104.125541
 20
-69.86977
 10
104.179666
 20
-69.701751
 10
104.26419200000001
 20
-69.554169
 10
104.384951
 20
-69.408053
 10
104.523116
 20
-69.268242
 10
104.62301
 20
-69.171974
 10
104.712432
 20
-69.092356
 10
104.801488
 20
-69.027542
 10
104.900281
 20
-68.975688
 10
105.018919
 20
-68.93494799999999
 10
105.167505
 20
-68.903479
 10
105.356145
 20
-68.879434
 10
105.594945
 20
-68.860969
 10
105.894009
 20
-68.846238
 10
106.263443
 20
-68.833398
 10
106.713352
 20
-68.820603
 10
107.02023
 20
-68.81233900000001
 10
107.84424200000001
 20
-68.791893
 10
108.62055699999999
 20
-68.7761
 10
109.343661
 20
-68.764959
 10
110.00804
 20
-68.75847
 10
110.608183
 20
-68.75663
 10
111.138575
 20
-68.759439
 10
111.593705
 20
-68.766895
 10
111.968058
 20
-68.778998
 10
112.256122
 20
-68.795745
 10
112.428368
 20
-68.81354
 10
112.879361
 20
-68.877
 10
113.321714
 20
-68.444797
 10
113.516303
 20
-68.258064
 10
113.683846
 20
-68.11144300000001
 10
113.83983599999999
 20
-68.000162
 10
113.999765
 20
-67.919446
 10
114.179126
 20
-67.864521
 10
114.39341
 20
-67.830614
 10
114.658111
 20
-67.81295
 10
114.98872
 20
-67.806755
 10
115.390807
 20
-67.807207
 10
115.780316
 20
-67.806703
 10
116.092498
 20
-67.801186
 10
116.322262
 20
-67.790862
 10
116.464519
 20
-67.77593999999999
 10
116.51106
 20
-67.761582
 10
116.61294699999999
 20
-67.691182
 10
116.735136
 20
-67.639006
 10
116.89275599999999
 20
-67.60262
 10
117.100941
 20
-67.579592
 10
117.374821
 20
-67.567489
 10
117.729528
 20
-67.563881
 10
118.241646
 20
-67.573172
 10
118.66812300000001
 20
-67.602917
 10
119.041257
 20
-67.655911
 10
119.381851
 20
-67.734949
 10
119.64938599999999
 20
-67.82042
 10
119.765981
 20
-67.86029500000001
 10
119.86746
 20
-67.887058
 10
119.973855
 20
-67.90163
 10
120.105199
 20
-67.904933
 10
120.281527
 20
-67.897888
 10
120.52287
 20
-67.881416
 10
120.693535
 20
-67.86844500000001
 10
121.472151
 20
-67.81572299999999
 10
122.29633
 20
-67.77311399999999
 10
123.146873
 20
-67.740934
 10
124.004583
 20
-67.71949599999999
 10
124.850262
 20
-67.709115
 10
125.664711
 20
-67.710105
 10
126.428733
 20
-67.722781
 10
127.12312800000001
 20
-67.747455
 10
127.35364200000001
 20
-67.759409
 10
128.243216
 20
-67.810017
 10
128.512577
 20
-67.54374899999999
 10
128.730572
 20
-67.357433
 10
128.991578
 20
-67.177916
 10
129.158776
 20
-67.082657
 10
129.535614
 20
-66.887833
  0
ENDSEC
  0
SECTION
  2
OBJECTS
  0
DICTIONARY
  5
A
330
0
100
AcDbDictionary
281
1
  3
ACAD_COLOR
350
B
  3
ACAD_GROUP
350
C
  3
ACAD_LAYOUT
350
D
  3
ACAD_MATERIAL
350
E
  3
ACAD_MLEADERSTYLE
350
F
  3
ACAD_MLINESTYLE
350
10
  3
ACAD_PLOTSETTINGS
350
11
  3
ACAD_PLOTSTYLENAME
350
12
  3
ACAD_SCALELIST
350
14
  3
ACAD_TABLESTYLE
350
15
  3
ACAD_VISUALSTYLE
350
16
  3
EZDXF_META
350
2D
  0
DICTIONARY
  5
B
330
A
100
AcDbDictionary
281
1
  0
DICTIONARY
  5
C
330
A
100
AcDbDictionary
281
1
  0
DICTIONARY
  5
D
330
A
100
AcDbDictionary
281
1
  3
Model
350
1A
  3
Layout1
350
1E
  0
DICTIONARY
  5
E
330
A
100
AcDbDictionary
281
1
  3
ByBlock
350
1F
  3
ByLayer
350
20
  3
Global
350
21
  0
DICTIONARY
  5
F
330
A
100
AcDbDictionary
281
1
  3
Standard
350
2C
  0
DICTIONARY
  5
10
330
A
100
AcDbDictionary
281
1
  3
Standard
350
22
  0
DICTIONARY
  5
11
330
A
100
AcDbDictionary
281
1
  0
ACDBDICTIONARYWDFLT
  5
12
330
A
100
AcDbDictionary
281
1
  3
Normal
350
13
100
AcDbDictionaryWithDefault
340
13
  0
ACDBPLACEHOLDER
  5
13
330
12
  0
DICTIONARY
  5
14
330
A
100
AcDbDictionary
281
1
  0
DICTIONARY
  5
15
330
A
100
AcDbDictionary
281
1
  0
DICTIONARY
  5
16
330
A
100
AcDbDictionary
281
1
  0
LAYOUT
  5
1A
330
D
100
AcDbPlotSettings
  1

  4
A3
  6

 40
7.5
 41
20.0
 42
7.5
 43
20.0
 44
420.0
 45
297.0
 46
0.0
 47
0.0
 48
0.0
 49
0.0
140
0.0
141
0.0
142
1.0
143
1.0
 70
1024
 72
1
 73
0
 74
5
  7

 75
16
 76
0
 77
2
 78
300
147
1.0
148
0.0
149
0.0
100
AcDbLayout
  1
Model
 70
1
 71
0
 10
0.0
 20
0.0
 11
420.0
 21
297.0
 12
0.0
 22
0.0
 32
0.0
 14
1e+20
 24
1e+20
 34
1e+20
 15
-1e+20
 25
-1e+20
 35
-1e+20
146
0.0
 13
0.0
 23
0.0
 33
0.0
 16
1.0
 26
0.0
 36
0.0
 17
0.0
 27
1.0
 37
0.0
 76
1
330
17
  0
LAYOUT
  5
1E
330
D
100
AcDbPlotSettings
  1

  4
A3
  6

 40
7.5
 41
20.0
 42
7.5
 43
20.0
 44
420.0
 45
297.0
 46
0.0
 47
0.0
 48
0.0
 49
0.0
140
0.0
141
0.0
142
1.0
143
1.0
 70
0
 72
1
 73
0
 74
5
  7

 75
16
 76
0
 77
2
 78
300
147
1.0
148
0.0
149
0.0
100
AcDbLayout
  1
Layout1
 70
1
 71
1
 10
0.0
 20
0.0
 11
420.0
 21
297.0
 12
0.0
 22
0.0
 32
0.0
 14
1e+20
 24
1e+20
 34
1e+20
 15
-1e+20
 25
-1e+20
 35
-1e+20
146
0.0
 13
0.0
 23
0.0
 33
0.0
 16
1.0
 26
0.0
 36
0.0
 17
0.0
 27
1.0
 37
0.0
 76
1
330
1B
  0
MATERIAL
  5
1F
102
{ACAD_REACTORS
330
E
102
}
330
E
100
AcDbMaterial
  1
ByBlock
  2

 70
0
 40
1.0
 71
1
 41
1.0
 91
-1023410177
 42
1.0
 72
1
  3

 73
1
 74
1
 75
1
 44
0.5
 73
0
 45
1.0
 46
1.0
 77
1
  4

 78
1
 79
1
170
1
 48
1.0
171
1
  6

172
1
173
1
174
1
140
1.0
141
1.0
175
1
  7

176
1
177
1
178
1
143
1.0
179
1
  8

270
1
271
1
272
1
145
1.0
146
1.0
273
1
  9

274
1
275
1
276
1
 42
1.0
 72
1
  3

 73
1
 74
1
 75
1
 94
63
  0
MATERIAL
  5
20
102
{ACAD_REACTORS
330
E
102
}
330
E
100
AcDbMaterial
  1
ByLayer
  2

 70
0
 40
1.0
 71
1
 41
1.0
 91
-1023410177
 42
1.0
 72
1
  3

 73
1
 74
1
 75
1
 44
0.5
 73
0
 45
1.0
 46
1.0
 77
1
  4

 78
1
 79
1
170
1
 48
1.0
171
1
  6

172
1
173
1
174
1
140
1.0
141
1.0
175
1
  7

176
1
177
1
178
1
143
1.0
179
1
  8

270
1
271
1
272
1
145
1.0
146
1.0
273
1
  9

274
1
275
1
276
1
 42
1.0
 72
1
  3

 73
1
 74
1
 75
1
 94
63
  0
MATERIAL
  5
21
102
{ACAD_REACTORS
330
E
102
}
330
E
100
AcDbMaterial
  1
Global
  2

 70
0
 40
1.0
 71
1
 41
1.0
 91
-1023410177
 42
1.0
 72
1
  3

 73
1
 74
1
 75
1
 44
0.5
 73
0
 45
1.0
 46
1.0
 77
1
  4

 78
1
 79
1
170
1
 48
1.0
171
1
  6

172
1
173
1
174
1
140
1.0
141
1.0
175
1
  7

176
1
177
1
178
1
143
1.0
179
1
  8

270
1
271
1
272
1
145
1.0
146
1.0
273
1
  9

274
1
275
1
276
1
 42
1.0
 72
1
  3

 73
1
 74
1
 75
1
 94
63
  0
MLINESTYLE
  5
22
102
{ACAD_REACTORS
330
10
102
}
330
10
100
AcDbMlineStyle
  2
Standard
 70
0
  3

 62
256
 51
90.0
 52
90.0
 71
2
 49
0.5
 62
256
  6
BYLAYER
 49
-0.5
 62
256
  6
BYLAYER
  0
MLEADERSTYLE
  5
2C
102
{ACAD_REACTORS
330
F
102
}
330
F
100
AcDbMLeaderStyle
179
2
170
2
171
1
172
0
 90
2
 40
0.0
 41
0.0
173
1
 91
-1056964608
 92
-2
290
1
 42
2.0
291
1
 43
8.0
  3
Standard
 44
4.0
300

342
29
174
1
175
1
176
0
178
1
 93
-1056964608
 45
4.0
292
0
297
0
 46
4.0
 94
-1056964608
 47
1.0
 49
1.0
140
1.0
294
1
141
0.0
177
0
142
1.0
295
0
296
0
143
3.75
271
0
272
9
273
9
  0
DICTIONARY
  5
2D
330
A
100
AcDbDictionary
280
1
281
1
  3
CREATED_BY_EZDXF
350
2E
  3
WRITTEN_BY_EZDXF
350
33
  0
DICTIONARYVAR
  5
2E
330
2D
100
DictionaryVariables
280
0
  1
1.4.4 @ 2026-09-01T07:40:22.424876+00:00
  0
DICTIONARYVAR
  5
33
330
2D
100
DictionaryVariables
280
0
  1
1.4.4 @ 2026-09-01T07:40:22.427592+00:00
  0
ENDSEC
  0
EOF
