  0
SECTION
  2
HEADER
  9
$ACADVER
  1
AC1015
  9
$ACADMAINTVER
 70
6
  9
$DWGCODEPAGE
  3
ANSI_1252
  9
$INSBASE
 10
0.0
 20
0.0
 30
0.0
  9
$EXTMIN
 10
1e+20
 20
1e+20
 30
1e+20
  9
$EXTMAX
 10
-1e+20
 20
-1e+20
 30
-1e+20
  9
$LIMMIN
 10
0.0
 20
0.0
  9
$LIMMAX
 10
420.0
 20
297.0
  9
$ORTHOMODE
 70
0
  9
$REGENMODE
 70
1
  9
$FILLMODE
 70
1
  9
$QTEXTMODE
 70
0
  9
$MIRRTEXT
 70
1
  9
$LTSCALE
 40
1.0
  9
$ATTMODE
 70
1
  9
$TEXTSIZE
 40
2.5
  9
$TRACEWID
 40
1.0
  9
$TEXTSTYLE
  7
Standard
  9
$CLAYER
  8
0
  9
$CELTYPE
  6
ByLayer
  9
$CECOLOR
 62
256
  9
$CELTSCALE
 40
1.0
  9
$DISPSILH
 70
0
  9
$DIMSCALE
 40
1.0
  9
$DIMASZ
 40
2.5
  9
$DIMEXO
 40
0.625
  9
$DIMDLI
 40
3.75
  9
$DIMRND
 40
0.0
  9
$DIMDLE
 40
0.0
  9
$DIMEXE
 40
1.25
  9
$DIMTP
 40
0.0
  9
$DIMTM
 40
0.0
  9
$DIMTXT
 40
2.5
  9
$DIMCEN
 40
2.5
  9
$DIMTSZ
 40
0.0
  9
$DIMTOL
 70
0
  9
$DIMLIM
 70
0
  9
$DIMTIH
 70
0
  9
$DIMTOH
 70
0
  9
$DIMSE1
 70
0
  9
$DIMSE2
 70
0
  9
$DIMTAD
 70
1
  9
$DIMZIN
 70
8
  9
$DIMBLK
  1

  9
$DIMASO
 70
1
  9
$DIMSHO
 70
1
  9
$DIMPOST
  1

  9
$DIMAPOST
  1

  9
$DIMALT
 70
0
  9
$DIMALTD
 70
3
  9
$DIMALTF
 40
0.03937007874
  9
$DIMLFAC
 40
1.0
  9
$DIMTOFL
 70
1
  9
$DIMTVP
 40
0.0
  9
$DIMTIX
 70
0
  9
$DIMSOXD
 70
0
  9
$DIMSAH
 70
0
  9
$DIMBLK1
  1

  9
$DIMBLK2
  1

  9
$DIMSTYLE
  2
ISO-25
  9
$DIMCLRD
 70
0
  9
$DIMCLRE
 70
0
  9
$DIMCLRT
 70
0
  9
$DIMTFAC
 40
1.0
  9
$DIMGAP
 40
0.625
  9
$DIMJUST
 70
0
  9
$DIMSD1
 70
0
  9
$DIMSD2
 70
0
  9
$DIMTOLJ
 70
0
  9
$DIMTZIN
 70
8
  9
$DIMALTZ
 70
0
  9
$DIMALTTZ
 70
0
  9
$DIMUPT
 70
0
  9
$DIMDEC
 70
2
  9
$DIMTDEC
 70
2
  9
$DIMALTU
 70
2
  9
$DIMALTTD
 70
3
  9
$DIMTXSTY
  7
Standard
  9
$DIMAUNIT
 70
0
  9
$DIMADEC
 70
0
  9
$DIMALTRND
 40
0.0
  9
$DIMAZIN
 70
0
  9
$DIMDSEP
 70
44
  9
$DIMATFIT
 70
3
  9
$DIMFRAC
 70
0
  9
$DIMLDRBLK
  1

  9
$DIMLUNIT
 70
2
  9
$DIMLWD
 70
-2
  9
$DIMLWE
 70
-2
  9
$DIMTMOVE
 70
0
  9
$LUNITS
 70
2
  9
$LUPREC
 70
4
  9
$SKETCHINC
 40
1.0
  9
$FILLETRAD
 40
10.0
  9
$AUNITS
 70
0
  9
$AUPREC
 70
2
  9
$MENU
  1
.
  9
$ELEVATION
 40
0.0
  9
$PELEVATION
 40
0.0
  9
$THICKNESS
 40
0.0
  9
$LIMCHECK
 70
0
  9
$CHAMFERA
 40
0.0
  9
$CHAMFERB
 40
0.0
  9
$CHAMFERC
 40
0.0
  9
$CHAMFERD
 40
0.0
  9
$SKPOLY
 70
0
  9
$TDCREATE
 40
2461285.2424074076
  9
$TDUCREATE
 40
2458532.153996898
  9
$TDUPDATE
 40
2461285.2424074076
  9
$TDUUPDATE
 40
2458532.1544311
  9
$TDINDWG
 40
0.0
  9
$TDUSRTIMER
 40
0.0
  9
$USRTIMER
 70
1
  9
$ANGBASE
 50
0.0
  9
$ANGDIR
 70
0
  9
$PDMODE
 70
0
  9
$PDSIZE
 40
0.0
  9
$PLINEWID
 40
0.0
  9
$SPLFRAME
 70
0
  9
$SPLINETYPE
 70
6
  9
$SPLINESEGS
 70
8
  9
$HANDSEED
  5
46
  9
$SURFTAB1
 70
6
  9
$SURFTAB2
 70
6
  9
$SURFTYPE
 70
6
  9
$SURFU
 70
6
  9
$SURFV
 70
6
  9
$UCSBASE
  2

  9
$UCSNAME
  2

  9
$UCSORG
 10
0.0
 20
0.0
 30
0.0
  9
$UCSXDIR
 10
1.0
 20
0.0
 30
0.0
  9
$UCSYDIR
 10
0.0
 20
1.0
 30
0.0
  9
$UCSORTHOREF
  2

  9
$UCSORTHOVIEW
 70
0
  9
$UCSORGTOP
 10
0.0
 20
0.0
 30
0.0
  9
$UCSORGBOTTOM
 10
0.0
 20
0.0
 30
0.0
  9
$UCSORGLEFT
 10
0.0
 20
0.0
 30
0.0
  9
$UCSORGRIGHT
 10
0.0
 20
0.0
 30
0.0
  9
$UCSORGFRONT
 10
0.0
 20
0.0
 30
0.0
  9
$UCSORGBACK
 10
0.0
 20
0.0
 30
0.0
  9
$PUCSBASE
  2

  9
$PUCSNAME
  2

  9
$PUCSORG
 10
0.0
 20
0.0
 30
0.0
  9
$PUCSXDIR
 10
1.0
 20
0.0
 30
0.0
  9
$PUCSYDIR
 10
0.0
 20
1.0
 30
0.0
  9
$PUCSORTHOREF
  2

  9
$PUCSORTHOVIEW
 70
0
  9
$PUCSORGTOP
 10
0.0
 20
0.0
 30
0.0
  9
$PUCSORGBOTTOM
 10
0.0
 20
0.0
 30
0.0
  9
$PUCSORGLEFT
 10
0.0
 20
0.0
 30
0.0
  9
$PUCSORGRIGHT
 10
0.0
 20
0.0
 30
0.0
  9
$PUCSORGFRONT
 10
0.0
 20
0.0
 30
0.0
  9
$PUCSORGBACK
 10
0.0
 20
0.0
 30
0.0
  9
$USERI1
 70
0
  9
$USERI2
 70
0
  9
$USERI3
 70
0
  9
$USERI4
 70
0
  9
$USERI5
 70
0
  9
$USERR1
 40
0.0
  9
$USERR2
 40
0.0
  9
$USERR3
 40
0.0
  9
$USERR4
 40
0.0
  9
$USERR5
 40
0.0
  9
$WORLDVIEW
 70
1
  9
$SHADEDGE
 70
3
  9
$SHADEDIF
 70
70
  9
$TILEMODE
 70
1
  9
$MAXACTVP
 70
64
  9
$PINSBASE
 10
0.0
 20
0.0
 30
0.0
  9
$PLIMCHECK
 70
0
  9
$PEXTMIN
 10
1e+20
 20
1e+20
 30
1e+20
  9
$PEXTMAX
 10
-1e+20
 20
-1e+20
 30
-1e+20
  9
$PLIMMIN
 10
0.0
 20
0.0
  9
$PLIMMAX
 10
420.0
 20
297.0
  9
$UNITMODE
 70
0
  9
$VISRETAIN
 70
1
  9
$PLINEGEN
 70
0
  9
$PSLTSCALE
 70
1
  9
$TREEDEPTH
 70
3020
  9
$CMLSTYLE
  2
Standard
  9
$CMLJUST
 70
0
  9
$CMLSCALE
 40
20.0
  9
$PROXYGRAPHICS
 70
1
  9
$MEASUREMENT
 70
1
  9
$CELWEIGHT
370
-1
  9
$ENDCAPS
280
0
  9
$JOINSTYLE
280
0
  9
$LWDISPLAY
290
0
  9
$INSUNITS
 70
4
  9
$HYPERLINKBASE
  1

  9
$STYLESHEET
  1

  9
$XEDIT
290
1
  9
$CEPSNTYPE
380
0
  9
$PSTYLEMODE
290
1
  9
$FINGERPRINTGUID
  2
{3450FB72-DCDF-412F-AB70-FFE2FC19DBEE}
  9
$VERSIONGUID
  2
{94875DCA-2B26-4488-BF5D-C94975007EC5}
  9
$EXTNAMES
290
1
  9
$PSVPSCALE
 40
0.0
  9
$OLESTARTUP
290
0
  0
ENDSEC
  0
SECTION
  2
CLASSES
  0
CLASS
  1
ACDBDICTIONARYWDFLT
  2
AcDbDictionaryWithDefault
  3
ObjectDBX Classes
 90
0
280
0
281
0
  0
CLASS
  1
SUN
  2
AcDbSun
  3
SCENEOE
 90
1153
280
0
281
0
  0
CLASS
  1
VISUALSTYLE
  2
AcDbVisualStyle
  3
ObjectDBX Classes
 90
4095
280
0
281
0
  0
CLASS
  1
MATERIAL
  2
AcDbMaterial
  3
ObjectDBX Classes
 90
1153
280
0
281
0
  0
CLASS
  1
SCALE
  2
AcDbScale
  3
ObjectDBX Classes
 90
1153
280
0
281
0
  0
CLASS
  1
TABLESTYLE
  2
AcDbTableStyle
  3
ObjectDBX Classes
 90
4095
280
0
281
0
  0
CLASS
  1
MLEADERSTYLE
  2
AcDbMLeaderStyle
  3
ACDB_MLEADERSTYLE_CLASS
 90
4095
280
0
281
0
  0
CLASS
  1
DICTIONARYVAR
  2
AcDbDictionaryVar
  3
ObjectDBX Classes
 90
0
280
0
281
0
  0
CLASS
  1
CELLSTYLEMAP
  2
AcDbCellStyleMap
  3
ObjectDBX Classes
 90
1152
280
0
281
0
  0
CLASS
  1
MENTALRAYRENDERSETTINGS
  2
AcDbMentalRayRenderSettings
  3
SCENEOE
 90
1024
280
0
281
0
  0
CLASS
  1
ACDBDETAILVIEWSTYLE
  2
AcDbDetailViewStyle
  3
ObjectDBX Classes
 90
1025
280
0
281
0
  0
CLASS
  1
ACDBSECTIONVIEWSTYLE
  2
AcDbSectionViewStyle
  3
ObjectDBX Classes
 90
1025
280
0
281
0
  0
CLASS
  1
RASTERVARIABLES
  2
AcDbRasterVariables
  3
ISM
 90
0
280
0
281
0
  0
CLASS
  1
ACDBPLACEHOLDER
  2
AcDbPlaceHolder
  3
ObjectDBX Classes
 90
0
280
0
281
0
  0
CLASS
  1
LAYOUT
  2
AcDbLayout
  3
ObjectDBX Classes
 90
0
280
0
281
0
  0
ENDSEC
  0
SECTION
  2
TABLES
  0
TABLE
  2
VPORT
  5
8
330
0
100
AcDbSymbolTable
 70
1
  0
VPORT
  5
23
330
8
100
AcDbSymbolTableRecord
100
AcDbViewportTableRecord
  2
*Active
 70
0
 10
0.0
 20
0.0
 11
1.0
 21
1.0
 12
0.0
 22
0.0
 13
0.0
 23
0.0
 14
0.5
 24
0.5
 15
0.5
 25
0.5
 16
0.0
 26
0.0
 36
1.0
 17
0.0
 27
0.0
 37
0.0
 40
1000.0
 41
1.34
 42
50.0
 43
0.0
 44
0.0
 50
0.0
 51
0.0
 71
0
 72
1000
 73
1
 74
3
 75
0
 76
0
 77
0
 78
0
281
0
 65
0
146
0.0
  0
ENDTAB
  0
TABLE
  2
LTYPE
  5
2
330
0
100
AcDbSymbolTable
 70
3
  0
LTYPE
  5
24
330
2
100
AcDbSymbolTableRecord
100
AcDbLinetypeTableRecord
  2
ByBlock
 70
0
  3

 72
65
 73
0
 40
0.0
  0
LTYPE
  5
25
330
2
100
AcDbSymbolTableRecord
100
AcDbLinetypeTableRecord
  2
ByLayer
 70
0
  3

 72
65
 73
0
 40
0.0
  0
LTYPE
  5
26
330
2
100
AcDbSymbolTableRecord
100
AcDbLinetypeTableRecord
  2
Continuous
 70
0
  3

 72
65
 73
0
 40
0.0
  0
ENDTAB
  0
TABLE
  2
LAYER
  5
1
330
0
100
AcDbSymbolTable
 70
3
  0
LAYER
  5
27
330
1
100
AcDbSymbolTableRecord
100
AcDbLayerTableRecord
  2
0
 70
0
 62
7
  6
Continuous
370
-3
390
13
  0
LAYER
  5
28
330
1
100
AcDbSymbolTableRecord
100
AcDbLayerTableRecord
  2
Defpoints
 70
0
 62
7
  6
Continuous
290
0
370
-3
390
13
  0
LAYER
  5
2F
330
1
100
AcDbSymbolTableRecord
100
AcDbLayerTableRecord
  2
F.Mask
 70
0
 62
7
  6
Continuous
370
-3
390
13
  0
ENDTAB
  0
TABLE
  2
STYLE
  5
5
330
0
100
AcDbSymbolTable
 70
1
  0
STYLE
  5
29
330
5
100
AcDbSymbolTableRecord
100
AcDbTextStyleTableRecord
  2
Standard
 70
0
 40
0.0
 41
1.0
 50
0.0
 71
0
 42
2.5
  3
txt
  4

  0
ENDTAB
  0
TABLE
  2
VIEW
  5
7
330
0
100
AcDbSymbolTable
 70
0
  0
ENDTAB
  0
TABLE
  2
UCS
  5
6
330
0
100
AcDbSymbolTable
 70
0
  0
ENDTAB
  0
TABLE
  2
APPID
  5
3
330
0
100
AcDbSymbolTable
 70
3
  0
APPID
  5
2A
330
3
100
AcDbSymbolTableRecord
100
AcDbRegAppTableRecord
  2
ACAD
 70
0
  0
APPID
  5
43
330
3
100
AcDbSymbolTableRecord
100
AcDbRegAppTableRecord
  2
HATCHBACKGROUNDCOLOR
 70
0
  0
APPID
  5
44
330
3
100
AcDbSymbolTableRecord
100
AcDbRegAppTableRecord
  2
EZDXF
 70
0
  0
ENDTAB
  0
TABLE
  2
DIMSTYLE
  5
4
330
0
100
AcDbSymbolTable
 70
1
100
AcDbDimStyleTable
  0
DIMSTYLE
105
2B
330
4
100
AcDbSymbolTableRecord
100
AcDbDimStyleTableRecord
  2
Standard
 70
0
  3

  4

 40
1.0
 41
2.5
 42
0.625
 43
3.75
 44
1.25
 45
0.0
 46
0.0
 47
0.0
 48
0.0
140
2.5
141
2.5
142
0.0
143
0.03937007874
144
1.0
145
0.0
146
1.0
147
0.625
148
0.0
 71
0
 72
0
 73
0
 74
0
 75
0
 76
0
 77
1
 78
8
 79
3
170
0
171
3
172
1
173
0
174
0
175
0
176
0
177
0
178
0
179
2
271
2
272
2
273
2
274
3
275
0
276
0
277
2
278
44
279
0
280
0
281
0
282
0
283
0
284
8
285
0
286
0
288
0
289
3
371
-2
372
-2
  0
ENDTAB
  0
TABLE
  2
BLOCK_RECORD
  5
9
330
0
100
AcDbSymbolTable
 70
2
  0
BLOCK_RECORD
  5
17
330
9
100
AcDbSymbolTableRecord
100
AcDbBlockTableRecord
  2
*Model_Space
340
1A
  0
BLOCK_RECORD
  5
1B
330
9
100
AcDbSymbolTableRecord
100
AcDbBlockTableRecord
  2
*Paper_Space
340
1E
  0
ENDTAB
  0
ENDSEC
  0
SECTION
  2
BLOCKS
  0
BLOCK
  5
18
330
17
100
AcDbEntity
  8
0
100
AcDbBlockBegin
  2
*Model_Space
 70
0
 10
0.0
 20
0.0
 30
0.0
  3
*Model_Space
  1

  0
ENDBLK
  5
19
330
17
100
AcDbEntity
  8
0
100
AcDbBlockEnd
  0
BLOCK
  5
1C
330
1B
100
AcDbEntity
  8
0
100
AcDbBlockBegin
  2
*Paper_Space
 70
0
 10
0.0
 20
0.0
 30
0.0
  3
*Paper_Space
  1

  0
ENDBLK
  5
1D
330
1B
100
AcDbEntity
  8
0
100
AcDbBlockEnd
  0
ENDSEC
  0
SECTION
  2
ENTITIES
  0
LWPOLYLINE
  5
30
330
17
100
AcDbEntity
  8
F.Mask
100
AcDbPolyline
 90
9
 70
0
 43
0.4
 10
144.05099
 20
-115.856528
 10
144.03583877954105
 20
-115.55203652368165
 10
144.02982137695315
 20
-115.27025218945313
 10
144.04095432812503
 20
-114.77155126562502
 10
144.0759214589844
 20
-114.3539178652344
 10
144.12625537500003
 20
-114.010844625
 10
144.18348868164065
 20
-113.73582418164065
 10
144.239153984375
 20
-113.52234917187502
 10
144.311911
 20
-113.254006
  0
LWPOLYLINE
  5
31
330
17
100
AcDbEntity
  8
F.Mask
100
AcDbPolyline
 90
15
 70
0
 43
0.4
 10
144.425645
 20
-117.027328
 10
144.54270071606445
 20
-116.78301321411132
 10
144.63514802539063
 20
-116.54362796289062
 10
144.70628960717772
 20
-116.30814321850586
 10
144.759428140625
 20
-116.075529953125
 10
144.79786630493163
 20
-115.844759138916
 10
144.8249067792969
 20
-115.61480174804687
 10
144.858005375
 20
-115.15321112499998
 10
144.8851453613281
 20
-114.68252586132812
 10
144.90473757397461
 20
-114.44120016967773
 10
144.932748171875
 20
-114.194513734375
 10
144.97247983422852
 20
-113.94143752758788
 10
145.02723524023438
 20
-113.68094252148438
 10
145.10031706909183
 20
-113.41199968823241
 10
145.195028
 20
-113.13358
  0
LWPOLYLINE
  5
32
330
17
100
AcDbEntity
  8
F.Mask
100
AcDbPolyline
 90
33
 70
0
 43
0.4
 10
144.633044
 20
-112.498003
 10
144.80219061361694
 20
-112.2303970585327
 10
144.98275204174809
 20
-111.98814797216795
 10
145.17363800906375
 20
-111.77101441046142
 10
145.3737582402344
 20
-111.57875504296875
 10
145.58202245993044
 20
-111.41112853924562
 10
145.79734039282226
 20
-111.26789356884765
 10
146.0186217635803
 20
-111.14880880133057
 10
146.244776296875
 20
-111.05363290625
 10
146.47471371737672
 20
-110.98212455316163
 10
146.70734374975586
 20
-110.93404241162109
 10
146.94157611868286
 20
-110.90914515118409
 10
147.17632054882813
 20
-110.90719144140627
 10
147.41048676486207
 20
-110.92793995184327
 10
147.64298449145508
 20
-110.97114935205079
 10
147.87272345327762
 20
-111.03657831158448
 10
148.098613375
 20
-111.1239855
 10
148.31956398129273
 20
-111.23312958685304
 10
148.5344849968262
 20
-111.36376924169923
 10
148.74228614627077
 20
-111.51566313409424
 10
148.9418771542969
 20
-111.68856993359375
 10
149.13216774557498
 20
-111.88224830975341
 10
149.31206764477542
 20
-112.0964569321289
 10
149.4804865765686
 20
-112.33095447027587
 10
149.636334265625
 20
-112.58549959375
 10
149.778520436615
 20
-112.85985097210693
 10
149.905954814209
 20
-113.15376727490235
 10
150.0175471230774
 20
-113.4670071716919
 10
150.11220708789062
 20
-113.79932933203125
 10
150.1888444333191
 20
-114.15049242547607
 10
150.24636888403322
 20
-114.52025512158204
 10
150.2836901647034
 20
-114.90837608990479
 10
150.299718
 20
-115.314614
  0
LWPOLYLINE
  5
33
330
17
100
AcDbEntity
  8
F.Mask
100
AcDbPolyline
 90
9
 70
0
 43
0.4
 10
144.873195
 20
-117.644682
 10
145.01899613476564
 20
-117.4433854296875
 10
145.153977828125
 20
-117.22977962499999
 10
145.27610163867183
 20
-117.0022181953125
 10
145.383329125
 20
-116.75905474999999
 10
145.47362184570312
 20
-116.49864289843748
 10
145.544941359375
 20
-116.21933625
 10
145.5952492246094
 20
-115.9194884140625
 10
145.622507
 20
-115.597453
  0
LWPOLYLINE
  5
34
330
17
100
AcDbEntity
  8
F.Mask
100
AcDbPolyline
 90
16
 70
0
 43
0.4
 10
145.195028
 20
-113.13358
 10
145.32488769067382
 20
-112.89355456323243
 10
145.4602354785156
 20
-112.68168516210937
 10
145.59981693725587
 20
-112.49633516040038
 10
145.742377640625
 20
-112.335867921875
 10
145.8866631623535
 20
-112.19864681030273
 10
146.03141907617186
 20
-112.08303518945313
 10
146.17539095581054
 20
-111.9873964230957
 10
146.317324375
 20
-111.910093875
 10
146.4559649074707
 20
-111.84949090893554
 10
146.59005812695312
 20
-111.80395088867186
 10
146.71834960717774
 20
-111.77183717797851
 10
146.839584921875
 20
-111.75151314062501
 10
146.95250964477538
 20
-111.74134214038087
 10
147.0558693496094
 20
-111.73968754101563
 10
147.228876
 20
-111.755381
  0
LWPOLYLINE
  5
35
330
17
100
AcDbEntity
  8
F.Mask
100
AcDbPolyline
 90
8
 70
0
 43
0.4
 10
145.502082
 20
-118.30033
 10
145.893045625
 20
-117.55049490625
 10
146.04164317968753
 20
-117.23684848046875
 10
146.16107525
 20
-116.94303775
 10
146.2529098515625
 20
-116.65330392578124
 10
146.318715
 20
-116.35188821874999
 10
146.3600587109375
 20
-116.02303183984374
 10
146.378509
 20
-115.650976
  0
LWPOLYLINE
  5
36
330
17
100
AcDbEntity
  8
F.Mask
100
AcDbPolyline
 90
7
 70
0
 43
0.4
 10
145.622507
 20
-115.597453
 10
145.635051546875
 20
-115.10069964062501
 10
145.642578125
 20
-114.684229375
 10
145.65386792773438
 20
-114.48728398632812
 10
145.67519314062503
 20
-114.287829671875
 10
145.71031706445314
 20
-114.07833986523438
 10
145.763003
 20
-113.851288
  0
LWPOLYLINE
  5
37
330
17
100
AcDbEntity
  8
F.Mask
100
AcDbPolyline
 90
12
 70
0
 43
0.4
 10
145.763003
 20
-113.851288
 10
145.90572046679688
 20
-113.56854506835936
 10
146.04169542187498
 20
-113.33425442187499
 10
146.17672957226563
 20
-113.14355515820313
 10
146.24570687915036
 20
-113.06303326293946
 10
146.31662462499997
 20
-112.991586375
 10
146.39020802319334
 20
-112.92860688159179
 10
146.46718228710938
 20
-112.87348716992187
 10
146.54827263012697
 20
-112.82561962719726
 10
146.634204265625
 20
-112.784396640625
 10
146.82349226757813
 20
-112.71945388476563
 10
147.040848
 20
-112.673798
  0
LWPOLYLINE
  5
38
330
17
100
AcDbEntity
  8
F.Mask
100
AcDbPolyline
 90
7
 70
0
 43
0.4
 10
146.378509
 20
-115.650976
 10
146.39450353125
 20
-115.06317178124999
 10
146.4010895
 20
-114.69175625
 10
146.41437858984375
 20
-114.54348523828125
 10
146.44154471874998
 20
-114.39686059375
 10
146.48799761328127
 20
-114.23439871484376
 10
146.559147
 20
-114.038616
  0
LWPOLYLINE
  5
39
330
17
100
AcDbEntity
  8
F.Mask
100
AcDbPolyline
 90
17
 70
0
 43
0.4
 10
146.559147
 20
-114.038616
 10
146.59887711132814
 20
-113.95781650341797
 10
146.647113828125
 20
-113.88615080859375
 10
146.70279872460935
 20
-113.82381492041017
 10
146.76487337499998
 20
-113.77100484375
 10
146.83227935351562
 20
-113.7279165834961
 10
146.903958234375
 20
-113.69474614453125
 10
146.97885159179688
 20
-113.67168953173828
 10
147.055901
 20
-113.65894275
 10
147.13404803320313
 20
-113.6567018041992
 10
147.212234265625
 20
-113.66516269921874
 10
147.2894012714844
 20
-113.6845214399414
 10
147.36449062500003
 20
-113.71497403125
 10
147.43644390039066
 20
-113.75671647802734
 10
147.50420267187502
 20
-113.80994478515625
 10
147.56670851367187
 20
-113.87485495751953
 10
147.622903
 20
-113.951643
  0
LWPOLYLINE
  5
3A
330
17
100
AcDbEntity
  8
F.Mask
100
AcDbPolyline
 90
16
 70
0
 43
0.4
 10
147.040848
 20
-112.673798
 10
147.26550836523438
 20
-112.67722149804689
 10
147.374883810791
 20
-112.68852767114258
 10
147.48209342187502
 20
-112.707458421875
 10
147.58699019116213
 20
-112.73493497143555
 10
147.68942711132814
 20
-112.77187854101564
 10
147.78925717504885
 20
-112.81921035180665
 10
147.886333375
 20
-112.877851625
 10
147.98050870385742
 20
-112.9487235817871
 10
148.07163615429687
 20
-113.03274744335937
 10
148.15956871899414
 20
-113.1308444309082
 10
148.244159390625
 20
-113.243935765625
 10
148.32526116186523
 20
-113.37294266870117
 10
148.40272702539062
 20
-113.51878636132813
 10
148.47640997387694
 20
-113.68238806469728
 10
148.546163
 20
-113.864669
  0
LWPOLYLINE
  5
3B
330
17
100
AcDbEntity
  8
F.Mask
100
AcDbPolyline
 90
8
 70
0
 43
0.4
 10
147.054229
 20
-116.554165
 10
146.89920215625
 20
-117.227897890625
 10
146.82549115234377
 20
-117.4906354433594
 10
146.74731125
 20
-117.724129125
 10
146.65940956640623
 20
-117.94351047851563
 10
146.55653321874996
 20
-118.163911046875
 10
146.43342932421874
 20
-118.40046237304688
 10
146.284845
 20
-118.668296
  0
LWPOLYLINE
  5
3C
330
17
100
AcDbEntity
  8
F.Mask
100
AcDbPolyline
 90
4
 70
0
 43
0.4
 10
147.167963
 20
-114.553769
 10
147.18218037500003
 20
-115.01205350000001
 10
147.18019414062502
 20
-115.2104624375
 10
147.161273
 20
-115.671047
  0
LWPOLYLINE
  5
3D
330
17
100
AcDbEntity
  8
F.Mask
100
AcDbPolyline
 90
15
 70
0
 43
0.4
 10
147.228876
 20
-111.755381
 10
147.416726703125
 20
-111.78107066992186
 10
147.65412737499997
 20
-111.835455421875
 10
147.7867048378906
 20
-111.87923958276367
 10
147.926024859375
 20
-111.93719486914063
 10
148.07020579492186
 20
-112.01165373266602
 10
148.217366
 20
-112.10494862499999
 10
148.36562383007814
 20
-112.21941199780274
 10
148.513097640625
 20
-112.35737630273437
 10
148.6579057871094
 20
-112.52117399145507
 10
148.79816662500002
 20
-112.713137515625
 10
148.9319985097656
 20
-112.9355993269043
 10
149.057519796875
 20
-113.19089187695312
 10
149.17284884179685
 20
-113.48134761743164
 10
149.276104
 20
-113.809299
  0
LWPOLYLINE
  5
3E
330
17
100
AcDbEntity
  8
F.Mask
100
AcDbPolyline
 90
9
 70
0
 43
0.4
 10
147.622903
 20
-113.951643
 10
147.708792203125
 20
-114.0761058125
 10
147.7768841875
 20
-114.1921796875
 10
147.828825390625
 20
-114.31280090625
 10
147.86626225
 20
-114.45090575
 10
147.89084120312498
 20
-114.6194305
 10
147.9042086875
 20
-114.8313114375
 10
147.908011140625
 20
-115.09948484375
 10
147.903895
 20
-115.436887
  0
LWPOLYLINE
  5
3F
330
17
100
AcDbEntity
  8
F.Mask
100
AcDbPolyline
 90
6
 70
0
 43
0.4
 10
147.770089
 20
-117.076007
 10
147.68077641015623
 20
-117.408757375
 10
147.58244753124998
 20
-117.7246513125
 10
147.48113932421873
 20
-118.01624065625
 10
147.38288875
 20
-118.27607725000001
 10
147.141202
 20
-118.848933
  0
LWPOLYLINE
  5
40
330
17
100
AcDbEntity
  8
F.Mask
100
AcDbPolyline
 90
6
 70
0
 43
0.4
 10
147.903895
 20
-115.436887
 10
147.9055676875
 20
-115.84541253124999
 10
147.88215175
 20
-116.291571
 10
147.8361559375
 20
-116.72016746875
 10
147.8054745625
 20
-116.91063153515626
 10
147.770089
 20
-117.076007
  0
LWPOLYLINE
  5
41
330
17
100
AcDbEntity
  8
F.Mask
100
AcDbPolyline
 90
9
 70
0
 43
0.4
 10
148.679969
 20
-114.747787
 10
148.69282703125003
 20
-115.24360029296875
 10
148.6849869375
 20
-115.73376859375
 10
148.6545670625
 20
-116.22017353515625
 10
148.59968575
 20
-116.70469675000001
 10
148.51846134374998
 20
-117.18921987109375
 10
148.40901218749997
 20
-117.67562453125001
 10
148.26945662499998
 20
-118.16579236328124
 10
148.097913
 20
-118.661605
  0
LWPOLYLINE
  5
42
330
17
100
AcDbEntity
  8
F.Mask
100
AcDbPolyline
 90
13
 70
0
 43
0.4
 10
149.276104
 20
-113.809299
 10
149.3552326496582
 20
-114.16232118017578
 10
149.41112494726565
 20
-114.51694076953125
 10
149.4462603532715
 20
-114.87020790380859
 10
149.463118328125
 20
-115.21917271875
 10
149.46417833227542
 20
-115.56088535009765
 10
149.4519198261719
 20
-115.89239593359375
 10
149.42882227026368
 20
-116.21075460498045
 10
149.39736512500002
 20
-116.5130115
 10
149.31928990820313
 20
-117.05742050390624
 10
149.237529859375
 20
-117.50202403124999
 10
149.17192066210936
 20
-117.82322316796873
 10
149.142298
 20
-117.997419
  0
ENDSEC
  0
SECTION
  2
OBJECTS
  0
DICTIONARY
  5
A
330
0
100
AcDbDictionary
281
1
  3
ACAD_COLOR
350
B
  3
ACAD_GROUP
350
C
  3
ACAD_LAYOUT
350
D
  3
ACAD_MATERIAL
350
E
  3
ACAD_MLEADERSTYLE
350
F
  3
ACAD_MLINESTYLE
350
10
  3
ACAD_PLOTSETTINGS
350
11
  3
ACAD_PLOTSTYLENAME
350
12
  3
ACAD_SCALELIST
350
14
  3
ACAD_TABLESTYLE
350
15
  3
ACAD_VISUALSTYLE
350
16
  3
EZDXF_META
350
2D
  0
DICTIONARY
  5
B
330
A
100
AcDbDictionary
281
1
  0
DICTIONARY
  5
C
330
A
100
AcDbDictionary
281
1
  0
DICTIONARY
  5
D
330
A
100
AcDbDictionary
281
1
  3
Model
350
1A
  3
Layout1
350
1E
  0
DICTIONARY
  5
E
330
A
100
AcDbDictionary
281
1
  3
ByBlock
350
1F
  3
ByLayer
350
20
  3
Global
350
21
  0
DICTIONARY
  5
F
330
A
100
AcDbDictionary
281
1
  3
Standard
350
2C
  0
DICTIONARY
  5
10
330
A
100
AcDbDictionary
281
1
  3
Standard
350
22
  0
DICTIONARY
  5
11
330
A
100
AcDbDictionary
281
1
  0
ACDBDICTIONARYWDFLT
  5
12
330
A
100
AcDbDictionary
281
1
  3
Normal
350
13
100
AcDbDictionaryWithDefault
340
13
  0
ACDBPLACEHOLDER
  5
13
330
12
  0
DICTIONARY
  5
14
330
A
100
AcDbDictionary
281
1
  0
DICTIONARY
  5
15
330
A
100
AcDbDictionary
281
1
  0
DICTIONARY
  5
16
330
A
100
AcDbDictionary
281
1
  0
LAYOUT
  5
1A
330
D
100
AcDbPlotSettings
  1

  4
A3
  6

 40
7.5
 41
20.0
 42
7.5
 43
20.0
 44
420.0
 45
297.0
 46
0.0
 47
0.0
 48
0.0
 49
0.0
140
0.0
141
0.0
142
1.0
143
1.0
 70
1024
 72
1
 73
0
 74
5
  7

 75
16
 76
0
 77
2
 78
300
147
1.0
148
0.0
149
0.0
100
AcDbLayout
  1
Model
 70
1
 71
0
 10
0.0
 20
0.0
 11
420.0
 21
297.0
 12
0.0
 22
0.0
 32
0.0
 14
1e+20
 24
1e+20
 34
1e+20
 15
-1e+20
 25
-1e+20
 35
-1e+20
146
0.0
 13
0.0
 23
0.0
 33
0.0
 16
1.0
 26
0.0
 36
0.0
 17
0.0
 27
1.0
 37
0.0
 76
1
330
17
  0
LAYOUT
  5
1E
330
D
100
AcDbPlotSettings
  1

  4
A3
  6

 40
7.5
 41
20.0
 42
7.5
 43
20.0
 44
420.0
 45
297.0
 46
0.0
 47
0.0
 48
0.0
 49
0.0
140
0.0
141
0.0
142
1.0
143
1.0
 70
0
 72
1
 73
0
 74
5
  7

 75
16
 76
0
 77
2
 78
300
147
1.0
148
0.0
149
0.0
100
AcDbLayout
  1
Layout1
 70
1
 71
1
 10
0.0
 20
0.0
 11
420.0
 21
297.0
 12
0.0
 22
0.0
 32
0.0
 14
1e+20
 24
1e+20
 34
1e+20
 15
-1e+20
 25
-1e+20
 35
-1e+20
146
0.0
 13
0.0
 23
0.0
 33
0.0
 16
1.0
 26
0.0
 36
0.0
 17
0.0
 27
1.0
 37
0.0
 76
1
330
1B
  0
MATERIAL
  5
1F
102
{ACAD_REACTORS
330
E
102
}
330
E
100
AcDbMaterial
  1
ByBlock
  2

 70
0
 40
1.0
 71
1
 41
1.0
 91
-1023410177
 42
1.0
 72
1
  3

 73
1
 74
1
 75
1
 44
0.5
 73
0
 45
1.0
 46
1.0
 77
1
  4

 78
1
 79
1
170
1
 48
1.0
171
1
  6

172
1
173
1
174
1
140
1.0
141
1.0
175
1
  7

176
1
177
1
178
1
143
1.0
179
1
  8

270
1
271
1
272
1
145
1.0
146
1.0
273
1
  9

274
1
275
1
276
1
 42
1.0
 72
1
  3

 73
1
 74
1
 75
1
 94
63
  0
MATERIAL
  5
20
102
{ACAD_REACTORS
330
E
102
}
330
E
100
AcDbMaterial
  1
ByLayer
  2

 70
0
 40
1.0
 71
1
 41
1.0
 91
-1023410177
 42
1.0
 72
1
  3

 73
1
 74
1
 75
1
 44
0.5
 73
0
 45
1.0
 46
1.0
 77
1
  4

 78
1
 79
1
170
1
 48
1.0
171
1
  6

172
1
173
1
174
1
140
1.0
141
1.0
175
1
  7

176
1
177
1
178
1
143
1.0
179
1
  8

270
1
271
1
272
1
145
1.0
146
1.0
273
1
  9

274
1
275
1
276
1
 42
1.0
 72
1
  3

 73
1
 74
1
 75
1
 94
63
  0
MATERIAL
  5
21
102
{ACAD_REACTORS
330
E
102
}
330
E
100
AcDbMaterial
  1
Global
  2

 70
0
 40
1.0
 71
1
 41
1.0
 91
-1023410177
 42
1.0
 72
1
  3

 73
1
 74
1
 75
1
 44
0.5
 73
0
 45
1.0
 46
1.0
 77
1
  4

 78
1
 79
1
170
1
 48
1.0
171
1
  6

172
1
173
1
174
1
140
1.0
141
1.0
175
1
  7

176
1
177
1
178
1
143
1.0
179
1
  8

270
1
271
1
272
1
145
1.0
146
1.0
273
1
  9

274
1
275
1
276
1
 42
1.0
 72
1
  3

 73
1
 74
1
 75
1
 94
63
  0
MLINESTYLE
  5
22
102
{ACAD_REACTORS
330
10
102
}
330
10
100
AcDbMlineStyle
  2
Standard
 70
0
  3

 62
256
 51
90.0
 52
90.0
 71
2
 49
0.5
 62
256
  6
BYLAYER
 49
-0.5
 62
256
  6
BYLAYER
  0
MLEADERSTYLE
  5
2C
102
{ACAD_REACTORS
330
F
102
}
330
F
100
AcDbMLeaderStyle
179
2
170
2
171
1
172
0
 90
2
 40
0.0
 41
0.0
173
1
 91
-1056964608
 92
-2
290
1
 42
2.0
291
1
 43
8.0
  3
Standard
 44
4.0
300

342
29
174
1
175
1
176
0
178
1
 93
-1056964608
 45
4.0
292
0
297
0
 46
4.0
 94
-1056964608
 47
1.0
 49
1.0
140
1.0
294
1
141
0.0
177
0
142
1.0
295
0
296
0
143
3.75
271
0
272
9
273
9
  0
DICTIONARY
  5
2D
330
A
100
AcDbDictionary
280
1
281
1
  3
CREATED_BY_EZDXF
350
2E
  3
WRITTEN_BY_EZDXF
350
45
  0
DICTIONARYVAR
  5
2E
330
2D
100
DictionaryVariables
280
0
  1
1.4.4 @ 2026-09-01T12:49:04.656636+00:00
  0
DICTIONARYVAR
  5
45
330
2D
100
DictionaryVariables
280
0
  1
1.4.4 @ 2026-09-01T12:49:04.659639+00:00
  0
ENDSEC
  0
EOF
