%TF.GenerationSoftware,KiCad,Pcbnew,10.0.5*%
%TF.CreationDate,2026-09-01T05:32:08-07:00*%
%TF.ProjectId,bsidesorl-v1,62736964-6573-46f7-926c-2d76312e6b69,R0*%
%TF.SameCoordinates,Original*%
%TF.FileFunction,Copper,L1,Top*%
%TF.FilePolarity,Positive*%
%FSLAX46Y46*%
G04 Gerber Fmt 4.6, Leading zero omitted, Abs format (unit mm)*
G04 Created by KiCad (PCBNEW 10.0.5) date 2026-09-01 05:32:08*
%MOMM*%
%LPD*%
G01*
G04 APERTURE LIST*
%TA.AperFunction,Conductor*%
%ADD10C,0.200000*%
%TD*%
%ADD11C,0.200000*%
%ADD12C,0.254000*%
%TA.AperFunction,NonConductor*%
%ADD13C,0.254000*%
%TD*%
%TA.AperFunction,ComponentPad*%
%ADD14R,1.800000X1.800000*%
%TD*%
%TA.AperFunction,ComponentPad*%
%ADD15C,1.800000*%
%TD*%
%TA.AperFunction,ComponentPad*%
%ADD16C,3.800000*%
%TD*%
%TA.AperFunction,ComponentPad*%
%ADD17R,1.700000X1.700000*%
%TD*%
%TA.AperFunction,ComponentPad*%
%ADD18C,1.700000*%
%TD*%
%TA.AperFunction,ComponentPad*%
%ADD19C,2.200000*%
%TD*%
%TA.AperFunction,ComponentPad*%
%ADD20R,2.200000X2.200000*%
%TD*%
%TA.AperFunction,ViaPad*%
%ADD21C,0.450000*%
%TD*%
G04 APERTURE END LIST*
D10*
%TO.N,/CAP_TOUCH_FINGERPRINT*%
X148082000Y-110552464D02*
X146164714Y-110549862D01*
X144523921Y-111588529D01*
X143306863Y-113694410D01*
X143357040Y-116373870D01*
X144493815Y-118362446D01*
X146179767Y-119386060D01*
X147993128Y-119374977D01*
X149833701Y-118033946D01*
X150725818Y-115908783D01*
X150695712Y-113695970D01*
X149881726Y-111887548D01*
X148082000Y-110552464D01*
%TA.AperFunction,Conductor*%
G36*
X148082000Y-110552464D02*
G01*
X149881726Y-111887548D01*
X150695712Y-113695970D01*
X150725818Y-115908783D01*
X149833701Y-118033946D01*
X147993128Y-119374977D01*
X146179767Y-119386060D01*
X144493815Y-118362446D01*
X143357040Y-116373870D01*
X143306863Y-113694410D01*
X144523921Y-111588529D01*
X146164714Y-110549862D01*
X148082000Y-110552464D01*
G37*
%TD.AperFunction*%
%TO.N,/CAP_TOUCH_CHOMPY*%
X155956000Y-97536000D02*
X155702000Y-99314000D01*
X154686000Y-99568000D01*
X154686000Y-100076000D01*
X155194000Y-100838000D01*
X156464000Y-101346000D01*
X157988000Y-101600000D01*
X159004000Y-101600000D01*
X159766000Y-101346000D01*
X160528000Y-100838000D01*
X161036000Y-99822000D01*
X161036000Y-98806000D01*
X162814000Y-96266000D01*
X161290000Y-96266000D01*
X160782000Y-96012000D01*
X159512000Y-96266000D01*
X159004000Y-96012000D01*
X157226000Y-97028000D01*
X155956000Y-97536000D01*
%TA.AperFunction,Conductor*%
G36*
X161290000Y-96266000D02*
G01*
X162814000Y-96266000D01*
X161036000Y-98806000D01*
X161036000Y-99822000D01*
X160528000Y-100838000D01*
X159766000Y-101346000D01*
X159004000Y-101600000D01*
X157988000Y-101600000D01*
X156464000Y-101346000D01*
X155194000Y-100838000D01*
X154686000Y-100076000D01*
X154686000Y-99568000D01*
X155702000Y-99314000D01*
X155956000Y-97536000D01*
X157226000Y-97028000D01*
X159004000Y-96012000D01*
X159512000Y-96266000D01*
X160782000Y-96012000D01*
X161290000Y-96266000D01*
G37*
%TD.AperFunction*%
D11*
X0Y0D02*
X0Y0D01*
D12*
D13*
X160380628Y-82110072D02*
X160477390Y-82158452D01*
X160477390Y-82158452D02*
X160670914Y-82158452D01*
X160670914Y-82158452D02*
X160767676Y-82110072D01*
X160767676Y-82110072D02*
X160816057Y-82013310D01*
X160816057Y-82013310D02*
X160816057Y-81964929D01*
X160816057Y-81964929D02*
X160767676Y-81868167D01*
X160767676Y-81868167D02*
X160670914Y-81819786D01*
X160670914Y-81819786D02*
X160525771Y-81819786D01*
X160525771Y-81819786D02*
X160429009Y-81771405D01*
X160429009Y-81771405D02*
X160380628Y-81674643D01*
X160380628Y-81674643D02*
X160380628Y-81626262D01*
X160380628Y-81626262D02*
X160429009Y-81529500D01*
X160429009Y-81529500D02*
X160525771Y-81481119D01*
X160525771Y-81481119D02*
X160670914Y-81481119D01*
X160670914Y-81481119D02*
X160767676Y-81529500D01*
X161686914Y-81481119D02*
X161686914Y-82158452D01*
X161251485Y-81481119D02*
X161251485Y-82013310D01*
X161251485Y-82013310D02*
X161299866Y-82110072D01*
X161299866Y-82110072D02*
X161396628Y-82158452D01*
X161396628Y-82158452D02*
X161541771Y-82158452D01*
X161541771Y-82158452D02*
X161638533Y-82110072D01*
X161638533Y-82110072D02*
X161686914Y-82061691D01*
X162170723Y-81481119D02*
X162170723Y-82158452D01*
X162170723Y-81577881D02*
X162219104Y-81529500D01*
X162219104Y-81529500D02*
X162315866Y-81481119D01*
X162315866Y-81481119D02*
X162461009Y-81481119D01*
X162461009Y-81481119D02*
X162557771Y-81529500D01*
X162557771Y-81529500D02*
X162606152Y-81626262D01*
X162606152Y-81626262D02*
X162606152Y-82158452D01*
X163380247Y-82545500D02*
X163331866Y-82545500D01*
X163331866Y-82545500D02*
X163235104Y-82497119D01*
X163235104Y-82497119D02*
X163186723Y-82400357D01*
X163186723Y-82400357D02*
X163186723Y-81916548D01*
X163186723Y-81916548D02*
X163138342Y-81819786D01*
X163138342Y-81819786D02*
X163041580Y-81771405D01*
X163041580Y-81771405D02*
X163138342Y-81723024D01*
X163138342Y-81723024D02*
X163186723Y-81626262D01*
X163186723Y-81626262D02*
X163186723Y-81142452D01*
X163186723Y-81142452D02*
X163235104Y-81045691D01*
X163235104Y-81045691D02*
X163331866Y-80997310D01*
X163331866Y-80997310D02*
X163380247Y-80997310D01*
X163767294Y-81481119D02*
X163767294Y-82497119D01*
X163767294Y-81529500D02*
X163864056Y-81481119D01*
X163864056Y-81481119D02*
X164057580Y-81481119D01*
X164057580Y-81481119D02*
X164154342Y-81529500D01*
X164154342Y-81529500D02*
X164202723Y-81577881D01*
X164202723Y-81577881D02*
X164251104Y-81674643D01*
X164251104Y-81674643D02*
X164251104Y-81964929D01*
X164251104Y-81964929D02*
X164202723Y-82061691D01*
X164202723Y-82061691D02*
X164154342Y-82110072D01*
X164154342Y-82110072D02*
X164057580Y-82158452D01*
X164057580Y-82158452D02*
X163864056Y-82158452D01*
X163864056Y-82158452D02*
X163767294Y-82110072D01*
X165121961Y-82110072D02*
X165025199Y-82158452D01*
X165025199Y-82158452D02*
X164831675Y-82158452D01*
X164831675Y-82158452D02*
X164734913Y-82110072D01*
X164734913Y-82110072D02*
X164686532Y-82061691D01*
X164686532Y-82061691D02*
X164638151Y-81964929D01*
X164638151Y-81964929D02*
X164638151Y-81674643D01*
X164638151Y-81674643D02*
X164686532Y-81577881D01*
X164686532Y-81577881D02*
X164734913Y-81529500D01*
X164734913Y-81529500D02*
X164831675Y-81481119D01*
X164831675Y-81481119D02*
X165025199Y-81481119D01*
X165025199Y-81481119D02*
X165121961Y-81529500D01*
X165557389Y-82158452D02*
X165557389Y-81142452D01*
X165557389Y-81529500D02*
X165654151Y-81481119D01*
X165654151Y-81481119D02*
X165847675Y-81481119D01*
X165847675Y-81481119D02*
X165944437Y-81529500D01*
X165944437Y-81529500D02*
X165992818Y-81577881D01*
X165992818Y-81577881D02*
X166041199Y-81674643D01*
X166041199Y-81674643D02*
X166041199Y-81964929D01*
X166041199Y-81964929D02*
X165992818Y-82061691D01*
X165992818Y-82061691D02*
X165944437Y-82110072D01*
X165944437Y-82110072D02*
X165847675Y-82158452D01*
X165847675Y-82158452D02*
X165654151Y-82158452D01*
X165654151Y-82158452D02*
X165557389Y-82110072D01*
X166428246Y-82110072D02*
X166525008Y-82158452D01*
X166525008Y-82158452D02*
X166718532Y-82158452D01*
X166718532Y-82158452D02*
X166815294Y-82110072D01*
X166815294Y-82110072D02*
X166863675Y-82013310D01*
X166863675Y-82013310D02*
X166863675Y-81964929D01*
X166863675Y-81964929D02*
X166815294Y-81868167D01*
X166815294Y-81868167D02*
X166718532Y-81819786D01*
X166718532Y-81819786D02*
X166573389Y-81819786D01*
X166573389Y-81819786D02*
X166476627Y-81771405D01*
X166476627Y-81771405D02*
X166428246Y-81674643D01*
X166428246Y-81674643D02*
X166428246Y-81626262D01*
X166428246Y-81626262D02*
X166476627Y-81529500D01*
X166476627Y-81529500D02*
X166573389Y-81481119D01*
X166573389Y-81481119D02*
X166718532Y-81481119D01*
X166718532Y-81481119D02*
X166815294Y-81529500D01*
X167057199Y-82255214D02*
X167831294Y-82255214D01*
X168508627Y-82158452D02*
X168508627Y-81626262D01*
X168508627Y-81626262D02*
X168460246Y-81529500D01*
X168460246Y-81529500D02*
X168363484Y-81481119D01*
X168363484Y-81481119D02*
X168169960Y-81481119D01*
X168169960Y-81481119D02*
X168073198Y-81529500D01*
X168508627Y-82110072D02*
X168411865Y-82158452D01*
X168411865Y-82158452D02*
X168169960Y-82158452D01*
X168169960Y-82158452D02*
X168073198Y-82110072D01*
X168073198Y-82110072D02*
X168024817Y-82013310D01*
X168024817Y-82013310D02*
X168024817Y-81916548D01*
X168024817Y-81916548D02*
X168073198Y-81819786D01*
X168073198Y-81819786D02*
X168169960Y-81771405D01*
X168169960Y-81771405D02*
X168411865Y-81771405D01*
X168411865Y-81771405D02*
X168508627Y-81723024D01*
X168992436Y-82158452D02*
X168992436Y-81481119D01*
X168992436Y-81674643D02*
X169040817Y-81577881D01*
X169040817Y-81577881D02*
X169089198Y-81529500D01*
X169089198Y-81529500D02*
X169185960Y-81481119D01*
X169185960Y-81481119D02*
X169282722Y-81481119D01*
X170008436Y-82110072D02*
X169911674Y-82158452D01*
X169911674Y-82158452D02*
X169718150Y-82158452D01*
X169718150Y-82158452D02*
X169621388Y-82110072D01*
X169621388Y-82110072D02*
X169573007Y-82013310D01*
X169573007Y-82013310D02*
X169573007Y-81626262D01*
X169573007Y-81626262D02*
X169621388Y-81529500D01*
X169621388Y-81529500D02*
X169718150Y-81481119D01*
X169718150Y-81481119D02*
X169911674Y-81481119D01*
X169911674Y-81481119D02*
X170008436Y-81529500D01*
X170008436Y-81529500D02*
X170056817Y-81626262D01*
X170056817Y-81626262D02*
X170056817Y-81723024D01*
X170056817Y-81723024D02*
X169573007Y-81819786D01*
X170250341Y-82255214D02*
X171024436Y-82255214D01*
X171411483Y-82158452D02*
X171314721Y-82110072D01*
X171314721Y-82110072D02*
X171266340Y-82013310D01*
X171266340Y-82013310D02*
X171266340Y-81142452D01*
X171798530Y-82158452D02*
X171798530Y-81481119D01*
X171798530Y-81142452D02*
X171750149Y-81190833D01*
X171750149Y-81190833D02*
X171798530Y-81239214D01*
X171798530Y-81239214D02*
X171846911Y-81190833D01*
X171846911Y-81190833D02*
X171798530Y-81142452D01*
X171798530Y-81142452D02*
X171798530Y-81239214D01*
X172282340Y-82158452D02*
X172282340Y-81142452D01*
X172379102Y-81771405D02*
X172669388Y-82158452D01*
X172669388Y-81481119D02*
X172282340Y-81868167D01*
X173491864Y-82110072D02*
X173395102Y-82158452D01*
X173395102Y-82158452D02*
X173201578Y-82158452D01*
X173201578Y-82158452D02*
X173104816Y-82110072D01*
X173104816Y-82110072D02*
X173056435Y-82013310D01*
X173056435Y-82013310D02*
X173056435Y-81626262D01*
X173056435Y-81626262D02*
X173104816Y-81529500D01*
X173104816Y-81529500D02*
X173201578Y-81481119D01*
X173201578Y-81481119D02*
X173395102Y-81481119D01*
X173395102Y-81481119D02*
X173491864Y-81529500D01*
X173491864Y-81529500D02*
X173540245Y-81626262D01*
X173540245Y-81626262D02*
X173540245Y-81723024D01*
X173540245Y-81723024D02*
X173056435Y-81819786D01*
X173733769Y-82255214D02*
X174507864Y-82255214D01*
X174894911Y-82158452D02*
X174798149Y-82110072D01*
X174798149Y-82110072D02*
X174749768Y-82061691D01*
X174749768Y-82061691D02*
X174701387Y-81964929D01*
X174701387Y-81964929D02*
X174701387Y-81674643D01*
X174701387Y-81674643D02*
X174749768Y-81577881D01*
X174749768Y-81577881D02*
X174798149Y-81529500D01*
X174798149Y-81529500D02*
X174894911Y-81481119D01*
X174894911Y-81481119D02*
X175040054Y-81481119D01*
X175040054Y-81481119D02*
X175136816Y-81529500D01*
X175136816Y-81529500D02*
X175185197Y-81577881D01*
X175185197Y-81577881D02*
X175233578Y-81674643D01*
X175233578Y-81674643D02*
X175233578Y-81964929D01*
X175233578Y-81964929D02*
X175185197Y-82061691D01*
X175185197Y-82061691D02*
X175136816Y-82110072D01*
X175136816Y-82110072D02*
X175040054Y-82158452D01*
X175040054Y-82158452D02*
X174894911Y-82158452D01*
X176104435Y-81481119D02*
X176104435Y-82303595D01*
X176104435Y-82303595D02*
X176056054Y-82400357D01*
X176056054Y-82400357D02*
X176007673Y-82448738D01*
X176007673Y-82448738D02*
X175910911Y-82497119D01*
X175910911Y-82497119D02*
X175765768Y-82497119D01*
X175765768Y-82497119D02*
X175669006Y-82448738D01*
X176104435Y-82110072D02*
X176007673Y-82158452D01*
X176007673Y-82158452D02*
X175814149Y-82158452D01*
X175814149Y-82158452D02*
X175717387Y-82110072D01*
X175717387Y-82110072D02*
X175669006Y-82061691D01*
X175669006Y-82061691D02*
X175620625Y-81964929D01*
X175620625Y-81964929D02*
X175620625Y-81674643D01*
X175620625Y-81674643D02*
X175669006Y-81577881D01*
X175669006Y-81577881D02*
X175717387Y-81529500D01*
X175717387Y-81529500D02*
X175814149Y-81481119D01*
X175814149Y-81481119D02*
X176007673Y-81481119D01*
X176007673Y-81481119D02*
X176104435Y-81529500D01*
X176588244Y-82158452D02*
X176588244Y-81481119D01*
X176588244Y-81674643D02*
X176636625Y-81577881D01*
X176636625Y-81577881D02*
X176685006Y-81529500D01*
X176685006Y-81529500D02*
X176781768Y-81481119D01*
X176781768Y-81481119D02*
X176878530Y-81481119D01*
X177604244Y-82110072D02*
X177507482Y-82158452D01*
X177507482Y-82158452D02*
X177313958Y-82158452D01*
X177313958Y-82158452D02*
X177217196Y-82110072D01*
X177217196Y-82110072D02*
X177168815Y-82013310D01*
X177168815Y-82013310D02*
X177168815Y-81626262D01*
X177168815Y-81626262D02*
X177217196Y-81529500D01*
X177217196Y-81529500D02*
X177313958Y-81481119D01*
X177313958Y-81481119D02*
X177507482Y-81481119D01*
X177507482Y-81481119D02*
X177604244Y-81529500D01*
X177604244Y-81529500D02*
X177652625Y-81626262D01*
X177652625Y-81626262D02*
X177652625Y-81723024D01*
X177652625Y-81723024D02*
X177168815Y-81819786D01*
X178039672Y-82110072D02*
X178136434Y-82158452D01*
X178136434Y-82158452D02*
X178329958Y-82158452D01*
X178329958Y-82158452D02*
X178426720Y-82110072D01*
X178426720Y-82110072D02*
X178475101Y-82013310D01*
X178475101Y-82013310D02*
X178475101Y-81964929D01*
X178475101Y-81964929D02*
X178426720Y-81868167D01*
X178426720Y-81868167D02*
X178329958Y-81819786D01*
X178329958Y-81819786D02*
X178184815Y-81819786D01*
X178184815Y-81819786D02*
X178088053Y-81771405D01*
X178088053Y-81771405D02*
X178039672Y-81674643D01*
X178039672Y-81674643D02*
X178039672Y-81626262D01*
X178039672Y-81626262D02*
X178088053Y-81529500D01*
X178088053Y-81529500D02*
X178184815Y-81481119D01*
X178184815Y-81481119D02*
X178329958Y-81481119D01*
X178329958Y-81481119D02*
X178426720Y-81529500D01*
X178813767Y-82545500D02*
X178862148Y-82545500D01*
X178862148Y-82545500D02*
X178958910Y-82497119D01*
X178958910Y-82497119D02*
X179007291Y-82400357D01*
X179007291Y-82400357D02*
X179007291Y-81916548D01*
X179007291Y-81916548D02*
X179055672Y-81819786D01*
X179055672Y-81819786D02*
X179152434Y-81771405D01*
X179152434Y-81771405D02*
X179055672Y-81723024D01*
X179055672Y-81723024D02*
X179007291Y-81626262D01*
X179007291Y-81626262D02*
X179007291Y-81142452D01*
X179007291Y-81142452D02*
X178958910Y-81045691D01*
X178958910Y-81045691D02*
X178862148Y-80997310D01*
X178862148Y-80997310D02*
X178813767Y-80997310D01*
%TD*%
D14*
%TO.P,D5,1,K_1*%
%TO.N,~{LED1_EN}*%
X161697851Y-75348991D03*
D15*
%TO.P,D5,2,A_2*%
%TO.N,Net-(D5-A)*%
X161697851Y-72808991D03*
%TD*%
D14*
%TO.P,D7,1,K_1*%
%TO.N,~{LED3_EN}*%
X103500000Y-98000000D03*
D15*
%TO.P,D7,2,A_2*%
%TO.N,Net-(D7-A)*%
X106040000Y-98000000D03*
%TD*%
D16*
%TO.P,REF\u002A\u002A,1*%
%TO.N,N/C*%
X153162000Y-75438000D03*
%TD*%
D14*
%TO.P,D6,1,K_1*%
%TO.N,~{LED2_EN}*%
X108500000Y-89500000D03*
D15*
%TO.P,D6,2,A_2*%
%TO.N,Net-(D6-A)*%
X111040000Y-89500000D03*
%TD*%
D14*
%TO.P,D8,1,K_1*%
%TO.N,~{LED4_EN}*%
X116230000Y-94000000D03*
D15*
%TO.P,D8,2,A_2*%
%TO.N,Net-(D8-A)*%
X118770000Y-94000000D03*
%TD*%
D17*
%TO.P,J1,1,VCC_1*%
%TO.N,+3.3V*%
X171704000Y-75692000D03*
D18*
%TO.P,J1,2,GND_2*%
%TO.N,GND*%
X171704000Y-78232000D03*
%TO.P,J1,3,SDA_3*%
%TO.N,/SAO_SDA*%
X174244000Y-75692000D03*
%TO.P,J1,4,SCL_4*%
%TO.N,/SAO_SCL*%
X174244000Y-78232000D03*
%TO.P,J1,5,GPIO1_5*%
%TO.N,/SAO_GPIO1*%
X176784000Y-75692000D03*
%TO.P,J1,6,GPIO2_6*%
%TO.N,/SAO_GPIO2*%
X176784000Y-78232000D03*
%TD*%
D19*
%TO.P,BT1,1,+_1*%
%TO.N,VBAT*%
X170353000Y-123221626D03*
D20*
%TO.P,BT1,2,-_2*%
%TO.N,Net-(BT1--)*%
X123603000Y-123221626D03*
%TD*%
D21*
%TO.N,GND*%
X107188000Y-118618000D03*
X112385227Y-124972448D03*
X114300000Y-124968000D03*
X122294973Y-79191157D03*
X158750000Y-81026000D03*
%TO.N,/CAP_TOUCH_CHOMPY*%
X159004000Y-101346000D03*
%TO.N,/CAP_TOUCH_FINGERPRINT*%
X144183631Y-116355947D03*
%TD*%
%TA.AperFunction,NonConductor*%
G36*
X171786728Y-76764913D02*
G01*
X171823273Y-76815213D01*
X171827792Y-76837282D01*
X171834408Y-76910790D01*
X171853617Y-76969911D01*
X171853619Y-76969917D01*
X171853622Y-76969923D01*
X171868327Y-77004328D01*
X171874604Y-77011513D01*
X171899039Y-77068684D01*
X171885203Y-77129299D01*
X171838381Y-77170205D01*
X171798844Y-77178300D01*
X171606962Y-77178300D01*
X171547831Y-77159087D01*
X171511286Y-77108787D01*
X171511286Y-77046613D01*
X171525574Y-77018570D01*
X171539024Y-77000058D01*
X171558214Y-76967939D01*
X171578882Y-76877387D01*
X171578882Y-76846300D01*
X171598095Y-76787169D01*
X171648395Y-76750624D01*
X171679482Y-76745700D01*
X171727597Y-76745700D01*
X171786728Y-76764913D01*
G37*
%TD.AperFunction*%
%TA.AperFunction,Conductor*%
%TO.N,GND*%
G36*
X130220556Y-66889391D02*
G01*
X130221751Y-66889400D01*
X130547068Y-66893890D01*
X130552451Y-66894110D01*
X130796435Y-66910661D01*
X130808076Y-66912137D01*
X130989704Y-66946051D01*
X131007996Y-66951298D01*
X131150587Y-67007284D01*
X131169390Y-67017066D01*
X131300551Y-67103995D01*
X131312564Y-67113340D01*
X131456350Y-67243838D01*
X131460900Y-67248237D01*
X131559655Y-67349936D01*
X131563996Y-67354703D01*
X131733637Y-67553425D01*
X131743031Y-67566393D01*
X131854827Y-67749861D01*
X131862221Y-67764590D01*
X131934538Y-67943946D01*
X131937233Y-67951480D01*
X131989031Y-68116759D01*
X131990326Y-68121254D01*
X132025237Y-68253981D01*
X132025238Y-68253986D01*
X132027559Y-68262807D01*
X132040931Y-68343986D01*
X132040906Y-68344074D01*
X132040963Y-68344180D01*
X132040984Y-68344303D01*
X132041060Y-68344357D01*
X132079194Y-68414432D01*
X132079254Y-68414595D01*
X132079292Y-68414613D01*
X132079313Y-68414650D01*
X132079474Y-68414697D01*
X132083653Y-68416642D01*
X132083755Y-68416925D01*
X132086393Y-68417917D01*
X132190456Y-68466353D01*
X132197451Y-68470629D01*
X132205047Y-68473467D01*
X132213135Y-68474759D01*
X132246036Y-68484219D01*
X132246987Y-68484498D01*
X132953477Y-68695761D01*
X132953892Y-68695885D01*
X132958926Y-68697536D01*
X133696257Y-68961062D01*
X133700705Y-68962772D01*
X134207683Y-69171749D01*
X134433285Y-69264742D01*
X134437894Y-69266778D01*
X135045694Y-69553728D01*
X135128156Y-69592659D01*
X135133163Y-69595195D01*
X135514682Y-69802099D01*
X135723138Y-69915149D01*
X135728976Y-69918575D01*
X136229642Y-70235423D01*
X136236034Y-70239822D01*
X136638072Y-70540040D01*
X136700102Y-70586360D01*
X136705911Y-70591044D01*
X137164434Y-70989650D01*
X137167810Y-70992721D01*
X137386893Y-71201357D01*
X137388256Y-71202680D01*
X137683731Y-71494900D01*
X137685317Y-71496505D01*
X137920544Y-71739817D01*
X137923220Y-71742695D01*
X137956711Y-71780161D01*
X138082152Y-71920491D01*
X138110661Y-71952383D01*
X138114357Y-71956763D01*
X138201754Y-72066545D01*
X138267179Y-72148727D01*
X138271244Y-72154204D01*
X138376872Y-72307105D01*
X138403131Y-72345115D01*
X138406557Y-72350425D01*
X138471418Y-72458232D01*
X138531177Y-72557558D01*
X138533206Y-72561090D01*
X138632618Y-72742573D01*
X138633206Y-72743662D01*
X138855157Y-73160951D01*
X138857493Y-73165904D01*
X138857705Y-73166095D01*
X138857905Y-73166166D01*
X138863417Y-73165899D01*
X149274129Y-73165899D01*
X149274185Y-73165892D01*
X150227337Y-73165765D01*
X150227337Y-73165764D01*
X150268866Y-73165759D01*
X150268985Y-73165747D01*
X151196909Y-73165369D01*
X151196909Y-73165368D01*
X151238419Y-73165352D01*
X151238545Y-73165339D01*
X152136788Y-73164725D01*
X152136788Y-73164724D01*
X152178289Y-73164696D01*
X152178414Y-73164683D01*
X152781970Y-73164098D01*
X152841119Y-73183254D01*
X152877713Y-73233518D01*
X152877773Y-73295692D01*
X152841277Y-73346028D01*
X152795200Y-73364437D01*
X152766219Y-73368252D01*
X152750708Y-73370295D01*
X152750705Y-73370295D01*
X152484336Y-73441668D01*
X152484334Y-73441669D01*
X152229558Y-73547200D01*
X151990737Y-73685085D01*
X151771954Y-73852964D01*
X151576964Y-74047954D01*
X151409085Y-74266737D01*
X151271200Y-74505558D01*
X151165669Y-74760334D01*
X151165668Y-74760336D01*
X151094295Y-75026705D01*
X151094294Y-75026713D01*
X151058300Y-75300114D01*
X151058300Y-75575885D01*
X151094294Y-75849286D01*
X151094295Y-75849294D01*
X151165668Y-76115663D01*
X151165669Y-76115665D01*
X151271200Y-76370441D01*
X151318688Y-76452691D01*
X151409084Y-76609261D01*
X151576961Y-76828042D01*
X151771958Y-77023039D01*
X151990739Y-77190916D01*
X152118720Y-77264806D01*
X152229558Y-77328799D01*
X152484334Y-77434330D01*
X152484336Y-77434331D01*
X152618508Y-77470282D01*
X152750708Y-77505705D01*
X152967733Y-77534277D01*
X153024115Y-77541700D01*
X153024116Y-77541700D01*
X153299885Y-77541700D01*
X153356267Y-77534277D01*
X153573292Y-77505705D01*
X153839663Y-77434331D01*
X154094439Y-77328800D01*
X154333261Y-77190916D01*
X154552042Y-77023039D01*
X154747039Y-76828042D01*
X154914916Y-76609261D01*
X155052800Y-76370439D01*
X155158331Y-76115663D01*
X155229705Y-75849292D01*
X155265700Y-75575884D01*
X155265700Y-75300116D01*
X155265508Y-75298660D01*
X155251582Y-75192881D01*
X155229705Y-75026708D01*
X155186554Y-74865667D01*
X155158331Y-74760336D01*
X155158330Y-74760334D01*
X155052799Y-74505558D01*
X155034743Y-74474285D01*
X155008556Y-74428927D01*
X160594151Y-74428927D01*
X160594151Y-76269055D01*
X160596501Y-76280873D01*
X160605969Y-76328470D01*
X160605970Y-76328471D01*
X160650991Y-76395851D01*
X160718371Y-76440872D01*
X160777787Y-76452691D01*
X160777788Y-76452691D01*
X162617914Y-76452691D01*
X162617915Y-76452691D01*
X162677331Y-76440872D01*
X162744711Y-76395851D01*
X162789732Y-76328471D01*
X162801551Y-76269055D01*
X162801551Y-74428927D01*
X162789732Y-74369511D01*
X162744711Y-74302131D01*
X162677331Y-74257110D01*
X162677330Y-74257109D01*
X162627356Y-74247169D01*
X162617915Y-74245291D01*
X160777787Y-74245291D01*
X160768346Y-74247169D01*
X160718371Y-74257109D01*
X160650991Y-74302131D01*
X160605969Y-74369511D01*
X160599730Y-74400879D01*
X160594151Y-74428927D01*
X155008556Y-74428927D01*
X154982323Y-74383491D01*
X154914916Y-74266739D01*
X154747039Y-74047958D01*
X154552042Y-73852961D01*
X154333261Y-73685084D01*
X154269270Y-73648138D01*
X154094441Y-73547200D01*
X153839665Y-73441669D01*
X153839663Y-73441668D01*
X153573292Y-73370295D01*
X153522116Y-73363557D01*
X153465999Y-73336789D01*
X153436333Y-73282149D01*
X153444450Y-73220507D01*
X153487248Y-73175408D01*
X153535117Y-73163218D01*
X153909652Y-73162743D01*
X153909652Y-73162742D01*
X153951108Y-73162690D01*
X153951258Y-73162675D01*
X154733727Y-73161429D01*
X154733727Y-73161428D01*
X154775159Y-73161363D01*
X154775328Y-73161347D01*
X155510293Y-73159917D01*
X155510293Y-73159916D01*
X155551686Y-73159836D01*
X155551875Y-73159818D01*
X156214740Y-73158265D01*
X156215958Y-73158501D01*
X156233752Y-73158231D01*
X156235280Y-73158219D01*
X156274964Y-73158219D01*
X156276389Y-73158101D01*
X156882594Y-73156404D01*
X156882657Y-73156416D01*
X156936711Y-73156235D01*
X157489894Y-73154383D01*
X157489966Y-73154397D01*
X157509976Y-73154316D01*
X157509977Y-73154317D01*
X158031882Y-73152215D01*
X158032007Y-73152241D01*
X158052154Y-73152135D01*
X158052683Y-73152134D01*
X158091282Y-73152134D01*
X158093757Y-73151930D01*
X158524583Y-73149817D01*
X158524583Y-73149816D01*
X158565431Y-73149616D01*
X158566024Y-73149562D01*
X158902123Y-73147502D01*
X158902696Y-73147613D01*
X158921806Y-73147385D01*
X158923009Y-73147378D01*
X158959788Y-73147378D01*
X158963742Y-73147047D01*
X159221353Y-73144989D01*
X159221916Y-73145097D01*
X159241221Y-73144832D01*
X159242084Y-73144824D01*
X159279921Y-73144628D01*
X159282994Y-73144363D01*
X159457509Y-73142405D01*
X159458433Y-73142578D01*
X159477124Y-73142191D01*
X159478287Y-73142173D01*
X159504903Y-73141928D01*
X159505802Y-73141661D01*
X159608219Y-73139775D01*
X159611076Y-73140230D01*
X159624547Y-73139534D01*
X159628109Y-73139413D01*
X159644766Y-73139143D01*
X159645705Y-73138478D01*
X159682783Y-73136636D01*
X159682950Y-73136654D01*
X159682984Y-73136626D01*
X159683030Y-73136624D01*
X159683145Y-73136496D01*
X159749696Y-73082912D01*
X159749837Y-73082841D01*
X159749854Y-73082785D01*
X159749899Y-73082750D01*
X159749915Y-73082597D01*
X159757262Y-73059723D01*
X159758025Y-73059186D01*
X159758947Y-73055383D01*
X159761005Y-73048097D01*
X159763248Y-73041164D01*
X159763672Y-73035992D01*
X159787768Y-72937260D01*
X159794543Y-72918135D01*
X159869329Y-72759915D01*
X159874017Y-72751150D01*
X159987220Y-72562584D01*
X159991419Y-72556161D01*
X160126469Y-72365898D01*
X160131652Y-72359213D01*
X160273737Y-72191169D01*
X160278773Y-72185646D01*
X160319937Y-72143774D01*
X160323425Y-72140396D01*
X160503236Y-71974615D01*
X160511103Y-71968072D01*
X160665823Y-71852206D01*
X160680729Y-71842958D01*
X160831716Y-71766665D01*
X160850372Y-71759467D01*
X160983919Y-71722705D01*
X161046029Y-71725535D01*
X161094613Y-71764332D01*
X161111115Y-71824276D01*
X161089230Y-71882472D01*
X161069751Y-71901084D01*
X160978838Y-71967136D01*
X160855994Y-72089980D01*
X160753882Y-72230525D01*
X160675011Y-72385316D01*
X160621330Y-72550531D01*
X160621327Y-72550545D01*
X160594151Y-72722123D01*
X160594151Y-72895858D01*
X160621327Y-73067436D01*
X160621330Y-73067450D01*
X160675011Y-73232665D01*
X160753882Y-73387456D01*
X160855994Y-73528001D01*
X160978840Y-73650847D01*
X161119385Y-73752959D01*
X161119384Y-73752959D01*
X161274176Y-73831830D01*
X161439391Y-73885511D01*
X161439393Y-73885511D01*
X161439401Y-73885514D01*
X161610983Y-73912690D01*
X161610985Y-73912691D01*
X161610988Y-73912691D01*
X161784717Y-73912691D01*
X161784717Y-73912690D01*
X161956301Y-73885514D01*
X162121525Y-73831830D01*
X162276316Y-73752960D01*
X162416863Y-73650846D01*
X162539706Y-73528003D01*
X162641820Y-73387456D01*
X162720690Y-73232665D01*
X162774374Y-73067441D01*
X162801551Y-72895854D01*
X162801551Y-72722128D01*
X162801551Y-72722124D01*
X162801550Y-72722123D01*
X162798414Y-72702324D01*
X162774374Y-72550541D01*
X162774371Y-72550531D01*
X162720690Y-72385316D01*
X162641819Y-72230525D01*
X162641212Y-72229690D01*
X162590763Y-72160252D01*
X162539707Y-72089980D01*
X162416861Y-71967134D01*
X162314322Y-71892635D01*
X162277777Y-71842335D01*
X162277777Y-71780161D01*
X162314322Y-71729861D01*
X162373453Y-71710648D01*
X162393388Y-71712643D01*
X162507433Y-71735699D01*
X162525399Y-71741117D01*
X162682230Y-71804905D01*
X162699461Y-71813947D01*
X162849763Y-71912451D01*
X162860415Y-71920491D01*
X162899216Y-71954043D01*
X162971903Y-72016897D01*
X163028433Y-72065779D01*
X163032145Y-72069154D01*
X163105717Y-72139481D01*
X163110840Y-72144750D01*
X163188157Y-72230302D01*
X163254368Y-72303564D01*
X163260418Y-72310933D01*
X163298203Y-72361677D01*
X163400186Y-72498638D01*
X163404650Y-72505150D01*
X163473182Y-72614094D01*
X163526437Y-72698750D01*
X163530958Y-72706724D01*
X163549736Y-72743662D01*
X163618473Y-72878882D01*
X163624585Y-72893733D01*
X163635310Y-72927159D01*
X163667853Y-73028578D01*
X163670169Y-73056594D01*
X163670162Y-73056605D01*
X163670187Y-73056811D01*
X163670203Y-73056996D01*
X163670211Y-73057003D01*
X163678240Y-73121384D01*
X163678219Y-73121515D01*
X163678265Y-73121579D01*
X163678275Y-73121659D01*
X163678382Y-73121742D01*
X163678460Y-73121851D01*
X163678537Y-73121863D01*
X163678602Y-73121914D01*
X163678738Y-73121897D01*
X163731291Y-73130594D01*
X163731322Y-73130626D01*
X163731493Y-73130627D01*
X163731657Y-73130655D01*
X163731691Y-73130630D01*
X163852421Y-73131944D01*
X163852841Y-73132031D01*
X163872038Y-73132158D01*
X163872039Y-73132159D01*
X163872155Y-73132159D01*
X163872297Y-73132161D01*
X163872451Y-73132163D01*
X163872451Y-73132162D01*
X163872565Y-73132164D01*
X163912340Y-73132619D01*
X163914227Y-73132481D01*
X164080516Y-73133753D01*
X164081261Y-73133904D01*
X164099725Y-73133904D01*
X164100741Y-73133909D01*
X164140372Y-73134309D01*
X164142272Y-73134165D01*
X164391162Y-73135715D01*
X164391244Y-73135732D01*
X164410988Y-73135839D01*
X164410989Y-73135840D01*
X164780162Y-73137841D01*
X164780220Y-73137853D01*
X164800018Y-73137949D01*
X164800019Y-73137950D01*
X165242858Y-73140116D01*
X165243343Y-73140214D01*
X165262445Y-73140214D01*
X165263029Y-73140216D01*
X165304155Y-73140454D01*
X165304787Y-73140403D01*
X165794589Y-73142616D01*
X165794589Y-73142615D01*
X165836235Y-73142804D01*
X165836368Y-73142791D01*
X166390513Y-73145134D01*
X166390513Y-73145133D01*
X166432178Y-73145310D01*
X166432286Y-73145299D01*
X167046196Y-73147751D01*
X167046196Y-73147750D01*
X167087880Y-73147917D01*
X167087967Y-73147908D01*
X167757037Y-73150447D01*
X167757037Y-73150446D01*
X167798728Y-73150605D01*
X167798806Y-73150597D01*
X168518434Y-73153205D01*
X168518434Y-73153204D01*
X168560121Y-73153356D01*
X168560193Y-73153348D01*
X169325785Y-73156006D01*
X169325785Y-73156005D01*
X169367463Y-73156150D01*
X169367549Y-73156144D01*
X170174489Y-73158830D01*
X170174489Y-73158829D01*
X170216191Y-73158968D01*
X170216245Y-73158962D01*
X171059941Y-73161660D01*
X171059941Y-73161659D01*
X171101641Y-73161793D01*
X171101695Y-73161787D01*
X171977539Y-73164476D01*
X171977539Y-73164475D01*
X172019243Y-73164603D01*
X172019290Y-73164598D01*
X172922683Y-73167260D01*
X172922683Y-73167259D01*
X172964398Y-73167382D01*
X172964429Y-73167378D01*
X173256288Y-73168215D01*
X173256288Y-73168214D01*
X174415118Y-73171540D01*
X174415118Y-73171539D01*
X175481503Y-73174714D01*
X175481503Y-73174713D01*
X176459574Y-73177821D01*
X176459574Y-73177820D01*
X176460860Y-73177824D01*
X177353467Y-73180946D01*
X177353467Y-73180945D01*
X177354631Y-73180949D01*
X178167314Y-73184174D01*
X178167314Y-73184173D01*
X178168306Y-73184177D01*
X178904918Y-73187587D01*
X178904917Y-73187601D01*
X178905004Y-73187587D01*
X179570982Y-73191272D01*
X179570983Y-73191273D01*
X180169606Y-73195316D01*
X180169606Y-73195342D01*
X180169767Y-73195317D01*
X180704714Y-73199800D01*
X181180013Y-73204806D01*
X181180294Y-73204900D01*
X181180296Y-73204809D01*
X181600809Y-73210431D01*
X181969843Y-73216741D01*
X182292011Y-73223833D01*
X182292091Y-73223835D01*
X182571292Y-73231787D01*
X182571823Y-73231804D01*
X182811681Y-73240679D01*
X182812734Y-73240724D01*
X183017577Y-73250604D01*
X183018942Y-73250679D01*
X183192971Y-73261635D01*
X183194858Y-73261772D01*
X183342038Y-73273854D01*
X183344425Y-73274080D01*
X183468923Y-73287345D01*
X183471816Y-73287698D01*
X183577687Y-73302177D01*
X183581082Y-73302701D01*
X183672775Y-73318479D01*
X183676339Y-73319160D01*
X183758262Y-73336353D01*
X183761536Y-73337097D01*
X183838435Y-73355949D01*
X183840819Y-73356566D01*
X183914207Y-73376512D01*
X183917290Y-73377350D01*
X183918173Y-73377594D01*
X183949339Y-73386424D01*
X183954482Y-73388032D01*
X184339885Y-73520085D01*
X184348264Y-73523384D01*
X184655880Y-73660749D01*
X184731397Y-73694471D01*
X184739086Y-73698307D01*
X185093193Y-73894255D01*
X185101786Y-73899591D01*
X185399253Y-74105742D01*
X185407000Y-74111688D01*
X185464604Y-74160532D01*
X185506675Y-74196206D01*
X185509145Y-74198371D01*
X185685789Y-74358355D01*
X185686370Y-74358985D01*
X185692214Y-74364180D01*
X185693054Y-74364935D01*
X185715043Y-74384925D01*
X185715764Y-74385259D01*
X185880335Y-74532573D01*
X185880669Y-74532934D01*
X185887328Y-74538834D01*
X185887329Y-74538835D01*
X185887487Y-74538975D01*
X185887636Y-74539108D01*
X185887636Y-74539107D01*
X185887673Y-74539140D01*
X185915102Y-74563624D01*
X185917394Y-74565404D01*
X186045440Y-74678564D01*
X186045879Y-74679068D01*
X186055202Y-74687195D01*
X186055778Y-74687701D01*
X186083024Y-74711820D01*
X186087604Y-74716138D01*
X186228309Y-74857381D01*
X186236242Y-74866355D01*
X186241865Y-74873538D01*
X186356641Y-75020157D01*
X186364482Y-75031753D01*
X186423761Y-75134115D01*
X186426722Y-75139617D01*
X186453295Y-75192881D01*
X186503877Y-75294269D01*
X186505258Y-75298660D01*
X186509597Y-75306159D01*
X186512500Y-75311548D01*
X186517087Y-75320721D01*
X186520136Y-75324343D01*
X186599824Y-75461796D01*
X186601270Y-75465663D01*
X186607064Y-75474551D01*
X186609759Y-75478926D01*
X186615206Y-75488296D01*
X186618028Y-75491333D01*
X186630161Y-75509898D01*
X186633610Y-75515577D01*
X186711409Y-75653804D01*
X186717369Y-75666349D01*
X186771380Y-75803772D01*
X186773546Y-75809847D01*
X186822548Y-75962634D01*
X186823825Y-75969420D01*
X186828469Y-75981114D01*
X186832212Y-75986899D01*
X186892280Y-76112857D01*
X186892607Y-76114011D01*
X186899503Y-76128020D01*
X186900044Y-76129135D01*
X186907907Y-76145617D01*
X186908636Y-76146572D01*
X186962732Y-76256454D01*
X186968524Y-76270967D01*
X187012370Y-76411714D01*
X187015130Y-76422727D01*
X187050803Y-76609141D01*
X187051945Y-76616625D01*
X187079770Y-76860071D01*
X187080197Y-76864779D01*
X187101040Y-77176304D01*
X187101189Y-77179142D01*
X187116258Y-77569741D01*
X187116302Y-77571142D01*
X187123264Y-77853771D01*
X187123273Y-77854155D01*
X187143741Y-78837764D01*
X187143036Y-78846771D01*
X187143203Y-78848143D01*
X187143637Y-78848924D01*
X187143817Y-78849065D01*
X187145102Y-78849426D01*
X187154728Y-78850180D01*
X187460628Y-78906544D01*
X187465413Y-78907548D01*
X187899904Y-79009941D01*
X187907315Y-79011990D01*
X188376351Y-79161169D01*
X188382596Y-79163385D01*
X188848204Y-79346184D01*
X188854097Y-79348719D01*
X189140870Y-79483094D01*
X189188836Y-79505570D01*
X189193526Y-79507918D01*
X189403229Y-79619862D01*
X189408714Y-79623016D01*
X189582811Y-79730535D01*
X189589885Y-79735331D01*
X189753718Y-79856887D01*
X189759568Y-79861575D01*
X189939443Y-80017081D01*
X189942770Y-80020089D01*
X190163493Y-80228808D01*
X190164452Y-80229728D01*
X190188931Y-80253496D01*
X190191481Y-80256062D01*
X190513165Y-80591702D01*
X190519578Y-80599080D01*
X190765046Y-80910859D01*
X190772444Y-80921627D01*
X190957740Y-81232859D01*
X190964078Y-81245430D01*
X191104666Y-81580808D01*
X191108319Y-81591039D01*
X191194914Y-81882386D01*
X191197452Y-81893007D01*
X191236746Y-82108578D01*
X191237857Y-82116404D01*
X191267643Y-82408247D01*
X191268003Y-82412796D01*
X191287434Y-82757306D01*
X191287567Y-82760650D01*
X191296173Y-83133499D01*
X191296198Y-83136479D01*
X191293725Y-83514192D01*
X191293654Y-83517378D01*
X191279918Y-83876539D01*
X191279678Y-83880624D01*
X191254638Y-84197311D01*
X191253950Y-84203535D01*
X191219931Y-84442929D01*
X191217879Y-84453369D01*
X191056954Y-85091648D01*
X191053992Y-85101320D01*
X190808426Y-85779166D01*
X190805228Y-85786957D01*
X190476477Y-86501307D01*
X190473278Y-86507658D01*
X190063146Y-87254827D01*
X190060050Y-87260082D01*
X189570435Y-88036461D01*
X189567482Y-88040880D01*
X189000324Y-88842947D01*
X188997518Y-88846725D01*
X188354804Y-89670985D01*
X188352135Y-89674264D01*
X187635294Y-90517935D01*
X187633875Y-90519568D01*
X187556184Y-90607117D01*
X187556053Y-90607265D01*
X187140602Y-91073581D01*
X187138571Y-91075739D01*
X187138663Y-91078885D01*
X187138663Y-98683585D01*
X187138859Y-99760877D01*
X187139463Y-100744429D01*
X187140494Y-101637492D01*
X187141971Y-102441661D01*
X187141971Y-102441662D01*
X187143634Y-103056655D01*
X187143916Y-103161018D01*
X187143915Y-103161018D01*
X187145567Y-103593188D01*
X187146350Y-103797984D01*
X187146350Y-103797985D01*
X187149293Y-104355811D01*
X187149294Y-104355909D01*
X187149293Y-104355909D01*
X187152675Y-104824261D01*
X187152645Y-104824529D01*
X187156772Y-105242407D01*
X187156772Y-105242549D01*
X187156777Y-105242914D01*
X187156777Y-105242915D01*
X187156780Y-105243160D01*
X187156782Y-105243327D01*
X187158687Y-105382721D01*
X187161200Y-105566696D01*
X187161172Y-105566959D01*
X187161363Y-105578693D01*
X187161363Y-105578694D01*
X187161366Y-105578903D01*
X187161369Y-105579041D01*
X187161369Y-105579051D01*
X187166244Y-105831067D01*
X187166147Y-105831806D01*
X187166537Y-105846293D01*
X187166550Y-105846840D01*
X187166939Y-105865051D01*
X187167093Y-105865751D01*
X187171846Y-106031860D01*
X187171631Y-106033440D01*
X187172289Y-106047836D01*
X187172352Y-106049525D01*
X187172817Y-106065677D01*
X187173179Y-106067247D01*
X187177329Y-106157615D01*
X187177329Y-106157617D01*
X187178733Y-106188174D01*
X187178726Y-106188184D01*
X187178742Y-106188372D01*
X187178752Y-106188576D01*
X187178761Y-106188584D01*
X187185792Y-106268198D01*
X187185775Y-106268224D01*
X187185810Y-106268399D01*
X187185826Y-106268580D01*
X187185850Y-106268600D01*
X187185856Y-106268630D01*
X187186005Y-106268730D01*
X187186144Y-106268846D01*
X187186174Y-106268843D01*
X187251379Y-106312531D01*
X187251398Y-106312579D01*
X187251550Y-106312646D01*
X187251682Y-106312734D01*
X187251729Y-106312724D01*
X187381125Y-106369557D01*
X187382851Y-106370336D01*
X187569669Y-106457069D01*
X187570649Y-106457532D01*
X187801308Y-106567864D01*
X187801984Y-106568190D01*
X188062412Y-106695598D01*
X188062606Y-106695694D01*
X188371969Y-106849603D01*
X188373336Y-106850283D01*
X188374634Y-106850940D01*
X188595198Y-106964714D01*
X188598439Y-106966463D01*
X188767782Y-107062005D01*
X188773417Y-107065435D01*
X188910739Y-107155350D01*
X188917391Y-107160104D01*
X189043488Y-107258207D01*
X189048682Y-107262535D01*
X189184103Y-107383337D01*
X189186769Y-107385803D01*
X189227176Y-107424564D01*
X189350466Y-107542832D01*
X189351176Y-107543520D01*
X189444867Y-107635180D01*
X189445059Y-107635369D01*
X189615965Y-107803743D01*
X189646325Y-107833653D01*
X189648218Y-107835569D01*
X189792303Y-107985330D01*
X189797434Y-107991090D01*
X189898041Y-108113140D01*
X189905656Y-108123702D01*
X189979443Y-108241429D01*
X189985733Y-108253112D01*
X190049712Y-108393401D01*
X190052762Y-108400868D01*
X190121010Y-108589192D01*
X190121923Y-108591826D01*
X190202883Y-108836164D01*
X190204024Y-108839842D01*
X190212844Y-108870357D01*
X190214609Y-108877414D01*
X190222638Y-108915265D01*
X190223737Y-108921362D01*
X190231460Y-108973364D01*
X190232029Y-108977909D01*
X190239248Y-109048513D01*
X190239522Y-109051688D01*
X190246084Y-109144986D01*
X190246214Y-109147169D01*
X190252030Y-109267038D01*
X190252092Y-109268543D01*
X190257143Y-109419241D01*
X190257172Y-109420289D01*
X190261448Y-109605534D01*
X190261463Y-109606277D01*
X190264986Y-109830742D01*
X190264993Y-109831274D01*
X190267085Y-110032284D01*
X190267780Y-110099041D01*
X190269130Y-110304529D01*
X190269851Y-110414226D01*
X190269852Y-110414508D01*
X190271232Y-110780917D01*
X190271233Y-110781127D01*
X190271948Y-111204078D01*
X190271948Y-111204232D01*
X190272023Y-111686696D01*
X190272023Y-111686811D01*
X190271482Y-112234170D01*
X190271482Y-112234255D01*
X190270352Y-112850584D01*
X190270352Y-112850648D01*
X190268653Y-113540548D01*
X190268653Y-113540593D01*
X190266418Y-114307566D01*
X190266417Y-114307599D01*
X190263667Y-115156263D01*
X190263667Y-115156286D01*
X190260428Y-116091045D01*
X190260428Y-116091059D01*
X190256725Y-117116181D01*
X190256725Y-117116188D01*
X190254937Y-117602083D01*
X190254937Y-117602085D01*
X190223537Y-126095648D01*
X190216812Y-126131443D01*
X190056871Y-126546585D01*
X190055173Y-126550716D01*
X189928079Y-126841423D01*
X189922200Y-126852828D01*
X189784667Y-127082380D01*
X189777161Y-127093226D01*
X189644134Y-127260795D01*
X189635844Y-127270009D01*
X189238723Y-127660149D01*
X189229134Y-127668449D01*
X188747525Y-128034856D01*
X188738715Y-128040850D01*
X188181098Y-128378454D01*
X188172939Y-128382892D01*
X187549152Y-128685793D01*
X187541439Y-128689147D01*
X186861112Y-128951786D01*
X186854004Y-128954230D01*
X186198835Y-129152372D01*
X186195926Y-129153204D01*
X185953426Y-129218651D01*
X185953176Y-129218702D01*
X185947199Y-129220332D01*
X185947079Y-129220365D01*
X185947078Y-129220365D01*
X185946946Y-129220401D01*
X185946682Y-129220473D01*
X185946681Y-129220473D01*
X185934770Y-129223722D01*
X185934291Y-129223924D01*
X185723537Y-129282602D01*
X185722988Y-129282651D01*
X185705450Y-129287638D01*
X185705306Y-129287679D01*
X185693597Y-129290988D01*
X185693122Y-129291193D01*
X185520321Y-129341020D01*
X185519016Y-129341148D01*
X185502733Y-129346084D01*
X185501726Y-129346383D01*
X185486825Y-129350729D01*
X185485715Y-129351286D01*
X185377463Y-129384380D01*
X185375497Y-129384959D01*
X185212561Y-129431162D01*
X185208866Y-129432134D01*
X184993686Y-129484412D01*
X184990990Y-129485028D01*
X184764678Y-129533463D01*
X184762833Y-129533840D01*
X184724627Y-129541272D01*
X184724514Y-129541294D01*
X184506928Y-129583361D01*
X184506691Y-129583395D01*
X184502771Y-129584163D01*
X184502772Y-129584164D01*
X184502625Y-129584193D01*
X184502528Y-129584212D01*
X184502314Y-129584254D01*
X184502296Y-129584257D01*
X184230223Y-129637601D01*
X184230056Y-129637625D01*
X184225907Y-129638447D01*
X184225854Y-129638457D01*
X184225596Y-129638508D01*
X184225543Y-129638518D01*
X184225311Y-129638564D01*
X184225240Y-129638578D01*
X183934444Y-129696166D01*
X183934355Y-129696183D01*
X183734972Y-129736041D01*
X183734390Y-129736156D01*
X183313105Y-129817791D01*
X183311387Y-129818108D01*
X182915967Y-129887629D01*
X182913889Y-129887972D01*
X182522838Y-129948317D01*
X182520707Y-129948623D01*
X182112799Y-130002658D01*
X182110921Y-130002889D01*
X181664956Y-130053450D01*
X181663513Y-130053603D01*
X181158386Y-130103503D01*
X181157480Y-130103588D01*
X180692808Y-130145251D01*
X180692244Y-130145300D01*
X180315125Y-130176974D01*
X180314481Y-130177026D01*
X179948894Y-130205370D01*
X179948110Y-130205428D01*
X179587425Y-130230559D01*
X179586537Y-130230617D01*
X179223735Y-130252672D01*
X179222792Y-130252725D01*
X178851551Y-130271795D01*
X178850605Y-130271839D01*
X178464187Y-130288042D01*
X178463284Y-130288075D01*
X178055052Y-130301521D01*
X178054227Y-130301545D01*
X177617487Y-130312345D01*
X177616761Y-130312361D01*
X177144634Y-130320627D01*
X177144015Y-130320636D01*
X176629954Y-130326471D01*
X176629440Y-130326475D01*
X176067312Y-130329983D01*
X176066895Y-130329985D01*
X175449616Y-130331279D01*
X175449285Y-130331279D01*
X174770322Y-130330472D01*
X174770322Y-130330471D01*
X174770063Y-130330471D01*
X174022902Y-130327664D01*
X174022706Y-130327663D01*
X173200824Y-130322973D01*
X173200678Y-130322972D01*
X172297126Y-130316503D01*
X172297074Y-130316486D01*
X172297022Y-130316503D01*
X171304822Y-130308364D01*
X171304821Y-130308364D01*
X171304400Y-130308360D01*
X171304383Y-130308360D01*
X171010353Y-130305801D01*
X171010333Y-130305801D01*
X170794726Y-130303880D01*
X170794720Y-130303878D01*
X170794714Y-130303880D01*
X170490470Y-130301132D01*
X170490467Y-130301131D01*
X170490465Y-130301132D01*
X170105747Y-130297632D01*
X170105745Y-130297631D01*
X170105744Y-130297632D01*
X169648607Y-130293454D01*
X169648606Y-130293453D01*
X169648605Y-130293454D01*
X169127101Y-130288673D01*
X169127100Y-130288672D01*
X169127099Y-130288673D01*
X168549279Y-130283362D01*
X168549278Y-130283361D01*
X168549278Y-130283362D01*
X167923194Y-130277595D01*
X167923193Y-130277595D01*
X167256896Y-130271447D01*
X167256895Y-130271446D01*
X167256895Y-130271447D01*
X166558439Y-130264992D01*
X166558438Y-130264992D01*
X165835872Y-130258304D01*
X165835871Y-130258303D01*
X165835871Y-130258304D01*
X165097249Y-130251456D01*
X165097248Y-130251456D01*
X164350620Y-130244524D01*
X164350619Y-130244524D01*
X164350618Y-130244523D01*
X164323917Y-130244275D01*
X164322421Y-130244262D01*
X164322420Y-130244262D01*
X164322414Y-130244261D01*
X163542714Y-130237052D01*
X163466397Y-130236347D01*
X163466396Y-130236347D01*
X163466386Y-130236346D01*
X162600677Y-130228409D01*
X162530780Y-130227769D01*
X162530779Y-130227769D01*
X162530771Y-130227768D01*
X161605256Y-130219341D01*
X161532552Y-130218680D01*
X161532551Y-130218680D01*
X161532543Y-130218679D01*
X160546422Y-130209754D01*
X160488696Y-130209232D01*
X160488695Y-130209232D01*
X160488689Y-130209231D01*
X159483168Y-130200179D01*
X159416193Y-130199577D01*
X159416192Y-130199577D01*
X159416185Y-130199576D01*
X158375145Y-130190253D01*
X158332023Y-130189867D01*
X158332022Y-130189867D01*
X158331572Y-130189862D01*
X157252728Y-130180251D01*
X157252720Y-130180251D01*
X156196184Y-130170888D01*
X156196164Y-130170888D01*
X155178919Y-130161926D01*
X155178889Y-130161926D01*
X154217921Y-130153518D01*
X154217875Y-130153518D01*
X153330166Y-130145815D01*
X153330108Y-130145815D01*
X153329173Y-130145806D01*
X153239698Y-130145034D01*
X153239636Y-130145034D01*
X150794928Y-130123917D01*
X150794871Y-130123917D01*
X148444879Y-130103546D01*
X148444827Y-130103546D01*
X148422169Y-130103349D01*
X148422169Y-130103348D01*
X146187700Y-130083900D01*
X146187659Y-130083900D01*
X144021543Y-130064960D01*
X144021510Y-130064960D01*
X141944555Y-130046705D01*
X141944533Y-130046705D01*
X139954887Y-130029115D01*
X139954873Y-130029115D01*
X138051135Y-130012175D01*
X138051132Y-130012174D01*
X138051129Y-130012175D01*
X136230558Y-129995856D01*
X136230555Y-129995855D01*
X136230552Y-129995856D01*
X134491747Y-129980142D01*
X134491743Y-129980140D01*
X134491740Y-129980142D01*
X132832850Y-129965013D01*
X132832845Y-129965011D01*
X132832841Y-129965013D01*
X131252015Y-129950449D01*
X131252010Y-129950447D01*
X131252006Y-129950449D01*
X129747392Y-129936430D01*
X129747386Y-129936428D01*
X129747381Y-129936430D01*
X128317118Y-129922936D01*
X128317117Y-129922936D01*
X128316644Y-129922931D01*
X128316594Y-129922931D01*
X126959526Y-129909948D01*
X126959519Y-129909945D01*
X126959512Y-129909948D01*
X125672694Y-129897446D01*
X125672686Y-129897443D01*
X125672678Y-129897446D01*
X124454406Y-129885407D01*
X124454397Y-129885404D01*
X124454388Y-129885407D01*
X123303074Y-129873812D01*
X123303063Y-129873808D01*
X123303053Y-129873812D01*
X122216822Y-129862641D01*
X122216822Y-129862640D01*
X122216797Y-129862640D01*
X121193869Y-129851876D01*
X121193856Y-129851871D01*
X121193843Y-129851876D01*
X120232297Y-129841494D01*
X120232282Y-129841489D01*
X120232267Y-129841494D01*
X119330240Y-129831478D01*
X119330240Y-129831477D01*
X119330204Y-129831477D01*
X118485953Y-129821806D01*
X118485933Y-129821799D01*
X118485913Y-129821806D01*
X117697233Y-129812456D01*
X117697233Y-129812455D01*
X117697186Y-129812455D01*
X116962588Y-129803409D01*
X116962563Y-129803400D01*
X116962537Y-129803409D01*
X116280259Y-129794650D01*
X116280229Y-129794640D01*
X116280200Y-129794650D01*
X115648227Y-129786155D01*
X115648193Y-129786144D01*
X115648159Y-129786155D01*
X115064873Y-129777908D01*
X115064832Y-129777894D01*
X115064792Y-129777907D01*
X114527968Y-129769883D01*
X114527968Y-129769881D01*
X114527873Y-129769881D01*
X114035337Y-129762054D01*
X114035337Y-129762052D01*
X114035224Y-129762052D01*
X113586456Y-129754424D01*
X113586390Y-129754401D01*
X113586325Y-129754422D01*
X113177776Y-129746941D01*
X113177621Y-129746938D01*
X112808472Y-129739608D01*
X112808284Y-129739604D01*
X112477205Y-129732413D01*
X112476979Y-129732408D01*
X112180452Y-129725300D01*
X112180176Y-129725293D01*
X111918081Y-129718289D01*
X111917739Y-129718279D01*
X111687378Y-129711340D01*
X111686949Y-129711327D01*
X111485936Y-129704413D01*
X111485389Y-129704392D01*
X111313351Y-129697537D01*
X111312639Y-129697506D01*
X111166611Y-129690651D01*
X111166041Y-129690623D01*
X111132656Y-129688866D01*
X111132126Y-129688837D01*
X110498766Y-129652150D01*
X110497919Y-129652097D01*
X109903521Y-129612633D01*
X109902578Y-129612566D01*
X109356557Y-129571159D01*
X109355436Y-129571068D01*
X108867282Y-129528554D01*
X108865835Y-129528417D01*
X108445461Y-129485679D01*
X108443383Y-129485446D01*
X108100816Y-129443408D01*
X108097339Y-129442920D01*
X107841244Y-129402378D01*
X107838724Y-129401946D01*
X107638760Y-129365058D01*
X107637599Y-129364553D01*
X107615973Y-129360848D01*
X107615106Y-129360696D01*
X107601123Y-129358174D01*
X107599948Y-129358160D01*
X107428065Y-129329333D01*
X107426485Y-129328752D01*
X107409951Y-129326280D01*
X107408373Y-129326032D01*
X107393866Y-129323626D01*
X107392192Y-129323661D01*
X107269426Y-129305555D01*
X107269217Y-129305524D01*
X106849867Y-129242776D01*
X106847070Y-129242317D01*
X106361415Y-129155595D01*
X106359430Y-129155220D01*
X105827625Y-129049198D01*
X105826014Y-129048864D01*
X105269838Y-128928494D01*
X105268363Y-128928163D01*
X104709673Y-128798428D01*
X104708155Y-128798063D01*
X104168844Y-128663976D01*
X104167087Y-128663522D01*
X103668809Y-128530049D01*
X103666501Y-128529401D01*
X103231032Y-128401559D01*
X103228494Y-128400778D01*
X103026659Y-128335690D01*
X103022872Y-128334385D01*
X102298389Y-128068471D01*
X102292301Y-128066008D01*
X102024992Y-127947576D01*
X101663431Y-127787385D01*
X101656041Y-127783741D01*
X101120041Y-127491547D01*
X101111822Y-127486542D01*
X100720160Y-127221553D01*
X100714711Y-127217595D01*
X100401201Y-126973379D01*
X100397167Y-126970064D01*
X100149393Y-126755496D01*
X100143089Y-126749543D01*
X99944464Y-126545068D01*
X99937290Y-126536832D01*
X99768355Y-126320174D01*
X99762488Y-126311805D01*
X99649255Y-126131443D01*
X99604120Y-126059549D01*
X99600550Y-126053387D01*
X99434841Y-125742531D01*
X99433462Y-125739848D01*
X99356365Y-125584145D01*
X99355140Y-125581582D01*
X99345686Y-125561051D01*
X99342669Y-125553757D01*
X99335058Y-125533102D01*
X99332154Y-125523877D01*
X99324790Y-125495825D01*
X99323042Y-125487862D01*
X99315622Y-125445992D01*
X99314771Y-125440214D01*
X99307673Y-125379965D01*
X99307290Y-125376060D01*
X99300816Y-125293494D01*
X99300655Y-125291033D01*
X99294962Y-125182398D01*
X99294895Y-125180877D01*
X99290043Y-125042327D01*
X99290018Y-125041470D01*
X99286018Y-124868927D01*
X99286004Y-124868175D01*
X99282854Y-124657857D01*
X99282847Y-124657277D01*
X99280520Y-124404611D01*
X99279000Y-124105155D01*
X99278266Y-123755368D01*
X99278293Y-123351172D01*
X99279057Y-122887052D01*
X99280538Y-122359976D01*
X99280537Y-122359975D01*
X99281480Y-122101562D01*
X122299300Y-122101562D01*
X122299300Y-124341689D01*
X122311118Y-124401105D01*
X122313604Y-124404825D01*
X122356140Y-124468486D01*
X122423520Y-124513507D01*
X122482936Y-124525326D01*
X122482937Y-124525326D01*
X124723063Y-124525326D01*
X124723064Y-124525326D01*
X124782480Y-124513507D01*
X124849860Y-124468486D01*
X124894881Y-124401106D01*
X124906700Y-124341690D01*
X124906700Y-123119018D01*
X169049300Y-123119018D01*
X169049300Y-123324233D01*
X169081401Y-123526905D01*
X169081404Y-123526919D01*
X169144813Y-123722073D01*
X169237976Y-123904914D01*
X169358592Y-124070927D01*
X169358594Y-124070929D01*
X169503697Y-124216032D01*
X169669712Y-124336650D01*
X169679602Y-124341689D01*
X169852552Y-124429812D01*
X170047706Y-124493221D01*
X170047708Y-124493221D01*
X170047716Y-124493224D01*
X170250392Y-124525325D01*
X170250394Y-124525326D01*
X170250397Y-124525326D01*
X170455606Y-124525326D01*
X170455606Y-124525325D01*
X170658284Y-124493224D01*
X170853447Y-124429812D01*
X171036288Y-124336650D01*
X171202303Y-124216032D01*
X171347406Y-124070929D01*
X171468024Y-123904914D01*
X171561186Y-123722073D01*
X171624598Y-123526910D01*
X171656700Y-123324229D01*
X171656700Y-123119023D01*
X171656700Y-123119019D01*
X171656699Y-123119018D01*
X171624598Y-122916342D01*
X171615119Y-122887169D01*
X171561186Y-122721178D01*
X171468023Y-122538337D01*
X171347407Y-122372324D01*
X171202301Y-122227218D01*
X171036288Y-122106602D01*
X170853447Y-122013439D01*
X170658293Y-121950030D01*
X170658279Y-121950027D01*
X170455607Y-121917926D01*
X170455603Y-121917926D01*
X170250397Y-121917926D01*
X170250393Y-121917926D01*
X170047720Y-121950027D01*
X170047706Y-121950030D01*
X169852552Y-122013439D01*
X169669711Y-122106602D01*
X169503698Y-122227218D01*
X169358592Y-122372324D01*
X169237976Y-122538337D01*
X169144813Y-122721178D01*
X169081404Y-122916332D01*
X169081401Y-122916346D01*
X169049300Y-123119018D01*
X124906700Y-123119018D01*
X124906700Y-122101562D01*
X124894881Y-122042146D01*
X124849860Y-121974766D01*
X124782480Y-121929745D01*
X124782479Y-121929744D01*
X124734882Y-121920276D01*
X124723064Y-121917926D01*
X122482936Y-121917926D01*
X122473078Y-121919886D01*
X122423520Y-121929744D01*
X122356140Y-121974766D01*
X122311118Y-122042146D01*
X122299300Y-122101562D01*
X99281480Y-122101562D01*
X99282708Y-121765252D01*
X99282716Y-121763065D01*
X99285546Y-121098606D01*
X99285557Y-121096050D01*
X99285557Y-121096007D01*
X99289029Y-120355792D01*
X99289029Y-120355763D01*
X99293132Y-119532465D01*
X99293132Y-119532445D01*
X99297832Y-118624391D01*
X99297832Y-118624380D01*
X99299442Y-118319949D01*
X108294892Y-118319949D01*
X108294892Y-118319952D01*
X108299685Y-118338565D01*
X108301476Y-118350546D01*
X108302644Y-118356530D01*
X108307230Y-118369457D01*
X108309840Y-118378001D01*
X108328365Y-118449941D01*
X108328366Y-118449944D01*
X108343514Y-118476480D01*
X108350956Y-118492713D01*
X108352280Y-118496446D01*
X108360232Y-118507189D01*
X108366739Y-118517165D01*
X108394909Y-118566513D01*
X108425186Y-118596790D01*
X108434906Y-118608068D01*
X108440609Y-118615772D01*
X108440610Y-118615772D01*
X108440611Y-118615774D01*
X108448317Y-118621479D01*
X108459593Y-118631197D01*
X108489825Y-118661429D01*
X108531631Y-118685294D01*
X108539067Y-118689539D01*
X108549046Y-118696047D01*
X108559934Y-118704108D01*
X108563779Y-118705472D01*
X108580014Y-118712914D01*
X108606398Y-118727975D01*
X108677923Y-118746392D01*
X108686452Y-118748997D01*
X108699849Y-118753751D01*
X108699854Y-118753751D01*
X108705384Y-118754831D01*
X108718033Y-118756721D01*
X108736387Y-118761447D01*
X108736388Y-118761447D01*
X108737201Y-118761435D01*
X108835672Y-118759991D01*
X108841537Y-118760080D01*
X108848162Y-118760376D01*
X108848170Y-118760373D01*
X108850057Y-118760178D01*
X108858982Y-118759650D01*
X108870601Y-118759480D01*
X108999553Y-118722211D01*
X109026805Y-118705666D01*
X109026954Y-118705631D01*
X109053049Y-118689742D01*
X109061000Y-118685379D01*
X109097690Y-118667352D01*
X109114820Y-118660798D01*
X109149694Y-118650996D01*
X109167728Y-118647665D01*
X109197974Y-118644894D01*
X109208392Y-118643941D01*
X109217565Y-118643522D01*
X109913111Y-118643522D01*
X110609071Y-118643522D01*
X110618245Y-118643941D01*
X110624074Y-118644474D01*
X110658907Y-118647665D01*
X110676943Y-118650996D01*
X110711811Y-118660797D01*
X110728943Y-118667351D01*
X110765643Y-118685383D01*
X110773586Y-118689742D01*
X110820032Y-118718023D01*
X110820380Y-118718142D01*
X110827083Y-118722211D01*
X110956035Y-118759480D01*
X110968271Y-118759659D01*
X110977202Y-118760188D01*
X110978495Y-118760322D01*
X110978498Y-118760321D01*
X110978503Y-118760323D01*
X110984236Y-118760067D01*
X110990121Y-118759979D01*
X111085228Y-118761373D01*
X111090245Y-118761447D01*
X111090245Y-118761446D01*
X111090249Y-118761447D01*
X111108800Y-118756669D01*
X111120884Y-118754866D01*
X111126808Y-118753710D01*
X111126810Y-118753709D01*
X111126812Y-118753709D01*
X111139857Y-118749081D01*
X111148365Y-118746481D01*
X111220238Y-118727975D01*
X111246741Y-118712845D01*
X111262972Y-118705406D01*
X111266725Y-118704075D01*
X111277506Y-118696094D01*
X111287455Y-118689603D01*
X111336811Y-118661429D01*
X111367099Y-118631140D01*
X111378361Y-118621435D01*
X111386046Y-118615747D01*
X111391734Y-118608062D01*
X111401439Y-118596800D01*
X111431725Y-118566515D01*
X111459897Y-118517165D01*
X111466386Y-118507216D01*
X111474374Y-118496426D01*
X111475706Y-118492671D01*
X111483148Y-118476433D01*
X111498271Y-118449942D01*
X111516774Y-118378084D01*
X111519371Y-118369584D01*
X111524009Y-118356513D01*
X111524009Y-118356510D01*
X111525161Y-118350610D01*
X111526973Y-118338474D01*
X111531743Y-118319953D01*
X111530276Y-118219891D01*
X111530364Y-118214003D01*
X111530623Y-118208205D01*
X111530621Y-118208200D01*
X111530484Y-118206875D01*
X111529954Y-118197944D01*
X111529776Y-118185739D01*
X111492507Y-118056787D01*
X111488438Y-118050084D01*
X111488379Y-118049834D01*
X111460038Y-118003290D01*
X111455679Y-117995347D01*
X111437647Y-117958647D01*
X111431092Y-117941512D01*
X111421292Y-117906647D01*
X111417960Y-117888605D01*
X111414237Y-117847947D01*
X111413818Y-117838774D01*
X111413818Y-116047271D01*
X111414237Y-116038096D01*
X111415137Y-116028270D01*
X111417962Y-115997430D01*
X111421295Y-115979390D01*
X111431095Y-115944525D01*
X111437650Y-115927392D01*
X111455610Y-115890839D01*
X111460148Y-115882600D01*
X111474068Y-115859908D01*
X111474114Y-115859677D01*
X111475890Y-115856628D01*
X111492508Y-115829257D01*
X111529777Y-115700305D01*
X111529960Y-115687774D01*
X111530490Y-115678834D01*
X111530592Y-115677853D01*
X111530359Y-115672648D01*
X111530269Y-115666711D01*
X111531745Y-115566090D01*
X111526921Y-115547357D01*
X111525225Y-115536006D01*
X111523969Y-115529571D01*
X111523969Y-115529567D01*
X111519521Y-115517032D01*
X111516917Y-115508506D01*
X111498273Y-115436101D01*
X111482986Y-115409322D01*
X111475543Y-115393082D01*
X111474333Y-115389672D01*
X111466682Y-115379337D01*
X111460169Y-115369352D01*
X111431728Y-115319529D01*
X111401113Y-115288914D01*
X111391392Y-115277635D01*
X111386015Y-115270371D01*
X111378757Y-115264999D01*
X111367475Y-115255276D01*
X111336812Y-115224613D01*
X111286871Y-115196104D01*
X111276891Y-115189594D01*
X111266707Y-115182055D01*
X111266702Y-115182052D01*
X111263405Y-115180883D01*
X111247175Y-115173443D01*
X111220239Y-115158067D01*
X111147415Y-115139314D01*
X111138873Y-115136705D01*
X111126813Y-115132427D01*
X111119883Y-115131075D01*
X111109237Y-115129484D01*
X111097322Y-115126416D01*
X111090247Y-115124594D01*
X110988638Y-115126084D01*
X110982686Y-115125995D01*
X110978517Y-115125809D01*
X110978202Y-115125842D01*
X110969319Y-115126367D01*
X110956037Y-115126562D01*
X110956035Y-115126563D01*
X110827083Y-115163831D01*
X110827082Y-115163832D01*
X110773528Y-115196342D01*
X110765691Y-115200635D01*
X110728946Y-115218691D01*
X110711801Y-115225250D01*
X110676949Y-115235046D01*
X110658902Y-115238380D01*
X110628363Y-115241176D01*
X110618245Y-115242103D01*
X110609074Y-115242522D01*
X109217549Y-115242522D01*
X109208392Y-115242104D01*
X109203347Y-115241642D01*
X109167739Y-115238388D01*
X109149675Y-115235053D01*
X109114838Y-115225261D01*
X109097679Y-115218695D01*
X109060988Y-115200658D01*
X109053054Y-115196304D01*
X109044848Y-115191308D01*
X109044724Y-115191254D01*
X108999552Y-115163832D01*
X108941451Y-115147040D01*
X108870601Y-115126564D01*
X108869979Y-115126554D01*
X108857968Y-115126378D01*
X108849078Y-115125853D01*
X108848140Y-115125755D01*
X108843044Y-115125983D01*
X108837090Y-115126072D01*
X108736391Y-115124596D01*
X108736384Y-115124597D01*
X108717597Y-115129434D01*
X108706340Y-115131116D01*
X108699844Y-115132384D01*
X108687391Y-115136802D01*
X108678850Y-115139410D01*
X108606405Y-115158066D01*
X108606397Y-115158069D01*
X108579590Y-115173372D01*
X108563363Y-115180811D01*
X108559953Y-115182021D01*
X108559948Y-115182023D01*
X108549631Y-115189661D01*
X108539652Y-115196170D01*
X108489826Y-115224613D01*
X108489823Y-115224615D01*
X108459214Y-115255224D01*
X108447946Y-115264936D01*
X108440644Y-115270342D01*
X108440641Y-115270345D01*
X108435235Y-115277647D01*
X108425523Y-115288915D01*
X108394911Y-115319527D01*
X108394911Y-115319528D01*
X108366468Y-115369354D01*
X108359959Y-115379332D01*
X108352323Y-115389647D01*
X108352320Y-115389653D01*
X108351111Y-115393061D01*
X108343672Y-115409286D01*
X108328367Y-115436098D01*
X108328364Y-115436103D01*
X108309699Y-115508588D01*
X108307088Y-115517135D01*
X108302684Y-115529546D01*
X108301412Y-115536064D01*
X108300612Y-115541414D01*
X108300768Y-115542857D01*
X108300294Y-115545115D01*
X108294893Y-115566091D01*
X108294958Y-115570549D01*
X108294957Y-115570556D01*
X108296369Y-115666879D01*
X108296280Y-115672829D01*
X108296056Y-115677845D01*
X108296147Y-115678718D01*
X108296673Y-115687618D01*
X108296859Y-115700302D01*
X108334129Y-115829257D01*
X108334128Y-115829257D01*
X108361550Y-115874428D01*
X108361603Y-115874550D01*
X108366596Y-115882751D01*
X108370956Y-115890698D01*
X108388987Y-115927392D01*
X108395546Y-115944538D01*
X108405342Y-115979390D01*
X108408676Y-115997437D01*
X108412399Y-116038092D01*
X108412818Y-116047266D01*
X108412818Y-117838774D01*
X108412399Y-117847950D01*
X108408675Y-117888608D01*
X108405341Y-117906655D01*
X108395543Y-117941512D01*
X108388986Y-117958652D01*
X108370938Y-117995384D01*
X108366644Y-118003223D01*
X108334129Y-118056785D01*
X108296859Y-118185741D01*
X108296678Y-118198093D01*
X108296152Y-118207001D01*
X108296026Y-118208211D01*
X108296273Y-118213754D01*
X108296361Y-118219701D01*
X108294892Y-118319949D01*
X99299442Y-118319949D01*
X99303106Y-117627295D01*
X99303106Y-117627290D01*
X99307522Y-116800040D01*
X99307522Y-116800039D01*
X99314153Y-115560311D01*
X99324101Y-113700183D01*
X142998217Y-113700183D01*
X142998217Y-113700194D01*
X143048392Y-116379631D01*
X143048394Y-116379654D01*
X143051792Y-116419912D01*
X143089039Y-116527073D01*
X143089039Y-116527075D01*
X144225814Y-118515651D01*
X144249101Y-118550623D01*
X144249103Y-118550626D01*
X144333606Y-118626319D01*
X146019558Y-119649933D01*
X146054978Y-119667242D01*
X146070008Y-119674588D01*
X146070010Y-119674588D01*
X146070013Y-119674590D01*
X146181654Y-119694754D01*
X146181654Y-119694753D01*
X146181655Y-119694754D01*
X146311179Y-119693962D01*
X147995015Y-119683671D01*
X148072507Y-119673297D01*
X148174912Y-119624477D01*
X150015485Y-118283446D01*
X150055954Y-118248187D01*
X150118338Y-118153433D01*
X151010455Y-116028270D01*
X151015163Y-116016372D01*
X151034489Y-115904583D01*
X151004383Y-113691770D01*
X151003973Y-113679510D01*
X150977211Y-113569265D01*
X150163225Y-111760843D01*
X150142789Y-111722801D01*
X150065646Y-111639619D01*
X150065639Y-111639614D01*
X150065636Y-111639611D01*
X148265925Y-110304538D01*
X148265910Y-110304529D01*
X148193908Y-110264762D01*
X148193907Y-110264761D01*
X148193906Y-110264761D01*
X148128241Y-110252394D01*
X148082416Y-110243763D01*
X148082419Y-110243763D01*
X146165134Y-110241162D01*
X146165127Y-110241162D01*
X146104976Y-110246997D01*
X146104974Y-110246997D01*
X146104973Y-110246998D01*
X146068840Y-110261411D01*
X145999599Y-110289030D01*
X144358805Y-111327697D01*
X144330498Y-111347939D01*
X144330490Y-111347946D01*
X144256645Y-111434062D01*
X143039591Y-113539936D01*
X143016970Y-113588305D01*
X142998217Y-113700183D01*
X99324101Y-113700183D01*
X99324119Y-113696885D01*
X99324146Y-113691770D01*
X99353351Y-108231286D01*
X99361676Y-108191756D01*
X99528293Y-107808125D01*
X99532515Y-107799550D01*
X99754900Y-107397391D01*
X99764220Y-107383433D01*
X100004936Y-107081074D01*
X154337574Y-107081074D01*
X154339038Y-107180972D01*
X154338950Y-107186910D01*
X154338687Y-107192816D01*
X154338835Y-107194234D01*
X154339363Y-107203153D01*
X154339541Y-107215280D01*
X154376811Y-107344235D01*
X154376810Y-107344235D01*
X154404232Y-107389406D01*
X154404285Y-107389528D01*
X154409278Y-107397729D01*
X154413638Y-107405676D01*
X154431669Y-107442370D01*
X154438228Y-107459516D01*
X154448024Y-107494368D01*
X154451358Y-107512415D01*
X154455081Y-107553070D01*
X154455500Y-107562244D01*
X154455500Y-109353752D01*
X154455081Y-109362928D01*
X154451357Y-109403586D01*
X154448023Y-109421633D01*
X154438225Y-109456490D01*
X154431668Y-109473630D01*
X154413620Y-109510362D01*
X154409326Y-109518201D01*
X154376811Y-109571763D01*
X154339541Y-109700719D01*
X154339363Y-109712840D01*
X154338836Y-109721747D01*
X154338687Y-109723177D01*
X154338950Y-109729087D01*
X154339038Y-109735026D01*
X154337574Y-109834926D01*
X154337574Y-109834928D01*
X154342334Y-109853414D01*
X154344179Y-109865767D01*
X154345298Y-109871497D01*
X154349976Y-109884685D01*
X154352586Y-109893228D01*
X154371047Y-109964919D01*
X154371046Y-109964919D01*
X154386123Y-109991329D01*
X154393567Y-110007570D01*
X154394929Y-110011411D01*
X154394931Y-110011415D01*
X154402992Y-110022304D01*
X154409502Y-110032284D01*
X154437593Y-110081493D01*
X154467778Y-110111678D01*
X154477500Y-110122959D01*
X154483257Y-110130737D01*
X154483258Y-110130738D01*
X154483260Y-110130740D01*
X154491048Y-110136505D01*
X154502320Y-110146220D01*
X154532507Y-110176407D01*
X154581730Y-110204506D01*
X154591677Y-110210994D01*
X154602584Y-110219068D01*
X154606424Y-110220430D01*
X154622662Y-110227872D01*
X154649080Y-110242953D01*
X154720768Y-110261412D01*
X154729303Y-110264019D01*
X154742501Y-110268701D01*
X154742504Y-110268702D01*
X154748268Y-110269826D01*
X154760590Y-110271666D01*
X154779069Y-110276425D01*
X154879000Y-110274960D01*
X154884902Y-110275048D01*
X154890813Y-110275312D01*
X154890817Y-110275311D01*
X154892215Y-110275166D01*
X154901159Y-110274635D01*
X154913283Y-110274458D01*
X155042235Y-110237189D01*
X155069487Y-110220644D01*
X155069636Y-110220609D01*
X155095731Y-110204720D01*
X155103682Y-110200357D01*
X155140372Y-110182330D01*
X155157502Y-110175776D01*
X155192376Y-110165974D01*
X155210410Y-110162643D01*
X155240656Y-110159872D01*
X155251074Y-110158919D01*
X155260247Y-110158500D01*
X155955793Y-110158500D01*
X156651753Y-110158500D01*
X156660927Y-110158919D01*
X156666756Y-110159452D01*
X156701589Y-110162643D01*
X156719625Y-110165974D01*
X156754493Y-110175775D01*
X156771625Y-110182329D01*
X156808325Y-110200361D01*
X156816268Y-110204720D01*
X156862714Y-110233001D01*
X156863062Y-110233120D01*
X156869765Y-110237189D01*
X156998717Y-110274458D01*
X157010840Y-110274635D01*
X157019781Y-110275165D01*
X157021181Y-110275310D01*
X157021187Y-110275312D01*
X157027098Y-110275048D01*
X157032998Y-110274960D01*
X157126388Y-110276329D01*
X157132927Y-110276425D01*
X157132927Y-110276424D01*
X157132931Y-110276425D01*
X157151416Y-110271664D01*
X157163724Y-110269828D01*
X157169495Y-110268701D01*
X157169499Y-110268701D01*
X157182701Y-110264017D01*
X157191218Y-110261416D01*
X157262920Y-110242953D01*
X157289335Y-110227873D01*
X157305582Y-110220428D01*
X157305588Y-110220426D01*
X157309416Y-110219068D01*
X157320328Y-110210990D01*
X157330249Y-110204517D01*
X157379493Y-110176407D01*
X157409690Y-110146209D01*
X157420953Y-110136503D01*
X157428740Y-110130740D01*
X157434503Y-110122953D01*
X157444209Y-110111690D01*
X157474407Y-110081493D01*
X157502517Y-110032249D01*
X157508990Y-110022328D01*
X157517068Y-110011416D01*
X157518428Y-110007581D01*
X157525877Y-109991329D01*
X157540953Y-109964920D01*
X157559416Y-109893218D01*
X157562017Y-109884701D01*
X157566701Y-109871499D01*
X157566701Y-109871495D01*
X157567828Y-109865724D01*
X157569664Y-109853416D01*
X157574425Y-109834931D01*
X157572960Y-109734998D01*
X157573049Y-109729087D01*
X157573312Y-109723187D01*
X157573310Y-109723181D01*
X157573165Y-109721781D01*
X157572635Y-109712840D01*
X157572458Y-109700717D01*
X157535189Y-109571765D01*
X157531120Y-109565062D01*
X157531061Y-109564812D01*
X157502720Y-109518268D01*
X157498361Y-109510325D01*
X157480329Y-109473625D01*
X157473774Y-109456490D01*
X157463974Y-109421625D01*
X157460642Y-109403583D01*
X157456919Y-109362925D01*
X157456500Y-109353752D01*
X157456500Y-107562249D01*
X157456919Y-107553074D01*
X157457872Y-107542667D01*
X157460644Y-107512408D01*
X157463977Y-107494368D01*
X157473777Y-107459503D01*
X157480332Y-107442370D01*
X157498292Y-107405817D01*
X157502830Y-107397578D01*
X157516750Y-107374886D01*
X157516796Y-107374655D01*
X157518572Y-107371606D01*
X157535190Y-107344235D01*
X157572459Y-107215283D01*
X157572636Y-107203146D01*
X157573167Y-107194202D01*
X157573311Y-107192815D01*
X157573312Y-107192813D01*
X157573049Y-107186910D01*
X157572961Y-107181020D01*
X157574427Y-107081068D01*
X157569666Y-107062580D01*
X157567833Y-107050303D01*
X157566702Y-107044505D01*
X157566700Y-107044499D01*
X157562020Y-107031305D01*
X157559422Y-107022799D01*
X157540955Y-106951079D01*
X157532654Y-106936537D01*
X157525870Y-106924653D01*
X157518426Y-106908412D01*
X157518264Y-106907957D01*
X157517068Y-106904584D01*
X157517067Y-106904583D01*
X157517068Y-106904583D01*
X157509016Y-106893706D01*
X157502506Y-106883725D01*
X157474410Y-106834507D01*
X157444213Y-106804310D01*
X157434490Y-106793028D01*
X157428740Y-106785260D01*
X157428739Y-106785259D01*
X157428738Y-106785258D01*
X157420969Y-106779507D01*
X157409690Y-106769787D01*
X157396984Y-106757081D01*
X157379494Y-106739591D01*
X157376241Y-106737734D01*
X157330269Y-106711490D01*
X157320298Y-106704987D01*
X157309416Y-106696932D01*
X157309412Y-106696930D01*
X157309407Y-106696928D01*
X157305576Y-106695569D01*
X157289345Y-106688129D01*
X157262921Y-106673045D01*
X157262918Y-106673044D01*
X157191209Y-106654579D01*
X157182665Y-106651969D01*
X157169498Y-106647298D01*
X157163733Y-106646173D01*
X157151422Y-106644334D01*
X157132928Y-106639572D01*
X157033003Y-106641037D01*
X157027065Y-106640949D01*
X157021182Y-106640687D01*
X157019774Y-106640834D01*
X157010855Y-106641362D01*
X156998719Y-106641540D01*
X156869764Y-106678810D01*
X156816210Y-106711320D01*
X156808373Y-106715613D01*
X156771628Y-106733669D01*
X156754483Y-106740228D01*
X156719631Y-106750024D01*
X156701584Y-106753358D01*
X156671045Y-106756154D01*
X156660927Y-106757081D01*
X156651756Y-106757500D01*
X155260231Y-106757500D01*
X155251074Y-106757082D01*
X155246029Y-106756620D01*
X155210421Y-106753366D01*
X155192357Y-106750031D01*
X155157520Y-106740239D01*
X155140361Y-106733673D01*
X155103670Y-106715636D01*
X155095736Y-106711282D01*
X155087530Y-106706286D01*
X155087406Y-106706232D01*
X155042235Y-106678811D01*
X154913280Y-106641541D01*
X154901153Y-106641363D01*
X154892234Y-106640835D01*
X154890816Y-106640687D01*
X154884910Y-106640950D01*
X154878972Y-106641038D01*
X154779074Y-106639574D01*
X154779067Y-106639575D01*
X154760583Y-106644334D01*
X154748234Y-106646179D01*
X154742499Y-106647298D01*
X154729305Y-106651978D01*
X154720768Y-106654585D01*
X154649088Y-106673044D01*
X154649078Y-106673048D01*
X154622663Y-106688126D01*
X154606435Y-106695565D01*
X154602589Y-106696929D01*
X154602577Y-106696935D01*
X154591683Y-106704999D01*
X154581713Y-106711502D01*
X154532506Y-106739593D01*
X154532505Y-106739593D01*
X154502317Y-106769781D01*
X154491047Y-106779494D01*
X154483265Y-106785255D01*
X154483255Y-106785265D01*
X154477494Y-106793047D01*
X154467781Y-106804317D01*
X154437593Y-106834505D01*
X154437593Y-106834506D01*
X154409502Y-106883713D01*
X154402999Y-106893683D01*
X154394935Y-106904577D01*
X154394929Y-106904589D01*
X154393565Y-106908435D01*
X154386126Y-106924663D01*
X154371048Y-106951078D01*
X154371044Y-106951088D01*
X154352585Y-107022768D01*
X154349978Y-107031305D01*
X154345298Y-107044499D01*
X154344179Y-107050234D01*
X154342334Y-107062583D01*
X154337575Y-107081067D01*
X154337574Y-107081074D01*
X100004936Y-107081074D01*
X100074737Y-106993399D01*
X100084225Y-106983057D01*
X100481301Y-106606825D01*
X100490444Y-106599140D01*
X100971285Y-106241519D01*
X100975964Y-106238243D01*
X101009216Y-106216337D01*
X101014413Y-106213136D01*
X101111046Y-106157615D01*
X101156874Y-106131284D01*
X101161555Y-106128756D01*
X101375247Y-106020579D01*
X101377526Y-106019463D01*
X101642011Y-105894231D01*
X101643468Y-105893558D01*
X101937224Y-105760867D01*
X101938426Y-105760335D01*
X102240383Y-105629483D01*
X102241664Y-105628941D01*
X102530877Y-105509143D01*
X102532719Y-105508402D01*
X102788053Y-105408906D01*
X102791265Y-105407719D01*
X102992106Y-105337497D01*
X102995893Y-105336258D01*
X103031509Y-105325396D01*
X103032442Y-105325116D01*
X103392316Y-105219759D01*
X103398875Y-105218819D01*
X103401224Y-105217834D01*
X103406542Y-105215954D01*
X103406865Y-105215662D01*
X103406965Y-105215455D01*
X103407253Y-105209485D01*
X103407505Y-105207182D01*
X103406522Y-105200586D01*
X103405386Y-104920642D01*
X103405386Y-104920015D01*
X103405647Y-104847652D01*
X103406352Y-104844278D01*
X103405797Y-104828876D01*
X103405733Y-104824757D01*
X103405796Y-104811829D01*
X103405086Y-104808541D01*
X103403562Y-104764677D01*
X103404313Y-104757047D01*
X103403115Y-104745713D01*
X103400838Y-104738363D01*
X103392526Y-104691726D01*
X103391738Y-104681391D01*
X103387079Y-104672126D01*
X103366443Y-104618878D01*
X103364608Y-104611529D01*
X103360027Y-104601912D01*
X103355477Y-104595838D01*
X103317789Y-104530028D01*
X103315773Y-104524669D01*
X103312001Y-104519205D01*
X103307478Y-104512022D01*
X103304670Y-104507117D01*
X103300838Y-104503034D01*
X103238510Y-104412743D01*
X103237151Y-104409646D01*
X103228611Y-104398259D01*
X103226194Y-104394895D01*
X103219944Y-104385805D01*
X103217482Y-104383432D01*
X103121862Y-104256057D01*
X103121236Y-104254676D01*
X103108860Y-104238714D01*
X103108351Y-104238058D01*
X103108214Y-104237876D01*
X103108208Y-104237875D01*
X103096824Y-104223210D01*
X103096823Y-104223209D01*
X102984282Y-104078236D01*
X102984103Y-104077739D01*
X102945762Y-104028615D01*
X102945635Y-104028451D01*
X102939041Y-104019966D01*
X102938767Y-104019686D01*
X102732663Y-103756598D01*
X102732657Y-103756580D01*
X102732653Y-103756584D01*
X102676574Y-103684972D01*
X102676567Y-103684963D01*
X102302242Y-103206844D01*
X102302232Y-103206832D01*
X102266376Y-103161019D01*
X102059960Y-102897280D01*
X101999344Y-102819830D01*
X101991184Y-102809404D01*
X101991114Y-102809315D01*
X101955007Y-102763074D01*
X146971574Y-102763074D01*
X146973038Y-102862972D01*
X146972950Y-102868910D01*
X146972687Y-102874816D01*
X146972835Y-102876234D01*
X146973363Y-102885153D01*
X146973541Y-102897280D01*
X147010811Y-103026235D01*
X147010810Y-103026235D01*
X147038232Y-103071406D01*
X147038285Y-103071528D01*
X147043278Y-103079729D01*
X147047638Y-103087676D01*
X147065669Y-103124370D01*
X147072228Y-103141516D01*
X147082024Y-103176368D01*
X147085358Y-103194415D01*
X147089081Y-103235070D01*
X147089500Y-103244244D01*
X147089500Y-105035752D01*
X147089081Y-105044928D01*
X147085357Y-105085586D01*
X147082023Y-105103633D01*
X147072225Y-105138490D01*
X147065668Y-105155630D01*
X147047620Y-105192362D01*
X147043326Y-105200201D01*
X147010811Y-105253763D01*
X146973541Y-105382719D01*
X146973363Y-105394840D01*
X146972836Y-105403747D01*
X146972687Y-105405177D01*
X146972950Y-105411087D01*
X146973038Y-105417026D01*
X146971574Y-105516926D01*
X146971574Y-105516928D01*
X146976334Y-105535414D01*
X146978179Y-105547767D01*
X146979298Y-105553497D01*
X146983976Y-105566685D01*
X146986586Y-105575228D01*
X146987584Y-105579104D01*
X147000271Y-105628374D01*
X147005047Y-105646919D01*
X147005046Y-105646919D01*
X147020123Y-105673329D01*
X147027567Y-105689570D01*
X147028929Y-105693411D01*
X147028931Y-105693415D01*
X147036992Y-105704304D01*
X147043502Y-105714284D01*
X147071593Y-105763493D01*
X147101778Y-105793678D01*
X147111500Y-105804959D01*
X147117257Y-105812737D01*
X147117258Y-105812738D01*
X147117260Y-105812740D01*
X147125048Y-105818505D01*
X147136320Y-105828220D01*
X147166507Y-105858407D01*
X147215730Y-105886506D01*
X147225677Y-105892994D01*
X147236584Y-105901068D01*
X147240424Y-105902430D01*
X147256662Y-105909872D01*
X147283080Y-105924953D01*
X147354768Y-105943412D01*
X147363303Y-105946019D01*
X147376501Y-105950701D01*
X147376504Y-105950702D01*
X147382268Y-105951826D01*
X147394590Y-105953666D01*
X147413069Y-105958425D01*
X147513000Y-105956960D01*
X147518902Y-105957048D01*
X147524813Y-105957312D01*
X147524817Y-105957311D01*
X147526215Y-105957166D01*
X147535159Y-105956635D01*
X147547283Y-105956458D01*
X147676235Y-105919189D01*
X147703487Y-105902644D01*
X147703636Y-105902609D01*
X147729731Y-105886720D01*
X147737682Y-105882357D01*
X147774372Y-105864330D01*
X147791502Y-105857776D01*
X147826376Y-105847974D01*
X147844410Y-105844643D01*
X147874656Y-105841872D01*
X147885074Y-105840919D01*
X147894247Y-105840500D01*
X148589793Y-105840500D01*
X149285753Y-105840500D01*
X149294927Y-105840919D01*
X149300756Y-105841452D01*
X149335589Y-105844643D01*
X149353625Y-105847974D01*
X149388493Y-105857775D01*
X149405625Y-105864329D01*
X149442325Y-105882361D01*
X149450268Y-105886720D01*
X149496714Y-105915001D01*
X149497062Y-105915120D01*
X149503765Y-105919189D01*
X149632717Y-105956458D01*
X149644840Y-105956635D01*
X149653781Y-105957165D01*
X149655181Y-105957310D01*
X149655187Y-105957312D01*
X149661098Y-105957048D01*
X149666998Y-105956960D01*
X149760388Y-105958329D01*
X149766927Y-105958425D01*
X149766927Y-105958424D01*
X149766931Y-105958425D01*
X149785416Y-105953664D01*
X149797724Y-105951828D01*
X149803495Y-105950701D01*
X149803499Y-105950701D01*
X149816701Y-105946017D01*
X149825218Y-105943416D01*
X149896920Y-105924953D01*
X149923335Y-105909873D01*
X149939582Y-105902428D01*
X149939588Y-105902426D01*
X149943416Y-105901068D01*
X149954328Y-105892990D01*
X149964249Y-105886517D01*
X150013493Y-105858407D01*
X150043690Y-105828209D01*
X150054953Y-105818503D01*
X150062740Y-105812740D01*
X150068503Y-105804953D01*
X150078209Y-105793690D01*
X150108407Y-105763493D01*
X150136517Y-105714249D01*
X150142990Y-105704328D01*
X150151068Y-105693416D01*
X150152428Y-105689581D01*
X150159877Y-105673329D01*
X150174953Y-105646920D01*
X150193416Y-105575218D01*
X150196017Y-105566701D01*
X150200701Y-105553499D01*
X150200701Y-105553495D01*
X150201828Y-105547724D01*
X150203664Y-105535416D01*
X150208425Y-105516931D01*
X150206960Y-105416998D01*
X150207049Y-105411087D01*
X150207312Y-105405187D01*
X150207310Y-105405181D01*
X150207165Y-105403781D01*
X150206635Y-105394840D01*
X150206458Y-105382717D01*
X150169189Y-105253765D01*
X150165120Y-105247062D01*
X150165061Y-105246812D01*
X150136720Y-105200268D01*
X150132361Y-105192325D01*
X150114329Y-105155625D01*
X150107774Y-105138490D01*
X150097974Y-105103625D01*
X150094642Y-105085583D01*
X150090919Y-105044925D01*
X150090500Y-105035752D01*
X150090500Y-103244249D01*
X150090919Y-103235074D01*
X150093021Y-103212121D01*
X150094644Y-103194408D01*
X150097977Y-103176368D01*
X150102176Y-103161430D01*
X150107777Y-103141503D01*
X150114332Y-103124370D01*
X150132292Y-103087817D01*
X150136830Y-103079578D01*
X150150750Y-103056886D01*
X150150796Y-103056655D01*
X150152572Y-103053606D01*
X150169190Y-103026235D01*
X150206459Y-102897283D01*
X150206636Y-102885146D01*
X150207167Y-102876202D01*
X150207311Y-102874815D01*
X150207312Y-102874813D01*
X150207049Y-102868910D01*
X150206961Y-102863020D01*
X150208427Y-102763068D01*
X150203666Y-102744580D01*
X150201833Y-102732303D01*
X150200702Y-102726505D01*
X150200700Y-102726499D01*
X150196020Y-102713305D01*
X150193422Y-102704799D01*
X150174955Y-102633079D01*
X150166654Y-102618537D01*
X150159870Y-102606653D01*
X150152426Y-102590412D01*
X150152264Y-102589957D01*
X150151068Y-102586584D01*
X150151067Y-102586583D01*
X150151068Y-102586583D01*
X150143016Y-102575706D01*
X150136506Y-102565725D01*
X150108410Y-102516507D01*
X150078213Y-102486310D01*
X150068490Y-102475028D01*
X150066035Y-102471711D01*
X150062740Y-102467260D01*
X150062739Y-102467259D01*
X150062738Y-102467258D01*
X150054969Y-102461507D01*
X150043690Y-102451787D01*
X150030984Y-102439081D01*
X150013494Y-102421591D01*
X150010241Y-102419734D01*
X149964269Y-102393490D01*
X149954298Y-102386987D01*
X149943416Y-102378932D01*
X149943412Y-102378930D01*
X149943407Y-102378928D01*
X149939576Y-102377569D01*
X149923345Y-102370129D01*
X149896921Y-102355045D01*
X149896918Y-102355044D01*
X149825209Y-102336579D01*
X149816665Y-102333969D01*
X149803498Y-102329298D01*
X149797733Y-102328173D01*
X149785422Y-102326334D01*
X149766928Y-102321572D01*
X149667003Y-102323037D01*
X149661065Y-102322949D01*
X149655182Y-102322687D01*
X149653774Y-102322834D01*
X149644855Y-102323362D01*
X149632719Y-102323540D01*
X149503764Y-102360810D01*
X149450210Y-102393320D01*
X149442373Y-102397613D01*
X149405628Y-102415669D01*
X149388483Y-102422228D01*
X149353631Y-102432024D01*
X149335584Y-102435358D01*
X149305045Y-102438154D01*
X149294927Y-102439081D01*
X149285756Y-102439500D01*
X147894231Y-102439500D01*
X147885074Y-102439082D01*
X147880029Y-102438620D01*
X147844421Y-102435366D01*
X147826357Y-102432031D01*
X147791520Y-102422239D01*
X147774361Y-102415673D01*
X147737670Y-102397636D01*
X147729736Y-102393282D01*
X147721530Y-102388286D01*
X147721406Y-102388232D01*
X147676235Y-102360811D01*
X147547280Y-102323541D01*
X147535153Y-102323363D01*
X147526234Y-102322835D01*
X147524816Y-102322687D01*
X147518910Y-102322950D01*
X147512972Y-102323038D01*
X147413074Y-102321574D01*
X147413067Y-102321575D01*
X147394583Y-102326334D01*
X147382234Y-102328179D01*
X147376499Y-102329298D01*
X147363305Y-102333978D01*
X147354768Y-102336585D01*
X147283088Y-102355044D01*
X147283078Y-102355048D01*
X147256663Y-102370126D01*
X147240435Y-102377565D01*
X147236589Y-102378929D01*
X147236577Y-102378935D01*
X147225683Y-102386999D01*
X147215713Y-102393502D01*
X147166506Y-102421593D01*
X147166505Y-102421593D01*
X147136317Y-102451781D01*
X147125047Y-102461494D01*
X147117265Y-102467255D01*
X147117255Y-102467265D01*
X147111494Y-102475047D01*
X147101781Y-102486317D01*
X147071593Y-102516505D01*
X147071593Y-102516506D01*
X147043502Y-102565713D01*
X147036999Y-102575683D01*
X147028935Y-102586577D01*
X147028929Y-102586589D01*
X147027565Y-102590435D01*
X147020126Y-102606663D01*
X147005048Y-102633078D01*
X147005044Y-102633088D01*
X146986585Y-102704768D01*
X146983978Y-102713305D01*
X146979298Y-102726499D01*
X146978179Y-102732234D01*
X146976334Y-102744583D01*
X146971575Y-102763067D01*
X146971574Y-102763074D01*
X101955007Y-102763074D01*
X101727665Y-102471923D01*
X101727500Y-102471711D01*
X101724047Y-102467265D01*
X101509928Y-102191538D01*
X101509633Y-102191155D01*
X101332671Y-101960849D01*
X101332118Y-101960122D01*
X101191396Y-101773497D01*
X101190471Y-101772251D01*
X101081340Y-101622781D01*
X101079859Y-101620697D01*
X100998048Y-101502449D01*
X100995806Y-101499065D01*
X100988922Y-101488203D01*
X100936644Y-101405716D01*
X100933603Y-101400584D01*
X100892298Y-101325878D01*
X100888795Y-101318918D01*
X100859931Y-101255561D01*
X100856920Y-101248192D01*
X100834930Y-101187638D01*
X100833196Y-101182423D01*
X100813073Y-101115888D01*
X100812640Y-101114417D01*
X100797690Y-101061970D01*
X100797680Y-101061222D01*
X100790319Y-101036101D01*
X100790030Y-101035095D01*
X100784681Y-101016112D01*
X100784314Y-101015417D01*
X100717473Y-100785135D01*
X100717341Y-100784674D01*
X100649404Y-100546374D01*
X100649256Y-100545852D01*
X100593620Y-100346626D01*
X100538822Y-100146508D01*
X100538821Y-100146507D01*
X100535400Y-100134012D01*
X100535362Y-100133921D01*
X100474625Y-99912982D01*
X100406981Y-99667584D01*
X100406981Y-99667585D01*
X100406974Y-99667558D01*
X100382623Y-99579402D01*
X100382548Y-99579130D01*
X100382548Y-99579123D01*
X100382518Y-99579023D01*
X100379486Y-99567998D01*
X154377300Y-99567998D01*
X154377300Y-100075997D01*
X154384632Y-100142884D01*
X154429146Y-100247236D01*
X154937144Y-101009234D01*
X154937146Y-101009236D01*
X154983554Y-101063850D01*
X154987694Y-101066476D01*
X155065585Y-101115888D01*
X155079352Y-101124621D01*
X156020700Y-101501160D01*
X156349349Y-101632620D01*
X156349350Y-101632620D01*
X156349352Y-101632621D01*
X156413250Y-101650500D01*
X156413253Y-101650500D01*
X156413255Y-101650501D01*
X156921252Y-101735167D01*
X157937250Y-101904500D01*
X157968794Y-101907110D01*
X157987983Y-101908699D01*
X157987996Y-101908699D01*
X157988000Y-101908700D01*
X157988002Y-101908700D01*
X159003998Y-101908700D01*
X159004000Y-101908700D01*
X159101620Y-101892859D01*
X159863620Y-101638859D01*
X159937236Y-101602854D01*
X160699236Y-101094854D01*
X160735593Y-101066475D01*
X160804110Y-100976055D01*
X161312110Y-99960055D01*
X161323854Y-99933515D01*
X161344700Y-99822000D01*
X161344700Y-98935020D01*
X161362885Y-98877330D01*
X161387717Y-98841856D01*
X163066897Y-96443028D01*
X163110916Y-96350480D01*
X163121383Y-96237517D01*
X163090337Y-96128401D01*
X163021970Y-96037868D01*
X163021968Y-96037867D01*
X163021967Y-96037865D01*
X162925516Y-95978146D01*
X162925514Y-95978145D01*
X162814002Y-95957300D01*
X162814000Y-95957300D01*
X161386623Y-95957300D01*
X161341633Y-95946679D01*
X160920056Y-95735890D01*
X160920047Y-95735887D01*
X160834897Y-95707866D01*
X160834896Y-95707865D01*
X160721454Y-95709295D01*
X160721448Y-95709296D01*
X159589166Y-95935752D01*
X159527415Y-95928509D01*
X159524447Y-95927085D01*
X159142061Y-95735892D01*
X159142046Y-95735886D01*
X159071388Y-95710745D01*
X159071384Y-95710744D01*
X158958007Y-95706746D01*
X158850839Y-95743974D01*
X157097516Y-96745872D01*
X157084966Y-96751932D01*
X155841353Y-97249378D01*
X155759572Y-97297858D01*
X155686811Y-97384895D01*
X155650403Y-97492341D01*
X155435323Y-98997896D01*
X155407941Y-99053716D01*
X155360133Y-99081265D01*
X154611132Y-99268516D01*
X154611125Y-99268518D01*
X154548402Y-99291662D01*
X154548401Y-99291662D01*
X154457865Y-99360032D01*
X154398146Y-99456483D01*
X154398145Y-99456485D01*
X154377300Y-99567998D01*
X100379486Y-99567998D01*
X100323574Y-99364674D01*
X100323504Y-99364421D01*
X100323504Y-99364420D01*
X100270364Y-99169184D01*
X100270363Y-99169182D01*
X100270321Y-99169024D01*
X100246779Y-99081265D01*
X100231107Y-99022839D01*
X100231000Y-99022433D01*
X100225590Y-99001714D01*
X100225592Y-99001218D01*
X100218887Y-98976045D01*
X100218856Y-98975926D01*
X100218857Y-98975926D01*
X100218804Y-98975727D01*
X100218752Y-98975528D01*
X100218751Y-98975527D01*
X100213442Y-98955205D01*
X100213215Y-98954760D01*
X100204177Y-98920848D01*
X100204177Y-98920453D01*
X100197203Y-98894678D01*
X100197129Y-98894404D01*
X100193869Y-98882220D01*
X100193739Y-98881908D01*
X100166412Y-98781145D01*
X100166423Y-98780915D01*
X100153414Y-98733218D01*
X100153415Y-98733218D01*
X100090561Y-98502760D01*
X100090560Y-98502759D01*
X100087138Y-98490210D01*
X100087105Y-98490131D01*
X100023728Y-98258459D01*
X100012315Y-98216739D01*
X100012314Y-98216738D01*
X100008877Y-98204174D01*
X100008856Y-98204126D01*
X99921952Y-97887140D01*
X99822859Y-97526345D01*
X99765996Y-97319579D01*
X99765991Y-97319560D01*
X99705989Y-97101707D01*
X99699993Y-97079936D01*
X102396300Y-97079936D01*
X102396300Y-98920064D01*
X102396456Y-98920848D01*
X102408118Y-98979479D01*
X102408119Y-98979480D01*
X102453140Y-99046860D01*
X102520520Y-99091881D01*
X102579936Y-99103700D01*
X102579937Y-99103700D01*
X104420063Y-99103700D01*
X104420064Y-99103700D01*
X104479480Y-99091881D01*
X104546860Y-99046860D01*
X104591881Y-98979480D01*
X104603700Y-98920064D01*
X104603700Y-97913132D01*
X104936300Y-97913132D01*
X104936300Y-98086867D01*
X104963476Y-98258445D01*
X104963479Y-98258459D01*
X105017160Y-98423674D01*
X105096031Y-98578465D01*
X105198143Y-98719010D01*
X105198145Y-98719012D01*
X105320988Y-98841855D01*
X105428631Y-98920063D01*
X105461534Y-98943968D01*
X105461533Y-98943968D01*
X105616325Y-99022839D01*
X105781540Y-99076520D01*
X105781542Y-99076520D01*
X105781550Y-99076523D01*
X105953132Y-99103699D01*
X105953134Y-99103700D01*
X105953137Y-99103700D01*
X106126866Y-99103700D01*
X106126866Y-99103699D01*
X106298450Y-99076523D01*
X106463674Y-99022839D01*
X106618465Y-98943969D01*
X106759012Y-98841855D01*
X106881855Y-98719012D01*
X106983969Y-98578465D01*
X107062839Y-98423674D01*
X107116523Y-98258450D01*
X107143700Y-98086863D01*
X107143700Y-97913137D01*
X107143700Y-97913133D01*
X107143699Y-97913132D01*
X107139582Y-97887140D01*
X107116523Y-97741550D01*
X107062839Y-97576326D01*
X107062839Y-97576325D01*
X106983968Y-97421534D01*
X106881856Y-97280989D01*
X106759010Y-97158143D01*
X106618465Y-97056031D01*
X106618466Y-97056031D01*
X106463674Y-96977160D01*
X106298459Y-96923479D01*
X106298445Y-96923476D01*
X106126867Y-96896300D01*
X106126863Y-96896300D01*
X105953137Y-96896300D01*
X105953133Y-96896300D01*
X105781554Y-96923476D01*
X105781540Y-96923479D01*
X105616325Y-96977160D01*
X105461534Y-97056031D01*
X105320989Y-97158143D01*
X105198143Y-97280989D01*
X105096031Y-97421534D01*
X105017160Y-97576325D01*
X104963479Y-97741540D01*
X104963476Y-97741554D01*
X104936300Y-97913132D01*
X104603700Y-97913132D01*
X104603700Y-97079936D01*
X104591881Y-97020520D01*
X104546860Y-96953140D01*
X104479480Y-96908119D01*
X104479479Y-96908118D01*
X104431882Y-96898650D01*
X104420064Y-96896300D01*
X102579936Y-96896300D01*
X102570078Y-96898260D01*
X102520520Y-96908118D01*
X102453140Y-96953140D01*
X102408118Y-97020520D01*
X102401055Y-97056031D01*
X102396300Y-97079936D01*
X99699993Y-97079936D01*
X99665069Y-96953140D01*
X99642937Y-96872784D01*
X99642936Y-96872782D01*
X99642883Y-96872585D01*
X99609687Y-96749339D01*
X99541077Y-96494606D01*
X99540612Y-96492815D01*
X99528201Y-96443028D01*
X99460316Y-96170715D01*
X99459498Y-96167151D01*
X99400704Y-95887460D01*
X99399665Y-95881682D01*
X99362143Y-95630647D01*
X99361289Y-95622857D01*
X99344644Y-95386062D01*
X99344411Y-95377341D01*
X99348413Y-95139550D01*
X99348876Y-95131471D01*
X99373752Y-94877491D01*
X99374569Y-94871211D01*
X99420809Y-94586435D01*
X99421566Y-94582331D01*
X99489556Y-94252930D01*
X99490060Y-94250635D01*
X99579965Y-93863198D01*
X99580176Y-93862314D01*
X99692060Y-93403351D01*
X99722199Y-93280988D01*
X99771719Y-93079936D01*
X115126300Y-93079936D01*
X115126300Y-94920063D01*
X115138118Y-94979479D01*
X115138119Y-94979480D01*
X115183140Y-95046860D01*
X115250520Y-95091881D01*
X115309936Y-95103700D01*
X115309937Y-95103700D01*
X117150063Y-95103700D01*
X117150064Y-95103700D01*
X117209480Y-95091881D01*
X117276860Y-95046860D01*
X117321881Y-94979480D01*
X117333700Y-94920064D01*
X117333700Y-93913132D01*
X117666300Y-93913132D01*
X117666300Y-94086867D01*
X117693476Y-94258445D01*
X117693479Y-94258459D01*
X117747160Y-94423674D01*
X117826031Y-94578465D01*
X117928143Y-94719010D01*
X118050989Y-94841856D01*
X118100046Y-94877498D01*
X118158631Y-94920063D01*
X118191534Y-94943968D01*
X118191533Y-94943968D01*
X118346325Y-95022839D01*
X118511540Y-95076520D01*
X118511542Y-95076520D01*
X118511550Y-95076523D01*
X118683132Y-95103699D01*
X118683134Y-95103700D01*
X118683137Y-95103700D01*
X118856866Y-95103700D01*
X118856866Y-95103699D01*
X119028450Y-95076523D01*
X119193674Y-95022839D01*
X119348465Y-94943969D01*
X119489012Y-94841855D01*
X119611855Y-94719012D01*
X119713969Y-94578465D01*
X119792839Y-94423674D01*
X119846523Y-94258450D01*
X119873700Y-94086863D01*
X119873700Y-93913137D01*
X119873700Y-93913133D01*
X119873699Y-93913132D01*
X119865813Y-93863344D01*
X119846523Y-93741550D01*
X119792839Y-93576326D01*
X119792839Y-93576325D01*
X119713968Y-93421534D01*
X119611856Y-93280989D01*
X119489010Y-93158143D01*
X119348465Y-93056031D01*
X119348466Y-93056031D01*
X119193674Y-92977160D01*
X119028459Y-92923479D01*
X119028445Y-92923476D01*
X118856867Y-92896300D01*
X118856863Y-92896300D01*
X118683137Y-92896300D01*
X118683133Y-92896300D01*
X118511554Y-92923476D01*
X118511540Y-92923479D01*
X118346325Y-92977160D01*
X118191534Y-93056031D01*
X118050989Y-93158143D01*
X117928143Y-93280989D01*
X117826031Y-93421534D01*
X117747160Y-93576325D01*
X117693479Y-93741540D01*
X117693476Y-93741554D01*
X117666300Y-93913132D01*
X117333700Y-93913132D01*
X117333700Y-93079936D01*
X117321881Y-93020520D01*
X117276860Y-92953140D01*
X117209480Y-92908119D01*
X117209479Y-92908118D01*
X117161882Y-92898650D01*
X117150064Y-92896300D01*
X115309936Y-92896300D01*
X115300078Y-92898260D01*
X115250520Y-92908118D01*
X115183140Y-92953140D01*
X115138118Y-93020520D01*
X115126300Y-93079936D01*
X99771719Y-93079936D01*
X99778862Y-93050935D01*
X99778862Y-93050934D01*
X99792439Y-92995810D01*
X99792439Y-92995789D01*
X99927784Y-92445944D01*
X99927796Y-92445946D01*
X99927798Y-92445884D01*
X100048615Y-91956447D01*
X100048614Y-91956446D01*
X100048777Y-91955786D01*
X100150584Y-91545492D01*
X100236012Y-91204194D01*
X100306737Y-90925593D01*
X100364803Y-90701904D01*
X100364950Y-90701349D01*
X100412334Y-90525022D01*
X100412677Y-90523783D01*
X100451373Y-90387144D01*
X100451901Y-90385349D01*
X100483978Y-90280393D01*
X100484881Y-90277594D01*
X100512205Y-90196884D01*
X100513496Y-90193294D01*
X100538347Y-90128134D01*
X100539621Y-90124961D01*
X100556965Y-90083791D01*
X100562576Y-90072510D01*
X100621318Y-89970944D01*
X100625991Y-89963618D01*
X100736730Y-89805628D01*
X100739189Y-89802272D01*
X100887309Y-89608793D01*
X100889290Y-89606289D01*
X100905167Y-89586866D01*
X101059591Y-89397951D01*
X101060904Y-89396382D01*
X101122609Y-89324094D01*
X101306545Y-89109964D01*
X101307062Y-89109573D01*
X101320596Y-89093610D01*
X101321167Y-89092942D01*
X101340337Y-89070724D01*
X101340582Y-89070169D01*
X101557817Y-88815416D01*
X101557816Y-88815415D01*
X101577201Y-88792683D01*
X101577315Y-88792424D01*
X101587015Y-88780988D01*
X101757541Y-88579936D01*
X107396300Y-88579936D01*
X107396300Y-90420063D01*
X107408118Y-90479479D01*
X107408119Y-90479480D01*
X107453140Y-90546860D01*
X107520520Y-90591881D01*
X107579936Y-90603700D01*
X107579937Y-90603700D01*
X109420063Y-90603700D01*
X109420064Y-90603700D01*
X109479480Y-90591881D01*
X109546860Y-90546860D01*
X109591881Y-90479480D01*
X109603700Y-90420064D01*
X109603700Y-89413132D01*
X109936300Y-89413132D01*
X109936300Y-89586867D01*
X109963476Y-89758445D01*
X109963479Y-89758459D01*
X110017160Y-89923674D01*
X110096031Y-90078465D01*
X110198143Y-90219010D01*
X110198145Y-90219012D01*
X110320988Y-90341855D01*
X110428631Y-90420063D01*
X110461534Y-90443968D01*
X110461533Y-90443968D01*
X110616325Y-90522839D01*
X110781540Y-90576520D01*
X110781542Y-90576520D01*
X110781550Y-90576523D01*
X110953132Y-90603699D01*
X110953134Y-90603700D01*
X110953137Y-90603700D01*
X111126866Y-90603700D01*
X111126866Y-90603699D01*
X111298450Y-90576523D01*
X111463674Y-90522839D01*
X111618465Y-90443969D01*
X111759012Y-90341855D01*
X111881855Y-90219012D01*
X111983969Y-90078465D01*
X112062839Y-89923674D01*
X112116523Y-89758450D01*
X112143700Y-89586863D01*
X112143700Y-89413137D01*
X112143700Y-89413133D01*
X112143699Y-89413132D01*
X112141042Y-89396354D01*
X112116523Y-89241550D01*
X112073769Y-89109966D01*
X112062839Y-89076325D01*
X111983968Y-88921534D01*
X111881856Y-88780989D01*
X111759010Y-88658143D01*
X111618465Y-88556031D01*
X111618466Y-88556031D01*
X111463674Y-88477160D01*
X111298459Y-88423479D01*
X111298445Y-88423476D01*
X111126867Y-88396300D01*
X111126863Y-88396300D01*
X110953137Y-88396300D01*
X110953133Y-88396300D01*
X110781554Y-88423476D01*
X110781540Y-88423479D01*
X110616325Y-88477160D01*
X110461534Y-88556031D01*
X110320989Y-88658143D01*
X110198143Y-88780989D01*
X110096031Y-88921534D01*
X110017160Y-89076325D01*
X109963479Y-89241540D01*
X109963476Y-89241554D01*
X109936300Y-89413132D01*
X109603700Y-89413132D01*
X109603700Y-88579936D01*
X109591881Y-88520520D01*
X109546860Y-88453140D01*
X109479480Y-88408119D01*
X109479479Y-88408118D01*
X109431882Y-88398650D01*
X109420064Y-88396300D01*
X107579936Y-88396300D01*
X107570078Y-88398260D01*
X107520520Y-88408118D01*
X107453140Y-88453140D01*
X107408118Y-88520520D01*
X107396300Y-88579936D01*
X101757541Y-88579936D01*
X101809268Y-88518950D01*
X101809271Y-88518950D01*
X102038229Y-88247573D01*
X102038444Y-88247409D01*
X102052519Y-88230636D01*
X102052520Y-88230636D01*
X102052713Y-88230406D01*
X102052786Y-88230320D01*
X102052900Y-88230185D01*
X102075754Y-88203260D01*
X102077823Y-88200490D01*
X102175230Y-88084449D01*
X102175231Y-88084450D01*
X102175240Y-88084436D01*
X102374252Y-87847526D01*
X102566521Y-87619932D01*
X102737877Y-87418339D01*
X102873652Y-87260008D01*
X102873939Y-87259676D01*
X102950128Y-87172313D01*
X103068851Y-87036398D01*
X103070136Y-87035435D01*
X103082328Y-87020996D01*
X103083647Y-87019465D01*
X103097164Y-87004092D01*
X103097873Y-87002741D01*
X103198420Y-86884702D01*
X103199998Y-86883492D01*
X103211669Y-86869190D01*
X103213352Y-86867182D01*
X103226041Y-86852431D01*
X103226856Y-86850844D01*
X103242976Y-86831381D01*
X103261722Y-86808750D01*
X103262816Y-86807898D01*
X103275321Y-86792356D01*
X103276597Y-86790802D01*
X103291459Y-86773068D01*
X103292089Y-86771710D01*
X103403076Y-86635105D01*
X103406792Y-86631001D01*
X103406864Y-86630802D01*
X103406583Y-86625375D01*
X103406583Y-82882658D01*
X160043470Y-82882658D01*
X179489592Y-82882658D01*
X179489592Y-80660152D01*
X160043470Y-80660152D01*
X160043470Y-82882658D01*
X103406583Y-82882658D01*
X103406583Y-79236097D01*
X103406587Y-79235286D01*
X103405970Y-79234661D01*
X103085702Y-78906055D01*
X102813588Y-78626856D01*
X102813161Y-78626415D01*
X102729405Y-78539351D01*
X102585775Y-78390047D01*
X102583997Y-78388151D01*
X102413020Y-78200973D01*
X102409701Y-78197150D01*
X102280215Y-78040217D01*
X102275719Y-78034340D01*
X102236219Y-77978575D01*
X102171853Y-77887704D01*
X102167689Y-77881325D01*
X102073149Y-77723706D01*
X102070628Y-77719245D01*
X101973457Y-77536400D01*
X101972362Y-77534277D01*
X101835642Y-77261043D01*
X101833901Y-77257381D01*
X101810968Y-77206527D01*
X101731674Y-77030689D01*
X101728780Y-77023554D01*
X101722885Y-77007255D01*
X101656132Y-76822689D01*
X101653078Y-76812625D01*
X101604128Y-76614537D01*
X101602156Y-76604296D01*
X101571609Y-76384715D01*
X101570846Y-76377112D01*
X101557614Y-76163269D01*
X102237003Y-76163269D01*
X102237003Y-76432068D01*
X102272085Y-76698553D01*
X102272086Y-76698562D01*
X102341655Y-76958194D01*
X102341656Y-76958197D01*
X102444518Y-77206527D01*
X102578916Y-77439310D01*
X102679576Y-77570494D01*
X102742547Y-77652559D01*
X102932613Y-77842625D01*
X103145862Y-78006256D01*
X103378644Y-78140653D01*
X103626974Y-78243515D01*
X103626977Y-78243516D01*
X103886609Y-78313085D01*
X103886618Y-78313086D01*
X104153104Y-78348169D01*
X104153106Y-78348169D01*
X104421902Y-78348169D01*
X104688387Y-78313086D01*
X104688396Y-78313085D01*
X104861484Y-78266705D01*
X104948029Y-78243516D01*
X105196362Y-78140653D01*
X105222178Y-78125748D01*
X170354000Y-78125748D01*
X170354000Y-78338251D01*
X170387241Y-78548121D01*
X170387244Y-78548135D01*
X170452905Y-78750220D01*
X170549375Y-78939551D01*
X170588729Y-78993716D01*
X171221037Y-78361408D01*
X171238075Y-78424993D01*
X171303901Y-78539007D01*
X171396993Y-78632099D01*
X171511007Y-78697925D01*
X171574590Y-78714962D01*
X170942282Y-79347270D01*
X170996448Y-79386624D01*
X170996453Y-79386627D01*
X171185779Y-79483094D01*
X171387864Y-79548755D01*
X171387878Y-79548758D01*
X171597748Y-79581999D01*
X171597750Y-79582000D01*
X171810250Y-79582000D01*
X171810251Y-79581999D01*
X172020121Y-79548758D01*
X172020135Y-79548755D01*
X172222220Y-79483094D01*
X172411553Y-79386623D01*
X172465717Y-79347270D01*
X171833409Y-78714962D01*
X171896993Y-78697925D01*
X172011007Y-78632099D01*
X172104099Y-78539007D01*
X172169925Y-78424993D01*
X172186962Y-78361409D01*
X172819270Y-78993717D01*
X172858623Y-78939553D01*
X172955094Y-78750220D01*
X173020755Y-78548135D01*
X173020756Y-78548132D01*
X173026510Y-78511803D01*
X173054736Y-78456406D01*
X173110134Y-78428179D01*
X173171543Y-78437904D01*
X173215507Y-78481868D01*
X173224539Y-78507913D01*
X173230792Y-78539351D01*
X173310222Y-78731110D01*
X173310226Y-78731118D01*
X173425536Y-78903692D01*
X173572307Y-79050463D01*
X173744881Y-79165773D01*
X173744883Y-79165774D01*
X173744886Y-79165776D01*
X173936647Y-79245207D01*
X174140220Y-79285700D01*
X174140221Y-79285700D01*
X174347779Y-79285700D01*
X174347780Y-79285700D01*
X174551353Y-79245207D01*
X174743114Y-79165776D01*
X174915694Y-79050462D01*
X175062462Y-78903694D01*
X175177776Y-78731114D01*
X175257207Y-78539353D01*
X175297700Y-78335780D01*
X175297700Y-78128220D01*
X175730300Y-78128220D01*
X175730300Y-78335779D01*
X175770792Y-78539351D01*
X175850222Y-78731110D01*
X175850226Y-78731118D01*
X175965536Y-78903692D01*
X176112307Y-79050463D01*
X176284881Y-79165773D01*
X176284883Y-79165774D01*
X176284886Y-79165776D01*
X176476647Y-79245207D01*
X176680220Y-79285700D01*
X176680221Y-79285700D01*
X176887779Y-79285700D01*
X176887780Y-79285700D01*
X177091353Y-79245207D01*
X177283114Y-79165776D01*
X177455694Y-79050462D01*
X177602462Y-78903694D01*
X177717776Y-78731114D01*
X177797207Y-78539353D01*
X177837700Y-78335780D01*
X177837700Y-78128220D01*
X177797207Y-77924647D01*
X177717776Y-77732886D01*
X177710496Y-77721991D01*
X177602463Y-77560307D01*
X177455692Y-77413536D01*
X177283118Y-77298226D01*
X177283110Y-77298222D01*
X177193352Y-77261043D01*
X177091353Y-77218793D01*
X177091349Y-77218792D01*
X177091352Y-77218792D01*
X176928272Y-77186354D01*
X176887780Y-77178300D01*
X176680220Y-77178300D01*
X176639728Y-77186354D01*
X176476648Y-77218792D01*
X176284889Y-77298222D01*
X176284881Y-77298226D01*
X176112307Y-77413536D01*
X176112306Y-77413538D01*
X175965538Y-77560306D01*
X175965536Y-77560307D01*
X175850226Y-77732881D01*
X175850222Y-77732889D01*
X175770792Y-77924648D01*
X175730300Y-78128220D01*
X175297700Y-78128220D01*
X175257207Y-77924647D01*
X175177776Y-77732886D01*
X175170496Y-77721991D01*
X175062463Y-77560307D01*
X174915692Y-77413536D01*
X174743118Y-77298226D01*
X174743110Y-77298222D01*
X174653352Y-77261043D01*
X174551353Y-77218793D01*
X174551349Y-77218792D01*
X174551352Y-77218792D01*
X174388272Y-77186354D01*
X174347780Y-77178300D01*
X174140220Y-77178300D01*
X174099728Y-77186354D01*
X173936648Y-77218792D01*
X173744889Y-77298222D01*
X173744881Y-77298226D01*
X173572307Y-77413536D01*
X173572306Y-77413538D01*
X173425538Y-77560306D01*
X173425536Y-77560307D01*
X173310226Y-77732881D01*
X173310222Y-77732889D01*
X173230792Y-77924648D01*
X173224539Y-77956086D01*
X173194158Y-78010333D01*
X173137695Y-78036362D01*
X173076716Y-78024231D01*
X173034512Y-77978575D01*
X173026510Y-77952196D01*
X173020756Y-77915867D01*
X173020755Y-77915864D01*
X172955094Y-77713779D01*
X172858627Y-77524453D01*
X172858624Y-77524448D01*
X172819269Y-77470282D01*
X172186962Y-78102590D01*
X172169925Y-78039007D01*
X172104099Y-77924993D01*
X172011007Y-77831901D01*
X171896993Y-77766075D01*
X171833407Y-77749037D01*
X172465716Y-77116729D01*
X172411551Y-77077375D01*
X172222220Y-76980905D01*
X172102407Y-76941976D01*
X172052107Y-76905431D01*
X172032894Y-76846300D01*
X172052107Y-76787169D01*
X172102407Y-76750624D01*
X172133494Y-76745700D01*
X172574063Y-76745700D01*
X172574064Y-76745700D01*
X172633480Y-76733881D01*
X172700860Y-76688860D01*
X172745881Y-76621480D01*
X172757700Y-76562064D01*
X172757700Y-75588220D01*
X173190300Y-75588220D01*
X173190300Y-75795780D01*
X173193098Y-75809847D01*
X173230792Y-75999351D01*
X173310222Y-76191110D01*
X173310226Y-76191118D01*
X173425536Y-76363692D01*
X173572307Y-76510463D01*
X173744881Y-76625773D01*
X173744883Y-76625774D01*
X173744886Y-76625776D01*
X173936647Y-76705207D01*
X174140220Y-76745700D01*
X174140221Y-76745700D01*
X174347779Y-76745700D01*
X174347780Y-76745700D01*
X174551353Y-76705207D01*
X174743114Y-76625776D01*
X174915694Y-76510462D01*
X175062462Y-76363694D01*
X175177776Y-76191114D01*
X175257207Y-75999353D01*
X175297700Y-75795780D01*
X175297700Y-75588220D01*
X175730300Y-75588220D01*
X175730300Y-75795780D01*
X175733098Y-75809847D01*
X175770792Y-75999351D01*
X175850222Y-76191110D01*
X175850226Y-76191118D01*
X175965536Y-76363692D01*
X176112307Y-76510463D01*
X176284881Y-76625773D01*
X176284883Y-76625774D01*
X176284886Y-76625776D01*
X176476647Y-76705207D01*
X176680220Y-76745700D01*
X176680221Y-76745700D01*
X176887779Y-76745700D01*
X176887780Y-76745700D01*
X177091353Y-76705207D01*
X177283114Y-76625776D01*
X177455694Y-76510462D01*
X177602462Y-76363694D01*
X177703602Y-76212327D01*
X181845500Y-76212327D01*
X181845500Y-76481126D01*
X181880582Y-76747611D01*
X181880583Y-76747620D01*
X181950152Y-77007252D01*
X181950153Y-77007255D01*
X182053015Y-77255585D01*
X182187413Y-77488368D01*
X182313400Y-77652559D01*
X182351044Y-77701617D01*
X182541110Y-77891683D01*
X182754359Y-78055314D01*
X182876354Y-78125748D01*
X182987141Y-78189711D01*
X183235471Y-78292573D01*
X183235474Y-78292574D01*
X183495106Y-78362143D01*
X183495115Y-78362144D01*
X183761601Y-78397227D01*
X183761603Y-78397227D01*
X184030399Y-78397227D01*
X184296884Y-78362144D01*
X184296893Y-78362143D01*
X184479978Y-78313085D01*
X184556526Y-78292574D01*
X184804859Y-78189711D01*
X185037641Y-78055314D01*
X185250890Y-77891683D01*
X185440956Y-77701617D01*
X185604587Y-77488368D01*
X185738984Y-77255586D01*
X185841847Y-77007253D01*
X185869130Y-76905431D01*
X185911416Y-76747620D01*
X185911417Y-76747611D01*
X185946500Y-76481126D01*
X185946500Y-76212327D01*
X185911417Y-75945842D01*
X185911416Y-75945833D01*
X185841847Y-75686201D01*
X185841846Y-75686198D01*
X185738984Y-75437868D01*
X185664574Y-75308987D01*
X185604587Y-75205086D01*
X185440956Y-74991837D01*
X185250890Y-74801771D01*
X185131653Y-74710278D01*
X185037641Y-74638140D01*
X184804858Y-74503742D01*
X184556528Y-74400880D01*
X184556525Y-74400879D01*
X184296893Y-74331310D01*
X184296884Y-74331309D01*
X184030399Y-74296227D01*
X184030397Y-74296227D01*
X183761603Y-74296227D01*
X183761601Y-74296227D01*
X183495115Y-74331309D01*
X183495106Y-74331310D01*
X183235474Y-74400879D01*
X183235471Y-74400880D01*
X182987141Y-74503742D01*
X182754358Y-74638140D01*
X182541110Y-74801770D01*
X182351043Y-74991837D01*
X182187413Y-75205085D01*
X182053015Y-75437868D01*
X181950153Y-75686198D01*
X181950152Y-75686201D01*
X181880583Y-75945833D01*
X181880582Y-75945842D01*
X181845500Y-76212327D01*
X177703602Y-76212327D01*
X177717776Y-76191114D01*
X177797207Y-75999353D01*
X177837700Y-75795780D01*
X177837700Y-75588220D01*
X177797207Y-75384647D01*
X177717776Y-75192886D01*
X177705025Y-75173803D01*
X177602463Y-75020307D01*
X177455692Y-74873536D01*
X177283118Y-74758226D01*
X177283110Y-74758222D01*
X177171086Y-74711820D01*
X177091353Y-74678793D01*
X177091349Y-74678792D01*
X177091352Y-74678792D01*
X176928272Y-74646354D01*
X176887780Y-74638300D01*
X176680220Y-74638300D01*
X176639728Y-74646354D01*
X176476648Y-74678792D01*
X176284889Y-74758222D01*
X176284881Y-74758226D01*
X176112307Y-74873536D01*
X176112306Y-74873538D01*
X175965538Y-75020306D01*
X175965536Y-75020307D01*
X175850226Y-75192881D01*
X175850222Y-75192889D01*
X175770792Y-75384648D01*
X175736727Y-75555908D01*
X175730300Y-75588220D01*
X175297700Y-75588220D01*
X175257207Y-75384647D01*
X175177776Y-75192886D01*
X175165025Y-75173803D01*
X175062463Y-75020307D01*
X174915692Y-74873536D01*
X174743118Y-74758226D01*
X174743110Y-74758222D01*
X174631086Y-74711820D01*
X174551353Y-74678793D01*
X174551349Y-74678792D01*
X174551352Y-74678792D01*
X174388272Y-74646354D01*
X174347780Y-74638300D01*
X174140220Y-74638300D01*
X174099728Y-74646354D01*
X173936648Y-74678792D01*
X173744889Y-74758222D01*
X173744881Y-74758226D01*
X173572307Y-74873536D01*
X173572306Y-74873538D01*
X173425538Y-75020306D01*
X173425536Y-75020307D01*
X173310226Y-75192881D01*
X173310222Y-75192889D01*
X173230792Y-75384648D01*
X173196727Y-75555908D01*
X173190300Y-75588220D01*
X172757700Y-75588220D01*
X172757700Y-74821936D01*
X172745881Y-74762520D01*
X172700860Y-74695140D01*
X172633480Y-74650119D01*
X172633479Y-74650118D01*
X172585882Y-74640650D01*
X172574064Y-74638300D01*
X170833936Y-74638300D01*
X170824078Y-74640260D01*
X170774520Y-74650118D01*
X170707140Y-74695140D01*
X170662118Y-74762520D01*
X170650300Y-74821936D01*
X170650300Y-76562063D01*
X170662118Y-76621479D01*
X170662119Y-76621480D01*
X170707140Y-76688860D01*
X170774520Y-76733881D01*
X170833936Y-76745700D01*
X170833937Y-76745700D01*
X171274506Y-76745700D01*
X171333637Y-76764913D01*
X171370182Y-76815213D01*
X171370182Y-76877387D01*
X171333637Y-76927687D01*
X171305593Y-76941976D01*
X171185779Y-76980905D01*
X170996444Y-77077377D01*
X170996443Y-77077378D01*
X170942282Y-77116728D01*
X171574590Y-77749037D01*
X171511007Y-77766075D01*
X171396993Y-77831901D01*
X171303901Y-77924993D01*
X171238075Y-78039007D01*
X171221037Y-78102590D01*
X170588728Y-77470282D01*
X170549378Y-77524443D01*
X170549377Y-77524444D01*
X170452905Y-77713779D01*
X170387244Y-77915864D01*
X170387241Y-77915878D01*
X170354000Y-78125748D01*
X105222178Y-78125748D01*
X105429144Y-78006256D01*
X105642393Y-77842625D01*
X105832459Y-77652559D01*
X105996090Y-77439310D01*
X106130487Y-77206528D01*
X106233350Y-76958195D01*
X106268224Y-76828045D01*
X106302919Y-76698562D01*
X106302920Y-76698553D01*
X106338003Y-76432068D01*
X106338003Y-76163269D01*
X106302920Y-75896784D01*
X106302919Y-75896775D01*
X106233350Y-75637143D01*
X106233349Y-75637140D01*
X106130487Y-75388810D01*
X106084298Y-75308809D01*
X105996090Y-75156028D01*
X105832459Y-74942779D01*
X105642393Y-74752713D01*
X105588053Y-74711017D01*
X105429144Y-74589082D01*
X105196361Y-74454684D01*
X104948031Y-74351822D01*
X104948028Y-74351821D01*
X104688396Y-74282252D01*
X104688387Y-74282251D01*
X104421902Y-74247169D01*
X104421900Y-74247169D01*
X104153106Y-74247169D01*
X104153104Y-74247169D01*
X103886618Y-74282251D01*
X103886609Y-74282252D01*
X103626977Y-74351821D01*
X103626974Y-74351822D01*
X103378644Y-74454684D01*
X103145861Y-74589082D01*
X102932613Y-74752712D01*
X102742546Y-74942779D01*
X102578916Y-75156027D01*
X102444518Y-75388810D01*
X102341656Y-75637140D01*
X102341655Y-75637143D01*
X102272086Y-75896775D01*
X102272085Y-75896784D01*
X102237003Y-76163269D01*
X101557614Y-76163269D01*
X101554492Y-76112814D01*
X101554319Y-76108500D01*
X101552037Y-75986899D01*
X101548117Y-75778016D01*
X101548102Y-75776628D01*
X101547457Y-75556137D01*
X101547459Y-75555240D01*
X101550474Y-75175172D01*
X101550551Y-75171984D01*
X101562637Y-74868870D01*
X101563081Y-74862634D01*
X101588576Y-74614522D01*
X101589983Y-74605185D01*
X101633101Y-74388851D01*
X101635772Y-74378412D01*
X101640001Y-74364935D01*
X101701485Y-74168973D01*
X101704548Y-74160548D01*
X101798827Y-73933415D01*
X101801045Y-73928457D01*
X101929711Y-73660663D01*
X101930411Y-73659237D01*
X101971687Y-73577175D01*
X101972825Y-73574984D01*
X102046617Y-73437192D01*
X102049983Y-73431386D01*
X102077447Y-73387456D01*
X102108928Y-73337099D01*
X102127794Y-73306921D01*
X102132288Y-73300328D01*
X102226919Y-73172750D01*
X102231100Y-73167494D01*
X102355335Y-73021589D01*
X102358284Y-73018279D01*
X102524136Y-72840121D01*
X102525835Y-72838339D01*
X102744829Y-72614347D01*
X102745321Y-72613848D01*
X102900606Y-72458142D01*
X102901216Y-72457539D01*
X103132998Y-72230250D01*
X103134159Y-72229132D01*
X103358280Y-72016815D01*
X103359497Y-72015683D01*
X103561766Y-71831192D01*
X103563649Y-71829519D01*
X103728849Y-71686577D01*
X103732812Y-71683321D01*
X103844819Y-71596027D01*
X103853310Y-71590088D01*
X104093753Y-71439775D01*
X104100847Y-71436033D01*
X104101032Y-71435811D01*
X104101075Y-71435671D01*
X104100375Y-71427761D01*
X104087769Y-70686575D01*
X104087759Y-70685782D01*
X104085685Y-70345339D01*
X104085766Y-70340653D01*
X104089869Y-70239824D01*
X104096279Y-70082296D01*
X104097199Y-70072226D01*
X104124819Y-69878369D01*
X104128659Y-69861716D01*
X104176896Y-69711975D01*
X104185354Y-69692824D01*
X104206010Y-69656757D01*
X104260334Y-69561908D01*
X104270074Y-69547834D01*
X104382477Y-69411828D01*
X104388457Y-69405215D01*
X104522601Y-69269472D01*
X104524288Y-69267805D01*
X104621972Y-69173667D01*
X104624806Y-69171042D01*
X104709051Y-69096035D01*
X104716740Y-69089837D01*
X104795817Y-69032286D01*
X104808254Y-69024555D01*
X104851920Y-69001635D01*
X104893675Y-68979718D01*
X104907741Y-68973654D01*
X105013254Y-68937421D01*
X105025047Y-68934160D01*
X105163553Y-68904826D01*
X105171667Y-68903451D01*
X105353754Y-68880242D01*
X105358670Y-68879739D01*
X105593659Y-68861569D01*
X105596338Y-68861400D01*
X105893354Y-68846770D01*
X105894682Y-68846714D01*
X106263436Y-68833898D01*
X106263536Y-68833895D01*
X106713573Y-68821097D01*
X106713573Y-68821096D01*
X106714133Y-68821081D01*
X106714146Y-68821080D01*
X107020117Y-68812841D01*
X107020118Y-68812888D01*
X107020325Y-68812835D01*
X107844346Y-68792390D01*
X108620658Y-68776598D01*
X109343711Y-68765458D01*
X110007672Y-68758973D01*
X110008167Y-68758969D01*
X110607775Y-68757130D01*
X110608489Y-68757130D01*
X111137954Y-68759935D01*
X111139070Y-68759947D01*
X111593031Y-68767383D01*
X111594422Y-68767418D01*
X111966731Y-68779454D01*
X111969313Y-68779571D01*
X112253865Y-68796114D01*
X112258280Y-68796470D01*
X112426467Y-68813846D01*
X112430129Y-68814292D01*
X112765394Y-68861468D01*
X112865613Y-68875570D01*
X112872174Y-68877414D01*
X112872882Y-68877423D01*
X112879298Y-68877909D01*
X112880087Y-68877647D01*
X112885178Y-68873279D01*
X112885267Y-68873212D01*
X112889527Y-68867764D01*
X113321847Y-68445364D01*
X113322245Y-68444978D01*
X113514996Y-68260009D01*
X113518351Y-68256935D01*
X113680409Y-68115113D01*
X113688208Y-68108944D01*
X113833854Y-68005041D01*
X113846934Y-67997138D01*
X113992295Y-67923775D01*
X114008148Y-67917401D01*
X114172500Y-67867072D01*
X114186204Y-67863906D01*
X114388987Y-67831819D01*
X114397992Y-67830809D01*
X114655761Y-67813607D01*
X114660518Y-67813405D01*
X114987701Y-67807273D01*
X114989678Y-67807256D01*
X115370786Y-67807683D01*
X115371406Y-67807807D01*
X115390336Y-67807708D01*
X115391318Y-67807708D01*
X115429584Y-67807881D01*
X115432468Y-67807652D01*
X115760523Y-67807228D01*
X115762165Y-67807545D01*
X115779375Y-67807221D01*
X115781274Y-67807203D01*
X115801681Y-67807203D01*
X115803336Y-67806795D01*
X116074568Y-67802002D01*
X116077066Y-67802397D01*
X116091037Y-67801753D01*
X116094033Y-67801659D01*
X116110652Y-67801387D01*
X116113167Y-67800757D01*
X116304522Y-67792158D01*
X116309210Y-67792762D01*
X116319109Y-67791702D01*
X116325530Y-67791222D01*
X116335710Y-67790786D01*
X116340268Y-67789475D01*
X116454448Y-67777498D01*
X116454731Y-67777497D01*
X116454794Y-67777462D01*
X116464420Y-67776453D01*
X116464469Y-67776479D01*
X116464619Y-67776432D01*
X116464777Y-67776416D01*
X116464811Y-67776373D01*
X116511090Y-67762095D01*
X116511174Y-67762111D01*
X116511280Y-67762037D01*
X116511405Y-67761999D01*
X116511444Y-67761924D01*
X116609441Y-67694210D01*
X116614342Y-67691573D01*
X116615894Y-67691291D01*
X116622516Y-67687638D01*
X116727098Y-67642980D01*
X116743960Y-67637481D01*
X116887127Y-67604431D01*
X116898668Y-67602468D01*
X117097685Y-67580454D01*
X117104264Y-67579945D01*
X117373152Y-67568061D01*
X117376495Y-67567971D01*
X117728151Y-67564395D01*
X117730965Y-67564406D01*
X118239077Y-67573625D01*
X118244183Y-67573849D01*
X118664475Y-67603163D01*
X118671610Y-67603917D01*
X119036849Y-67655789D01*
X119045424Y-67657391D01*
X119377754Y-67734511D01*
X119385613Y-67736674D01*
X119591331Y-67802397D01*
X119648233Y-67820576D01*
X119650119Y-67821199D01*
X119750245Y-67855441D01*
X119754956Y-67857952D01*
X119761929Y-67859760D01*
X119769650Y-67862095D01*
X119777076Y-67864670D01*
X119782469Y-67865160D01*
X119854266Y-67884095D01*
X119860334Y-67886584D01*
X119861317Y-67886719D01*
X119873255Y-67889099D01*
X119874808Y-67889507D01*
X119881531Y-67889489D01*
X119959110Y-67900113D01*
X119965488Y-67901949D01*
X119967882Y-67902001D01*
X119979699Y-67902954D01*
X119982160Y-67903299D01*
X119988751Y-67902504D01*
X120089199Y-67905030D01*
X120093951Y-67905899D01*
X120101794Y-67905574D01*
X120108620Y-67905523D01*
X120117815Y-67905766D01*
X120122653Y-67904735D01*
X120263089Y-67899124D01*
X120265732Y-67899496D01*
X120279960Y-67898499D01*
X120283197Y-67898324D01*
X120298895Y-67897730D01*
X120301519Y-67897024D01*
X120501221Y-67883393D01*
X120502228Y-67883538D01*
X120522224Y-67881967D01*
X120523388Y-67881883D01*
X120552291Y-67879948D01*
X120553158Y-67879614D01*
X120693329Y-67868962D01*
X120693869Y-67868923D01*
X121471458Y-67816270D01*
X121472878Y-67816185D01*
X122295876Y-67773637D01*
X122296980Y-67773588D01*
X123146370Y-67741453D01*
X123147375Y-67741421D01*
X124004055Y-67720009D01*
X124005224Y-67719988D01*
X124849621Y-67709622D01*
X124850745Y-67709615D01*
X125663973Y-67710603D01*
X125665500Y-67710616D01*
X126427806Y-67723264D01*
X126429569Y-67723310D01*
X127122383Y-67747928D01*
X127123820Y-67747991D01*
X127353690Y-67759912D01*
X128225951Y-67809535D01*
X128230240Y-67810516D01*
X128240044Y-67810516D01*
X128243150Y-67810619D01*
X128243392Y-67810527D01*
X128243394Y-67810528D01*
X128243395Y-67810526D01*
X128243418Y-67810517D01*
X128243420Y-67810518D01*
X128243421Y-67810517D01*
X128243642Y-67810433D01*
X128245903Y-67808309D01*
X128254448Y-67800765D01*
X128257004Y-67797088D01*
X128510334Y-67546668D01*
X128515692Y-67541743D01*
X128726874Y-67361249D01*
X128735208Y-67354849D01*
X128988350Y-67180741D01*
X128995535Y-67176235D01*
X129157270Y-67084089D01*
X129160774Y-67082185D01*
X129513931Y-66899604D01*
X129560280Y-66888370D01*
X130220556Y-66889391D01*
G37*
%TD.AperFunction*%
%TD*%
M02*
