%TF.GenerationSoftware,KiCad,Pcbnew,10.0.5*%
%TF.CreationDate,2026-09-01T05:32:08-07:00*%
%TF.ProjectId,bsidesorl-v1,62736964-6573-46f7-926c-2d76312e6b69,R0*%
%TF.SameCoordinates,Original*%
%TF.FileFunction,Legend,Bot*%
%TF.FilePolarity,Positive*%
%FSLAX46Y46*%
G04 Gerber Fmt 4.6, Leading zero omitted, Abs format (unit mm)*
G04 Created by KiCad (PCBNEW 10.0.5) date 2026-09-01 05:32:08*
%MOMM*%
%LPD*%
G01*
G04 APERTURE LIST*
G04 Aperture macros list*
%AMRoundRect*
0 Rectangle with rounded corners*
0 $1 Rounding radius*
0 $2 $3 $4 $5 $6 $7 $8 $9 X,Y pos of 4 corners*
0 Add a 4 corners polygon primitive as box body*
4,1,4,$2,$3,$4,$5,$6,$7,$8,$9,$2,$3,0*
0 Add four circle primitives for the rounded corners*
1,1,$1+$1,$2,$3*
1,1,$1+$1,$4,$5*
1,1,$1+$1,$6,$7*
1,1,$1+$1,$8,$9*
0 Add four rect primitives between the rounded corners*
20,1,$1+$1,$2,$3,$4,$5,0*
20,1,$1+$1,$4,$5,$6,$7,0*
20,1,$1+$1,$6,$7,$8,$9,0*
20,1,$1+$1,$8,$9,$2,$3,0*%
G04 Aperture macros list end*
%ADD10C,0.406400*%
%ADD11C,0.150000*%
%ADD12C,0.152400*%
%ADD13C,0.254000*%
%ADD14C,0.300000*%
%ADD15C,0.381000*%
%ADD16C,0.200000*%
%ADD17C,0.120000*%
%ADD18C,0.150013*%
%ADD19C,0.254001*%
%ADD20C,0.119990*%
%ADD21C,0.500000*%
%ADD22R,1.800000X1.800000*%
%ADD23C,1.800000*%
%ADD24C,3.700000*%
%ADD25C,3.800000*%
%ADD26R,1.700000X1.700000*%
%ADD27C,1.700000*%
%ADD28RoundRect,0.200000X-0.200000X-0.275000X0.200000X-0.275000X0.200000X0.275000X-0.200000X0.275000X0*%
%ADD29RoundRect,0.250000X-0.375000X-0.850000X0.375000X-0.850000X0.375000X0.850000X-0.375000X0.850000X0*%
%ADD30R,0.650013X1.000000*%
%ADD31RoundRect,0.238000X-0.275000X0.200000X-0.275000X-0.200000X0.275000X-0.200000X0.275000X0.200000X0*%
%ADD32RoundRect,0.238000X-0.200000X-0.275000X0.200000X-0.275000X0.200000X0.275000X-0.200000X0.275000X0*%
%ADD33RoundRect,0.225000X-0.250000X0.225000X-0.250000X-0.225000X0.250000X-0.225000X0.250000X0.225000X0*%
%ADD34RoundRect,0.225000X0.250000X-0.225000X0.250000X0.225000X-0.250000X0.225000X-0.250000X-0.225000X0*%
%ADD35RoundRect,0.200000X0.275000X-0.200000X0.275000X0.200000X-0.275000X0.200000X-0.275000X-0.200000X0*%
%ADD36RoundRect,0.205000X0.205000X-0.470000X0.205000X0.470000X-0.205000X0.470000X-0.205000X-0.470000X0*%
%ADD37RoundRect,0.238000X0.200000X0.275000X-0.200000X0.275000X-0.200000X-0.275000X0.200000X-0.275000X0*%
%ADD38RoundRect,0.200000X-0.275000X0.200000X-0.275000X-0.200000X0.275000X-0.200000X0.275000X0.200000X0*%
%ADD39RoundRect,0.100000X0.637500X0.100000X-0.637500X0.100000X-0.637500X-0.100000X0.637500X-0.100000X0*%
%ADD40R,0.664999X0.200000*%
%ADD41R,0.664999X0.400000*%
%ADD42R,2.000000X1.199898*%
%ADD43R,0.521006X0.250013*%
%ADD44R,0.900000X1.600000*%
%ADD45C,2.200000*%
%ADD46R,2.200000X2.200000*%
G04 APERTURE END LIST*
D10*
X172923200Y-84328000D02*
G75*
G02*
X172516800Y-84328000I-203200J0D01*
G01*
X172516800Y-84328000D02*
G75*
G02*
X172923200Y-84328000I203200J0D01*
G01*
X172923200Y-85852000D02*
G75*
G02*
X172516800Y-85852000I-203200J0D01*
G01*
X172516800Y-85852000D02*
G75*
G02*
X172923200Y-85852000I203200J0D01*
G01*
X174447200Y-84328000D02*
G75*
G02*
X174040800Y-84328000I-203200J0D01*
G01*
X174040800Y-84328000D02*
G75*
G02*
X174447200Y-84328000I203200J0D01*
G01*
X174447200Y-85852000D02*
G75*
G02*
X174040800Y-85852000I-203200J0D01*
G01*
X174040800Y-85852000D02*
G75*
G02*
X174447200Y-85852000I203200J0D01*
G01*
X175971200Y-84328000D02*
G75*
G02*
X175564800Y-84328000I-203200J0D01*
G01*
X175564800Y-84328000D02*
G75*
G02*
X175971200Y-84328000I203200J0D01*
G01*
X175971200Y-85852000D02*
G75*
G02*
X175564800Y-85852000I-203200J0D01*
G01*
X175564800Y-85852000D02*
G75*
G02*
X175971200Y-85852000I203200J0D01*
G01*
D11*
X136400935Y-119572340D02*
X136286649Y-119619959D01*
X136286649Y-119619959D02*
X136096173Y-119619959D01*
X136096173Y-119619959D02*
X136019982Y-119572340D01*
X136019982Y-119572340D02*
X135981887Y-119524720D01*
X135981887Y-119524720D02*
X135943792Y-119429482D01*
X135943792Y-119429482D02*
X135943792Y-119334244D01*
X135943792Y-119334244D02*
X135981887Y-119239006D01*
X135981887Y-119239006D02*
X136019982Y-119191387D01*
X136019982Y-119191387D02*
X136096173Y-119143768D01*
X136096173Y-119143768D02*
X136248554Y-119096149D01*
X136248554Y-119096149D02*
X136324744Y-119048530D01*
X136324744Y-119048530D02*
X136362839Y-119000911D01*
X136362839Y-119000911D02*
X136400935Y-118905673D01*
X136400935Y-118905673D02*
X136400935Y-118810435D01*
X136400935Y-118810435D02*
X136362839Y-118715197D01*
X136362839Y-118715197D02*
X136324744Y-118667578D01*
X136324744Y-118667578D02*
X136248554Y-118619959D01*
X136248554Y-118619959D02*
X136058077Y-118619959D01*
X136058077Y-118619959D02*
X135943792Y-118667578D01*
X135639030Y-119334244D02*
X135258077Y-119334244D01*
X135715220Y-119619959D02*
X135448553Y-118619959D01*
X135448553Y-118619959D02*
X135181887Y-119619959D01*
X134762839Y-118619959D02*
X134610458Y-118619959D01*
X134610458Y-118619959D02*
X134534268Y-118667578D01*
X134534268Y-118667578D02*
X134458077Y-118762816D01*
X134458077Y-118762816D02*
X134419982Y-118953292D01*
X134419982Y-118953292D02*
X134419982Y-119286625D01*
X134419982Y-119286625D02*
X134458077Y-119477101D01*
X134458077Y-119477101D02*
X134534268Y-119572340D01*
X134534268Y-119572340D02*
X134610458Y-119619959D01*
X134610458Y-119619959D02*
X134762839Y-119619959D01*
X134762839Y-119619959D02*
X134839030Y-119572340D01*
X134839030Y-119572340D02*
X134915220Y-119477101D01*
X134915220Y-119477101D02*
X134953316Y-119286625D01*
X134953316Y-119286625D02*
X134953316Y-118953292D01*
X134953316Y-118953292D02*
X134915220Y-118762816D01*
X134915220Y-118762816D02*
X134839030Y-118667578D01*
X134839030Y-118667578D02*
X134762839Y-118619959D01*
X133124744Y-119572340D02*
X133200935Y-119619959D01*
X133200935Y-119619959D02*
X133353316Y-119619959D01*
X133353316Y-119619959D02*
X133429506Y-119572340D01*
X133429506Y-119572340D02*
X133467601Y-119524720D01*
X133467601Y-119524720D02*
X133505697Y-119429482D01*
X133505697Y-119429482D02*
X133505697Y-119143768D01*
X133505697Y-119143768D02*
X133467601Y-119048530D01*
X133467601Y-119048530D02*
X133429506Y-119000911D01*
X133429506Y-119000911D02*
X133353316Y-118953292D01*
X133353316Y-118953292D02*
X133200935Y-118953292D01*
X133200935Y-118953292D02*
X133124744Y-119000911D01*
X132667602Y-119619959D02*
X132743792Y-119572340D01*
X132743792Y-119572340D02*
X132781887Y-119524720D01*
X132781887Y-119524720D02*
X132819983Y-119429482D01*
X132819983Y-119429482D02*
X132819983Y-119143768D01*
X132819983Y-119143768D02*
X132781887Y-119048530D01*
X132781887Y-119048530D02*
X132743792Y-119000911D01*
X132743792Y-119000911D02*
X132667602Y-118953292D01*
X132667602Y-118953292D02*
X132553316Y-118953292D01*
X132553316Y-118953292D02*
X132477125Y-119000911D01*
X132477125Y-119000911D02*
X132439030Y-119048530D01*
X132439030Y-119048530D02*
X132400935Y-119143768D01*
X132400935Y-119143768D02*
X132400935Y-119429482D01*
X132400935Y-119429482D02*
X132439030Y-119524720D01*
X132439030Y-119524720D02*
X132477125Y-119572340D01*
X132477125Y-119572340D02*
X132553316Y-119619959D01*
X132553316Y-119619959D02*
X132667602Y-119619959D01*
X132058077Y-118953292D02*
X132058077Y-119619959D01*
X132058077Y-119048530D02*
X132019982Y-119000911D01*
X132019982Y-119000911D02*
X131943792Y-118953292D01*
X131943792Y-118953292D02*
X131829506Y-118953292D01*
X131829506Y-118953292D02*
X131753315Y-119000911D01*
X131753315Y-119000911D02*
X131715220Y-119096149D01*
X131715220Y-119096149D02*
X131715220Y-119619959D01*
X131334267Y-118953292D02*
X131334267Y-119619959D01*
X131334267Y-119048530D02*
X131296172Y-119000911D01*
X131296172Y-119000911D02*
X131219982Y-118953292D01*
X131219982Y-118953292D02*
X131105696Y-118953292D01*
X131105696Y-118953292D02*
X131029505Y-119000911D01*
X131029505Y-119000911D02*
X130991410Y-119096149D01*
X130991410Y-119096149D02*
X130991410Y-119619959D01*
X130305695Y-119572340D02*
X130381886Y-119619959D01*
X130381886Y-119619959D02*
X130534267Y-119619959D01*
X130534267Y-119619959D02*
X130610457Y-119572340D01*
X130610457Y-119572340D02*
X130648553Y-119477101D01*
X130648553Y-119477101D02*
X130648553Y-119096149D01*
X130648553Y-119096149D02*
X130610457Y-119000911D01*
X130610457Y-119000911D02*
X130534267Y-118953292D01*
X130534267Y-118953292D02*
X130381886Y-118953292D01*
X130381886Y-118953292D02*
X130305695Y-119000911D01*
X130305695Y-119000911D02*
X130267600Y-119096149D01*
X130267600Y-119096149D02*
X130267600Y-119191387D01*
X130267600Y-119191387D02*
X130648553Y-119286625D01*
X129581886Y-119572340D02*
X129658077Y-119619959D01*
X129658077Y-119619959D02*
X129810458Y-119619959D01*
X129810458Y-119619959D02*
X129886648Y-119572340D01*
X129886648Y-119572340D02*
X129924743Y-119524720D01*
X129924743Y-119524720D02*
X129962839Y-119429482D01*
X129962839Y-119429482D02*
X129962839Y-119143768D01*
X129962839Y-119143768D02*
X129924743Y-119048530D01*
X129924743Y-119048530D02*
X129886648Y-119000911D01*
X129886648Y-119000911D02*
X129810458Y-118953292D01*
X129810458Y-118953292D02*
X129658077Y-118953292D01*
X129658077Y-118953292D02*
X129581886Y-119000911D01*
X129353315Y-118953292D02*
X129048553Y-118953292D01*
X129239029Y-118619959D02*
X129239029Y-119477101D01*
X129239029Y-119477101D02*
X129200934Y-119572340D01*
X129200934Y-119572340D02*
X129124744Y-119619959D01*
X129124744Y-119619959D02*
X129048553Y-119619959D01*
X128667601Y-119619959D02*
X128743791Y-119572340D01*
X128743791Y-119572340D02*
X128781886Y-119524720D01*
X128781886Y-119524720D02*
X128819982Y-119429482D01*
X128819982Y-119429482D02*
X128819982Y-119143768D01*
X128819982Y-119143768D02*
X128781886Y-119048530D01*
X128781886Y-119048530D02*
X128743791Y-119000911D01*
X128743791Y-119000911D02*
X128667601Y-118953292D01*
X128667601Y-118953292D02*
X128553315Y-118953292D01*
X128553315Y-118953292D02*
X128477124Y-119000911D01*
X128477124Y-119000911D02*
X128439029Y-119048530D01*
X128439029Y-119048530D02*
X128400934Y-119143768D01*
X128400934Y-119143768D02*
X128400934Y-119429482D01*
X128400934Y-119429482D02*
X128439029Y-119524720D01*
X128439029Y-119524720D02*
X128477124Y-119572340D01*
X128477124Y-119572340D02*
X128553315Y-119619959D01*
X128553315Y-119619959D02*
X128667601Y-119619959D01*
X128058076Y-119619959D02*
X128058076Y-118953292D01*
X128058076Y-119143768D02*
X128019981Y-119048530D01*
X128019981Y-119048530D02*
X127981886Y-119000911D01*
X127981886Y-119000911D02*
X127905695Y-118953292D01*
X127905695Y-118953292D02*
X127829505Y-118953292D01*
X126991410Y-119572340D02*
X126915219Y-119619959D01*
X126915219Y-119619959D02*
X126762838Y-119619959D01*
X126762838Y-119619959D02*
X126686648Y-119572340D01*
X126686648Y-119572340D02*
X126648552Y-119477101D01*
X126648552Y-119477101D02*
X126648552Y-119429482D01*
X126648552Y-119429482D02*
X126686648Y-119334244D01*
X126686648Y-119334244D02*
X126762838Y-119286625D01*
X126762838Y-119286625D02*
X126877124Y-119286625D01*
X126877124Y-119286625D02*
X126953314Y-119239006D01*
X126953314Y-119239006D02*
X126991410Y-119143768D01*
X126991410Y-119143768D02*
X126991410Y-119096149D01*
X126991410Y-119096149D02*
X126953314Y-119000911D01*
X126953314Y-119000911D02*
X126877124Y-118953292D01*
X126877124Y-118953292D02*
X126762838Y-118953292D01*
X126762838Y-118953292D02*
X126686648Y-119000911D01*
X126305695Y-119619959D02*
X126305695Y-118619959D01*
X125962838Y-119619959D02*
X125962838Y-119096149D01*
X125962838Y-119096149D02*
X126000933Y-119000911D01*
X126000933Y-119000911D02*
X126077124Y-118953292D01*
X126077124Y-118953292D02*
X126191410Y-118953292D01*
X126191410Y-118953292D02*
X126267600Y-119000911D01*
X126267600Y-119000911D02*
X126305695Y-119048530D01*
X125467600Y-119619959D02*
X125543790Y-119572340D01*
X125543790Y-119572340D02*
X125581885Y-119524720D01*
X125581885Y-119524720D02*
X125619981Y-119429482D01*
X125619981Y-119429482D02*
X125619981Y-119143768D01*
X125619981Y-119143768D02*
X125581885Y-119048530D01*
X125581885Y-119048530D02*
X125543790Y-119000911D01*
X125543790Y-119000911D02*
X125467600Y-118953292D01*
X125467600Y-118953292D02*
X125353314Y-118953292D01*
X125353314Y-118953292D02*
X125277123Y-119000911D01*
X125277123Y-119000911D02*
X125239028Y-119048530D01*
X125239028Y-119048530D02*
X125200933Y-119143768D01*
X125200933Y-119143768D02*
X125200933Y-119429482D01*
X125200933Y-119429482D02*
X125239028Y-119524720D01*
X125239028Y-119524720D02*
X125277123Y-119572340D01*
X125277123Y-119572340D02*
X125353314Y-119619959D01*
X125353314Y-119619959D02*
X125467600Y-119619959D01*
X124515218Y-118953292D02*
X124515218Y-119619959D01*
X124858075Y-118953292D02*
X124858075Y-119477101D01*
X124858075Y-119477101D02*
X124819980Y-119572340D01*
X124819980Y-119572340D02*
X124743790Y-119619959D01*
X124743790Y-119619959D02*
X124629504Y-119619959D01*
X124629504Y-119619959D02*
X124553313Y-119572340D01*
X124553313Y-119572340D02*
X124515218Y-119524720D01*
X124019980Y-119619959D02*
X124096170Y-119572340D01*
X124096170Y-119572340D02*
X124134265Y-119477101D01*
X124134265Y-119477101D02*
X124134265Y-118619959D01*
X123372360Y-119619959D02*
X123372360Y-118619959D01*
X123372360Y-119572340D02*
X123448551Y-119619959D01*
X123448551Y-119619959D02*
X123600932Y-119619959D01*
X123600932Y-119619959D02*
X123677122Y-119572340D01*
X123677122Y-119572340D02*
X123715217Y-119524720D01*
X123715217Y-119524720D02*
X123753313Y-119429482D01*
X123753313Y-119429482D02*
X123753313Y-119143768D01*
X123753313Y-119143768D02*
X123715217Y-119048530D01*
X123715217Y-119048530D02*
X123677122Y-119000911D01*
X123677122Y-119000911D02*
X123600932Y-118953292D01*
X123600932Y-118953292D02*
X123448551Y-118953292D01*
X123448551Y-118953292D02*
X123372360Y-119000911D01*
X136362839Y-121229903D02*
X136362839Y-120229903D01*
X136019982Y-121229903D02*
X136019982Y-120706093D01*
X136019982Y-120706093D02*
X136058077Y-120610855D01*
X136058077Y-120610855D02*
X136134268Y-120563236D01*
X136134268Y-120563236D02*
X136248554Y-120563236D01*
X136248554Y-120563236D02*
X136324744Y-120610855D01*
X136324744Y-120610855D02*
X136362839Y-120658474D01*
X135296172Y-121229903D02*
X135296172Y-120706093D01*
X135296172Y-120706093D02*
X135334267Y-120610855D01*
X135334267Y-120610855D02*
X135410458Y-120563236D01*
X135410458Y-120563236D02*
X135562839Y-120563236D01*
X135562839Y-120563236D02*
X135639029Y-120610855D01*
X135296172Y-121182284D02*
X135372363Y-121229903D01*
X135372363Y-121229903D02*
X135562839Y-121229903D01*
X135562839Y-121229903D02*
X135639029Y-121182284D01*
X135639029Y-121182284D02*
X135677125Y-121087045D01*
X135677125Y-121087045D02*
X135677125Y-120991807D01*
X135677125Y-120991807D02*
X135639029Y-120896569D01*
X135639029Y-120896569D02*
X135562839Y-120848950D01*
X135562839Y-120848950D02*
X135372363Y-120848950D01*
X135372363Y-120848950D02*
X135296172Y-120801331D01*
X134991410Y-120563236D02*
X134800934Y-121229903D01*
X134800934Y-121229903D02*
X134610457Y-120563236D01*
X134000933Y-121182284D02*
X134077124Y-121229903D01*
X134077124Y-121229903D02*
X134229505Y-121229903D01*
X134229505Y-121229903D02*
X134305695Y-121182284D01*
X134305695Y-121182284D02*
X134343791Y-121087045D01*
X134343791Y-121087045D02*
X134343791Y-120706093D01*
X134343791Y-120706093D02*
X134305695Y-120610855D01*
X134305695Y-120610855D02*
X134229505Y-120563236D01*
X134229505Y-120563236D02*
X134077124Y-120563236D01*
X134077124Y-120563236D02*
X134000933Y-120610855D01*
X134000933Y-120610855D02*
X133962838Y-120706093D01*
X133962838Y-120706093D02*
X133962838Y-120801331D01*
X133962838Y-120801331D02*
X134343791Y-120896569D01*
X133010457Y-120563236D02*
X133010457Y-121229903D01*
X133010457Y-120658474D02*
X132972362Y-120610855D01*
X132972362Y-120610855D02*
X132896172Y-120563236D01*
X132896172Y-120563236D02*
X132781886Y-120563236D01*
X132781886Y-120563236D02*
X132705695Y-120610855D01*
X132705695Y-120610855D02*
X132667600Y-120706093D01*
X132667600Y-120706093D02*
X132667600Y-121229903D01*
X132172362Y-121229903D02*
X132248552Y-121182284D01*
X132248552Y-121182284D02*
X132286647Y-121134664D01*
X132286647Y-121134664D02*
X132324743Y-121039426D01*
X132324743Y-121039426D02*
X132324743Y-120753712D01*
X132324743Y-120753712D02*
X132286647Y-120658474D01*
X132286647Y-120658474D02*
X132248552Y-120610855D01*
X132248552Y-120610855D02*
X132172362Y-120563236D01*
X132172362Y-120563236D02*
X132058076Y-120563236D01*
X132058076Y-120563236D02*
X131981885Y-120610855D01*
X131981885Y-120610855D02*
X131943790Y-120658474D01*
X131943790Y-120658474D02*
X131905695Y-120753712D01*
X131905695Y-120753712D02*
X131905695Y-121039426D01*
X131905695Y-121039426D02*
X131943790Y-121134664D01*
X131943790Y-121134664D02*
X131981885Y-121182284D01*
X131981885Y-121182284D02*
X132058076Y-121229903D01*
X132058076Y-121229903D02*
X132172362Y-121229903D01*
X131677123Y-120563236D02*
X131372361Y-120563236D01*
X131562837Y-120229903D02*
X131562837Y-121087045D01*
X131562837Y-121087045D02*
X131524742Y-121182284D01*
X131524742Y-121182284D02*
X131448552Y-121229903D01*
X131448552Y-121229903D02*
X131372361Y-121229903D01*
X130762837Y-121182284D02*
X130839028Y-121229903D01*
X130839028Y-121229903D02*
X130991409Y-121229903D01*
X130991409Y-121229903D02*
X131067599Y-121182284D01*
X131067599Y-121182284D02*
X131105694Y-121134664D01*
X131105694Y-121134664D02*
X131143790Y-121039426D01*
X131143790Y-121039426D02*
X131143790Y-120753712D01*
X131143790Y-120753712D02*
X131105694Y-120658474D01*
X131105694Y-120658474D02*
X131067599Y-120610855D01*
X131067599Y-120610855D02*
X130991409Y-120563236D01*
X130991409Y-120563236D02*
X130839028Y-120563236D01*
X130839028Y-120563236D02*
X130762837Y-120610855D01*
X130419980Y-121229903D02*
X130419980Y-120229903D01*
X130077123Y-121229903D02*
X130077123Y-120706093D01*
X130077123Y-120706093D02*
X130115218Y-120610855D01*
X130115218Y-120610855D02*
X130191409Y-120563236D01*
X130191409Y-120563236D02*
X130305695Y-120563236D01*
X130305695Y-120563236D02*
X130381885Y-120610855D01*
X130381885Y-120610855D02*
X130419980Y-120658474D01*
X129200932Y-120563236D02*
X128896170Y-120563236D01*
X129086646Y-121229903D02*
X129086646Y-120372760D01*
X129086646Y-120372760D02*
X129048551Y-120277522D01*
X129048551Y-120277522D02*
X128972361Y-120229903D01*
X128972361Y-120229903D02*
X128896170Y-120229903D01*
X128286646Y-121229903D02*
X128286646Y-120706093D01*
X128286646Y-120706093D02*
X128324741Y-120610855D01*
X128324741Y-120610855D02*
X128400932Y-120563236D01*
X128400932Y-120563236D02*
X128553313Y-120563236D01*
X128553313Y-120563236D02*
X128629503Y-120610855D01*
X128286646Y-121182284D02*
X128362837Y-121229903D01*
X128362837Y-121229903D02*
X128553313Y-121229903D01*
X128553313Y-121229903D02*
X128629503Y-121182284D01*
X128629503Y-121182284D02*
X128667599Y-121087045D01*
X128667599Y-121087045D02*
X128667599Y-120991807D01*
X128667599Y-120991807D02*
X128629503Y-120896569D01*
X128629503Y-120896569D02*
X128553313Y-120848950D01*
X128553313Y-120848950D02*
X128362837Y-120848950D01*
X128362837Y-120848950D02*
X128286646Y-120801331D01*
X127562836Y-121182284D02*
X127639027Y-121229903D01*
X127639027Y-121229903D02*
X127791408Y-121229903D01*
X127791408Y-121229903D02*
X127867598Y-121182284D01*
X127867598Y-121182284D02*
X127905693Y-121134664D01*
X127905693Y-121134664D02*
X127943789Y-121039426D01*
X127943789Y-121039426D02*
X127943789Y-120753712D01*
X127943789Y-120753712D02*
X127905693Y-120658474D01*
X127905693Y-120658474D02*
X127867598Y-120610855D01*
X127867598Y-120610855D02*
X127791408Y-120563236D01*
X127791408Y-120563236D02*
X127639027Y-120563236D01*
X127639027Y-120563236D02*
X127562836Y-120610855D01*
X127219979Y-121229903D02*
X127219979Y-120563236D01*
X127219979Y-120229903D02*
X127258075Y-120277522D01*
X127258075Y-120277522D02*
X127219979Y-120325141D01*
X127219979Y-120325141D02*
X127181884Y-120277522D01*
X127181884Y-120277522D02*
X127219979Y-120229903D01*
X127219979Y-120229903D02*
X127219979Y-120325141D01*
X126839027Y-120563236D02*
X126839027Y-121229903D01*
X126839027Y-120658474D02*
X126800932Y-120610855D01*
X126800932Y-120610855D02*
X126724742Y-120563236D01*
X126724742Y-120563236D02*
X126610456Y-120563236D01*
X126610456Y-120563236D02*
X126534265Y-120610855D01*
X126534265Y-120610855D02*
X126496170Y-120706093D01*
X126496170Y-120706093D02*
X126496170Y-121229903D01*
X125772360Y-120563236D02*
X125772360Y-121372760D01*
X125772360Y-121372760D02*
X125810455Y-121467998D01*
X125810455Y-121467998D02*
X125848551Y-121515617D01*
X125848551Y-121515617D02*
X125924741Y-121563236D01*
X125924741Y-121563236D02*
X126039027Y-121563236D01*
X126039027Y-121563236D02*
X126115217Y-121515617D01*
X125772360Y-121182284D02*
X125848551Y-121229903D01*
X125848551Y-121229903D02*
X126000932Y-121229903D01*
X126000932Y-121229903D02*
X126077122Y-121182284D01*
X126077122Y-121182284D02*
X126115217Y-121134664D01*
X126115217Y-121134664D02*
X126153313Y-121039426D01*
X126153313Y-121039426D02*
X126153313Y-120753712D01*
X126153313Y-120753712D02*
X126115217Y-120658474D01*
X126115217Y-120658474D02*
X126077122Y-120610855D01*
X126077122Y-120610855D02*
X126000932Y-120563236D01*
X126000932Y-120563236D02*
X125848551Y-120563236D01*
X125848551Y-120563236D02*
X125772360Y-120610855D01*
X124439026Y-120563236D02*
X124439026Y-121229903D01*
X124781883Y-120563236D02*
X124781883Y-121087045D01*
X124781883Y-121087045D02*
X124743788Y-121182284D01*
X124743788Y-121182284D02*
X124667598Y-121229903D01*
X124667598Y-121229903D02*
X124553312Y-121229903D01*
X124553312Y-121229903D02*
X124477121Y-121182284D01*
X124477121Y-121182284D02*
X124439026Y-121134664D01*
X124058073Y-120563236D02*
X124058073Y-121563236D01*
X124058073Y-120610855D02*
X123981883Y-120563236D01*
X123981883Y-120563236D02*
X123829502Y-120563236D01*
X123829502Y-120563236D02*
X123753311Y-120610855D01*
X123753311Y-120610855D02*
X123715216Y-120658474D01*
X123715216Y-120658474D02*
X123677121Y-120753712D01*
X123677121Y-120753712D02*
X123677121Y-121039426D01*
X123677121Y-121039426D02*
X123715216Y-121134664D01*
X123715216Y-121134664D02*
X123753311Y-121182284D01*
X123753311Y-121182284D02*
X123829502Y-121229903D01*
X123829502Y-121229903D02*
X123981883Y-121229903D01*
X123981883Y-121229903D02*
X124058073Y-121182284D01*
X123334263Y-121134664D02*
X123296168Y-121182284D01*
X123296168Y-121182284D02*
X123334263Y-121229903D01*
X123334263Y-121229903D02*
X123372359Y-121182284D01*
X123372359Y-121182284D02*
X123334263Y-121134664D01*
X123334263Y-121134664D02*
X123334263Y-121229903D01*
X123334263Y-120848950D02*
X123372359Y-120277522D01*
X123372359Y-120277522D02*
X123334263Y-120229903D01*
X123334263Y-120229903D02*
X123296168Y-120277522D01*
X123296168Y-120277522D02*
X123334263Y-120848950D01*
X123334263Y-120848950D02*
X123334263Y-120229903D01*
X136019982Y-123783124D02*
X136019982Y-124449791D01*
X136210458Y-123402172D02*
X136400935Y-124116457D01*
X136400935Y-124116457D02*
X135905696Y-124116457D01*
X134610458Y-124449791D02*
X134991410Y-124449791D01*
X134991410Y-124449791D02*
X134991410Y-123449791D01*
X134343791Y-123925981D02*
X134077125Y-123925981D01*
X133962839Y-124449791D02*
X134343791Y-124449791D01*
X134343791Y-124449791D02*
X134343791Y-123449791D01*
X134343791Y-123449791D02*
X133962839Y-123449791D01*
X133619981Y-124449791D02*
X133619981Y-123449791D01*
X133619981Y-123449791D02*
X133429505Y-123449791D01*
X133429505Y-123449791D02*
X133315219Y-123497410D01*
X133315219Y-123497410D02*
X133239029Y-123592648D01*
X133239029Y-123592648D02*
X133200934Y-123687886D01*
X133200934Y-123687886D02*
X133162838Y-123878362D01*
X133162838Y-123878362D02*
X133162838Y-124021219D01*
X133162838Y-124021219D02*
X133200934Y-124211695D01*
X133200934Y-124211695D02*
X133239029Y-124306933D01*
X133239029Y-124306933D02*
X133315219Y-124402172D01*
X133315219Y-124402172D02*
X133429505Y-124449791D01*
X133429505Y-124449791D02*
X133619981Y-124449791D01*
X132858077Y-124402172D02*
X132781886Y-124449791D01*
X132781886Y-124449791D02*
X132629505Y-124449791D01*
X132629505Y-124449791D02*
X132553315Y-124402172D01*
X132553315Y-124402172D02*
X132515219Y-124306933D01*
X132515219Y-124306933D02*
X132515219Y-124259314D01*
X132515219Y-124259314D02*
X132553315Y-124164076D01*
X132553315Y-124164076D02*
X132629505Y-124116457D01*
X132629505Y-124116457D02*
X132743791Y-124116457D01*
X132743791Y-124116457D02*
X132819981Y-124068838D01*
X132819981Y-124068838D02*
X132858077Y-123973600D01*
X132858077Y-123973600D02*
X132858077Y-123925981D01*
X132858077Y-123925981D02*
X132819981Y-123830743D01*
X132819981Y-123830743D02*
X132743791Y-123783124D01*
X132743791Y-123783124D02*
X132629505Y-123783124D01*
X132629505Y-123783124D02*
X132553315Y-123830743D01*
X132172362Y-124354552D02*
X132134267Y-124402172D01*
X132134267Y-124402172D02*
X132172362Y-124449791D01*
X132172362Y-124449791D02*
X132210458Y-124402172D01*
X132210458Y-124402172D02*
X132172362Y-124354552D01*
X132172362Y-124354552D02*
X132172362Y-124449791D01*
X132172362Y-123830743D02*
X132134267Y-123878362D01*
X132134267Y-123878362D02*
X132172362Y-123925981D01*
X132172362Y-123925981D02*
X132210458Y-123878362D01*
X132210458Y-123878362D02*
X132172362Y-123830743D01*
X132172362Y-123830743D02*
X132172362Y-123925981D01*
X136400935Y-126012116D02*
X136324744Y-126059735D01*
X136324744Y-126059735D02*
X136172363Y-126059735D01*
X136172363Y-126059735D02*
X136096173Y-126012116D01*
X136096173Y-126012116D02*
X136058077Y-125916877D01*
X136058077Y-125916877D02*
X136058077Y-125869258D01*
X136058077Y-125869258D02*
X136096173Y-125774020D01*
X136096173Y-125774020D02*
X136172363Y-125726401D01*
X136172363Y-125726401D02*
X136286649Y-125726401D01*
X136286649Y-125726401D02*
X136362839Y-125678782D01*
X136362839Y-125678782D02*
X136400935Y-125583544D01*
X136400935Y-125583544D02*
X136400935Y-125535925D01*
X136400935Y-125535925D02*
X136362839Y-125440687D01*
X136362839Y-125440687D02*
X136286649Y-125393068D01*
X136286649Y-125393068D02*
X136172363Y-125393068D01*
X136172363Y-125393068D02*
X136096173Y-125440687D01*
X135372363Y-125393068D02*
X135372363Y-126393068D01*
X135372363Y-126012116D02*
X135448554Y-126059735D01*
X135448554Y-126059735D02*
X135600935Y-126059735D01*
X135600935Y-126059735D02*
X135677125Y-126012116D01*
X135677125Y-126012116D02*
X135715220Y-125964496D01*
X135715220Y-125964496D02*
X135753316Y-125869258D01*
X135753316Y-125869258D02*
X135753316Y-125583544D01*
X135753316Y-125583544D02*
X135715220Y-125488306D01*
X135715220Y-125488306D02*
X135677125Y-125440687D01*
X135677125Y-125440687D02*
X135600935Y-125393068D01*
X135600935Y-125393068D02*
X135448554Y-125393068D01*
X135448554Y-125393068D02*
X135372363Y-125440687D01*
X134648553Y-125393068D02*
X134648553Y-126059735D01*
X134991410Y-125393068D02*
X134991410Y-125916877D01*
X134991410Y-125916877D02*
X134953315Y-126012116D01*
X134953315Y-126012116D02*
X134877125Y-126059735D01*
X134877125Y-126059735D02*
X134762839Y-126059735D01*
X134762839Y-126059735D02*
X134686648Y-126012116D01*
X134686648Y-126012116D02*
X134648553Y-125964496D01*
X133924743Y-126059735D02*
X133924743Y-125535925D01*
X133924743Y-125535925D02*
X133962838Y-125440687D01*
X133962838Y-125440687D02*
X134039029Y-125393068D01*
X134039029Y-125393068D02*
X134191410Y-125393068D01*
X134191410Y-125393068D02*
X134267600Y-125440687D01*
X133924743Y-126012116D02*
X134000934Y-126059735D01*
X134000934Y-126059735D02*
X134191410Y-126059735D01*
X134191410Y-126059735D02*
X134267600Y-126012116D01*
X134267600Y-126012116D02*
X134305696Y-125916877D01*
X134305696Y-125916877D02*
X134305696Y-125821639D01*
X134305696Y-125821639D02*
X134267600Y-125726401D01*
X134267600Y-125726401D02*
X134191410Y-125678782D01*
X134191410Y-125678782D02*
X134000934Y-125678782D01*
X134000934Y-125678782D02*
X133924743Y-125631163D01*
X133543790Y-126059735D02*
X133543790Y-125393068D01*
X133543790Y-125583544D02*
X133505695Y-125488306D01*
X133505695Y-125488306D02*
X133467600Y-125440687D01*
X133467600Y-125440687D02*
X133391409Y-125393068D01*
X133391409Y-125393068D02*
X133315219Y-125393068D01*
X132743790Y-126012116D02*
X132819981Y-126059735D01*
X132819981Y-126059735D02*
X132972362Y-126059735D01*
X132972362Y-126059735D02*
X133048552Y-126012116D01*
X133048552Y-126012116D02*
X133086648Y-125916877D01*
X133086648Y-125916877D02*
X133086648Y-125535925D01*
X133086648Y-125535925D02*
X133048552Y-125440687D01*
X133048552Y-125440687D02*
X132972362Y-125393068D01*
X132972362Y-125393068D02*
X132819981Y-125393068D01*
X132819981Y-125393068D02*
X132743790Y-125440687D01*
X132743790Y-125440687D02*
X132705695Y-125535925D01*
X132705695Y-125535925D02*
X132705695Y-125631163D01*
X132705695Y-125631163D02*
X133086648Y-125726401D01*
X131753314Y-125393068D02*
X131753314Y-126393068D01*
X131753314Y-125440687D02*
X131677124Y-125393068D01*
X131677124Y-125393068D02*
X131524743Y-125393068D01*
X131524743Y-125393068D02*
X131448552Y-125440687D01*
X131448552Y-125440687D02*
X131410457Y-125488306D01*
X131410457Y-125488306D02*
X131372362Y-125583544D01*
X131372362Y-125583544D02*
X131372362Y-125869258D01*
X131372362Y-125869258D02*
X131410457Y-125964496D01*
X131410457Y-125964496D02*
X131448552Y-126012116D01*
X131448552Y-126012116D02*
X131524743Y-126059735D01*
X131524743Y-126059735D02*
X131677124Y-126059735D01*
X131677124Y-126059735D02*
X131753314Y-126012116D01*
X130686647Y-126059735D02*
X130686647Y-125535925D01*
X130686647Y-125535925D02*
X130724742Y-125440687D01*
X130724742Y-125440687D02*
X130800933Y-125393068D01*
X130800933Y-125393068D02*
X130953314Y-125393068D01*
X130953314Y-125393068D02*
X131029504Y-125440687D01*
X130686647Y-126012116D02*
X130762838Y-126059735D01*
X130762838Y-126059735D02*
X130953314Y-126059735D01*
X130953314Y-126059735D02*
X131029504Y-126012116D01*
X131029504Y-126012116D02*
X131067600Y-125916877D01*
X131067600Y-125916877D02*
X131067600Y-125821639D01*
X131067600Y-125821639D02*
X131029504Y-125726401D01*
X131029504Y-125726401D02*
X130953314Y-125678782D01*
X130953314Y-125678782D02*
X130762838Y-125678782D01*
X130762838Y-125678782D02*
X130686647Y-125631163D01*
X129962837Y-126059735D02*
X129962837Y-125059735D01*
X129962837Y-126012116D02*
X130039028Y-126059735D01*
X130039028Y-126059735D02*
X130191409Y-126059735D01*
X130191409Y-126059735D02*
X130267599Y-126012116D01*
X130267599Y-126012116D02*
X130305694Y-125964496D01*
X130305694Y-125964496D02*
X130343790Y-125869258D01*
X130343790Y-125869258D02*
X130343790Y-125583544D01*
X130343790Y-125583544D02*
X130305694Y-125488306D01*
X130305694Y-125488306D02*
X130267599Y-125440687D01*
X130267599Y-125440687D02*
X130191409Y-125393068D01*
X130191409Y-125393068D02*
X130039028Y-125393068D01*
X130039028Y-125393068D02*
X129962837Y-125440687D01*
X128972360Y-125535925D02*
X128362837Y-125535925D01*
X128362837Y-125821639D02*
X128972360Y-125821639D01*
X127410456Y-126012116D02*
X127334265Y-126059735D01*
X127334265Y-126059735D02*
X127181884Y-126059735D01*
X127181884Y-126059735D02*
X127105694Y-126012116D01*
X127105694Y-126012116D02*
X127067598Y-125916877D01*
X127067598Y-125916877D02*
X127067598Y-125869258D01*
X127067598Y-125869258D02*
X127105694Y-125774020D01*
X127105694Y-125774020D02*
X127181884Y-125726401D01*
X127181884Y-125726401D02*
X127296170Y-125726401D01*
X127296170Y-125726401D02*
X127372360Y-125678782D01*
X127372360Y-125678782D02*
X127410456Y-125583544D01*
X127410456Y-125583544D02*
X127410456Y-125535925D01*
X127410456Y-125535925D02*
X127372360Y-125440687D01*
X127372360Y-125440687D02*
X127296170Y-125393068D01*
X127296170Y-125393068D02*
X127181884Y-125393068D01*
X127181884Y-125393068D02*
X127105694Y-125440687D01*
X126724741Y-126059735D02*
X126724741Y-125059735D01*
X126381884Y-126059735D02*
X126381884Y-125535925D01*
X126381884Y-125535925D02*
X126419979Y-125440687D01*
X126419979Y-125440687D02*
X126496170Y-125393068D01*
X126496170Y-125393068D02*
X126610456Y-125393068D01*
X126610456Y-125393068D02*
X126686646Y-125440687D01*
X126686646Y-125440687D02*
X126724741Y-125488306D01*
X125886646Y-126059735D02*
X125962836Y-126012116D01*
X125962836Y-126012116D02*
X126000931Y-125964496D01*
X126000931Y-125964496D02*
X126039027Y-125869258D01*
X126039027Y-125869258D02*
X126039027Y-125583544D01*
X126039027Y-125583544D02*
X126000931Y-125488306D01*
X126000931Y-125488306D02*
X125962836Y-125440687D01*
X125962836Y-125440687D02*
X125886646Y-125393068D01*
X125886646Y-125393068D02*
X125772360Y-125393068D01*
X125772360Y-125393068D02*
X125696169Y-125440687D01*
X125696169Y-125440687D02*
X125658074Y-125488306D01*
X125658074Y-125488306D02*
X125619979Y-125583544D01*
X125619979Y-125583544D02*
X125619979Y-125869258D01*
X125619979Y-125869258D02*
X125658074Y-125964496D01*
X125658074Y-125964496D02*
X125696169Y-126012116D01*
X125696169Y-126012116D02*
X125772360Y-126059735D01*
X125772360Y-126059735D02*
X125886646Y-126059735D01*
X125277121Y-126059735D02*
X125277121Y-125393068D01*
X125277121Y-125583544D02*
X125239026Y-125488306D01*
X125239026Y-125488306D02*
X125200931Y-125440687D01*
X125200931Y-125440687D02*
X125124740Y-125393068D01*
X125124740Y-125393068D02*
X125048550Y-125393068D01*
X124896169Y-125393068D02*
X124591407Y-125393068D01*
X124781883Y-125059735D02*
X124781883Y-125916877D01*
X124781883Y-125916877D02*
X124743788Y-126012116D01*
X124743788Y-126012116D02*
X124667598Y-126059735D01*
X124667598Y-126059735D02*
X124591407Y-126059735D01*
X124019978Y-126012116D02*
X124096169Y-126059735D01*
X124096169Y-126059735D02*
X124248550Y-126059735D01*
X124248550Y-126059735D02*
X124324740Y-126012116D01*
X124324740Y-126012116D02*
X124362836Y-125916877D01*
X124362836Y-125916877D02*
X124362836Y-125535925D01*
X124362836Y-125535925D02*
X124324740Y-125440687D01*
X124324740Y-125440687D02*
X124248550Y-125393068D01*
X124248550Y-125393068D02*
X124096169Y-125393068D01*
X124096169Y-125393068D02*
X124019978Y-125440687D01*
X124019978Y-125440687D02*
X123981883Y-125535925D01*
X123981883Y-125535925D02*
X123981883Y-125631163D01*
X123981883Y-125631163D02*
X124362836Y-125726401D01*
X123639026Y-126059735D02*
X123639026Y-125393068D01*
X123639026Y-125583544D02*
X123600931Y-125488306D01*
X123600931Y-125488306D02*
X123562836Y-125440687D01*
X123562836Y-125440687D02*
X123486645Y-125393068D01*
X123486645Y-125393068D02*
X123410455Y-125393068D01*
X136362839Y-127003012D02*
X136362839Y-128003012D01*
X136362839Y-127050631D02*
X136286649Y-127003012D01*
X136286649Y-127003012D02*
X136134268Y-127003012D01*
X136134268Y-127003012D02*
X136058077Y-127050631D01*
X136058077Y-127050631D02*
X136019982Y-127098250D01*
X136019982Y-127098250D02*
X135981887Y-127193488D01*
X135981887Y-127193488D02*
X135981887Y-127479202D01*
X135981887Y-127479202D02*
X136019982Y-127574440D01*
X136019982Y-127574440D02*
X136058077Y-127622060D01*
X136058077Y-127622060D02*
X136134268Y-127669679D01*
X136134268Y-127669679D02*
X136286649Y-127669679D01*
X136286649Y-127669679D02*
X136362839Y-127622060D01*
X135639029Y-127669679D02*
X135639029Y-127003012D01*
X135639029Y-126669679D02*
X135677125Y-126717298D01*
X135677125Y-126717298D02*
X135639029Y-126764917D01*
X135639029Y-126764917D02*
X135600934Y-126717298D01*
X135600934Y-126717298D02*
X135639029Y-126669679D01*
X135639029Y-126669679D02*
X135639029Y-126764917D01*
X135258077Y-127003012D02*
X135258077Y-127669679D01*
X135258077Y-127098250D02*
X135219982Y-127050631D01*
X135219982Y-127050631D02*
X135143792Y-127003012D01*
X135143792Y-127003012D02*
X135029506Y-127003012D01*
X135029506Y-127003012D02*
X134953315Y-127050631D01*
X134953315Y-127050631D02*
X134915220Y-127145869D01*
X134915220Y-127145869D02*
X134915220Y-127669679D01*
X133581886Y-127669679D02*
X133581886Y-127145869D01*
X133581886Y-127145869D02*
X133619981Y-127050631D01*
X133619981Y-127050631D02*
X133696172Y-127003012D01*
X133696172Y-127003012D02*
X133848553Y-127003012D01*
X133848553Y-127003012D02*
X133924743Y-127050631D01*
X133581886Y-127622060D02*
X133658077Y-127669679D01*
X133658077Y-127669679D02*
X133848553Y-127669679D01*
X133848553Y-127669679D02*
X133924743Y-127622060D01*
X133924743Y-127622060D02*
X133962839Y-127526821D01*
X133962839Y-127526821D02*
X133962839Y-127431583D01*
X133962839Y-127431583D02*
X133924743Y-127336345D01*
X133924743Y-127336345D02*
X133848553Y-127288726D01*
X133848553Y-127288726D02*
X133658077Y-127288726D01*
X133658077Y-127288726D02*
X133581886Y-127241107D01*
X133200933Y-127003012D02*
X133200933Y-127669679D01*
X133200933Y-127098250D02*
X133162838Y-127050631D01*
X133162838Y-127050631D02*
X133086648Y-127003012D01*
X133086648Y-127003012D02*
X132972362Y-127003012D01*
X132972362Y-127003012D02*
X132896171Y-127050631D01*
X132896171Y-127050631D02*
X132858076Y-127145869D01*
X132858076Y-127145869D02*
X132858076Y-127669679D01*
X132134266Y-127669679D02*
X132134266Y-126669679D01*
X132134266Y-127622060D02*
X132210457Y-127669679D01*
X132210457Y-127669679D02*
X132362838Y-127669679D01*
X132362838Y-127669679D02*
X132439028Y-127622060D01*
X132439028Y-127622060D02*
X132477123Y-127574440D01*
X132477123Y-127574440D02*
X132515219Y-127479202D01*
X132515219Y-127479202D02*
X132515219Y-127193488D01*
X132515219Y-127193488D02*
X132477123Y-127098250D01*
X132477123Y-127098250D02*
X132439028Y-127050631D01*
X132439028Y-127050631D02*
X132362838Y-127003012D01*
X132362838Y-127003012D02*
X132210457Y-127003012D01*
X132210457Y-127003012D02*
X132134266Y-127050631D01*
X131258075Y-127003012D02*
X130953313Y-127003012D01*
X131143789Y-127669679D02*
X131143789Y-126812536D01*
X131143789Y-126812536D02*
X131105694Y-126717298D01*
X131105694Y-126717298D02*
X131029504Y-126669679D01*
X131029504Y-126669679D02*
X130953313Y-126669679D01*
X130572361Y-127669679D02*
X130648551Y-127622060D01*
X130648551Y-127622060D02*
X130686646Y-127526821D01*
X130686646Y-127526821D02*
X130686646Y-126669679D01*
X129924741Y-127669679D02*
X129924741Y-127145869D01*
X129924741Y-127145869D02*
X129962836Y-127050631D01*
X129962836Y-127050631D02*
X130039027Y-127003012D01*
X130039027Y-127003012D02*
X130191408Y-127003012D01*
X130191408Y-127003012D02*
X130267598Y-127050631D01*
X129924741Y-127622060D02*
X130000932Y-127669679D01*
X130000932Y-127669679D02*
X130191408Y-127669679D01*
X130191408Y-127669679D02*
X130267598Y-127622060D01*
X130267598Y-127622060D02*
X130305694Y-127526821D01*
X130305694Y-127526821D02*
X130305694Y-127431583D01*
X130305694Y-127431583D02*
X130267598Y-127336345D01*
X130267598Y-127336345D02*
X130191408Y-127288726D01*
X130191408Y-127288726D02*
X130000932Y-127288726D01*
X130000932Y-127288726D02*
X129924741Y-127241107D01*
X129658074Y-127003012D02*
X129353312Y-127003012D01*
X129543788Y-126669679D02*
X129543788Y-127526821D01*
X129543788Y-127526821D02*
X129505693Y-127622060D01*
X129505693Y-127622060D02*
X129429503Y-127669679D01*
X129429503Y-127669679D02*
X129353312Y-127669679D01*
X128515217Y-127622060D02*
X128439026Y-127669679D01*
X128439026Y-127669679D02*
X128286645Y-127669679D01*
X128286645Y-127669679D02*
X128210455Y-127622060D01*
X128210455Y-127622060D02*
X128172359Y-127526821D01*
X128172359Y-127526821D02*
X128172359Y-127479202D01*
X128172359Y-127479202D02*
X128210455Y-127383964D01*
X128210455Y-127383964D02*
X128286645Y-127336345D01*
X128286645Y-127336345D02*
X128400931Y-127336345D01*
X128400931Y-127336345D02*
X128477121Y-127288726D01*
X128477121Y-127288726D02*
X128515217Y-127193488D01*
X128515217Y-127193488D02*
X128515217Y-127145869D01*
X128515217Y-127145869D02*
X128477121Y-127050631D01*
X128477121Y-127050631D02*
X128400931Y-127003012D01*
X128400931Y-127003012D02*
X128286645Y-127003012D01*
X128286645Y-127003012D02*
X128210455Y-127050631D01*
X127829502Y-127669679D02*
X127829502Y-127003012D01*
X127829502Y-126669679D02*
X127867598Y-126717298D01*
X127867598Y-126717298D02*
X127829502Y-126764917D01*
X127829502Y-126764917D02*
X127791407Y-126717298D01*
X127791407Y-126717298D02*
X127829502Y-126669679D01*
X127829502Y-126669679D02*
X127829502Y-126764917D01*
X127105693Y-127669679D02*
X127105693Y-126669679D01*
X127105693Y-127622060D02*
X127181884Y-127669679D01*
X127181884Y-127669679D02*
X127334265Y-127669679D01*
X127334265Y-127669679D02*
X127410455Y-127622060D01*
X127410455Y-127622060D02*
X127448550Y-127574440D01*
X127448550Y-127574440D02*
X127486646Y-127479202D01*
X127486646Y-127479202D02*
X127486646Y-127193488D01*
X127486646Y-127193488D02*
X127448550Y-127098250D01*
X127448550Y-127098250D02*
X127410455Y-127050631D01*
X127410455Y-127050631D02*
X127334265Y-127003012D01*
X127334265Y-127003012D02*
X127181884Y-127003012D01*
X127181884Y-127003012D02*
X127105693Y-127050631D01*
X126419978Y-127622060D02*
X126496169Y-127669679D01*
X126496169Y-127669679D02*
X126648550Y-127669679D01*
X126648550Y-127669679D02*
X126724740Y-127622060D01*
X126724740Y-127622060D02*
X126762836Y-127526821D01*
X126762836Y-127526821D02*
X126762836Y-127145869D01*
X126762836Y-127145869D02*
X126724740Y-127050631D01*
X126724740Y-127050631D02*
X126648550Y-127003012D01*
X126648550Y-127003012D02*
X126496169Y-127003012D01*
X126496169Y-127003012D02*
X126419978Y-127050631D01*
X126419978Y-127050631D02*
X126381883Y-127145869D01*
X126381883Y-127145869D02*
X126381883Y-127241107D01*
X126381883Y-127241107D02*
X126762836Y-127336345D01*
X164937887Y-122796875D02*
X165318839Y-122796875D01*
X165318839Y-122796875D02*
X165318839Y-121796875D01*
X164671220Y-122273065D02*
X164404554Y-122273065D01*
X164290268Y-122796875D02*
X164671220Y-122796875D01*
X164671220Y-122796875D02*
X164671220Y-121796875D01*
X164671220Y-121796875D02*
X164290268Y-121796875D01*
X163947410Y-122796875D02*
X163947410Y-121796875D01*
X163947410Y-121796875D02*
X163756934Y-121796875D01*
X163756934Y-121796875D02*
X163642648Y-121844494D01*
X163642648Y-121844494D02*
X163566458Y-121939732D01*
X163566458Y-121939732D02*
X163528363Y-122034970D01*
X163528363Y-122034970D02*
X163490267Y-122225446D01*
X163490267Y-122225446D02*
X163490267Y-122368303D01*
X163490267Y-122368303D02*
X163528363Y-122558779D01*
X163528363Y-122558779D02*
X163566458Y-122654017D01*
X163566458Y-122654017D02*
X163642648Y-122749256D01*
X163642648Y-122749256D02*
X163756934Y-122796875D01*
X163756934Y-122796875D02*
X163947410Y-122796875D01*
X163185506Y-122749256D02*
X163109315Y-122796875D01*
X163109315Y-122796875D02*
X162956934Y-122796875D01*
X162956934Y-122796875D02*
X162880744Y-122749256D01*
X162880744Y-122749256D02*
X162842648Y-122654017D01*
X162842648Y-122654017D02*
X162842648Y-122606398D01*
X162842648Y-122606398D02*
X162880744Y-122511160D01*
X162880744Y-122511160D02*
X162956934Y-122463541D01*
X162956934Y-122463541D02*
X163071220Y-122463541D01*
X163071220Y-122463541D02*
X163147410Y-122415922D01*
X163147410Y-122415922D02*
X163185506Y-122320684D01*
X163185506Y-122320684D02*
X163185506Y-122273065D01*
X163185506Y-122273065D02*
X163147410Y-122177827D01*
X163147410Y-122177827D02*
X163071220Y-122130208D01*
X163071220Y-122130208D02*
X162956934Y-122130208D01*
X162956934Y-122130208D02*
X162880744Y-122177827D01*
X161547410Y-122796875D02*
X161547410Y-122273065D01*
X161547410Y-122273065D02*
X161585505Y-122177827D01*
X161585505Y-122177827D02*
X161661696Y-122130208D01*
X161661696Y-122130208D02*
X161814077Y-122130208D01*
X161814077Y-122130208D02*
X161890267Y-122177827D01*
X161547410Y-122749256D02*
X161623601Y-122796875D01*
X161623601Y-122796875D02*
X161814077Y-122796875D01*
X161814077Y-122796875D02*
X161890267Y-122749256D01*
X161890267Y-122749256D02*
X161928363Y-122654017D01*
X161928363Y-122654017D02*
X161928363Y-122558779D01*
X161928363Y-122558779D02*
X161890267Y-122463541D01*
X161890267Y-122463541D02*
X161814077Y-122415922D01*
X161814077Y-122415922D02*
X161623601Y-122415922D01*
X161623601Y-122415922D02*
X161547410Y-122368303D01*
X161166457Y-122130208D02*
X161166457Y-122796875D01*
X161166457Y-122225446D02*
X161128362Y-122177827D01*
X161128362Y-122177827D02*
X161052172Y-122130208D01*
X161052172Y-122130208D02*
X160937886Y-122130208D01*
X160937886Y-122130208D02*
X160861695Y-122177827D01*
X160861695Y-122177827D02*
X160823600Y-122273065D01*
X160823600Y-122273065D02*
X160823600Y-122796875D01*
X160099790Y-122796875D02*
X160099790Y-121796875D01*
X160099790Y-122749256D02*
X160175981Y-122796875D01*
X160175981Y-122796875D02*
X160328362Y-122796875D01*
X160328362Y-122796875D02*
X160404552Y-122749256D01*
X160404552Y-122749256D02*
X160442647Y-122701636D01*
X160442647Y-122701636D02*
X160480743Y-122606398D01*
X160480743Y-122606398D02*
X160480743Y-122320684D01*
X160480743Y-122320684D02*
X160442647Y-122225446D01*
X160442647Y-122225446D02*
X160404552Y-122177827D01*
X160404552Y-122177827D02*
X160328362Y-122130208D01*
X160328362Y-122130208D02*
X160175981Y-122130208D01*
X160175981Y-122130208D02*
X160099790Y-122177827D01*
X159147409Y-122749256D02*
X159033123Y-122796875D01*
X159033123Y-122796875D02*
X158842647Y-122796875D01*
X158842647Y-122796875D02*
X158766456Y-122749256D01*
X158766456Y-122749256D02*
X158728361Y-122701636D01*
X158728361Y-122701636D02*
X158690266Y-122606398D01*
X158690266Y-122606398D02*
X158690266Y-122511160D01*
X158690266Y-122511160D02*
X158728361Y-122415922D01*
X158728361Y-122415922D02*
X158766456Y-122368303D01*
X158766456Y-122368303D02*
X158842647Y-122320684D01*
X158842647Y-122320684D02*
X158995028Y-122273065D01*
X158995028Y-122273065D02*
X159071218Y-122225446D01*
X159071218Y-122225446D02*
X159109313Y-122177827D01*
X159109313Y-122177827D02*
X159147409Y-122082589D01*
X159147409Y-122082589D02*
X159147409Y-121987351D01*
X159147409Y-121987351D02*
X159109313Y-121892113D01*
X159109313Y-121892113D02*
X159071218Y-121844494D01*
X159071218Y-121844494D02*
X158995028Y-121796875D01*
X158995028Y-121796875D02*
X158804551Y-121796875D01*
X158804551Y-121796875D02*
X158690266Y-121844494D01*
X158385504Y-122511160D02*
X158004551Y-122511160D01*
X158461694Y-122796875D02*
X158195027Y-121796875D01*
X158195027Y-121796875D02*
X157928361Y-122796875D01*
X157509313Y-121796875D02*
X157356932Y-121796875D01*
X157356932Y-121796875D02*
X157280742Y-121844494D01*
X157280742Y-121844494D02*
X157204551Y-121939732D01*
X157204551Y-121939732D02*
X157166456Y-122130208D01*
X157166456Y-122130208D02*
X157166456Y-122463541D01*
X157166456Y-122463541D02*
X157204551Y-122654017D01*
X157204551Y-122654017D02*
X157280742Y-122749256D01*
X157280742Y-122749256D02*
X157356932Y-122796875D01*
X157356932Y-122796875D02*
X157509313Y-122796875D01*
X157509313Y-122796875D02*
X157585504Y-122749256D01*
X157585504Y-122749256D02*
X157661694Y-122654017D01*
X157661694Y-122654017D02*
X157699790Y-122463541D01*
X157699790Y-122463541D02*
X157699790Y-122130208D01*
X157699790Y-122130208D02*
X157661694Y-121939732D01*
X157661694Y-121939732D02*
X157585504Y-121844494D01*
X157585504Y-121844494D02*
X157509313Y-121796875D01*
X155871218Y-122749256D02*
X155947409Y-122796875D01*
X155947409Y-122796875D02*
X156099790Y-122796875D01*
X156099790Y-122796875D02*
X156175980Y-122749256D01*
X156175980Y-122749256D02*
X156214075Y-122701636D01*
X156214075Y-122701636D02*
X156252171Y-122606398D01*
X156252171Y-122606398D02*
X156252171Y-122320684D01*
X156252171Y-122320684D02*
X156214075Y-122225446D01*
X156214075Y-122225446D02*
X156175980Y-122177827D01*
X156175980Y-122177827D02*
X156099790Y-122130208D01*
X156099790Y-122130208D02*
X155947409Y-122130208D01*
X155947409Y-122130208D02*
X155871218Y-122177827D01*
X155414076Y-122796875D02*
X155490266Y-122749256D01*
X155490266Y-122749256D02*
X155528361Y-122701636D01*
X155528361Y-122701636D02*
X155566457Y-122606398D01*
X155566457Y-122606398D02*
X155566457Y-122320684D01*
X155566457Y-122320684D02*
X155528361Y-122225446D01*
X155528361Y-122225446D02*
X155490266Y-122177827D01*
X155490266Y-122177827D02*
X155414076Y-122130208D01*
X155414076Y-122130208D02*
X155299790Y-122130208D01*
X155299790Y-122130208D02*
X155223599Y-122177827D01*
X155223599Y-122177827D02*
X155185504Y-122225446D01*
X155185504Y-122225446D02*
X155147409Y-122320684D01*
X155147409Y-122320684D02*
X155147409Y-122606398D01*
X155147409Y-122606398D02*
X155185504Y-122701636D01*
X155185504Y-122701636D02*
X155223599Y-122749256D01*
X155223599Y-122749256D02*
X155299790Y-122796875D01*
X155299790Y-122796875D02*
X155414076Y-122796875D01*
X154804551Y-122130208D02*
X154804551Y-122796875D01*
X154804551Y-122225446D02*
X154766456Y-122177827D01*
X154766456Y-122177827D02*
X154690266Y-122130208D01*
X154690266Y-122130208D02*
X154575980Y-122130208D01*
X154575980Y-122130208D02*
X154499789Y-122177827D01*
X154499789Y-122177827D02*
X154461694Y-122273065D01*
X154461694Y-122273065D02*
X154461694Y-122796875D01*
X154080741Y-122130208D02*
X154080741Y-122796875D01*
X154080741Y-122225446D02*
X154042646Y-122177827D01*
X154042646Y-122177827D02*
X153966456Y-122130208D01*
X153966456Y-122130208D02*
X153852170Y-122130208D01*
X153852170Y-122130208D02*
X153775979Y-122177827D01*
X153775979Y-122177827D02*
X153737884Y-122273065D01*
X153737884Y-122273065D02*
X153737884Y-122796875D01*
X153052169Y-122749256D02*
X153128360Y-122796875D01*
X153128360Y-122796875D02*
X153280741Y-122796875D01*
X153280741Y-122796875D02*
X153356931Y-122749256D01*
X153356931Y-122749256D02*
X153395027Y-122654017D01*
X153395027Y-122654017D02*
X153395027Y-122273065D01*
X153395027Y-122273065D02*
X153356931Y-122177827D01*
X153356931Y-122177827D02*
X153280741Y-122130208D01*
X153280741Y-122130208D02*
X153128360Y-122130208D01*
X153128360Y-122130208D02*
X153052169Y-122177827D01*
X153052169Y-122177827D02*
X153014074Y-122273065D01*
X153014074Y-122273065D02*
X153014074Y-122368303D01*
X153014074Y-122368303D02*
X153395027Y-122463541D01*
X152328360Y-122749256D02*
X152404551Y-122796875D01*
X152404551Y-122796875D02*
X152556932Y-122796875D01*
X152556932Y-122796875D02*
X152633122Y-122749256D01*
X152633122Y-122749256D02*
X152671217Y-122701636D01*
X152671217Y-122701636D02*
X152709313Y-122606398D01*
X152709313Y-122606398D02*
X152709313Y-122320684D01*
X152709313Y-122320684D02*
X152671217Y-122225446D01*
X152671217Y-122225446D02*
X152633122Y-122177827D01*
X152633122Y-122177827D02*
X152556932Y-122130208D01*
X152556932Y-122130208D02*
X152404551Y-122130208D01*
X152404551Y-122130208D02*
X152328360Y-122177827D01*
X152099789Y-122130208D02*
X151795027Y-122130208D01*
X151985503Y-121796875D02*
X151985503Y-122654017D01*
X151985503Y-122654017D02*
X151947408Y-122749256D01*
X151947408Y-122749256D02*
X151871218Y-122796875D01*
X151871218Y-122796875D02*
X151795027Y-122796875D01*
X151414075Y-122796875D02*
X151490265Y-122749256D01*
X151490265Y-122749256D02*
X151528360Y-122701636D01*
X151528360Y-122701636D02*
X151566456Y-122606398D01*
X151566456Y-122606398D02*
X151566456Y-122320684D01*
X151566456Y-122320684D02*
X151528360Y-122225446D01*
X151528360Y-122225446D02*
X151490265Y-122177827D01*
X151490265Y-122177827D02*
X151414075Y-122130208D01*
X151414075Y-122130208D02*
X151299789Y-122130208D01*
X151299789Y-122130208D02*
X151223598Y-122177827D01*
X151223598Y-122177827D02*
X151185503Y-122225446D01*
X151185503Y-122225446D02*
X151147408Y-122320684D01*
X151147408Y-122320684D02*
X151147408Y-122606398D01*
X151147408Y-122606398D02*
X151185503Y-122701636D01*
X151185503Y-122701636D02*
X151223598Y-122749256D01*
X151223598Y-122749256D02*
X151299789Y-122796875D01*
X151299789Y-122796875D02*
X151414075Y-122796875D01*
X150804550Y-122796875D02*
X150804550Y-122130208D01*
X150804550Y-122320684D02*
X150766455Y-122225446D01*
X150766455Y-122225446D02*
X150728360Y-122177827D01*
X150728360Y-122177827D02*
X150652169Y-122130208D01*
X150652169Y-122130208D02*
X150575979Y-122130208D01*
X149356931Y-122130208D02*
X149356931Y-122939732D01*
X149356931Y-122939732D02*
X149395026Y-123034970D01*
X149395026Y-123034970D02*
X149433122Y-123082589D01*
X149433122Y-123082589D02*
X149509312Y-123130208D01*
X149509312Y-123130208D02*
X149623598Y-123130208D01*
X149623598Y-123130208D02*
X149699788Y-123082589D01*
X149356931Y-122749256D02*
X149433122Y-122796875D01*
X149433122Y-122796875D02*
X149585503Y-122796875D01*
X149585503Y-122796875D02*
X149661693Y-122749256D01*
X149661693Y-122749256D02*
X149699788Y-122701636D01*
X149699788Y-122701636D02*
X149737884Y-122606398D01*
X149737884Y-122606398D02*
X149737884Y-122320684D01*
X149737884Y-122320684D02*
X149699788Y-122225446D01*
X149699788Y-122225446D02*
X149661693Y-122177827D01*
X149661693Y-122177827D02*
X149585503Y-122130208D01*
X149585503Y-122130208D02*
X149433122Y-122130208D01*
X149433122Y-122130208D02*
X149356931Y-122177827D01*
X148861693Y-122796875D02*
X148937883Y-122749256D01*
X148937883Y-122749256D02*
X148975978Y-122701636D01*
X148975978Y-122701636D02*
X149014074Y-122606398D01*
X149014074Y-122606398D02*
X149014074Y-122320684D01*
X149014074Y-122320684D02*
X148975978Y-122225446D01*
X148975978Y-122225446D02*
X148937883Y-122177827D01*
X148937883Y-122177827D02*
X148861693Y-122130208D01*
X148861693Y-122130208D02*
X148747407Y-122130208D01*
X148747407Y-122130208D02*
X148671216Y-122177827D01*
X148671216Y-122177827D02*
X148633121Y-122225446D01*
X148633121Y-122225446D02*
X148595026Y-122320684D01*
X148595026Y-122320684D02*
X148595026Y-122606398D01*
X148595026Y-122606398D02*
X148633121Y-122701636D01*
X148633121Y-122701636D02*
X148671216Y-122749256D01*
X148671216Y-122749256D02*
X148747407Y-122796875D01*
X148747407Y-122796875D02*
X148861693Y-122796875D01*
X147528359Y-122796875D02*
X147604549Y-122749256D01*
X147604549Y-122749256D02*
X147642644Y-122701636D01*
X147642644Y-122701636D02*
X147680740Y-122606398D01*
X147680740Y-122606398D02*
X147680740Y-122320684D01*
X147680740Y-122320684D02*
X147642644Y-122225446D01*
X147642644Y-122225446D02*
X147604549Y-122177827D01*
X147604549Y-122177827D02*
X147528359Y-122130208D01*
X147528359Y-122130208D02*
X147414073Y-122130208D01*
X147414073Y-122130208D02*
X147337882Y-122177827D01*
X147337882Y-122177827D02*
X147299787Y-122225446D01*
X147299787Y-122225446D02*
X147261692Y-122320684D01*
X147261692Y-122320684D02*
X147261692Y-122606398D01*
X147261692Y-122606398D02*
X147299787Y-122701636D01*
X147299787Y-122701636D02*
X147337882Y-122749256D01*
X147337882Y-122749256D02*
X147414073Y-122796875D01*
X147414073Y-122796875D02*
X147528359Y-122796875D01*
X146918834Y-122130208D02*
X146918834Y-122796875D01*
X146918834Y-122225446D02*
X146880739Y-122177827D01*
X146880739Y-122177827D02*
X146804549Y-122130208D01*
X146804549Y-122130208D02*
X146690263Y-122130208D01*
X146690263Y-122130208D02*
X146614072Y-122177827D01*
X146614072Y-122177827D02*
X146575977Y-122273065D01*
X146575977Y-122273065D02*
X146575977Y-122796875D01*
X145699786Y-122130208D02*
X145395024Y-122130208D01*
X145585500Y-121796875D02*
X145585500Y-122654017D01*
X145585500Y-122654017D02*
X145547405Y-122749256D01*
X145547405Y-122749256D02*
X145471215Y-122796875D01*
X145471215Y-122796875D02*
X145395024Y-122796875D01*
X145128357Y-122796875D02*
X145128357Y-121796875D01*
X144785500Y-122796875D02*
X144785500Y-122273065D01*
X144785500Y-122273065D02*
X144823595Y-122177827D01*
X144823595Y-122177827D02*
X144899786Y-122130208D01*
X144899786Y-122130208D02*
X145014072Y-122130208D01*
X145014072Y-122130208D02*
X145090262Y-122177827D01*
X145090262Y-122177827D02*
X145128357Y-122225446D01*
X144099785Y-122749256D02*
X144175976Y-122796875D01*
X144175976Y-122796875D02*
X144328357Y-122796875D01*
X144328357Y-122796875D02*
X144404547Y-122749256D01*
X144404547Y-122749256D02*
X144442643Y-122654017D01*
X144442643Y-122654017D02*
X144442643Y-122273065D01*
X144442643Y-122273065D02*
X144404547Y-122177827D01*
X144404547Y-122177827D02*
X144328357Y-122130208D01*
X144328357Y-122130208D02*
X144175976Y-122130208D01*
X144175976Y-122130208D02*
X144099785Y-122177827D01*
X144099785Y-122177827D02*
X144061690Y-122273065D01*
X144061690Y-122273065D02*
X144061690Y-122368303D01*
X144061690Y-122368303D02*
X144442643Y-122463541D01*
X143223595Y-122130208D02*
X142918833Y-122130208D01*
X143109309Y-122796875D02*
X143109309Y-121939732D01*
X143109309Y-121939732D02*
X143071214Y-121844494D01*
X143071214Y-121844494D02*
X142995024Y-121796875D01*
X142995024Y-121796875D02*
X142918833Y-121796875D01*
X142652166Y-122796875D02*
X142652166Y-122130208D01*
X142652166Y-122320684D02*
X142614071Y-122225446D01*
X142614071Y-122225446D02*
X142575976Y-122177827D01*
X142575976Y-122177827D02*
X142499785Y-122130208D01*
X142499785Y-122130208D02*
X142423595Y-122130208D01*
X142042643Y-122796875D02*
X142118833Y-122749256D01*
X142118833Y-122749256D02*
X142156928Y-122701636D01*
X142156928Y-122701636D02*
X142195024Y-122606398D01*
X142195024Y-122606398D02*
X142195024Y-122320684D01*
X142195024Y-122320684D02*
X142156928Y-122225446D01*
X142156928Y-122225446D02*
X142118833Y-122177827D01*
X142118833Y-122177827D02*
X142042643Y-122130208D01*
X142042643Y-122130208D02*
X141928357Y-122130208D01*
X141928357Y-122130208D02*
X141852166Y-122177827D01*
X141852166Y-122177827D02*
X141814071Y-122225446D01*
X141814071Y-122225446D02*
X141775976Y-122320684D01*
X141775976Y-122320684D02*
X141775976Y-122606398D01*
X141775976Y-122606398D02*
X141814071Y-122701636D01*
X141814071Y-122701636D02*
X141852166Y-122749256D01*
X141852166Y-122749256D02*
X141928357Y-122796875D01*
X141928357Y-122796875D02*
X142042643Y-122796875D01*
X141433118Y-122130208D02*
X141433118Y-122796875D01*
X141433118Y-122225446D02*
X141395023Y-122177827D01*
X141395023Y-122177827D02*
X141318833Y-122130208D01*
X141318833Y-122130208D02*
X141204547Y-122130208D01*
X141204547Y-122130208D02*
X141128356Y-122177827D01*
X141128356Y-122177827D02*
X141090261Y-122273065D01*
X141090261Y-122273065D02*
X141090261Y-122796875D01*
X140823594Y-122130208D02*
X140518832Y-122130208D01*
X140709308Y-121796875D02*
X140709308Y-122654017D01*
X140709308Y-122654017D02*
X140671213Y-122749256D01*
X140671213Y-122749256D02*
X140595023Y-122796875D01*
X140595023Y-122796875D02*
X140518832Y-122796875D01*
X140252165Y-122701636D02*
X140214070Y-122749256D01*
X140214070Y-122749256D02*
X140252165Y-122796875D01*
X140252165Y-122796875D02*
X140290261Y-122749256D01*
X140290261Y-122749256D02*
X140252165Y-122701636D01*
X140252165Y-122701636D02*
X140252165Y-122796875D01*
X165052173Y-123883009D02*
X164937887Y-123930628D01*
X164937887Y-123930628D02*
X164899792Y-123978247D01*
X164899792Y-123978247D02*
X164861696Y-124073485D01*
X164861696Y-124073485D02*
X164861696Y-124216342D01*
X164861696Y-124216342D02*
X164899792Y-124311580D01*
X164899792Y-124311580D02*
X164937887Y-124359200D01*
X164937887Y-124359200D02*
X165014077Y-124406819D01*
X165014077Y-124406819D02*
X165318839Y-124406819D01*
X165318839Y-124406819D02*
X165318839Y-123406819D01*
X165318839Y-123406819D02*
X165052173Y-123406819D01*
X165052173Y-123406819D02*
X164975982Y-123454438D01*
X164975982Y-123454438D02*
X164937887Y-123502057D01*
X164937887Y-123502057D02*
X164899792Y-123597295D01*
X164899792Y-123597295D02*
X164899792Y-123692533D01*
X164899792Y-123692533D02*
X164937887Y-123787771D01*
X164937887Y-123787771D02*
X164975982Y-123835390D01*
X164975982Y-123835390D02*
X165052173Y-123883009D01*
X165052173Y-123883009D02*
X165318839Y-123883009D01*
X164175982Y-124406819D02*
X164175982Y-123883009D01*
X164175982Y-123883009D02*
X164214077Y-123787771D01*
X164214077Y-123787771D02*
X164290268Y-123740152D01*
X164290268Y-123740152D02*
X164442649Y-123740152D01*
X164442649Y-123740152D02*
X164518839Y-123787771D01*
X164175982Y-124359200D02*
X164252173Y-124406819D01*
X164252173Y-124406819D02*
X164442649Y-124406819D01*
X164442649Y-124406819D02*
X164518839Y-124359200D01*
X164518839Y-124359200D02*
X164556935Y-124263961D01*
X164556935Y-124263961D02*
X164556935Y-124168723D01*
X164556935Y-124168723D02*
X164518839Y-124073485D01*
X164518839Y-124073485D02*
X164442649Y-124025866D01*
X164442649Y-124025866D02*
X164252173Y-124025866D01*
X164252173Y-124025866D02*
X164175982Y-123978247D01*
X163909315Y-123740152D02*
X163604553Y-123740152D01*
X163795029Y-123406819D02*
X163795029Y-124263961D01*
X163795029Y-124263961D02*
X163756934Y-124359200D01*
X163756934Y-124359200D02*
X163680744Y-124406819D01*
X163680744Y-124406819D02*
X163604553Y-124406819D01*
X163452172Y-123740152D02*
X163147410Y-123740152D01*
X163337886Y-123406819D02*
X163337886Y-124263961D01*
X163337886Y-124263961D02*
X163299791Y-124359200D01*
X163299791Y-124359200D02*
X163223601Y-124406819D01*
X163223601Y-124406819D02*
X163147410Y-124406819D01*
X162575981Y-124359200D02*
X162652172Y-124406819D01*
X162652172Y-124406819D02*
X162804553Y-124406819D01*
X162804553Y-124406819D02*
X162880743Y-124359200D01*
X162880743Y-124359200D02*
X162918839Y-124263961D01*
X162918839Y-124263961D02*
X162918839Y-123883009D01*
X162918839Y-123883009D02*
X162880743Y-123787771D01*
X162880743Y-123787771D02*
X162804553Y-123740152D01*
X162804553Y-123740152D02*
X162652172Y-123740152D01*
X162652172Y-123740152D02*
X162575981Y-123787771D01*
X162575981Y-123787771D02*
X162537886Y-123883009D01*
X162537886Y-123883009D02*
X162537886Y-123978247D01*
X162537886Y-123978247D02*
X162918839Y-124073485D01*
X162195029Y-124406819D02*
X162195029Y-123740152D01*
X162195029Y-123930628D02*
X162156934Y-123835390D01*
X162156934Y-123835390D02*
X162118839Y-123787771D01*
X162118839Y-123787771D02*
X162042648Y-123740152D01*
X162042648Y-123740152D02*
X161966458Y-123740152D01*
X161775982Y-123740152D02*
X161585506Y-124406819D01*
X161395029Y-123740152D02*
X161585506Y-124406819D01*
X161585506Y-124406819D02*
X161661696Y-124644914D01*
X161661696Y-124644914D02*
X161699791Y-124692533D01*
X161699791Y-124692533D02*
X161775982Y-124740152D01*
X160480743Y-124406819D02*
X160480743Y-123406819D01*
X160137886Y-124406819D02*
X160137886Y-123883009D01*
X160137886Y-123883009D02*
X160175981Y-123787771D01*
X160175981Y-123787771D02*
X160252172Y-123740152D01*
X160252172Y-123740152D02*
X160366458Y-123740152D01*
X160366458Y-123740152D02*
X160442648Y-123787771D01*
X160442648Y-123787771D02*
X160480743Y-123835390D01*
X159642648Y-124406819D02*
X159718838Y-124359200D01*
X159718838Y-124359200D02*
X159756933Y-124311580D01*
X159756933Y-124311580D02*
X159795029Y-124216342D01*
X159795029Y-124216342D02*
X159795029Y-123930628D01*
X159795029Y-123930628D02*
X159756933Y-123835390D01*
X159756933Y-123835390D02*
X159718838Y-123787771D01*
X159718838Y-123787771D02*
X159642648Y-123740152D01*
X159642648Y-123740152D02*
X159528362Y-123740152D01*
X159528362Y-123740152D02*
X159452171Y-123787771D01*
X159452171Y-123787771D02*
X159414076Y-123835390D01*
X159414076Y-123835390D02*
X159375981Y-123930628D01*
X159375981Y-123930628D02*
X159375981Y-124216342D01*
X159375981Y-124216342D02*
X159414076Y-124311580D01*
X159414076Y-124311580D02*
X159452171Y-124359200D01*
X159452171Y-124359200D02*
X159528362Y-124406819D01*
X159528362Y-124406819D02*
X159642648Y-124406819D01*
X158918838Y-124406819D02*
X158995028Y-124359200D01*
X158995028Y-124359200D02*
X159033123Y-124263961D01*
X159033123Y-124263961D02*
X159033123Y-123406819D01*
X158271218Y-124406819D02*
X158271218Y-123406819D01*
X158271218Y-124359200D02*
X158347409Y-124406819D01*
X158347409Y-124406819D02*
X158499790Y-124406819D01*
X158499790Y-124406819D02*
X158575980Y-124359200D01*
X158575980Y-124359200D02*
X158614075Y-124311580D01*
X158614075Y-124311580D02*
X158652171Y-124216342D01*
X158652171Y-124216342D02*
X158652171Y-123930628D01*
X158652171Y-123930628D02*
X158614075Y-123835390D01*
X158614075Y-123835390D02*
X158575980Y-123787771D01*
X158575980Y-123787771D02*
X158499790Y-123740152D01*
X158499790Y-123740152D02*
X158347409Y-123740152D01*
X158347409Y-123740152D02*
X158271218Y-123787771D01*
X157585503Y-124359200D02*
X157661694Y-124406819D01*
X157661694Y-124406819D02*
X157814075Y-124406819D01*
X157814075Y-124406819D02*
X157890265Y-124359200D01*
X157890265Y-124359200D02*
X157928361Y-124263961D01*
X157928361Y-124263961D02*
X157928361Y-123883009D01*
X157928361Y-123883009D02*
X157890265Y-123787771D01*
X157890265Y-123787771D02*
X157814075Y-123740152D01*
X157814075Y-123740152D02*
X157661694Y-123740152D01*
X157661694Y-123740152D02*
X157585503Y-123787771D01*
X157585503Y-123787771D02*
X157547408Y-123883009D01*
X157547408Y-123883009D02*
X157547408Y-123978247D01*
X157547408Y-123978247D02*
X157928361Y-124073485D01*
X157204551Y-124406819D02*
X157204551Y-123740152D01*
X157204551Y-123930628D02*
X157166456Y-123835390D01*
X157166456Y-123835390D02*
X157128361Y-123787771D01*
X157128361Y-123787771D02*
X157052170Y-123740152D01*
X157052170Y-123740152D02*
X156975980Y-123740152D01*
X155756932Y-124406819D02*
X155756932Y-123883009D01*
X155756932Y-123883009D02*
X155795027Y-123787771D01*
X155795027Y-123787771D02*
X155871218Y-123740152D01*
X155871218Y-123740152D02*
X156023599Y-123740152D01*
X156023599Y-123740152D02*
X156099789Y-123787771D01*
X155756932Y-124359200D02*
X155833123Y-124406819D01*
X155833123Y-124406819D02*
X156023599Y-124406819D01*
X156023599Y-124406819D02*
X156099789Y-124359200D01*
X156099789Y-124359200D02*
X156137885Y-124263961D01*
X156137885Y-124263961D02*
X156137885Y-124168723D01*
X156137885Y-124168723D02*
X156099789Y-124073485D01*
X156099789Y-124073485D02*
X156023599Y-124025866D01*
X156023599Y-124025866D02*
X155833123Y-124025866D01*
X155833123Y-124025866D02*
X155756932Y-123978247D01*
X155375979Y-123740152D02*
X155375979Y-124406819D01*
X155375979Y-123835390D02*
X155337884Y-123787771D01*
X155337884Y-123787771D02*
X155261694Y-123740152D01*
X155261694Y-123740152D02*
X155147408Y-123740152D01*
X155147408Y-123740152D02*
X155071217Y-123787771D01*
X155071217Y-123787771D02*
X155033122Y-123883009D01*
X155033122Y-123883009D02*
X155033122Y-124406819D01*
X154309312Y-124406819D02*
X154309312Y-123406819D01*
X154309312Y-124359200D02*
X154385503Y-124406819D01*
X154385503Y-124406819D02*
X154537884Y-124406819D01*
X154537884Y-124406819D02*
X154614074Y-124359200D01*
X154614074Y-124359200D02*
X154652169Y-124311580D01*
X154652169Y-124311580D02*
X154690265Y-124216342D01*
X154690265Y-124216342D02*
X154690265Y-123930628D01*
X154690265Y-123930628D02*
X154652169Y-123835390D01*
X154652169Y-123835390D02*
X154614074Y-123787771D01*
X154614074Y-123787771D02*
X154537884Y-123740152D01*
X154537884Y-123740152D02*
X154385503Y-123740152D01*
X154385503Y-123740152D02*
X154309312Y-123787771D01*
X153318835Y-123740152D02*
X153318835Y-124740152D01*
X153318835Y-123787771D02*
X153242645Y-123740152D01*
X153242645Y-123740152D02*
X153090264Y-123740152D01*
X153090264Y-123740152D02*
X153014073Y-123787771D01*
X153014073Y-123787771D02*
X152975978Y-123835390D01*
X152975978Y-123835390D02*
X152937883Y-123930628D01*
X152937883Y-123930628D02*
X152937883Y-124216342D01*
X152937883Y-124216342D02*
X152975978Y-124311580D01*
X152975978Y-124311580D02*
X153014073Y-124359200D01*
X153014073Y-124359200D02*
X153090264Y-124406819D01*
X153090264Y-124406819D02*
X153242645Y-124406819D01*
X153242645Y-124406819D02*
X153318835Y-124359200D01*
X152480740Y-124406819D02*
X152556930Y-124359200D01*
X152556930Y-124359200D02*
X152595025Y-124311580D01*
X152595025Y-124311580D02*
X152633121Y-124216342D01*
X152633121Y-124216342D02*
X152633121Y-123930628D01*
X152633121Y-123930628D02*
X152595025Y-123835390D01*
X152595025Y-123835390D02*
X152556930Y-123787771D01*
X152556930Y-123787771D02*
X152480740Y-123740152D01*
X152480740Y-123740152D02*
X152366454Y-123740152D01*
X152366454Y-123740152D02*
X152290263Y-123787771D01*
X152290263Y-123787771D02*
X152252168Y-123835390D01*
X152252168Y-123835390D02*
X152214073Y-123930628D01*
X152214073Y-123930628D02*
X152214073Y-124216342D01*
X152214073Y-124216342D02*
X152252168Y-124311580D01*
X152252168Y-124311580D02*
X152290263Y-124359200D01*
X152290263Y-124359200D02*
X152366454Y-124406819D01*
X152366454Y-124406819D02*
X152480740Y-124406819D01*
X151947406Y-123740152D02*
X151795025Y-124406819D01*
X151795025Y-124406819D02*
X151642644Y-123930628D01*
X151642644Y-123930628D02*
X151490263Y-124406819D01*
X151490263Y-124406819D02*
X151337882Y-123740152D01*
X150728358Y-124359200D02*
X150804549Y-124406819D01*
X150804549Y-124406819D02*
X150956930Y-124406819D01*
X150956930Y-124406819D02*
X151033120Y-124359200D01*
X151033120Y-124359200D02*
X151071216Y-124263961D01*
X151071216Y-124263961D02*
X151071216Y-123883009D01*
X151071216Y-123883009D02*
X151033120Y-123787771D01*
X151033120Y-123787771D02*
X150956930Y-123740152D01*
X150956930Y-123740152D02*
X150804549Y-123740152D01*
X150804549Y-123740152D02*
X150728358Y-123787771D01*
X150728358Y-123787771D02*
X150690263Y-123883009D01*
X150690263Y-123883009D02*
X150690263Y-123978247D01*
X150690263Y-123978247D02*
X151071216Y-124073485D01*
X150347406Y-124406819D02*
X150347406Y-123740152D01*
X150347406Y-123930628D02*
X150309311Y-123835390D01*
X150309311Y-123835390D02*
X150271216Y-123787771D01*
X150271216Y-123787771D02*
X150195025Y-123740152D01*
X150195025Y-123740152D02*
X150118835Y-123740152D01*
X149280740Y-124359200D02*
X149204549Y-124406819D01*
X149204549Y-124406819D02*
X149052168Y-124406819D01*
X149052168Y-124406819D02*
X148975978Y-124359200D01*
X148975978Y-124359200D02*
X148937882Y-124263961D01*
X148937882Y-124263961D02*
X148937882Y-124216342D01*
X148937882Y-124216342D02*
X148975978Y-124121104D01*
X148975978Y-124121104D02*
X149052168Y-124073485D01*
X149052168Y-124073485D02*
X149166454Y-124073485D01*
X149166454Y-124073485D02*
X149242644Y-124025866D01*
X149242644Y-124025866D02*
X149280740Y-123930628D01*
X149280740Y-123930628D02*
X149280740Y-123883009D01*
X149280740Y-123883009D02*
X149242644Y-123787771D01*
X149242644Y-123787771D02*
X149166454Y-123740152D01*
X149166454Y-123740152D02*
X149052168Y-123740152D01*
X149052168Y-123740152D02*
X148975978Y-123787771D01*
X148671216Y-123740152D02*
X148518835Y-124406819D01*
X148518835Y-124406819D02*
X148366454Y-123930628D01*
X148366454Y-123930628D02*
X148214073Y-124406819D01*
X148214073Y-124406819D02*
X148061692Y-123740152D01*
X147756930Y-124406819D02*
X147756930Y-123740152D01*
X147756930Y-123406819D02*
X147795026Y-123454438D01*
X147795026Y-123454438D02*
X147756930Y-123502057D01*
X147756930Y-123502057D02*
X147718835Y-123454438D01*
X147718835Y-123454438D02*
X147756930Y-123406819D01*
X147756930Y-123406819D02*
X147756930Y-123502057D01*
X147490264Y-123740152D02*
X147185502Y-123740152D01*
X147375978Y-123406819D02*
X147375978Y-124263961D01*
X147375978Y-124263961D02*
X147337883Y-124359200D01*
X147337883Y-124359200D02*
X147261693Y-124406819D01*
X147261693Y-124406819D02*
X147185502Y-124406819D01*
X146575978Y-124359200D02*
X146652169Y-124406819D01*
X146652169Y-124406819D02*
X146804550Y-124406819D01*
X146804550Y-124406819D02*
X146880740Y-124359200D01*
X146880740Y-124359200D02*
X146918835Y-124311580D01*
X146918835Y-124311580D02*
X146956931Y-124216342D01*
X146956931Y-124216342D02*
X146956931Y-123930628D01*
X146956931Y-123930628D02*
X146918835Y-123835390D01*
X146918835Y-123835390D02*
X146880740Y-123787771D01*
X146880740Y-123787771D02*
X146804550Y-123740152D01*
X146804550Y-123740152D02*
X146652169Y-123740152D01*
X146652169Y-123740152D02*
X146575978Y-123787771D01*
X146233121Y-124406819D02*
X146233121Y-123406819D01*
X145890264Y-124406819D02*
X145890264Y-123883009D01*
X145890264Y-123883009D02*
X145928359Y-123787771D01*
X145928359Y-123787771D02*
X146004550Y-123740152D01*
X146004550Y-123740152D02*
X146118836Y-123740152D01*
X146118836Y-123740152D02*
X146195026Y-123787771D01*
X146195026Y-123787771D02*
X146233121Y-123835390D01*
X144556930Y-123740152D02*
X144556930Y-124549676D01*
X144556930Y-124549676D02*
X144595025Y-124644914D01*
X144595025Y-124644914D02*
X144633121Y-124692533D01*
X144633121Y-124692533D02*
X144709311Y-124740152D01*
X144709311Y-124740152D02*
X144823597Y-124740152D01*
X144823597Y-124740152D02*
X144899787Y-124692533D01*
X144556930Y-124359200D02*
X144633121Y-124406819D01*
X144633121Y-124406819D02*
X144785502Y-124406819D01*
X144785502Y-124406819D02*
X144861692Y-124359200D01*
X144861692Y-124359200D02*
X144899787Y-124311580D01*
X144899787Y-124311580D02*
X144937883Y-124216342D01*
X144937883Y-124216342D02*
X144937883Y-123930628D01*
X144937883Y-123930628D02*
X144899787Y-123835390D01*
X144899787Y-123835390D02*
X144861692Y-123787771D01*
X144861692Y-123787771D02*
X144785502Y-123740152D01*
X144785502Y-123740152D02*
X144633121Y-123740152D01*
X144633121Y-123740152D02*
X144556930Y-123787771D01*
X144061692Y-124406819D02*
X144137882Y-124359200D01*
X144137882Y-124359200D02*
X144175977Y-124311580D01*
X144175977Y-124311580D02*
X144214073Y-124216342D01*
X144214073Y-124216342D02*
X144214073Y-123930628D01*
X144214073Y-123930628D02*
X144175977Y-123835390D01*
X144175977Y-123835390D02*
X144137882Y-123787771D01*
X144137882Y-123787771D02*
X144061692Y-123740152D01*
X144061692Y-123740152D02*
X143947406Y-123740152D01*
X143947406Y-123740152D02*
X143871215Y-123787771D01*
X143871215Y-123787771D02*
X143833120Y-123835390D01*
X143833120Y-123835390D02*
X143795025Y-123930628D01*
X143795025Y-123930628D02*
X143795025Y-124216342D01*
X143795025Y-124216342D02*
X143833120Y-124311580D01*
X143833120Y-124311580D02*
X143871215Y-124359200D01*
X143871215Y-124359200D02*
X143947406Y-124406819D01*
X143947406Y-124406819D02*
X144061692Y-124406819D01*
X142728358Y-124406819D02*
X142804548Y-124359200D01*
X142804548Y-124359200D02*
X142842643Y-124311580D01*
X142842643Y-124311580D02*
X142880739Y-124216342D01*
X142880739Y-124216342D02*
X142880739Y-123930628D01*
X142880739Y-123930628D02*
X142842643Y-123835390D01*
X142842643Y-123835390D02*
X142804548Y-123787771D01*
X142804548Y-123787771D02*
X142728358Y-123740152D01*
X142728358Y-123740152D02*
X142614072Y-123740152D01*
X142614072Y-123740152D02*
X142537881Y-123787771D01*
X142537881Y-123787771D02*
X142499786Y-123835390D01*
X142499786Y-123835390D02*
X142461691Y-123930628D01*
X142461691Y-123930628D02*
X142461691Y-124216342D01*
X142461691Y-124216342D02*
X142499786Y-124311580D01*
X142499786Y-124311580D02*
X142537881Y-124359200D01*
X142537881Y-124359200D02*
X142614072Y-124406819D01*
X142614072Y-124406819D02*
X142728358Y-124406819D01*
X142118833Y-123740152D02*
X142118833Y-124406819D01*
X142118833Y-123835390D02*
X142080738Y-123787771D01*
X142080738Y-123787771D02*
X142004548Y-123740152D01*
X142004548Y-123740152D02*
X141890262Y-123740152D01*
X141890262Y-123740152D02*
X141814071Y-123787771D01*
X141814071Y-123787771D02*
X141775976Y-123883009D01*
X141775976Y-123883009D02*
X141775976Y-124406819D01*
X165433125Y-125350096D02*
X165128363Y-125350096D01*
X165318839Y-125016763D02*
X165318839Y-125873905D01*
X165318839Y-125873905D02*
X165280744Y-125969144D01*
X165280744Y-125969144D02*
X165204554Y-126016763D01*
X165204554Y-126016763D02*
X165128363Y-126016763D01*
X164861696Y-126016763D02*
X164861696Y-125016763D01*
X164518839Y-126016763D02*
X164518839Y-125492953D01*
X164518839Y-125492953D02*
X164556934Y-125397715D01*
X164556934Y-125397715D02*
X164633125Y-125350096D01*
X164633125Y-125350096D02*
X164747411Y-125350096D01*
X164747411Y-125350096D02*
X164823601Y-125397715D01*
X164823601Y-125397715D02*
X164861696Y-125445334D01*
X163833124Y-125969144D02*
X163909315Y-126016763D01*
X163909315Y-126016763D02*
X164061696Y-126016763D01*
X164061696Y-126016763D02*
X164137886Y-125969144D01*
X164137886Y-125969144D02*
X164175982Y-125873905D01*
X164175982Y-125873905D02*
X164175982Y-125492953D01*
X164175982Y-125492953D02*
X164137886Y-125397715D01*
X164137886Y-125397715D02*
X164061696Y-125350096D01*
X164061696Y-125350096D02*
X163909315Y-125350096D01*
X163909315Y-125350096D02*
X163833124Y-125397715D01*
X163833124Y-125397715D02*
X163795029Y-125492953D01*
X163795029Y-125492953D02*
X163795029Y-125588191D01*
X163795029Y-125588191D02*
X164175982Y-125683429D01*
X162842648Y-126016763D02*
X162842648Y-125016763D01*
X162842648Y-125397715D02*
X162766458Y-125350096D01*
X162766458Y-125350096D02*
X162614077Y-125350096D01*
X162614077Y-125350096D02*
X162537886Y-125397715D01*
X162537886Y-125397715D02*
X162499791Y-125445334D01*
X162499791Y-125445334D02*
X162461696Y-125540572D01*
X162461696Y-125540572D02*
X162461696Y-125826286D01*
X162461696Y-125826286D02*
X162499791Y-125921524D01*
X162499791Y-125921524D02*
X162537886Y-125969144D01*
X162537886Y-125969144D02*
X162614077Y-126016763D01*
X162614077Y-126016763D02*
X162766458Y-126016763D01*
X162766458Y-126016763D02*
X162842648Y-125969144D01*
X161775981Y-126016763D02*
X161775981Y-125492953D01*
X161775981Y-125492953D02*
X161814076Y-125397715D01*
X161814076Y-125397715D02*
X161890267Y-125350096D01*
X161890267Y-125350096D02*
X162042648Y-125350096D01*
X162042648Y-125350096D02*
X162118838Y-125397715D01*
X161775981Y-125969144D02*
X161852172Y-126016763D01*
X161852172Y-126016763D02*
X162042648Y-126016763D01*
X162042648Y-126016763D02*
X162118838Y-125969144D01*
X162118838Y-125969144D02*
X162156934Y-125873905D01*
X162156934Y-125873905D02*
X162156934Y-125778667D01*
X162156934Y-125778667D02*
X162118838Y-125683429D01*
X162118838Y-125683429D02*
X162042648Y-125635810D01*
X162042648Y-125635810D02*
X161852172Y-125635810D01*
X161852172Y-125635810D02*
X161775981Y-125588191D01*
X161052171Y-125969144D02*
X161128362Y-126016763D01*
X161128362Y-126016763D02*
X161280743Y-126016763D01*
X161280743Y-126016763D02*
X161356933Y-125969144D01*
X161356933Y-125969144D02*
X161395028Y-125921524D01*
X161395028Y-125921524D02*
X161433124Y-125826286D01*
X161433124Y-125826286D02*
X161433124Y-125540572D01*
X161433124Y-125540572D02*
X161395028Y-125445334D01*
X161395028Y-125445334D02*
X161356933Y-125397715D01*
X161356933Y-125397715D02*
X161280743Y-125350096D01*
X161280743Y-125350096D02*
X161128362Y-125350096D01*
X161128362Y-125350096D02*
X161052171Y-125397715D01*
X160709314Y-126016763D02*
X160709314Y-125016763D01*
X160633124Y-125635810D02*
X160404552Y-126016763D01*
X160404552Y-125350096D02*
X160709314Y-125731048D01*
X159223600Y-126397715D02*
X159261695Y-126350096D01*
X159261695Y-126350096D02*
X159337886Y-126207239D01*
X159337886Y-126207239D02*
X159375981Y-126112001D01*
X159375981Y-126112001D02*
X159414076Y-125969144D01*
X159414076Y-125969144D02*
X159452171Y-125731048D01*
X159452171Y-125731048D02*
X159452171Y-125540572D01*
X159452171Y-125540572D02*
X159414076Y-125302477D01*
X159414076Y-125302477D02*
X159375981Y-125159620D01*
X159375981Y-125159620D02*
X159337886Y-125064382D01*
X159337886Y-125064382D02*
X159261695Y-124921524D01*
X159261695Y-124921524D02*
X159223600Y-124873905D01*
X159033124Y-125350096D02*
X158728362Y-125350096D01*
X158918838Y-125016763D02*
X158918838Y-125873905D01*
X158918838Y-125873905D02*
X158880743Y-125969144D01*
X158880743Y-125969144D02*
X158804553Y-126016763D01*
X158804553Y-126016763D02*
X158728362Y-126016763D01*
X158461695Y-126016763D02*
X158461695Y-125016763D01*
X158118838Y-126016763D02*
X158118838Y-125492953D01*
X158118838Y-125492953D02*
X158156933Y-125397715D01*
X158156933Y-125397715D02*
X158233124Y-125350096D01*
X158233124Y-125350096D02*
X158347410Y-125350096D01*
X158347410Y-125350096D02*
X158423600Y-125397715D01*
X158423600Y-125397715D02*
X158461695Y-125445334D01*
X157737885Y-126016763D02*
X157737885Y-125350096D01*
X157737885Y-125016763D02*
X157775981Y-125064382D01*
X157775981Y-125064382D02*
X157737885Y-125112001D01*
X157737885Y-125112001D02*
X157699790Y-125064382D01*
X157699790Y-125064382D02*
X157737885Y-125016763D01*
X157737885Y-125016763D02*
X157737885Y-125112001D01*
X157395029Y-125969144D02*
X157318838Y-126016763D01*
X157318838Y-126016763D02*
X157166457Y-126016763D01*
X157166457Y-126016763D02*
X157090267Y-125969144D01*
X157090267Y-125969144D02*
X157052171Y-125873905D01*
X157052171Y-125873905D02*
X157052171Y-125826286D01*
X157052171Y-125826286D02*
X157090267Y-125731048D01*
X157090267Y-125731048D02*
X157166457Y-125683429D01*
X157166457Y-125683429D02*
X157280743Y-125683429D01*
X157280743Y-125683429D02*
X157356933Y-125635810D01*
X157356933Y-125635810D02*
X157395029Y-125540572D01*
X157395029Y-125540572D02*
X157395029Y-125492953D01*
X157395029Y-125492953D02*
X157356933Y-125397715D01*
X157356933Y-125397715D02*
X157280743Y-125350096D01*
X157280743Y-125350096D02*
X157166457Y-125350096D01*
X157166457Y-125350096D02*
X157090267Y-125397715D01*
X156137886Y-125969144D02*
X156061695Y-126016763D01*
X156061695Y-126016763D02*
X155909314Y-126016763D01*
X155909314Y-126016763D02*
X155833124Y-125969144D01*
X155833124Y-125969144D02*
X155795028Y-125873905D01*
X155795028Y-125873905D02*
X155795028Y-125826286D01*
X155795028Y-125826286D02*
X155833124Y-125731048D01*
X155833124Y-125731048D02*
X155909314Y-125683429D01*
X155909314Y-125683429D02*
X156023600Y-125683429D01*
X156023600Y-125683429D02*
X156099790Y-125635810D01*
X156099790Y-125635810D02*
X156137886Y-125540572D01*
X156137886Y-125540572D02*
X156137886Y-125492953D01*
X156137886Y-125492953D02*
X156099790Y-125397715D01*
X156099790Y-125397715D02*
X156023600Y-125350096D01*
X156023600Y-125350096D02*
X155909314Y-125350096D01*
X155909314Y-125350096D02*
X155833124Y-125397715D01*
X155452171Y-126016763D02*
X155452171Y-125350096D01*
X155452171Y-125016763D02*
X155490267Y-125064382D01*
X155490267Y-125064382D02*
X155452171Y-125112001D01*
X155452171Y-125112001D02*
X155414076Y-125064382D01*
X155414076Y-125064382D02*
X155452171Y-125016763D01*
X155452171Y-125016763D02*
X155452171Y-125112001D01*
X154728362Y-126016763D02*
X154728362Y-125016763D01*
X154728362Y-125969144D02*
X154804553Y-126016763D01*
X154804553Y-126016763D02*
X154956934Y-126016763D01*
X154956934Y-126016763D02*
X155033124Y-125969144D01*
X155033124Y-125969144D02*
X155071219Y-125921524D01*
X155071219Y-125921524D02*
X155109315Y-125826286D01*
X155109315Y-125826286D02*
X155109315Y-125540572D01*
X155109315Y-125540572D02*
X155071219Y-125445334D01*
X155071219Y-125445334D02*
X155033124Y-125397715D01*
X155033124Y-125397715D02*
X154956934Y-125350096D01*
X154956934Y-125350096D02*
X154804553Y-125350096D01*
X154804553Y-125350096D02*
X154728362Y-125397715D01*
X154042647Y-125969144D02*
X154118838Y-126016763D01*
X154118838Y-126016763D02*
X154271219Y-126016763D01*
X154271219Y-126016763D02*
X154347409Y-125969144D01*
X154347409Y-125969144D02*
X154385505Y-125873905D01*
X154385505Y-125873905D02*
X154385505Y-125492953D01*
X154385505Y-125492953D02*
X154347409Y-125397715D01*
X154347409Y-125397715D02*
X154271219Y-125350096D01*
X154271219Y-125350096D02*
X154118838Y-125350096D01*
X154118838Y-125350096D02*
X154042647Y-125397715D01*
X154042647Y-125397715D02*
X154004552Y-125492953D01*
X154004552Y-125492953D02*
X154004552Y-125588191D01*
X154004552Y-125588191D02*
X154385505Y-125683429D01*
X153737886Y-126397715D02*
X153699791Y-126350096D01*
X153699791Y-126350096D02*
X153623600Y-126207239D01*
X153623600Y-126207239D02*
X153585505Y-126112001D01*
X153585505Y-126112001D02*
X153547410Y-125969144D01*
X153547410Y-125969144D02*
X153509314Y-125731048D01*
X153509314Y-125731048D02*
X153509314Y-125540572D01*
X153509314Y-125540572D02*
X153547410Y-125302477D01*
X153547410Y-125302477D02*
X153585505Y-125159620D01*
X153585505Y-125159620D02*
X153623600Y-125064382D01*
X153623600Y-125064382D02*
X153699791Y-124921524D01*
X153699791Y-124921524D02*
X153737886Y-124873905D01*
X153128362Y-125921524D02*
X153090267Y-125969144D01*
X153090267Y-125969144D02*
X153128362Y-126016763D01*
X153128362Y-126016763D02*
X153166458Y-125969144D01*
X153166458Y-125969144D02*
X153128362Y-125921524D01*
X153128362Y-125921524D02*
X153128362Y-126016763D01*
D12*
X118896189Y-82239694D02*
X118944570Y-82288075D01*
X118944570Y-82288075D02*
X119089713Y-82336455D01*
X119089713Y-82336455D02*
X119186475Y-82336455D01*
X119186475Y-82336455D02*
X119331618Y-82288075D01*
X119331618Y-82288075D02*
X119428380Y-82191313D01*
X119428380Y-82191313D02*
X119476761Y-82094551D01*
X119476761Y-82094551D02*
X119525142Y-81901027D01*
X119525142Y-81901027D02*
X119525142Y-81755884D01*
X119525142Y-81755884D02*
X119476761Y-81562360D01*
X119476761Y-81562360D02*
X119428380Y-81465598D01*
X119428380Y-81465598D02*
X119331618Y-81368836D01*
X119331618Y-81368836D02*
X119186475Y-81320455D01*
X119186475Y-81320455D02*
X119089713Y-81320455D01*
X119089713Y-81320455D02*
X118944570Y-81368836D01*
X118944570Y-81368836D02*
X118896189Y-81417217D01*
X118460761Y-82336455D02*
X118460761Y-81320455D01*
X118460761Y-81804265D02*
X117880189Y-81804265D01*
X117880189Y-82336455D02*
X117880189Y-81320455D01*
X117493142Y-81320455D02*
X116864189Y-81320455D01*
X116864189Y-81320455D02*
X117202856Y-81707503D01*
X117202856Y-81707503D02*
X117057713Y-81707503D01*
X117057713Y-81707503D02*
X116960951Y-81755884D01*
X116960951Y-81755884D02*
X116912570Y-81804265D01*
X116912570Y-81804265D02*
X116864189Y-81901027D01*
X116864189Y-81901027D02*
X116864189Y-82142932D01*
X116864189Y-82142932D02*
X116912570Y-82239694D01*
X116912570Y-82239694D02*
X116960951Y-82288075D01*
X116960951Y-82288075D02*
X117057713Y-82336455D01*
X117057713Y-82336455D02*
X117347999Y-82336455D01*
X117347999Y-82336455D02*
X117444761Y-82288075D01*
X117444761Y-82288075D02*
X117493142Y-82239694D01*
X116477142Y-81417217D02*
X116428761Y-81368836D01*
X116428761Y-81368836D02*
X116331999Y-81320455D01*
X116331999Y-81320455D02*
X116090094Y-81320455D01*
X116090094Y-81320455D02*
X115993332Y-81368836D01*
X115993332Y-81368836D02*
X115944951Y-81417217D01*
X115944951Y-81417217D02*
X115896570Y-81513979D01*
X115896570Y-81513979D02*
X115896570Y-81610741D01*
X115896570Y-81610741D02*
X115944951Y-81755884D01*
X115944951Y-81755884D02*
X116525523Y-82336455D01*
X116525523Y-82336455D02*
X115896570Y-82336455D01*
X115606285Y-81320455D02*
X115267618Y-82336455D01*
X115267618Y-82336455D02*
X114928951Y-81320455D01*
X114396761Y-81320455D02*
X114299999Y-81320455D01*
X114299999Y-81320455D02*
X114203237Y-81368836D01*
X114203237Y-81368836D02*
X114154856Y-81417217D01*
X114154856Y-81417217D02*
X114106475Y-81513979D01*
X114106475Y-81513979D02*
X114058094Y-81707503D01*
X114058094Y-81707503D02*
X114058094Y-81949408D01*
X114058094Y-81949408D02*
X114106475Y-82142932D01*
X114106475Y-82142932D02*
X114154856Y-82239694D01*
X114154856Y-82239694D02*
X114203237Y-82288075D01*
X114203237Y-82288075D02*
X114299999Y-82336455D01*
X114299999Y-82336455D02*
X114396761Y-82336455D01*
X114396761Y-82336455D02*
X114493523Y-82288075D01*
X114493523Y-82288075D02*
X114541904Y-82239694D01*
X114541904Y-82239694D02*
X114590285Y-82142932D01*
X114590285Y-82142932D02*
X114638666Y-81949408D01*
X114638666Y-81949408D02*
X114638666Y-81707503D01*
X114638666Y-81707503D02*
X114590285Y-81513979D01*
X114590285Y-81513979D02*
X114541904Y-81417217D01*
X114541904Y-81417217D02*
X114493523Y-81368836D01*
X114493523Y-81368836D02*
X114396761Y-81320455D01*
X113429142Y-81320455D02*
X113332380Y-81320455D01*
X113332380Y-81320455D02*
X113235618Y-81368836D01*
X113235618Y-81368836D02*
X113187237Y-81417217D01*
X113187237Y-81417217D02*
X113138856Y-81513979D01*
X113138856Y-81513979D02*
X113090475Y-81707503D01*
X113090475Y-81707503D02*
X113090475Y-81949408D01*
X113090475Y-81949408D02*
X113138856Y-82142932D01*
X113138856Y-82142932D02*
X113187237Y-82239694D01*
X113187237Y-82239694D02*
X113235618Y-82288075D01*
X113235618Y-82288075D02*
X113332380Y-82336455D01*
X113332380Y-82336455D02*
X113429142Y-82336455D01*
X113429142Y-82336455D02*
X113525904Y-82288075D01*
X113525904Y-82288075D02*
X113574285Y-82239694D01*
X113574285Y-82239694D02*
X113622666Y-82142932D01*
X113622666Y-82142932D02*
X113671047Y-81949408D01*
X113671047Y-81949408D02*
X113671047Y-81707503D01*
X113671047Y-81707503D02*
X113622666Y-81513979D01*
X113622666Y-81513979D02*
X113574285Y-81417217D01*
X113574285Y-81417217D02*
X113525904Y-81368836D01*
X113525904Y-81368836D02*
X113429142Y-81320455D01*
X112751809Y-81320455D02*
X112122856Y-81320455D01*
X112122856Y-81320455D02*
X112461523Y-81707503D01*
X112461523Y-81707503D02*
X112316380Y-81707503D01*
X112316380Y-81707503D02*
X112219618Y-81755884D01*
X112219618Y-81755884D02*
X112171237Y-81804265D01*
X112171237Y-81804265D02*
X112122856Y-81901027D01*
X112122856Y-81901027D02*
X112122856Y-82142932D01*
X112122856Y-82142932D02*
X112171237Y-82239694D01*
X112171237Y-82239694D02*
X112219618Y-82288075D01*
X112219618Y-82288075D02*
X112316380Y-82336455D01*
X112316380Y-82336455D02*
X112606666Y-82336455D01*
X112606666Y-82336455D02*
X112703428Y-82288075D01*
X112703428Y-82288075D02*
X112751809Y-82239694D01*
D13*
X172209193Y-87555200D02*
X172160812Y-87458438D01*
X172160812Y-87458438D02*
X172160812Y-87313295D01*
X172160812Y-87313295D02*
X172209193Y-87168152D01*
X172209193Y-87168152D02*
X172305955Y-87071390D01*
X172305955Y-87071390D02*
X172402717Y-87023009D01*
X172402717Y-87023009D02*
X172596241Y-86974628D01*
X172596241Y-86974628D02*
X172741384Y-86974628D01*
X172741384Y-86974628D02*
X172934908Y-87023009D01*
X172934908Y-87023009D02*
X173031670Y-87071390D01*
X173031670Y-87071390D02*
X173128432Y-87168152D01*
X173128432Y-87168152D02*
X173176812Y-87313295D01*
X173176812Y-87313295D02*
X173176812Y-87410057D01*
X173176812Y-87410057D02*
X173128432Y-87555200D01*
X173128432Y-87555200D02*
X173080051Y-87603581D01*
X173080051Y-87603581D02*
X172741384Y-87603581D01*
X172741384Y-87603581D02*
X172741384Y-87410057D01*
X173176812Y-88039009D02*
X172160812Y-88039009D01*
X172160812Y-88039009D02*
X173176812Y-88619581D01*
X173176812Y-88619581D02*
X172160812Y-88619581D01*
X173176812Y-89103390D02*
X172160812Y-89103390D01*
X172160812Y-89103390D02*
X172160812Y-89345295D01*
X172160812Y-89345295D02*
X172209193Y-89490438D01*
X172209193Y-89490438D02*
X172305955Y-89587200D01*
X172305955Y-89587200D02*
X172402717Y-89635581D01*
X172402717Y-89635581D02*
X172596241Y-89683962D01*
X172596241Y-89683962D02*
X172741384Y-89683962D01*
X172741384Y-89683962D02*
X172934908Y-89635581D01*
X172934908Y-89635581D02*
X173031670Y-89587200D01*
X173031670Y-89587200D02*
X173128432Y-89490438D01*
X173128432Y-89490438D02*
X173176812Y-89345295D01*
X173176812Y-89345295D02*
X173176812Y-89103390D01*
X174652432Y-87141497D02*
X174700812Y-87286640D01*
X174700812Y-87286640D02*
X174700812Y-87528545D01*
X174700812Y-87528545D02*
X174652432Y-87625307D01*
X174652432Y-87625307D02*
X174604051Y-87673688D01*
X174604051Y-87673688D02*
X174507289Y-87722069D01*
X174507289Y-87722069D02*
X174410527Y-87722069D01*
X174410527Y-87722069D02*
X174313765Y-87673688D01*
X174313765Y-87673688D02*
X174265384Y-87625307D01*
X174265384Y-87625307D02*
X174217003Y-87528545D01*
X174217003Y-87528545D02*
X174168622Y-87335021D01*
X174168622Y-87335021D02*
X174120241Y-87238259D01*
X174120241Y-87238259D02*
X174071860Y-87189878D01*
X174071860Y-87189878D02*
X173975098Y-87141497D01*
X173975098Y-87141497D02*
X173878336Y-87141497D01*
X173878336Y-87141497D02*
X173781574Y-87189878D01*
X173781574Y-87189878D02*
X173733193Y-87238259D01*
X173733193Y-87238259D02*
X173684812Y-87335021D01*
X173684812Y-87335021D02*
X173684812Y-87576926D01*
X173684812Y-87576926D02*
X173733193Y-87722069D01*
X174604051Y-88738069D02*
X174652432Y-88689688D01*
X174652432Y-88689688D02*
X174700812Y-88544545D01*
X174700812Y-88544545D02*
X174700812Y-88447783D01*
X174700812Y-88447783D02*
X174652432Y-88302640D01*
X174652432Y-88302640D02*
X174555670Y-88205878D01*
X174555670Y-88205878D02*
X174458908Y-88157497D01*
X174458908Y-88157497D02*
X174265384Y-88109116D01*
X174265384Y-88109116D02*
X174120241Y-88109116D01*
X174120241Y-88109116D02*
X173926717Y-88157497D01*
X173926717Y-88157497D02*
X173829955Y-88205878D01*
X173829955Y-88205878D02*
X173733193Y-88302640D01*
X173733193Y-88302640D02*
X173684812Y-88447783D01*
X173684812Y-88447783D02*
X173684812Y-88544545D01*
X173684812Y-88544545D02*
X173733193Y-88689688D01*
X173733193Y-88689688D02*
X173781574Y-88738069D01*
X174700812Y-89657307D02*
X174700812Y-89173497D01*
X174700812Y-89173497D02*
X173684812Y-89173497D01*
X176224812Y-87603581D02*
X175741003Y-87264914D01*
X176224812Y-87023009D02*
X175208812Y-87023009D01*
X175208812Y-87023009D02*
X175208812Y-87410057D01*
X175208812Y-87410057D02*
X175257193Y-87506819D01*
X175257193Y-87506819D02*
X175305574Y-87555200D01*
X175305574Y-87555200D02*
X175402336Y-87603581D01*
X175402336Y-87603581D02*
X175547479Y-87603581D01*
X175547479Y-87603581D02*
X175644241Y-87555200D01*
X175644241Y-87555200D02*
X175692622Y-87506819D01*
X175692622Y-87506819D02*
X175741003Y-87410057D01*
X175741003Y-87410057D02*
X175741003Y-87023009D01*
X175208812Y-87942247D02*
X176224812Y-88619581D01*
X175208812Y-88619581D02*
X176224812Y-87942247D01*
X176224812Y-89006628D02*
X175208812Y-89006628D01*
X175208812Y-89006628D02*
X175208812Y-89248533D01*
X175208812Y-89248533D02*
X175257193Y-89393676D01*
X175257193Y-89393676D02*
X175353955Y-89490438D01*
X175353955Y-89490438D02*
X175450717Y-89538819D01*
X175450717Y-89538819D02*
X175644241Y-89587200D01*
X175644241Y-89587200D02*
X175789384Y-89587200D01*
X175789384Y-89587200D02*
X175982908Y-89538819D01*
X175982908Y-89538819D02*
X176079670Y-89490438D01*
X176079670Y-89490438D02*
X176176432Y-89393676D01*
X176176432Y-89393676D02*
X176224812Y-89248533D01*
X176224812Y-89248533D02*
X176224812Y-89006628D01*
X172160812Y-80737942D02*
X172160812Y-81366895D01*
X172160812Y-81366895D02*
X172547860Y-81028228D01*
X172547860Y-81028228D02*
X172547860Y-81173371D01*
X172547860Y-81173371D02*
X172596241Y-81270133D01*
X172596241Y-81270133D02*
X172644622Y-81318514D01*
X172644622Y-81318514D02*
X172741384Y-81366895D01*
X172741384Y-81366895D02*
X172983289Y-81366895D01*
X172983289Y-81366895D02*
X173080051Y-81318514D01*
X173080051Y-81318514D02*
X173128432Y-81270133D01*
X173128432Y-81270133D02*
X173176812Y-81173371D01*
X173176812Y-81173371D02*
X173176812Y-80883085D01*
X173176812Y-80883085D02*
X173128432Y-80786323D01*
X173128432Y-80786323D02*
X173080051Y-80737942D01*
X172160812Y-81657180D02*
X173176812Y-81995847D01*
X173176812Y-81995847D02*
X172160812Y-82334514D01*
X172160812Y-82576418D02*
X172160812Y-83205371D01*
X172160812Y-83205371D02*
X172547860Y-82866704D01*
X172547860Y-82866704D02*
X172547860Y-83011847D01*
X172547860Y-83011847D02*
X172596241Y-83108609D01*
X172596241Y-83108609D02*
X172644622Y-83156990D01*
X172644622Y-83156990D02*
X172741384Y-83205371D01*
X172741384Y-83205371D02*
X172983289Y-83205371D01*
X172983289Y-83205371D02*
X173080051Y-83156990D01*
X173080051Y-83156990D02*
X173128432Y-83108609D01*
X173128432Y-83108609D02*
X173176812Y-83011847D01*
X173176812Y-83011847D02*
X173176812Y-82721561D01*
X173176812Y-82721561D02*
X173128432Y-82624799D01*
X173128432Y-82624799D02*
X173080051Y-82576418D01*
X174652432Y-80737942D02*
X174700812Y-80883085D01*
X174700812Y-80883085D02*
X174700812Y-81124990D01*
X174700812Y-81124990D02*
X174652432Y-81221752D01*
X174652432Y-81221752D02*
X174604051Y-81270133D01*
X174604051Y-81270133D02*
X174507289Y-81318514D01*
X174507289Y-81318514D02*
X174410527Y-81318514D01*
X174410527Y-81318514D02*
X174313765Y-81270133D01*
X174313765Y-81270133D02*
X174265384Y-81221752D01*
X174265384Y-81221752D02*
X174217003Y-81124990D01*
X174217003Y-81124990D02*
X174168622Y-80931466D01*
X174168622Y-80931466D02*
X174120241Y-80834704D01*
X174120241Y-80834704D02*
X174071860Y-80786323D01*
X174071860Y-80786323D02*
X173975098Y-80737942D01*
X173975098Y-80737942D02*
X173878336Y-80737942D01*
X173878336Y-80737942D02*
X173781574Y-80786323D01*
X173781574Y-80786323D02*
X173733193Y-80834704D01*
X173733193Y-80834704D02*
X173684812Y-80931466D01*
X173684812Y-80931466D02*
X173684812Y-81173371D01*
X173684812Y-81173371D02*
X173733193Y-81318514D01*
X174700812Y-81753942D02*
X173684812Y-81753942D01*
X173684812Y-81753942D02*
X173684812Y-81995847D01*
X173684812Y-81995847D02*
X173733193Y-82140990D01*
X173733193Y-82140990D02*
X173829955Y-82237752D01*
X173829955Y-82237752D02*
X173926717Y-82286133D01*
X173926717Y-82286133D02*
X174120241Y-82334514D01*
X174120241Y-82334514D02*
X174265384Y-82334514D01*
X174265384Y-82334514D02*
X174458908Y-82286133D01*
X174458908Y-82286133D02*
X174555670Y-82237752D01*
X174555670Y-82237752D02*
X174652432Y-82140990D01*
X174652432Y-82140990D02*
X174700812Y-81995847D01*
X174700812Y-81995847D02*
X174700812Y-81753942D01*
X174410527Y-82721561D02*
X174410527Y-83205371D01*
X174700812Y-82624799D02*
X173684812Y-82963466D01*
X173684812Y-82963466D02*
X174700812Y-83302133D01*
X175208812Y-80737942D02*
X175208812Y-81318514D01*
X176224812Y-81028228D02*
X175208812Y-81028228D01*
X175208812Y-81560418D02*
X176224812Y-82237752D01*
X175208812Y-82237752D02*
X176224812Y-81560418D01*
X176224812Y-82624799D02*
X175208812Y-82624799D01*
X175208812Y-82624799D02*
X175208812Y-82866704D01*
X175208812Y-82866704D02*
X175257193Y-83011847D01*
X175257193Y-83011847D02*
X175353955Y-83108609D01*
X175353955Y-83108609D02*
X175450717Y-83156990D01*
X175450717Y-83156990D02*
X175644241Y-83205371D01*
X175644241Y-83205371D02*
X175789384Y-83205371D01*
X175789384Y-83205371D02*
X175982908Y-83156990D01*
X175982908Y-83156990D02*
X176079670Y-83108609D01*
X176079670Y-83108609D02*
X176176432Y-83011847D01*
X176176432Y-83011847D02*
X176224812Y-82866704D01*
X176224812Y-82866704D02*
X176224812Y-82624799D01*
D14*
X135843489Y-104702828D02*
X135843489Y-103202828D01*
X135843489Y-103202828D02*
X135272060Y-103202828D01*
X135272060Y-103202828D02*
X135129203Y-103274257D01*
X135129203Y-103274257D02*
X135057774Y-103345685D01*
X135057774Y-103345685D02*
X134986346Y-103488542D01*
X134986346Y-103488542D02*
X134986346Y-103702828D01*
X134986346Y-103702828D02*
X135057774Y-103845685D01*
X135057774Y-103845685D02*
X135129203Y-103917114D01*
X135129203Y-103917114D02*
X135272060Y-103988542D01*
X135272060Y-103988542D02*
X135843489Y-103988542D01*
X133486346Y-104559971D02*
X133557774Y-104631400D01*
X133557774Y-104631400D02*
X133772060Y-104702828D01*
X133772060Y-104702828D02*
X133914917Y-104702828D01*
X133914917Y-104702828D02*
X134129203Y-104631400D01*
X134129203Y-104631400D02*
X134272060Y-104488542D01*
X134272060Y-104488542D02*
X134343489Y-104345685D01*
X134343489Y-104345685D02*
X134414917Y-104059971D01*
X134414917Y-104059971D02*
X134414917Y-103845685D01*
X134414917Y-103845685D02*
X134343489Y-103559971D01*
X134343489Y-103559971D02*
X134272060Y-103417114D01*
X134272060Y-103417114D02*
X134129203Y-103274257D01*
X134129203Y-103274257D02*
X133914917Y-103202828D01*
X133914917Y-103202828D02*
X133772060Y-103202828D01*
X133772060Y-103202828D02*
X133557774Y-103274257D01*
X133557774Y-103274257D02*
X133486346Y-103345685D01*
X132343489Y-103917114D02*
X132129203Y-103988542D01*
X132129203Y-103988542D02*
X132057774Y-104059971D01*
X132057774Y-104059971D02*
X131986346Y-104202828D01*
X131986346Y-104202828D02*
X131986346Y-104417114D01*
X131986346Y-104417114D02*
X132057774Y-104559971D01*
X132057774Y-104559971D02*
X132129203Y-104631400D01*
X132129203Y-104631400D02*
X132272060Y-104702828D01*
X132272060Y-104702828D02*
X132843489Y-104702828D01*
X132843489Y-104702828D02*
X132843489Y-103202828D01*
X132843489Y-103202828D02*
X132343489Y-103202828D01*
X132343489Y-103202828D02*
X132200632Y-103274257D01*
X132200632Y-103274257D02*
X132129203Y-103345685D01*
X132129203Y-103345685D02*
X132057774Y-103488542D01*
X132057774Y-103488542D02*
X132057774Y-103631400D01*
X132057774Y-103631400D02*
X132129203Y-103774257D01*
X132129203Y-103774257D02*
X132200632Y-103845685D01*
X132200632Y-103845685D02*
X132343489Y-103917114D01*
X132343489Y-103917114D02*
X132843489Y-103917114D01*
X130200632Y-104702828D02*
X130200632Y-103202828D01*
X130200632Y-103774257D02*
X130057775Y-103702828D01*
X130057775Y-103702828D02*
X129772060Y-103702828D01*
X129772060Y-103702828D02*
X129629203Y-103774257D01*
X129629203Y-103774257D02*
X129557775Y-103845685D01*
X129557775Y-103845685D02*
X129486346Y-103988542D01*
X129486346Y-103988542D02*
X129486346Y-104417114D01*
X129486346Y-104417114D02*
X129557775Y-104559971D01*
X129557775Y-104559971D02*
X129629203Y-104631400D01*
X129629203Y-104631400D02*
X129772060Y-104702828D01*
X129772060Y-104702828D02*
X130057775Y-104702828D01*
X130057775Y-104702828D02*
X130200632Y-104631400D01*
X128986346Y-103702828D02*
X128629203Y-104702828D01*
X128272060Y-103702828D02*
X128629203Y-104702828D01*
X128629203Y-104702828D02*
X128772060Y-105059971D01*
X128772060Y-105059971D02*
X128843489Y-105131400D01*
X128843489Y-105131400D02*
X128986346Y-105202828D01*
X126557775Y-104702828D02*
X126557775Y-103202828D01*
X126414918Y-104131400D02*
X125986346Y-104702828D01*
X125986346Y-103702828D02*
X126557775Y-104274257D01*
X124700632Y-104631400D02*
X124843489Y-104702828D01*
X124843489Y-104702828D02*
X125129203Y-104702828D01*
X125129203Y-104702828D02*
X125272060Y-104631400D01*
X125272060Y-104631400D02*
X125343489Y-104559971D01*
X125343489Y-104559971D02*
X125414917Y-104417114D01*
X125414917Y-104417114D02*
X125414917Y-103988542D01*
X125414917Y-103988542D02*
X125343489Y-103845685D01*
X125343489Y-103845685D02*
X125272060Y-103774257D01*
X125272060Y-103774257D02*
X125129203Y-103702828D01*
X125129203Y-103702828D02*
X124843489Y-103702828D01*
X124843489Y-103702828D02*
X124700632Y-103774257D01*
X123843489Y-104702828D02*
X123986346Y-104631400D01*
X123986346Y-104631400D02*
X124057775Y-104559971D01*
X124057775Y-104559971D02*
X124129203Y-104417114D01*
X124129203Y-104417114D02*
X124129203Y-103988542D01*
X124129203Y-103988542D02*
X124057775Y-103845685D01*
X124057775Y-103845685D02*
X123986346Y-103774257D01*
X123986346Y-103774257D02*
X123843489Y-103702828D01*
X123843489Y-103702828D02*
X123629203Y-103702828D01*
X123629203Y-103702828D02*
X123486346Y-103774257D01*
X123486346Y-103774257D02*
X123414918Y-103845685D01*
X123414918Y-103845685D02*
X123343489Y-103988542D01*
X123343489Y-103988542D02*
X123343489Y-104417114D01*
X123343489Y-104417114D02*
X123414918Y-104559971D01*
X123414918Y-104559971D02*
X123486346Y-104631400D01*
X123486346Y-104631400D02*
X123629203Y-104702828D01*
X123629203Y-104702828D02*
X123843489Y-104702828D01*
X122486346Y-104702828D02*
X122629203Y-104631400D01*
X122629203Y-104631400D02*
X122700632Y-104488542D01*
X122700632Y-104488542D02*
X122700632Y-103202828D01*
X121700632Y-104702828D02*
X121843489Y-104631400D01*
X121843489Y-104631400D02*
X121914918Y-104488542D01*
X121914918Y-104488542D02*
X121914918Y-103202828D01*
X120557775Y-104631400D02*
X120700632Y-104702828D01*
X120700632Y-104702828D02*
X120986347Y-104702828D01*
X120986347Y-104702828D02*
X121129204Y-104631400D01*
X121129204Y-104631400D02*
X121200632Y-104488542D01*
X121200632Y-104488542D02*
X121200632Y-103917114D01*
X121200632Y-103917114D02*
X121129204Y-103774257D01*
X121129204Y-103774257D02*
X120986347Y-103702828D01*
X120986347Y-103702828D02*
X120700632Y-103702828D01*
X120700632Y-103702828D02*
X120557775Y-103774257D01*
X120557775Y-103774257D02*
X120486347Y-103917114D01*
X120486347Y-103917114D02*
X120486347Y-104059971D01*
X120486347Y-104059971D02*
X121200632Y-104202828D01*
X119986347Y-103702828D02*
X119629204Y-104702828D01*
X119272061Y-103702828D02*
X119629204Y-104702828D01*
X119629204Y-104702828D02*
X119772061Y-105059971D01*
X119772061Y-105059971D02*
X119843490Y-105131400D01*
X119843490Y-105131400D02*
X119986347Y-105202828D01*
X135914917Y-106814257D02*
X135200632Y-106814257D01*
X136057774Y-107242828D02*
X135557774Y-105742828D01*
X135557774Y-105742828D02*
X135057774Y-107242828D01*
X134557775Y-107242828D02*
X134557775Y-106242828D01*
X134557775Y-106528542D02*
X134486346Y-106385685D01*
X134486346Y-106385685D02*
X134414918Y-106314257D01*
X134414918Y-106314257D02*
X134272060Y-106242828D01*
X134272060Y-106242828D02*
X134129203Y-106242828D01*
X133843489Y-106242828D02*
X133272061Y-106242828D01*
X133629204Y-105742828D02*
X133629204Y-107028542D01*
X133629204Y-107028542D02*
X133557775Y-107171400D01*
X133557775Y-107171400D02*
X133414918Y-107242828D01*
X133414918Y-107242828D02*
X133272061Y-107242828D01*
X131629204Y-107242828D02*
X131629204Y-105742828D01*
X131629204Y-106314257D02*
X131486347Y-106242828D01*
X131486347Y-106242828D02*
X131200632Y-106242828D01*
X131200632Y-106242828D02*
X131057775Y-106314257D01*
X131057775Y-106314257D02*
X130986347Y-106385685D01*
X130986347Y-106385685D02*
X130914918Y-106528542D01*
X130914918Y-106528542D02*
X130914918Y-106957114D01*
X130914918Y-106957114D02*
X130986347Y-107099971D01*
X130986347Y-107099971D02*
X131057775Y-107171400D01*
X131057775Y-107171400D02*
X131200632Y-107242828D01*
X131200632Y-107242828D02*
X131486347Y-107242828D01*
X131486347Y-107242828D02*
X131629204Y-107171400D01*
X130414918Y-106242828D02*
X130057775Y-107242828D01*
X129700632Y-106242828D02*
X130057775Y-107242828D01*
X130057775Y-107242828D02*
X130200632Y-107599971D01*
X130200632Y-107599971D02*
X130272061Y-107671400D01*
X130272061Y-107671400D02*
X130414918Y-107742828D01*
X128057775Y-107171400D02*
X127843490Y-107242828D01*
X127843490Y-107242828D02*
X127486347Y-107242828D01*
X127486347Y-107242828D02*
X127343490Y-107171400D01*
X127343490Y-107171400D02*
X127272061Y-107099971D01*
X127272061Y-107099971D02*
X127200632Y-106957114D01*
X127200632Y-106957114D02*
X127200632Y-106814257D01*
X127200632Y-106814257D02*
X127272061Y-106671400D01*
X127272061Y-106671400D02*
X127343490Y-106599971D01*
X127343490Y-106599971D02*
X127486347Y-106528542D01*
X127486347Y-106528542D02*
X127772061Y-106457114D01*
X127772061Y-106457114D02*
X127914918Y-106385685D01*
X127914918Y-106385685D02*
X127986347Y-106314257D01*
X127986347Y-106314257D02*
X128057775Y-106171400D01*
X128057775Y-106171400D02*
X128057775Y-106028542D01*
X128057775Y-106028542D02*
X127986347Y-105885685D01*
X127986347Y-105885685D02*
X127914918Y-105814257D01*
X127914918Y-105814257D02*
X127772061Y-105742828D01*
X127772061Y-105742828D02*
X127414918Y-105742828D01*
X127414918Y-105742828D02*
X127200632Y-105814257D01*
X126557776Y-107242828D02*
X126557776Y-105742828D01*
X125914919Y-107242828D02*
X125914919Y-106457114D01*
X125914919Y-106457114D02*
X125986347Y-106314257D01*
X125986347Y-106314257D02*
X126129204Y-106242828D01*
X126129204Y-106242828D02*
X126343490Y-106242828D01*
X126343490Y-106242828D02*
X126486347Y-106314257D01*
X126486347Y-106314257D02*
X126557776Y-106385685D01*
X124629204Y-107171400D02*
X124772061Y-107242828D01*
X124772061Y-107242828D02*
X125057776Y-107242828D01*
X125057776Y-107242828D02*
X125200633Y-107171400D01*
X125200633Y-107171400D02*
X125272061Y-107028542D01*
X125272061Y-107028542D02*
X125272061Y-106457114D01*
X125272061Y-106457114D02*
X125200633Y-106314257D01*
X125200633Y-106314257D02*
X125057776Y-106242828D01*
X125057776Y-106242828D02*
X124772061Y-106242828D01*
X124772061Y-106242828D02*
X124629204Y-106314257D01*
X124629204Y-106314257D02*
X124557776Y-106457114D01*
X124557776Y-106457114D02*
X124557776Y-106599971D01*
X124557776Y-106599971D02*
X125272061Y-106742828D01*
X123914919Y-106242828D02*
X123914919Y-107742828D01*
X123914919Y-106314257D02*
X123772062Y-106242828D01*
X123772062Y-106242828D02*
X123486347Y-106242828D01*
X123486347Y-106242828D02*
X123343490Y-106314257D01*
X123343490Y-106314257D02*
X123272062Y-106385685D01*
X123272062Y-106385685D02*
X123200633Y-106528542D01*
X123200633Y-106528542D02*
X123200633Y-106957114D01*
X123200633Y-106957114D02*
X123272062Y-107099971D01*
X123272062Y-107099971D02*
X123343490Y-107171400D01*
X123343490Y-107171400D02*
X123486347Y-107242828D01*
X123486347Y-107242828D02*
X123772062Y-107242828D01*
X123772062Y-107242828D02*
X123914919Y-107171400D01*
D15*
X186085237Y-118186949D02*
X185698190Y-118186949D01*
X185698190Y-118186949D02*
X185504666Y-118283711D01*
X185504666Y-118283711D02*
X185311142Y-118477235D01*
X185311142Y-118477235D02*
X185214380Y-118864283D01*
X185214380Y-118864283D02*
X185214380Y-119541616D01*
X185214380Y-119541616D02*
X185311142Y-119928664D01*
X185311142Y-119928664D02*
X185504666Y-120122188D01*
X185504666Y-120122188D02*
X185698190Y-120218949D01*
X185698190Y-120218949D02*
X186085237Y-120218949D01*
X186085237Y-120218949D02*
X186278761Y-120122188D01*
X186278761Y-120122188D02*
X186472285Y-119928664D01*
X186472285Y-119928664D02*
X186569047Y-119541616D01*
X186569047Y-119541616D02*
X186569047Y-118864283D01*
X186569047Y-118864283D02*
X186472285Y-118477235D01*
X186472285Y-118477235D02*
X186278761Y-118283711D01*
X186278761Y-118283711D02*
X186085237Y-118186949D01*
X183666190Y-119154568D02*
X184343523Y-119154568D01*
X184343523Y-120218949D02*
X184343523Y-118186949D01*
X184343523Y-118186949D02*
X183375904Y-118186949D01*
X181924476Y-119154568D02*
X182601809Y-119154568D01*
X182601809Y-120218949D02*
X182601809Y-118186949D01*
X182601809Y-118186949D02*
X181634190Y-118186949D01*
X185407904Y-105395509D02*
X185020857Y-105395509D01*
X185020857Y-105395509D02*
X184827333Y-105492271D01*
X184827333Y-105492271D02*
X184633809Y-105685795D01*
X184633809Y-105685795D02*
X184537047Y-106072843D01*
X184537047Y-106072843D02*
X184537047Y-106750176D01*
X184537047Y-106750176D02*
X184633809Y-107137224D01*
X184633809Y-107137224D02*
X184827333Y-107330748D01*
X184827333Y-107330748D02*
X185020857Y-107427509D01*
X185020857Y-107427509D02*
X185407904Y-107427509D01*
X185407904Y-107427509D02*
X185601428Y-107330748D01*
X185601428Y-107330748D02*
X185794952Y-107137224D01*
X185794952Y-107137224D02*
X185891714Y-106750176D01*
X185891714Y-106750176D02*
X185891714Y-106072843D01*
X185891714Y-106072843D02*
X185794952Y-105685795D01*
X185794952Y-105685795D02*
X185601428Y-105492271D01*
X185601428Y-105492271D02*
X185407904Y-105395509D01*
X183666190Y-107427509D02*
X183666190Y-105395509D01*
X183666190Y-105395509D02*
X182505047Y-107427509D01*
X182505047Y-107427509D02*
X182505047Y-105395509D01*
D14*
G36*
X115943628Y-76357341D02*
G01*
X116349944Y-76387728D01*
X116703890Y-76403929D01*
X116802873Y-76398287D01*
X116916556Y-76374506D01*
X116964762Y-76352753D01*
X116999933Y-76319814D01*
X117024071Y-76274063D01*
X117031239Y-76230343D01*
X117022736Y-76183535D01*
X116995667Y-76130881D01*
X116944061Y-76069859D01*
X116859527Y-75998280D01*
X116760556Y-75934147D01*
X116551716Y-75816458D01*
X116617550Y-75812056D01*
X117041012Y-75800388D01*
X117084573Y-75795440D01*
X117121233Y-75780559D01*
X117168741Y-75762343D01*
X117205191Y-75731104D01*
X117232332Y-75684734D01*
X117236059Y-75655939D01*
X117223602Y-75616379D01*
X117186224Y-75559956D01*
X117111785Y-75480643D01*
X117002083Y-75395855D01*
X116859579Y-75308222D01*
X116516365Y-75114484D01*
X116385727Y-75051633D01*
X116333723Y-75043993D01*
X116283231Y-75059553D01*
X116241130Y-75093624D01*
X116213250Y-75142565D01*
X116202512Y-75193198D01*
X116208321Y-75235727D01*
X116229636Y-75273386D01*
X116269487Y-75308068D01*
X116394497Y-75377545D01*
X116522897Y-75440654D01*
X116754069Y-75568460D01*
X116210217Y-75555803D01*
X116143121Y-75560839D01*
X116093668Y-75580021D01*
X116057231Y-75612003D01*
X116031617Y-75658737D01*
X116022489Y-75709076D01*
X116032286Y-75755784D01*
X116062490Y-75802098D01*
X116119515Y-75849994D01*
X116355096Y-75993538D01*
X116608094Y-76140107D01*
X115966795Y-76077849D01*
X115924947Y-76080083D01*
X115891166Y-76094905D01*
X115863045Y-76122969D01*
X115840001Y-76168059D01*
X115830134Y-76222938D01*
X115840508Y-76277799D01*
X115858002Y-76310821D01*
X115882166Y-76335148D01*
X115913902Y-76351980D01*
X115943628Y-76357341D01*
G37*
G36*
X115587677Y-77445370D02*
G01*
X116395156Y-77363037D01*
X116678005Y-77337151D01*
X116880420Y-77326981D01*
X117080665Y-77327932D01*
X117129680Y-77321116D01*
X117166981Y-77303900D01*
X117195383Y-77276671D01*
X117216067Y-77237639D01*
X117225937Y-77182828D01*
X117215575Y-77128392D01*
X117198022Y-77095760D01*
X117173593Y-77071485D01*
X117141305Y-77054477D01*
X117072571Y-77043177D01*
X116897229Y-77042415D01*
X116537685Y-77065974D01*
X116350181Y-76858276D01*
X116046180Y-76506464D01*
X115989328Y-76432358D01*
X115952615Y-76396284D01*
X115918143Y-76377013D01*
X115866280Y-76369568D01*
X115811844Y-76385206D01*
X115765795Y-76419286D01*
X115737716Y-76466222D01*
X115728609Y-76508213D01*
X115732374Y-76546315D01*
X115748707Y-76582507D01*
X115843063Y-76714601D01*
X115982879Y-76884618D01*
X116179322Y-77100166D01*
X115857294Y-77124775D01*
X115692991Y-77143767D01*
X115555371Y-77166449D01*
X115504098Y-77184138D01*
X115468167Y-77213211D01*
X115444479Y-77254746D01*
X115435036Y-77308882D01*
X115446003Y-77364369D01*
X115464001Y-77397908D01*
X115488451Y-77422472D01*
X115520187Y-77439325D01*
X115549726Y-77445791D01*
X115587677Y-77445370D01*
G37*
G36*
X115788398Y-77623078D02*
G01*
X115920441Y-77659862D01*
X116023397Y-77708130D01*
X116107071Y-77769733D01*
X116174090Y-77845034D01*
X116225831Y-77935640D01*
X116258358Y-78032732D01*
X116270598Y-78131855D01*
X116262690Y-78234930D01*
X116233246Y-78344006D01*
X116203120Y-78417284D01*
X116168255Y-78485074D01*
X116124617Y-78546792D01*
X116067300Y-78602038D01*
X116092979Y-78642680D01*
X116101088Y-78684754D01*
X116092342Y-78731137D01*
X116066318Y-78775818D01*
X116025163Y-78808054D01*
X115975596Y-78822666D01*
X115923082Y-78814566D01*
X115895917Y-78801365D01*
X115756371Y-78733500D01*
X115442560Y-78611307D01*
X115282429Y-78558166D01*
X115014172Y-78479851D01*
X114745890Y-78401604D01*
X114585752Y-78348481D01*
X114539237Y-78321594D01*
X114507834Y-78280841D01*
X114494744Y-78231297D01*
X114504124Y-78175881D01*
X114529648Y-78128964D01*
X114563086Y-78100928D01*
X114606205Y-78088231D01*
X114663540Y-78092183D01*
X114819727Y-78132739D01*
X115128932Y-78227750D01*
X115118527Y-78173622D01*
X115118488Y-78139844D01*
X115374464Y-78139844D01*
X115376746Y-78202446D01*
X115397056Y-78261299D01*
X115437498Y-78318324D01*
X115791321Y-78447105D01*
X115832832Y-78426247D01*
X115898690Y-78383414D01*
X115926980Y-78360121D01*
X115955077Y-78321392D01*
X115985372Y-78253787D01*
X116000838Y-78185698D01*
X115997937Y-78117722D01*
X115976113Y-78047583D01*
X115938270Y-77984942D01*
X115888547Y-77938201D01*
X115825301Y-77905458D01*
X115713853Y-77875316D01*
X115624403Y-77870691D01*
X115551489Y-77886503D01*
X115502643Y-77912074D01*
X115459896Y-77949781D01*
X115422602Y-78001498D01*
X115390964Y-78070190D01*
X115374464Y-78139844D01*
X115118488Y-78139844D01*
X115118457Y-78112725D01*
X115128567Y-78049637D01*
X115150008Y-77978103D01*
X115190841Y-77887039D01*
X115240859Y-77810597D01*
X115300022Y-77746960D01*
X115368900Y-77694900D01*
X115448641Y-77653838D01*
X115554961Y-77621664D01*
X115667427Y-77611149D01*
X115788398Y-77623078D01*
G37*
G36*
X115040777Y-79544346D02*
G01*
X115210320Y-79426126D01*
X115311445Y-79361096D01*
X115388662Y-79323098D01*
X115430111Y-79300461D01*
X115458736Y-79272771D01*
X115476853Y-79239598D01*
X115485598Y-79184762D01*
X115471799Y-79128691D01*
X115439478Y-79081463D01*
X115394603Y-79053711D01*
X115343881Y-79047314D01*
X115274166Y-79064072D01*
X115176490Y-79114972D01*
X114929799Y-79284745D01*
X114832704Y-79335959D01*
X114763645Y-79352897D01*
X114713579Y-79346695D01*
X114660885Y-79317070D01*
X114615889Y-79268009D01*
X114578171Y-79194386D01*
X114556312Y-79114042D01*
X114553668Y-79042291D01*
X114568274Y-78976546D01*
X114585568Y-78944945D01*
X114620633Y-78905539D01*
X114680741Y-78856072D01*
X114761405Y-78788079D01*
X114787946Y-78750057D01*
X114796366Y-78712286D01*
X114794060Y-78675737D01*
X114780896Y-78639008D01*
X114746677Y-78593117D01*
X114701962Y-78566125D01*
X114657242Y-78559123D01*
X114605391Y-78570099D01*
X114542369Y-78604196D01*
X114464102Y-78670395D01*
X114387800Y-78752975D01*
X114338174Y-78822861D01*
X114309383Y-78882318D01*
X114282066Y-78986837D01*
X114275455Y-79092727D01*
X114289624Y-79201894D01*
X114326095Y-79316290D01*
X114381341Y-79422840D01*
X114448048Y-79505954D01*
X114526463Y-79569057D01*
X114618135Y-79614013D01*
X114695607Y-79633843D01*
X114774997Y-79637698D01*
X114857901Y-79625272D01*
X114945963Y-79595039D01*
X115040777Y-79544346D01*
G37*
G36*
X115903734Y-79335027D02*
G01*
X115914159Y-79279651D01*
X115905481Y-79222306D01*
X115887203Y-79184127D01*
X115861705Y-79156790D01*
X115828177Y-79138515D01*
X115761896Y-79125191D01*
X115692906Y-79132849D01*
X115641598Y-79153895D01*
X115604557Y-79186546D01*
X115579333Y-79232257D01*
X115570028Y-79275471D01*
X115574095Y-79314731D01*
X115591270Y-79352103D01*
X115626903Y-79389432D01*
X115676022Y-79415700D01*
X115735516Y-79428415D01*
X115797317Y-79423881D01*
X115845642Y-79406106D01*
X115880269Y-79376944D01*
X115903734Y-79335027D01*
G37*
D11*
X162365981Y-77731769D02*
X162365981Y-76731769D01*
X162365981Y-76731769D02*
X162127886Y-76731769D01*
X162127886Y-76731769D02*
X161985029Y-76779388D01*
X161985029Y-76779388D02*
X161889791Y-76874626D01*
X161889791Y-76874626D02*
X161842172Y-76969864D01*
X161842172Y-76969864D02*
X161794553Y-77160340D01*
X161794553Y-77160340D02*
X161794553Y-77303197D01*
X161794553Y-77303197D02*
X161842172Y-77493673D01*
X161842172Y-77493673D02*
X161889791Y-77588911D01*
X161889791Y-77588911D02*
X161985029Y-77684150D01*
X161985029Y-77684150D02*
X162127886Y-77731769D01*
X162127886Y-77731769D02*
X162365981Y-77731769D01*
X160889791Y-76731769D02*
X161365981Y-76731769D01*
X161365981Y-76731769D02*
X161413600Y-77207959D01*
X161413600Y-77207959D02*
X161365981Y-77160340D01*
X161365981Y-77160340D02*
X161270743Y-77112721D01*
X161270743Y-77112721D02*
X161032648Y-77112721D01*
X161032648Y-77112721D02*
X160937410Y-77160340D01*
X160937410Y-77160340D02*
X160889791Y-77207959D01*
X160889791Y-77207959D02*
X160842172Y-77303197D01*
X160842172Y-77303197D02*
X160842172Y-77541292D01*
X160842172Y-77541292D02*
X160889791Y-77636530D01*
X160889791Y-77636530D02*
X160937410Y-77684150D01*
X160937410Y-77684150D02*
X161032648Y-77731769D01*
X161032648Y-77731769D02*
X161270743Y-77731769D01*
X161270743Y-77731769D02*
X161365981Y-77684150D01*
X161365981Y-77684150D02*
X161413600Y-77636530D01*
X105508094Y-101292819D02*
X105508094Y-100292819D01*
X105508094Y-100292819D02*
X105269999Y-100292819D01*
X105269999Y-100292819D02*
X105127142Y-100340438D01*
X105127142Y-100340438D02*
X105031904Y-100435676D01*
X105031904Y-100435676D02*
X104984285Y-100530914D01*
X104984285Y-100530914D02*
X104936666Y-100721390D01*
X104936666Y-100721390D02*
X104936666Y-100864247D01*
X104936666Y-100864247D02*
X104984285Y-101054723D01*
X104984285Y-101054723D02*
X105031904Y-101149961D01*
X105031904Y-101149961D02*
X105127142Y-101245200D01*
X105127142Y-101245200D02*
X105269999Y-101292819D01*
X105269999Y-101292819D02*
X105508094Y-101292819D01*
X104603332Y-100292819D02*
X103936666Y-100292819D01*
X103936666Y-100292819D02*
X104365237Y-101292819D01*
X110508094Y-92656819D02*
X110508094Y-91656819D01*
X110508094Y-91656819D02*
X110269999Y-91656819D01*
X110269999Y-91656819D02*
X110127142Y-91704438D01*
X110127142Y-91704438D02*
X110031904Y-91799676D01*
X110031904Y-91799676D02*
X109984285Y-91894914D01*
X109984285Y-91894914D02*
X109936666Y-92085390D01*
X109936666Y-92085390D02*
X109936666Y-92228247D01*
X109936666Y-92228247D02*
X109984285Y-92418723D01*
X109984285Y-92418723D02*
X110031904Y-92513961D01*
X110031904Y-92513961D02*
X110127142Y-92609200D01*
X110127142Y-92609200D02*
X110269999Y-92656819D01*
X110269999Y-92656819D02*
X110508094Y-92656819D01*
X109079523Y-91656819D02*
X109269999Y-91656819D01*
X109269999Y-91656819D02*
X109365237Y-91704438D01*
X109365237Y-91704438D02*
X109412856Y-91752057D01*
X109412856Y-91752057D02*
X109508094Y-91894914D01*
X109508094Y-91894914D02*
X109555713Y-92085390D01*
X109555713Y-92085390D02*
X109555713Y-92466342D01*
X109555713Y-92466342D02*
X109508094Y-92561580D01*
X109508094Y-92561580D02*
X109460475Y-92609200D01*
X109460475Y-92609200D02*
X109365237Y-92656819D01*
X109365237Y-92656819D02*
X109174761Y-92656819D01*
X109174761Y-92656819D02*
X109079523Y-92609200D01*
X109079523Y-92609200D02*
X109031904Y-92561580D01*
X109031904Y-92561580D02*
X108984285Y-92466342D01*
X108984285Y-92466342D02*
X108984285Y-92228247D01*
X108984285Y-92228247D02*
X109031904Y-92133009D01*
X109031904Y-92133009D02*
X109079523Y-92085390D01*
X109079523Y-92085390D02*
X109174761Y-92037771D01*
X109174761Y-92037771D02*
X109365237Y-92037771D01*
X109365237Y-92037771D02*
X109460475Y-92085390D01*
X109460475Y-92085390D02*
X109508094Y-92133009D01*
X109508094Y-92133009D02*
X109555713Y-92228247D01*
X118238094Y-97228819D02*
X118238094Y-96228819D01*
X118238094Y-96228819D02*
X117999999Y-96228819D01*
X117999999Y-96228819D02*
X117857142Y-96276438D01*
X117857142Y-96276438D02*
X117761904Y-96371676D01*
X117761904Y-96371676D02*
X117714285Y-96466914D01*
X117714285Y-96466914D02*
X117666666Y-96657390D01*
X117666666Y-96657390D02*
X117666666Y-96800247D01*
X117666666Y-96800247D02*
X117714285Y-96990723D01*
X117714285Y-96990723D02*
X117761904Y-97085961D01*
X117761904Y-97085961D02*
X117857142Y-97181200D01*
X117857142Y-97181200D02*
X117999999Y-97228819D01*
X117999999Y-97228819D02*
X118238094Y-97228819D01*
X117095237Y-96657390D02*
X117190475Y-96609771D01*
X117190475Y-96609771D02*
X117238094Y-96562152D01*
X117238094Y-96562152D02*
X117285713Y-96466914D01*
X117285713Y-96466914D02*
X117285713Y-96419295D01*
X117285713Y-96419295D02*
X117238094Y-96324057D01*
X117238094Y-96324057D02*
X117190475Y-96276438D01*
X117190475Y-96276438D02*
X117095237Y-96228819D01*
X117095237Y-96228819D02*
X116904761Y-96228819D01*
X116904761Y-96228819D02*
X116809523Y-96276438D01*
X116809523Y-96276438D02*
X116761904Y-96324057D01*
X116761904Y-96324057D02*
X116714285Y-96419295D01*
X116714285Y-96419295D02*
X116714285Y-96466914D01*
X116714285Y-96466914D02*
X116761904Y-96562152D01*
X116761904Y-96562152D02*
X116809523Y-96609771D01*
X116809523Y-96609771D02*
X116904761Y-96657390D01*
X116904761Y-96657390D02*
X117095237Y-96657390D01*
X117095237Y-96657390D02*
X117190475Y-96705009D01*
X117190475Y-96705009D02*
X117238094Y-96752628D01*
X117238094Y-96752628D02*
X117285713Y-96847866D01*
X117285713Y-96847866D02*
X117285713Y-97038342D01*
X117285713Y-97038342D02*
X117238094Y-97133580D01*
X117238094Y-97133580D02*
X117190475Y-97181200D01*
X117190475Y-97181200D02*
X117095237Y-97228819D01*
X117095237Y-97228819D02*
X116904761Y-97228819D01*
X116904761Y-97228819D02*
X116809523Y-97181200D01*
X116809523Y-97181200D02*
X116761904Y-97133580D01*
X116761904Y-97133580D02*
X116714285Y-97038342D01*
X116714285Y-97038342D02*
X116714285Y-96847866D01*
X116714285Y-96847866D02*
X116761904Y-96752628D01*
X116761904Y-96752628D02*
X116809523Y-96705009D01*
X116809523Y-96705009D02*
X116904761Y-96657390D01*
X169243333Y-76416819D02*
X169243333Y-77131104D01*
X169243333Y-77131104D02*
X169290952Y-77273961D01*
X169290952Y-77273961D02*
X169386190Y-77369200D01*
X169386190Y-77369200D02*
X169529047Y-77416819D01*
X169529047Y-77416819D02*
X169624285Y-77416819D01*
X168243333Y-77416819D02*
X168814761Y-77416819D01*
X168529047Y-77416819D02*
X168529047Y-76416819D01*
X168529047Y-76416819D02*
X168624285Y-76559676D01*
X168624285Y-76559676D02*
X168719523Y-76654914D01*
X168719523Y-76654914D02*
X168814761Y-76702533D01*
X105544857Y-93926819D02*
X105878190Y-93450628D01*
X106116285Y-93926819D02*
X106116285Y-92926819D01*
X106116285Y-92926819D02*
X105735333Y-92926819D01*
X105735333Y-92926819D02*
X105640095Y-92974438D01*
X105640095Y-92974438D02*
X105592476Y-93022057D01*
X105592476Y-93022057D02*
X105544857Y-93117295D01*
X105544857Y-93117295D02*
X105544857Y-93260152D01*
X105544857Y-93260152D02*
X105592476Y-93355390D01*
X105592476Y-93355390D02*
X105640095Y-93403009D01*
X105640095Y-93403009D02*
X105735333Y-93450628D01*
X105735333Y-93450628D02*
X106116285Y-93450628D01*
X104592476Y-93926819D02*
X105163904Y-93926819D01*
X104878190Y-93926819D02*
X104878190Y-92926819D01*
X104878190Y-92926819D02*
X104973428Y-93069676D01*
X104973428Y-93069676D02*
X105068666Y-93164914D01*
X105068666Y-93164914D02*
X105163904Y-93212533D01*
X104211523Y-93022057D02*
X104163904Y-92974438D01*
X104163904Y-92974438D02*
X104068666Y-92926819D01*
X104068666Y-92926819D02*
X103830571Y-92926819D01*
X103830571Y-92926819D02*
X103735333Y-92974438D01*
X103735333Y-92974438D02*
X103687714Y-93022057D01*
X103687714Y-93022057D02*
X103640095Y-93117295D01*
X103640095Y-93117295D02*
X103640095Y-93212533D01*
X103640095Y-93212533D02*
X103687714Y-93355390D01*
X103687714Y-93355390D02*
X104259142Y-93926819D01*
X104259142Y-93926819D02*
X103640095Y-93926819D01*
X170092666Y-110454819D02*
X170568856Y-110454819D01*
X170568856Y-110454819D02*
X170568856Y-109454819D01*
X169235523Y-110454819D02*
X169806951Y-110454819D01*
X169521237Y-110454819D02*
X169521237Y-109454819D01*
X169521237Y-109454819D02*
X169616475Y-109597676D01*
X169616475Y-109597676D02*
X169711713Y-109692914D01*
X169711713Y-109692914D02*
X169806951Y-109740533D01*
X111323844Y-123856761D02*
X111276225Y-123761523D01*
X111276225Y-123761523D02*
X111180987Y-123666285D01*
X111180987Y-123666285D02*
X111038129Y-123523428D01*
X111038129Y-123523428D02*
X110990510Y-123428190D01*
X110990510Y-123428190D02*
X110990510Y-123332952D01*
X111228606Y-123380571D02*
X111180987Y-123285333D01*
X111180987Y-123285333D02*
X111085748Y-123190095D01*
X111085748Y-123190095D02*
X110895272Y-123142476D01*
X110895272Y-123142476D02*
X110561939Y-123142476D01*
X110561939Y-123142476D02*
X110371463Y-123190095D01*
X110371463Y-123190095D02*
X110276225Y-123285333D01*
X110276225Y-123285333D02*
X110228606Y-123380571D01*
X110228606Y-123380571D02*
X110228606Y-123571047D01*
X110228606Y-123571047D02*
X110276225Y-123666285D01*
X110276225Y-123666285D02*
X110371463Y-123761523D01*
X110371463Y-123761523D02*
X110561939Y-123809142D01*
X110561939Y-123809142D02*
X110895272Y-123809142D01*
X110895272Y-123809142D02*
X111085748Y-123761523D01*
X111085748Y-123761523D02*
X111180987Y-123666285D01*
X111180987Y-123666285D02*
X111228606Y-123571047D01*
X111228606Y-123571047D02*
X111228606Y-123380571D01*
X111228606Y-124761523D02*
X111228606Y-124190095D01*
X111228606Y-124475809D02*
X110228606Y-124475809D01*
X110228606Y-124475809D02*
X110371463Y-124380571D01*
X110371463Y-124380571D02*
X110466701Y-124285333D01*
X110466701Y-124285333D02*
X110514320Y-124190095D01*
X144230879Y-104014787D02*
X143754688Y-103681454D01*
X144230879Y-103443359D02*
X143230879Y-103443359D01*
X143230879Y-103443359D02*
X143230879Y-103824311D01*
X143230879Y-103824311D02*
X143278498Y-103919549D01*
X143278498Y-103919549D02*
X143326117Y-103967168D01*
X143326117Y-103967168D02*
X143421355Y-104014787D01*
X143421355Y-104014787D02*
X143564212Y-104014787D01*
X143564212Y-104014787D02*
X143659450Y-103967168D01*
X143659450Y-103967168D02*
X143707069Y-103919549D01*
X143707069Y-103919549D02*
X143754688Y-103824311D01*
X143754688Y-103824311D02*
X143754688Y-103443359D01*
X143564212Y-104871930D02*
X144230879Y-104871930D01*
X143183260Y-104633835D02*
X143897545Y-104395740D01*
X143897545Y-104395740D02*
X143897545Y-105014787D01*
X156942667Y-80464819D02*
X157276000Y-79988628D01*
X157514095Y-80464819D02*
X157514095Y-79464819D01*
X157514095Y-79464819D02*
X157133143Y-79464819D01*
X157133143Y-79464819D02*
X157037905Y-79512438D01*
X157037905Y-79512438D02*
X156990286Y-79560057D01*
X156990286Y-79560057D02*
X156942667Y-79655295D01*
X156942667Y-79655295D02*
X156942667Y-79798152D01*
X156942667Y-79798152D02*
X156990286Y-79893390D01*
X156990286Y-79893390D02*
X157037905Y-79941009D01*
X157037905Y-79941009D02*
X157133143Y-79988628D01*
X157133143Y-79988628D02*
X157514095Y-79988628D01*
X156609333Y-79464819D02*
X155942667Y-79464819D01*
X155942667Y-79464819D02*
X156371238Y-80464819D01*
X156942667Y-83766819D02*
X157276000Y-83290628D01*
X157514095Y-83766819D02*
X157514095Y-82766819D01*
X157514095Y-82766819D02*
X157133143Y-82766819D01*
X157133143Y-82766819D02*
X157037905Y-82814438D01*
X157037905Y-82814438D02*
X156990286Y-82862057D01*
X156990286Y-82862057D02*
X156942667Y-82957295D01*
X156942667Y-82957295D02*
X156942667Y-83100152D01*
X156942667Y-83100152D02*
X156990286Y-83195390D01*
X156990286Y-83195390D02*
X157037905Y-83243009D01*
X157037905Y-83243009D02*
X157133143Y-83290628D01*
X157133143Y-83290628D02*
X157514095Y-83290628D01*
X156466476Y-83766819D02*
X156276000Y-83766819D01*
X156276000Y-83766819D02*
X156180762Y-83719200D01*
X156180762Y-83719200D02*
X156133143Y-83671580D01*
X156133143Y-83671580D02*
X156037905Y-83528723D01*
X156037905Y-83528723D02*
X155990286Y-83338247D01*
X155990286Y-83338247D02*
X155990286Y-82957295D01*
X155990286Y-82957295D02*
X156037905Y-82862057D01*
X156037905Y-82862057D02*
X156085524Y-82814438D01*
X156085524Y-82814438D02*
X156180762Y-82766819D01*
X156180762Y-82766819D02*
X156371238Y-82766819D01*
X156371238Y-82766819D02*
X156466476Y-82814438D01*
X156466476Y-82814438D02*
X156514095Y-82862057D01*
X156514095Y-82862057D02*
X156561714Y-82957295D01*
X156561714Y-82957295D02*
X156561714Y-83195390D01*
X156561714Y-83195390D02*
X156514095Y-83290628D01*
X156514095Y-83290628D02*
X156466476Y-83338247D01*
X156466476Y-83338247D02*
X156371238Y-83385866D01*
X156371238Y-83385866D02*
X156180762Y-83385866D01*
X156180762Y-83385866D02*
X156085524Y-83338247D01*
X156085524Y-83338247D02*
X156037905Y-83290628D01*
X156037905Y-83290628D02*
X155990286Y-83195390D01*
X110485952Y-85289538D02*
X110819285Y-84813347D01*
X111057380Y-85289538D02*
X111057380Y-84289538D01*
X111057380Y-84289538D02*
X110676428Y-84289538D01*
X110676428Y-84289538D02*
X110581190Y-84337157D01*
X110581190Y-84337157D02*
X110533571Y-84384776D01*
X110533571Y-84384776D02*
X110485952Y-84480014D01*
X110485952Y-84480014D02*
X110485952Y-84622871D01*
X110485952Y-84622871D02*
X110533571Y-84718109D01*
X110533571Y-84718109D02*
X110581190Y-84765728D01*
X110581190Y-84765728D02*
X110676428Y-84813347D01*
X110676428Y-84813347D02*
X111057380Y-84813347D01*
X109533571Y-85289538D02*
X110104999Y-85289538D01*
X109819285Y-85289538D02*
X109819285Y-84289538D01*
X109819285Y-84289538D02*
X109914523Y-84432395D01*
X109914523Y-84432395D02*
X110009761Y-84527633D01*
X110009761Y-84527633D02*
X110104999Y-84575252D01*
X108581190Y-85289538D02*
X109152618Y-85289538D01*
X108866904Y-85289538D02*
X108866904Y-84289538D01*
X108866904Y-84289538D02*
X108962142Y-84432395D01*
X108962142Y-84432395D02*
X109057380Y-84527633D01*
X109057380Y-84527633D02*
X109152618Y-84575252D01*
X120827666Y-77586580D02*
X120875285Y-77634200D01*
X120875285Y-77634200D02*
X121018142Y-77681819D01*
X121018142Y-77681819D02*
X121113380Y-77681819D01*
X121113380Y-77681819D02*
X121256237Y-77634200D01*
X121256237Y-77634200D02*
X121351475Y-77538961D01*
X121351475Y-77538961D02*
X121399094Y-77443723D01*
X121399094Y-77443723D02*
X121446713Y-77253247D01*
X121446713Y-77253247D02*
X121446713Y-77110390D01*
X121446713Y-77110390D02*
X121399094Y-76919914D01*
X121399094Y-76919914D02*
X121351475Y-76824676D01*
X121351475Y-76824676D02*
X121256237Y-76729438D01*
X121256237Y-76729438D02*
X121113380Y-76681819D01*
X121113380Y-76681819D02*
X121018142Y-76681819D01*
X121018142Y-76681819D02*
X120875285Y-76729438D01*
X120875285Y-76729438D02*
X120827666Y-76777057D01*
X119875285Y-77681819D02*
X120446713Y-77681819D01*
X120160999Y-77681819D02*
X120160999Y-76681819D01*
X120160999Y-76681819D02*
X120256237Y-76824676D01*
X120256237Y-76824676D02*
X120351475Y-76919914D01*
X120351475Y-76919914D02*
X120446713Y-76967533D01*
X170793580Y-104735333D02*
X170841200Y-104687714D01*
X170841200Y-104687714D02*
X170888819Y-104544857D01*
X170888819Y-104544857D02*
X170888819Y-104449619D01*
X170888819Y-104449619D02*
X170841200Y-104306762D01*
X170841200Y-104306762D02*
X170745961Y-104211524D01*
X170745961Y-104211524D02*
X170650723Y-104163905D01*
X170650723Y-104163905D02*
X170460247Y-104116286D01*
X170460247Y-104116286D02*
X170317390Y-104116286D01*
X170317390Y-104116286D02*
X170126914Y-104163905D01*
X170126914Y-104163905D02*
X170031676Y-104211524D01*
X170031676Y-104211524D02*
X169936438Y-104306762D01*
X169936438Y-104306762D02*
X169888819Y-104449619D01*
X169888819Y-104449619D02*
X169888819Y-104544857D01*
X169888819Y-104544857D02*
X169936438Y-104687714D01*
X169936438Y-104687714D02*
X169984057Y-104735333D01*
X169984057Y-105116286D02*
X169936438Y-105163905D01*
X169936438Y-105163905D02*
X169888819Y-105259143D01*
X169888819Y-105259143D02*
X169888819Y-105497238D01*
X169888819Y-105497238D02*
X169936438Y-105592476D01*
X169936438Y-105592476D02*
X169984057Y-105640095D01*
X169984057Y-105640095D02*
X170079295Y-105687714D01*
X170079295Y-105687714D02*
X170174533Y-105687714D01*
X170174533Y-105687714D02*
X170317390Y-105640095D01*
X170317390Y-105640095D02*
X170888819Y-105068667D01*
X170888819Y-105068667D02*
X170888819Y-105687714D01*
X167078819Y-74287142D02*
X166602628Y-73953809D01*
X167078819Y-73715714D02*
X166078819Y-73715714D01*
X166078819Y-73715714D02*
X166078819Y-74096666D01*
X166078819Y-74096666D02*
X166126438Y-74191904D01*
X166126438Y-74191904D02*
X166174057Y-74239523D01*
X166174057Y-74239523D02*
X166269295Y-74287142D01*
X166269295Y-74287142D02*
X166412152Y-74287142D01*
X166412152Y-74287142D02*
X166507390Y-74239523D01*
X166507390Y-74239523D02*
X166555009Y-74191904D01*
X166555009Y-74191904D02*
X166602628Y-74096666D01*
X166602628Y-74096666D02*
X166602628Y-73715714D01*
X167078819Y-75239523D02*
X167078819Y-74668095D01*
X167078819Y-74953809D02*
X166078819Y-74953809D01*
X166078819Y-74953809D02*
X166221676Y-74858571D01*
X166221676Y-74858571D02*
X166316914Y-74763333D01*
X166316914Y-74763333D02*
X166364533Y-74668095D01*
X166078819Y-75858571D02*
X166078819Y-75953809D01*
X166078819Y-75953809D02*
X166126438Y-76049047D01*
X166126438Y-76049047D02*
X166174057Y-76096666D01*
X166174057Y-76096666D02*
X166269295Y-76144285D01*
X166269295Y-76144285D02*
X166459771Y-76191904D01*
X166459771Y-76191904D02*
X166697866Y-76191904D01*
X166697866Y-76191904D02*
X166888342Y-76144285D01*
X166888342Y-76144285D02*
X166983580Y-76096666D01*
X166983580Y-76096666D02*
X167031200Y-76049047D01*
X167031200Y-76049047D02*
X167078819Y-75953809D01*
X167078819Y-75953809D02*
X167078819Y-75858571D01*
X167078819Y-75858571D02*
X167031200Y-75763333D01*
X167031200Y-75763333D02*
X166983580Y-75715714D01*
X166983580Y-75715714D02*
X166888342Y-75668095D01*
X166888342Y-75668095D02*
X166697866Y-75620476D01*
X166697866Y-75620476D02*
X166459771Y-75620476D01*
X166459771Y-75620476D02*
X166269295Y-75668095D01*
X166269295Y-75668095D02*
X166174057Y-75715714D01*
X166174057Y-75715714D02*
X166126438Y-75763333D01*
X166126438Y-75763333D02*
X166078819Y-75858571D01*
X159010819Y-107719905D02*
X158010819Y-107719905D01*
X158010819Y-107719905D02*
X158010819Y-107958000D01*
X158010819Y-107958000D02*
X158058438Y-108100857D01*
X158058438Y-108100857D02*
X158153676Y-108196095D01*
X158153676Y-108196095D02*
X158248914Y-108243714D01*
X158248914Y-108243714D02*
X158439390Y-108291333D01*
X158439390Y-108291333D02*
X158582247Y-108291333D01*
X158582247Y-108291333D02*
X158772723Y-108243714D01*
X158772723Y-108243714D02*
X158867961Y-108196095D01*
X158867961Y-108196095D02*
X158963200Y-108100857D01*
X158963200Y-108100857D02*
X159010819Y-107958000D01*
X159010819Y-107958000D02*
X159010819Y-107719905D01*
X158106057Y-108672286D02*
X158058438Y-108719905D01*
X158058438Y-108719905D02*
X158010819Y-108815143D01*
X158010819Y-108815143D02*
X158010819Y-109053238D01*
X158010819Y-109053238D02*
X158058438Y-109148476D01*
X158058438Y-109148476D02*
X158106057Y-109196095D01*
X158106057Y-109196095D02*
X158201295Y-109243714D01*
X158201295Y-109243714D02*
X158296533Y-109243714D01*
X158296533Y-109243714D02*
X158439390Y-109196095D01*
X158439390Y-109196095D02*
X159010819Y-108624667D01*
X159010819Y-108624667D02*
X159010819Y-109243714D01*
X179175580Y-103211333D02*
X179223200Y-103163714D01*
X179223200Y-103163714D02*
X179270819Y-103020857D01*
X179270819Y-103020857D02*
X179270819Y-102925619D01*
X179270819Y-102925619D02*
X179223200Y-102782762D01*
X179223200Y-102782762D02*
X179127961Y-102687524D01*
X179127961Y-102687524D02*
X179032723Y-102639905D01*
X179032723Y-102639905D02*
X178842247Y-102592286D01*
X178842247Y-102592286D02*
X178699390Y-102592286D01*
X178699390Y-102592286D02*
X178508914Y-102639905D01*
X178508914Y-102639905D02*
X178413676Y-102687524D01*
X178413676Y-102687524D02*
X178318438Y-102782762D01*
X178318438Y-102782762D02*
X178270819Y-102925619D01*
X178270819Y-102925619D02*
X178270819Y-103020857D01*
X178270819Y-103020857D02*
X178318438Y-103163714D01*
X178318438Y-103163714D02*
X178366057Y-103211333D01*
X178270819Y-103544667D02*
X178270819Y-104163714D01*
X178270819Y-104163714D02*
X178651771Y-103830381D01*
X178651771Y-103830381D02*
X178651771Y-103973238D01*
X178651771Y-103973238D02*
X178699390Y-104068476D01*
X178699390Y-104068476D02*
X178747009Y-104116095D01*
X178747009Y-104116095D02*
X178842247Y-104163714D01*
X178842247Y-104163714D02*
X179080342Y-104163714D01*
X179080342Y-104163714D02*
X179175580Y-104116095D01*
X179175580Y-104116095D02*
X179223200Y-104068476D01*
X179223200Y-104068476D02*
X179270819Y-103973238D01*
X179270819Y-103973238D02*
X179270819Y-103687524D01*
X179270819Y-103687524D02*
X179223200Y-103592286D01*
X179223200Y-103592286D02*
X179175580Y-103544667D01*
X176222819Y-103211333D02*
X175746628Y-102878000D01*
X176222819Y-102639905D02*
X175222819Y-102639905D01*
X175222819Y-102639905D02*
X175222819Y-103020857D01*
X175222819Y-103020857D02*
X175270438Y-103116095D01*
X175270438Y-103116095D02*
X175318057Y-103163714D01*
X175318057Y-103163714D02*
X175413295Y-103211333D01*
X175413295Y-103211333D02*
X175556152Y-103211333D01*
X175556152Y-103211333D02*
X175651390Y-103163714D01*
X175651390Y-103163714D02*
X175699009Y-103116095D01*
X175699009Y-103116095D02*
X175746628Y-103020857D01*
X175746628Y-103020857D02*
X175746628Y-102639905D01*
X175222819Y-103544667D02*
X175222819Y-104163714D01*
X175222819Y-104163714D02*
X175603771Y-103830381D01*
X175603771Y-103830381D02*
X175603771Y-103973238D01*
X175603771Y-103973238D02*
X175651390Y-104068476D01*
X175651390Y-104068476D02*
X175699009Y-104116095D01*
X175699009Y-104116095D02*
X175794247Y-104163714D01*
X175794247Y-104163714D02*
X176032342Y-104163714D01*
X176032342Y-104163714D02*
X176127580Y-104116095D01*
X176127580Y-104116095D02*
X176175200Y-104068476D01*
X176175200Y-104068476D02*
X176222819Y-103973238D01*
X176222819Y-103973238D02*
X176222819Y-103687524D01*
X176222819Y-103687524D02*
X176175200Y-103592286D01*
X176175200Y-103592286D02*
X176127580Y-103544667D01*
X180532857Y-81704819D02*
X180866190Y-81228628D01*
X181104285Y-81704819D02*
X181104285Y-80704819D01*
X181104285Y-80704819D02*
X180723333Y-80704819D01*
X180723333Y-80704819D02*
X180628095Y-80752438D01*
X180628095Y-80752438D02*
X180580476Y-80800057D01*
X180580476Y-80800057D02*
X180532857Y-80895295D01*
X180532857Y-80895295D02*
X180532857Y-81038152D01*
X180532857Y-81038152D02*
X180580476Y-81133390D01*
X180580476Y-81133390D02*
X180628095Y-81181009D01*
X180628095Y-81181009D02*
X180723333Y-81228628D01*
X180723333Y-81228628D02*
X181104285Y-81228628D01*
X179580476Y-81704819D02*
X180151904Y-81704819D01*
X179866190Y-81704819D02*
X179866190Y-80704819D01*
X179866190Y-80704819D02*
X179961428Y-80847676D01*
X179961428Y-80847676D02*
X180056666Y-80942914D01*
X180056666Y-80942914D02*
X180151904Y-80990533D01*
X178723333Y-81038152D02*
X178723333Y-81704819D01*
X178961428Y-80657200D02*
X179199523Y-81371485D01*
X179199523Y-81371485D02*
X178580476Y-81371485D01*
X178094819Y-113879333D02*
X177618628Y-113546000D01*
X178094819Y-113307905D02*
X177094819Y-113307905D01*
X177094819Y-113307905D02*
X177094819Y-113688857D01*
X177094819Y-113688857D02*
X177142438Y-113784095D01*
X177142438Y-113784095D02*
X177190057Y-113831714D01*
X177190057Y-113831714D02*
X177285295Y-113879333D01*
X177285295Y-113879333D02*
X177428152Y-113879333D01*
X177428152Y-113879333D02*
X177523390Y-113831714D01*
X177523390Y-113831714D02*
X177571009Y-113784095D01*
X177571009Y-113784095D02*
X177618628Y-113688857D01*
X177618628Y-113688857D02*
X177618628Y-113307905D01*
X178094819Y-114831714D02*
X178094819Y-114260286D01*
X178094819Y-114546000D02*
X177094819Y-114546000D01*
X177094819Y-114546000D02*
X177237676Y-114450762D01*
X177237676Y-114450762D02*
X177332914Y-114355524D01*
X177332914Y-114355524D02*
X177380533Y-114260286D01*
X177746819Y-103211333D02*
X177270628Y-102878000D01*
X177746819Y-102639905D02*
X176746819Y-102639905D01*
X176746819Y-102639905D02*
X176746819Y-103020857D01*
X176746819Y-103020857D02*
X176794438Y-103116095D01*
X176794438Y-103116095D02*
X176842057Y-103163714D01*
X176842057Y-103163714D02*
X176937295Y-103211333D01*
X176937295Y-103211333D02*
X177080152Y-103211333D01*
X177080152Y-103211333D02*
X177175390Y-103163714D01*
X177175390Y-103163714D02*
X177223009Y-103116095D01*
X177223009Y-103116095D02*
X177270628Y-103020857D01*
X177270628Y-103020857D02*
X177270628Y-102639905D01*
X176842057Y-103592286D02*
X176794438Y-103639905D01*
X176794438Y-103639905D02*
X176746819Y-103735143D01*
X176746819Y-103735143D02*
X176746819Y-103973238D01*
X176746819Y-103973238D02*
X176794438Y-104068476D01*
X176794438Y-104068476D02*
X176842057Y-104116095D01*
X176842057Y-104116095D02*
X176937295Y-104163714D01*
X176937295Y-104163714D02*
X177032533Y-104163714D01*
X177032533Y-104163714D02*
X177175390Y-104116095D01*
X177175390Y-104116095D02*
X177746819Y-103544667D01*
X177746819Y-103544667D02*
X177746819Y-104163714D01*
X174603580Y-109307333D02*
X174651200Y-109259714D01*
X174651200Y-109259714D02*
X174698819Y-109116857D01*
X174698819Y-109116857D02*
X174698819Y-109021619D01*
X174698819Y-109021619D02*
X174651200Y-108878762D01*
X174651200Y-108878762D02*
X174555961Y-108783524D01*
X174555961Y-108783524D02*
X174460723Y-108735905D01*
X174460723Y-108735905D02*
X174270247Y-108688286D01*
X174270247Y-108688286D02*
X174127390Y-108688286D01*
X174127390Y-108688286D02*
X173936914Y-108735905D01*
X173936914Y-108735905D02*
X173841676Y-108783524D01*
X173841676Y-108783524D02*
X173746438Y-108878762D01*
X173746438Y-108878762D02*
X173698819Y-109021619D01*
X173698819Y-109021619D02*
X173698819Y-109116857D01*
X173698819Y-109116857D02*
X173746438Y-109259714D01*
X173746438Y-109259714D02*
X173794057Y-109307333D01*
X174032152Y-110164476D02*
X174698819Y-110164476D01*
X173651200Y-109926381D02*
X174365485Y-109688286D01*
X174365485Y-109688286D02*
X174365485Y-110307333D01*
X118244857Y-89862819D02*
X118578190Y-89386628D01*
X118816285Y-89862819D02*
X118816285Y-88862819D01*
X118816285Y-88862819D02*
X118435333Y-88862819D01*
X118435333Y-88862819D02*
X118340095Y-88910438D01*
X118340095Y-88910438D02*
X118292476Y-88958057D01*
X118292476Y-88958057D02*
X118244857Y-89053295D01*
X118244857Y-89053295D02*
X118244857Y-89196152D01*
X118244857Y-89196152D02*
X118292476Y-89291390D01*
X118292476Y-89291390D02*
X118340095Y-89339009D01*
X118340095Y-89339009D02*
X118435333Y-89386628D01*
X118435333Y-89386628D02*
X118816285Y-89386628D01*
X117292476Y-89862819D02*
X117863904Y-89862819D01*
X117578190Y-89862819D02*
X117578190Y-88862819D01*
X117578190Y-88862819D02*
X117673428Y-89005676D01*
X117673428Y-89005676D02*
X117768666Y-89100914D01*
X117768666Y-89100914D02*
X117863904Y-89148533D01*
X116959142Y-88862819D02*
X116340095Y-88862819D01*
X116340095Y-88862819D02*
X116673428Y-89243771D01*
X116673428Y-89243771D02*
X116530571Y-89243771D01*
X116530571Y-89243771D02*
X116435333Y-89291390D01*
X116435333Y-89291390D02*
X116387714Y-89339009D01*
X116387714Y-89339009D02*
X116340095Y-89434247D01*
X116340095Y-89434247D02*
X116340095Y-89672342D01*
X116340095Y-89672342D02*
X116387714Y-89767580D01*
X116387714Y-89767580D02*
X116435333Y-89815200D01*
X116435333Y-89815200D02*
X116530571Y-89862819D01*
X116530571Y-89862819D02*
X116816285Y-89862819D01*
X116816285Y-89862819D02*
X116911523Y-89815200D01*
X116911523Y-89815200D02*
X116959142Y-89767580D01*
X116596904Y-72735819D02*
X116596904Y-73545342D01*
X116596904Y-73545342D02*
X116549285Y-73640580D01*
X116549285Y-73640580D02*
X116501666Y-73688200D01*
X116501666Y-73688200D02*
X116406428Y-73735819D01*
X116406428Y-73735819D02*
X116215952Y-73735819D01*
X116215952Y-73735819D02*
X116120714Y-73688200D01*
X116120714Y-73688200D02*
X116073095Y-73640580D01*
X116073095Y-73640580D02*
X116025476Y-73545342D01*
X116025476Y-73545342D02*
X116025476Y-72735819D01*
X115025476Y-73735819D02*
X115596904Y-73735819D01*
X115311190Y-73735819D02*
X115311190Y-72735819D01*
X115311190Y-72735819D02*
X115406428Y-72878676D01*
X115406428Y-72878676D02*
X115501666Y-72973914D01*
X115501666Y-72973914D02*
X115596904Y-73021533D01*
X156942667Y-79194819D02*
X157276000Y-78718628D01*
X157514095Y-79194819D02*
X157514095Y-78194819D01*
X157514095Y-78194819D02*
X157133143Y-78194819D01*
X157133143Y-78194819D02*
X157037905Y-78242438D01*
X157037905Y-78242438D02*
X156990286Y-78290057D01*
X156990286Y-78290057D02*
X156942667Y-78385295D01*
X156942667Y-78385295D02*
X156942667Y-78528152D01*
X156942667Y-78528152D02*
X156990286Y-78623390D01*
X156990286Y-78623390D02*
X157037905Y-78671009D01*
X157037905Y-78671009D02*
X157133143Y-78718628D01*
X157133143Y-78718628D02*
X157514095Y-78718628D01*
X156085524Y-78194819D02*
X156276000Y-78194819D01*
X156276000Y-78194819D02*
X156371238Y-78242438D01*
X156371238Y-78242438D02*
X156418857Y-78290057D01*
X156418857Y-78290057D02*
X156514095Y-78432914D01*
X156514095Y-78432914D02*
X156561714Y-78623390D01*
X156561714Y-78623390D02*
X156561714Y-79004342D01*
X156561714Y-79004342D02*
X156514095Y-79099580D01*
X156514095Y-79099580D02*
X156466476Y-79147200D01*
X156466476Y-79147200D02*
X156371238Y-79194819D01*
X156371238Y-79194819D02*
X156180762Y-79194819D01*
X156180762Y-79194819D02*
X156085524Y-79147200D01*
X156085524Y-79147200D02*
X156037905Y-79099580D01*
X156037905Y-79099580D02*
X155990286Y-79004342D01*
X155990286Y-79004342D02*
X155990286Y-78766247D01*
X155990286Y-78766247D02*
X156037905Y-78671009D01*
X156037905Y-78671009D02*
X156085524Y-78623390D01*
X156085524Y-78623390D02*
X156180762Y-78575771D01*
X156180762Y-78575771D02*
X156371238Y-78575771D01*
X156371238Y-78575771D02*
X156466476Y-78623390D01*
X156466476Y-78623390D02*
X156514095Y-78671009D01*
X156514095Y-78671009D02*
X156561714Y-78766247D01*
X112968137Y-116204927D02*
X111968137Y-116204927D01*
X111968137Y-116204927D02*
X111968137Y-116443022D01*
X111968137Y-116443022D02*
X112015756Y-116585879D01*
X112015756Y-116585879D02*
X112110994Y-116681117D01*
X112110994Y-116681117D02*
X112206232Y-116728736D01*
X112206232Y-116728736D02*
X112396708Y-116776355D01*
X112396708Y-116776355D02*
X112539565Y-116776355D01*
X112539565Y-116776355D02*
X112730041Y-116728736D01*
X112730041Y-116728736D02*
X112825279Y-116681117D01*
X112825279Y-116681117D02*
X112920518Y-116585879D01*
X112920518Y-116585879D02*
X112968137Y-116443022D01*
X112968137Y-116443022D02*
X112968137Y-116204927D01*
X111968137Y-117109689D02*
X111968137Y-117728736D01*
X111968137Y-117728736D02*
X112349089Y-117395403D01*
X112349089Y-117395403D02*
X112349089Y-117538260D01*
X112349089Y-117538260D02*
X112396708Y-117633498D01*
X112396708Y-117633498D02*
X112444327Y-117681117D01*
X112444327Y-117681117D02*
X112539565Y-117728736D01*
X112539565Y-117728736D02*
X112777660Y-117728736D01*
X112777660Y-117728736D02*
X112872898Y-117681117D01*
X112872898Y-117681117D02*
X112920518Y-117633498D01*
X112920518Y-117633498D02*
X112968137Y-117538260D01*
X112968137Y-117538260D02*
X112968137Y-117252546D01*
X112968137Y-117252546D02*
X112920518Y-117157308D01*
X112920518Y-117157308D02*
X112872898Y-117109689D01*
X156942667Y-82496819D02*
X157276000Y-82020628D01*
X157514095Y-82496819D02*
X157514095Y-81496819D01*
X157514095Y-81496819D02*
X157133143Y-81496819D01*
X157133143Y-81496819D02*
X157037905Y-81544438D01*
X157037905Y-81544438D02*
X156990286Y-81592057D01*
X156990286Y-81592057D02*
X156942667Y-81687295D01*
X156942667Y-81687295D02*
X156942667Y-81830152D01*
X156942667Y-81830152D02*
X156990286Y-81925390D01*
X156990286Y-81925390D02*
X157037905Y-81973009D01*
X157037905Y-81973009D02*
X157133143Y-82020628D01*
X157133143Y-82020628D02*
X157514095Y-82020628D01*
X156371238Y-81925390D02*
X156466476Y-81877771D01*
X156466476Y-81877771D02*
X156514095Y-81830152D01*
X156514095Y-81830152D02*
X156561714Y-81734914D01*
X156561714Y-81734914D02*
X156561714Y-81687295D01*
X156561714Y-81687295D02*
X156514095Y-81592057D01*
X156514095Y-81592057D02*
X156466476Y-81544438D01*
X156466476Y-81544438D02*
X156371238Y-81496819D01*
X156371238Y-81496819D02*
X156180762Y-81496819D01*
X156180762Y-81496819D02*
X156085524Y-81544438D01*
X156085524Y-81544438D02*
X156037905Y-81592057D01*
X156037905Y-81592057D02*
X155990286Y-81687295D01*
X155990286Y-81687295D02*
X155990286Y-81734914D01*
X155990286Y-81734914D02*
X156037905Y-81830152D01*
X156037905Y-81830152D02*
X156085524Y-81877771D01*
X156085524Y-81877771D02*
X156180762Y-81925390D01*
X156180762Y-81925390D02*
X156371238Y-81925390D01*
X156371238Y-81925390D02*
X156466476Y-81973009D01*
X156466476Y-81973009D02*
X156514095Y-82020628D01*
X156514095Y-82020628D02*
X156561714Y-82115866D01*
X156561714Y-82115866D02*
X156561714Y-82306342D01*
X156561714Y-82306342D02*
X156514095Y-82401580D01*
X156514095Y-82401580D02*
X156466476Y-82449200D01*
X156466476Y-82449200D02*
X156371238Y-82496819D01*
X156371238Y-82496819D02*
X156180762Y-82496819D01*
X156180762Y-82496819D02*
X156085524Y-82449200D01*
X156085524Y-82449200D02*
X156037905Y-82401580D01*
X156037905Y-82401580D02*
X155990286Y-82306342D01*
X155990286Y-82306342D02*
X155990286Y-82115866D01*
X155990286Y-82115866D02*
X156037905Y-82020628D01*
X156037905Y-82020628D02*
X156085524Y-81973009D01*
X156085524Y-81973009D02*
X156180762Y-81925390D01*
X166983580Y-78560333D02*
X167031200Y-78512714D01*
X167031200Y-78512714D02*
X167078819Y-78369857D01*
X167078819Y-78369857D02*
X167078819Y-78274619D01*
X167078819Y-78274619D02*
X167031200Y-78131762D01*
X167031200Y-78131762D02*
X166935961Y-78036524D01*
X166935961Y-78036524D02*
X166840723Y-77988905D01*
X166840723Y-77988905D02*
X166650247Y-77941286D01*
X166650247Y-77941286D02*
X166507390Y-77941286D01*
X166507390Y-77941286D02*
X166316914Y-77988905D01*
X166316914Y-77988905D02*
X166221676Y-78036524D01*
X166221676Y-78036524D02*
X166126438Y-78131762D01*
X166126438Y-78131762D02*
X166078819Y-78274619D01*
X166078819Y-78274619D02*
X166078819Y-78369857D01*
X166078819Y-78369857D02*
X166126438Y-78512714D01*
X166126438Y-78512714D02*
X166174057Y-78560333D01*
X166078819Y-79417476D02*
X166078819Y-79227000D01*
X166078819Y-79227000D02*
X166126438Y-79131762D01*
X166126438Y-79131762D02*
X166174057Y-79084143D01*
X166174057Y-79084143D02*
X166316914Y-78988905D01*
X166316914Y-78988905D02*
X166507390Y-78941286D01*
X166507390Y-78941286D02*
X166888342Y-78941286D01*
X166888342Y-78941286D02*
X166983580Y-78988905D01*
X166983580Y-78988905D02*
X167031200Y-79036524D01*
X167031200Y-79036524D02*
X167078819Y-79131762D01*
X167078819Y-79131762D02*
X167078819Y-79322238D01*
X167078819Y-79322238D02*
X167031200Y-79417476D01*
X167031200Y-79417476D02*
X166983580Y-79465095D01*
X166983580Y-79465095D02*
X166888342Y-79512714D01*
X166888342Y-79512714D02*
X166650247Y-79512714D01*
X166650247Y-79512714D02*
X166555009Y-79465095D01*
X166555009Y-79465095D02*
X166507390Y-79417476D01*
X166507390Y-79417476D02*
X166459771Y-79322238D01*
X166459771Y-79322238D02*
X166459771Y-79131762D01*
X166459771Y-79131762D02*
X166507390Y-79036524D01*
X166507390Y-79036524D02*
X166555009Y-78988905D01*
X166555009Y-78988905D02*
X166650247Y-78941286D01*
X163580820Y-80287905D02*
X162580820Y-80287905D01*
X162580820Y-80287905D02*
X162580820Y-80526000D01*
X162580820Y-80526000D02*
X162628439Y-80668857D01*
X162628439Y-80668857D02*
X162723677Y-80764095D01*
X162723677Y-80764095D02*
X162818915Y-80811714D01*
X162818915Y-80811714D02*
X163009391Y-80859333D01*
X163009391Y-80859333D02*
X163152248Y-80859333D01*
X163152248Y-80859333D02*
X163342724Y-80811714D01*
X163342724Y-80811714D02*
X163437962Y-80764095D01*
X163437962Y-80764095D02*
X163533201Y-80668857D01*
X163533201Y-80668857D02*
X163580820Y-80526000D01*
X163580820Y-80526000D02*
X163580820Y-80287905D01*
X162914153Y-81716476D02*
X163580820Y-81716476D01*
X162533201Y-81478381D02*
X163247486Y-81240286D01*
X163247486Y-81240286D02*
X163247486Y-81859333D01*
X189462972Y-111456650D02*
X189510591Y-111599507D01*
X189510591Y-111599507D02*
X189510591Y-111837602D01*
X189510591Y-111837602D02*
X189462972Y-111932840D01*
X189462972Y-111932840D02*
X189415352Y-111980459D01*
X189415352Y-111980459D02*
X189320114Y-112028078D01*
X189320114Y-112028078D02*
X189224876Y-112028078D01*
X189224876Y-112028078D02*
X189129638Y-111980459D01*
X189129638Y-111980459D02*
X189082019Y-111932840D01*
X189082019Y-111932840D02*
X189034400Y-111837602D01*
X189034400Y-111837602D02*
X188986781Y-111647126D01*
X188986781Y-111647126D02*
X188939162Y-111551888D01*
X188939162Y-111551888D02*
X188891543Y-111504269D01*
X188891543Y-111504269D02*
X188796305Y-111456650D01*
X188796305Y-111456650D02*
X188701067Y-111456650D01*
X188701067Y-111456650D02*
X188605829Y-111504269D01*
X188605829Y-111504269D02*
X188558210Y-111551888D01*
X188558210Y-111551888D02*
X188510591Y-111647126D01*
X188510591Y-111647126D02*
X188510591Y-111885221D01*
X188510591Y-111885221D02*
X188558210Y-112028078D01*
X188510591Y-112361412D02*
X189510591Y-112599507D01*
X189510591Y-112599507D02*
X188796305Y-112789983D01*
X188796305Y-112789983D02*
X189510591Y-112980459D01*
X189510591Y-112980459D02*
X188510591Y-113218555D01*
X189510591Y-114123316D02*
X189510591Y-113551888D01*
X189510591Y-113837602D02*
X188510591Y-113837602D01*
X188510591Y-113837602D02*
X188653448Y-113742364D01*
X188653448Y-113742364D02*
X188748686Y-113647126D01*
X188748686Y-113647126D02*
X188796305Y-113551888D01*
X151644819Y-103401905D02*
X150644819Y-103401905D01*
X150644819Y-103401905D02*
X150644819Y-103640000D01*
X150644819Y-103640000D02*
X150692438Y-103782857D01*
X150692438Y-103782857D02*
X150787676Y-103878095D01*
X150787676Y-103878095D02*
X150882914Y-103925714D01*
X150882914Y-103925714D02*
X151073390Y-103973333D01*
X151073390Y-103973333D02*
X151216247Y-103973333D01*
X151216247Y-103973333D02*
X151406723Y-103925714D01*
X151406723Y-103925714D02*
X151501961Y-103878095D01*
X151501961Y-103878095D02*
X151597200Y-103782857D01*
X151597200Y-103782857D02*
X151644819Y-103640000D01*
X151644819Y-103640000D02*
X151644819Y-103401905D01*
X151644819Y-104925714D02*
X151644819Y-104354286D01*
X151644819Y-104640000D02*
X150644819Y-104640000D01*
X150644819Y-104640000D02*
X150787676Y-104544762D01*
X150787676Y-104544762D02*
X150882914Y-104449524D01*
X150882914Y-104449524D02*
X150930533Y-104354286D01*
X174173357Y-104864819D02*
X174173357Y-105674342D01*
X174173357Y-105674342D02*
X174125738Y-105769580D01*
X174125738Y-105769580D02*
X174078119Y-105817200D01*
X174078119Y-105817200D02*
X173982881Y-105864819D01*
X173982881Y-105864819D02*
X173792405Y-105864819D01*
X173792405Y-105864819D02*
X173697167Y-105817200D01*
X173697167Y-105817200D02*
X173649548Y-105769580D01*
X173649548Y-105769580D02*
X173601929Y-105674342D01*
X173601929Y-105674342D02*
X173601929Y-104864819D01*
X173173357Y-104960057D02*
X173125738Y-104912438D01*
X173125738Y-104912438D02*
X173030500Y-104864819D01*
X173030500Y-104864819D02*
X172792405Y-104864819D01*
X172792405Y-104864819D02*
X172697167Y-104912438D01*
X172697167Y-104912438D02*
X172649548Y-104960057D01*
X172649548Y-104960057D02*
X172601929Y-105055295D01*
X172601929Y-105055295D02*
X172601929Y-105150533D01*
X172601929Y-105150533D02*
X172649548Y-105293390D01*
X172649548Y-105293390D02*
X173220976Y-105864819D01*
X173220976Y-105864819D02*
X172601929Y-105864819D01*
X180056666Y-85700819D02*
X180389999Y-85224628D01*
X180628094Y-85700819D02*
X180628094Y-84700819D01*
X180628094Y-84700819D02*
X180247142Y-84700819D01*
X180247142Y-84700819D02*
X180151904Y-84748438D01*
X180151904Y-84748438D02*
X180104285Y-84796057D01*
X180104285Y-84796057D02*
X180056666Y-84891295D01*
X180056666Y-84891295D02*
X180056666Y-85034152D01*
X180056666Y-85034152D02*
X180104285Y-85129390D01*
X180104285Y-85129390D02*
X180151904Y-85177009D01*
X180151904Y-85177009D02*
X180247142Y-85224628D01*
X180247142Y-85224628D02*
X180628094Y-85224628D01*
X179151904Y-84700819D02*
X179628094Y-84700819D01*
X179628094Y-84700819D02*
X179675713Y-85177009D01*
X179675713Y-85177009D02*
X179628094Y-85129390D01*
X179628094Y-85129390D02*
X179532856Y-85081771D01*
X179532856Y-85081771D02*
X179294761Y-85081771D01*
X179294761Y-85081771D02*
X179199523Y-85129390D01*
X179199523Y-85129390D02*
X179151904Y-85177009D01*
X179151904Y-85177009D02*
X179104285Y-85272247D01*
X179104285Y-85272247D02*
X179104285Y-85510342D01*
X179104285Y-85510342D02*
X179151904Y-85605580D01*
X179151904Y-85605580D02*
X179199523Y-85653200D01*
X179199523Y-85653200D02*
X179294761Y-85700819D01*
X179294761Y-85700819D02*
X179532856Y-85700819D01*
X179532856Y-85700819D02*
X179628094Y-85653200D01*
X179628094Y-85653200D02*
X179675713Y-85605580D01*
X179175580Y-109307333D02*
X179223200Y-109259714D01*
X179223200Y-109259714D02*
X179270819Y-109116857D01*
X179270819Y-109116857D02*
X179270819Y-109021619D01*
X179270819Y-109021619D02*
X179223200Y-108878762D01*
X179223200Y-108878762D02*
X179127961Y-108783524D01*
X179127961Y-108783524D02*
X179032723Y-108735905D01*
X179032723Y-108735905D02*
X178842247Y-108688286D01*
X178842247Y-108688286D02*
X178699390Y-108688286D01*
X178699390Y-108688286D02*
X178508914Y-108735905D01*
X178508914Y-108735905D02*
X178413676Y-108783524D01*
X178413676Y-108783524D02*
X178318438Y-108878762D01*
X178318438Y-108878762D02*
X178270819Y-109021619D01*
X178270819Y-109021619D02*
X178270819Y-109116857D01*
X178270819Y-109116857D02*
X178318438Y-109259714D01*
X178318438Y-109259714D02*
X178366057Y-109307333D01*
X178270819Y-110212095D02*
X178270819Y-109735905D01*
X178270819Y-109735905D02*
X178747009Y-109688286D01*
X178747009Y-109688286D02*
X178699390Y-109735905D01*
X178699390Y-109735905D02*
X178651771Y-109831143D01*
X178651771Y-109831143D02*
X178651771Y-110069238D01*
X178651771Y-110069238D02*
X178699390Y-110164476D01*
X178699390Y-110164476D02*
X178747009Y-110212095D01*
X178747009Y-110212095D02*
X178842247Y-110259714D01*
X178842247Y-110259714D02*
X179080342Y-110259714D01*
X179080342Y-110259714D02*
X179175580Y-110212095D01*
X179175580Y-110212095D02*
X179223200Y-110164476D01*
X179223200Y-110164476D02*
X179270819Y-110069238D01*
X179270819Y-110069238D02*
X179270819Y-109831143D01*
X179270819Y-109831143D02*
X179223200Y-109735905D01*
X179223200Y-109735905D02*
X179175580Y-109688286D01*
D16*
X147888714Y-115650035D02*
X147745857Y-115697654D01*
X147745857Y-115697654D02*
X147698238Y-115745273D01*
X147698238Y-115745273D02*
X147650619Y-115840511D01*
X147650619Y-115840511D02*
X147650619Y-115983368D01*
X147650619Y-115983368D02*
X147698238Y-116078606D01*
X147698238Y-116078606D02*
X147745857Y-116126226D01*
X147745857Y-116126226D02*
X147841095Y-116173845D01*
X147841095Y-116173845D02*
X148222047Y-116173845D01*
X148222047Y-116173845D02*
X148222047Y-115173845D01*
X148222047Y-115173845D02*
X147888714Y-115173845D01*
X147888714Y-115173845D02*
X147793476Y-115221464D01*
X147793476Y-115221464D02*
X147745857Y-115269083D01*
X147745857Y-115269083D02*
X147698238Y-115364321D01*
X147698238Y-115364321D02*
X147698238Y-115459559D01*
X147698238Y-115459559D02*
X147745857Y-115554797D01*
X147745857Y-115554797D02*
X147793476Y-115602416D01*
X147793476Y-115602416D02*
X147888714Y-115650035D01*
X147888714Y-115650035D02*
X148222047Y-115650035D01*
X147364904Y-115173845D02*
X146793476Y-115173845D01*
X147079190Y-116173845D02*
X147079190Y-115173845D01*
X145936333Y-116173845D02*
X146507761Y-116173845D01*
X146222047Y-116173845D02*
X146222047Y-115173845D01*
X146222047Y-115173845D02*
X146317285Y-115316702D01*
X146317285Y-115316702D02*
X146412523Y-115411940D01*
X146412523Y-115411940D02*
X146507761Y-115459559D01*
%TO.C,D5*%
D17*
X160461851Y-75638991D02*
X160617851Y-75638991D01*
X162777851Y-75638991D02*
X162933851Y-75638991D01*
X160462335Y-75638991D02*
G75*
G02*
X160617851Y-72407554I1235516J1560000D01*
G01*
X160617851Y-75119952D02*
G75*
G02*
X160617851Y-73038030I1080000J1040961D01*
G01*
X162777851Y-72407554D02*
G75*
G02*
X162933367Y-75638991I-1080000J-1671437D01*
G01*
X162777851Y-73038030D02*
G75*
G02*
X162777851Y-75119952I-1080000J-1040961D01*
G01*
%TO.C,D7*%
X103210000Y-96764000D02*
X103210000Y-96920000D01*
X103210000Y-99080000D02*
X103210000Y-99236000D01*
X103210000Y-96764484D02*
G75*
G02*
X106441437Y-96920000I1560000J-1235516D01*
G01*
X103729039Y-96920000D02*
G75*
G02*
X105810961Y-96920000I1040961J-1080000D01*
G01*
X105810961Y-99080000D02*
G75*
G02*
X103729039Y-99080000I-1040961J1080000D01*
G01*
X106441437Y-99080000D02*
G75*
G02*
X103210000Y-99235516I-1671437J1080000D01*
G01*
%TO.C,D6*%
X108210000Y-88264000D02*
X108210000Y-88420000D01*
X108210000Y-90580000D02*
X108210000Y-90736000D01*
X108210000Y-88264484D02*
G75*
G02*
X111441437Y-88420000I1560000J-1235516D01*
G01*
X108729039Y-88420000D02*
G75*
G02*
X110810961Y-88420000I1040961J-1080000D01*
G01*
X110810961Y-90580000D02*
G75*
G02*
X108729039Y-90580000I-1040961J1080000D01*
G01*
X111441437Y-90580000D02*
G75*
G02*
X108210000Y-90735516I-1671437J1080000D01*
G01*
%TO.C,D8*%
X115940000Y-92764000D02*
X115940000Y-92920000D01*
X115940000Y-95080000D02*
X115940000Y-95236000D01*
X115940000Y-92764484D02*
G75*
G02*
X119171437Y-92920000I1560000J-1235516D01*
G01*
X116459039Y-92920000D02*
G75*
G02*
X118540961Y-92920000I1040961J-1080000D01*
G01*
X118540961Y-95080000D02*
G75*
G02*
X116459039Y-95080000I-1040961J1080000D01*
G01*
X119171437Y-95080000D02*
G75*
G02*
X115940000Y-95235516I-1671437J1080000D01*
G01*
%TO.C,J1*%
X170374000Y-74362000D02*
X178114000Y-74362000D01*
X170374000Y-79562000D02*
X170374000Y-74362000D01*
X170374000Y-79562000D02*
X178114000Y-79562000D01*
X173204000Y-74006441D02*
X173204000Y-74362000D01*
X173204000Y-74006441D02*
X175204000Y-74006441D01*
X175204000Y-74006441D02*
X175204000Y-74362000D01*
X178114000Y-79562000D02*
X178114000Y-74362000D01*
%TO.C,R12*%
X104664742Y-94473500D02*
X105139258Y-94473500D01*
X104664742Y-95518500D02*
X105139258Y-95518500D01*
%TO.C,L1*%
X169664748Y-106840000D02*
X170187252Y-106840000D01*
X169664748Y-109060000D02*
X170187252Y-109060000D01*
%TO.C,Q1*%
D12*
X112773787Y-123225787D02*
X113805410Y-123225787D01*
X112773787Y-124678213D02*
X112773787Y-123225787D01*
X113844602Y-124678213D02*
X114755398Y-124678213D01*
X115826213Y-123225787D02*
X114794590Y-123225787D01*
X115826213Y-124678213D02*
X115826213Y-123225787D01*
%TO.C,R11*%
D17*
X109605837Y-85836219D02*
X110080353Y-85836219D01*
X109605837Y-86881219D02*
X110080353Y-86881219D01*
%TO.C,C1*%
X120151000Y-79118420D02*
X120151000Y-79399580D01*
X121171000Y-79118420D02*
X121171000Y-79399580D01*
%TO.C,C2*%
X168400000Y-105042580D02*
X168400000Y-104761420D01*
X169420000Y-105042580D02*
X169420000Y-104761420D01*
%TO.C,R10*%
X164577500Y-75167258D02*
X164577500Y-74692742D01*
X165622500Y-75167258D02*
X165622500Y-74692742D01*
%TO.C,D2*%
X154081000Y-104808000D02*
X154081000Y-111383000D01*
X154806000Y-112108000D02*
X154081000Y-111383000D01*
X154806000Y-112108000D02*
X157831000Y-112108000D01*
X157831000Y-104808000D02*
X154081000Y-104808000D01*
X157831000Y-112108000D02*
X157831000Y-104808000D01*
X154506000Y-111183000D02*
X154306000Y-111033000D01*
X154306000Y-111333000D01*
X154506000Y-111183000D01*
G36*
X154506000Y-111183000D02*
G01*
X154306000Y-111333000D01*
X154306000Y-111033000D01*
X154506000Y-111183000D01*
G37*
%TO.C,C3*%
X178306000Y-106058580D02*
X178306000Y-105777420D01*
X179326000Y-106058580D02*
X179326000Y-105777420D01*
%TO.C,R3*%
X175245500Y-106155258D02*
X175245500Y-105680742D01*
X176290500Y-106155258D02*
X176290500Y-105680742D01*
%TO.C,R1*%
X178547500Y-113808742D02*
X178547500Y-114283258D01*
X179592500Y-113808742D02*
X179592500Y-114283258D01*
%TO.C,R2*%
X176769500Y-106155258D02*
X176769500Y-105680742D01*
X177814500Y-106155258D02*
X177814500Y-105680742D01*
%TO.C,C4*%
X175258000Y-108825420D02*
X175258000Y-109106580D01*
X176278000Y-108825420D02*
X176278000Y-109106580D01*
%TO.C,R13*%
X117364742Y-90409500D02*
X117839258Y-90409500D01*
X117364742Y-91454500D02*
X117839258Y-91454500D01*
%TO.C,U1*%
X113525000Y-80866000D02*
X118145000Y-80866000D01*
X118145000Y-74096000D02*
X113525000Y-74096000D01*
X119695000Y-74551000D02*
X120025000Y-74791000D01*
X120025000Y-74311000D01*
X119695000Y-74551000D01*
G36*
X120025000Y-74791000D02*
G01*
X119695000Y-74551000D01*
X120025000Y-74311000D01*
X120025000Y-74791000D01*
G37*
%TO.C,D3*%
X108038318Y-113293022D02*
X108038318Y-119868022D01*
X108763318Y-120593022D02*
X108038318Y-119868022D01*
X108763318Y-120593022D02*
X111788318Y-120593022D01*
X111788318Y-113293022D02*
X108038318Y-113293022D01*
X111788318Y-120593022D02*
X111788318Y-113293022D01*
X108463318Y-119668022D02*
X108263318Y-119518022D01*
X108263318Y-119818022D01*
X108463318Y-119668022D01*
G36*
X108463318Y-119668022D02*
G01*
X108263318Y-119818022D01*
X108263318Y-119518022D01*
X108463318Y-119668022D01*
G37*
%TO.C,C6*%
X164590000Y-78599420D02*
X164590000Y-78880580D01*
X165610000Y-78599420D02*
X165610000Y-78880580D01*
%TO.C,D4*%
D12*
X162178201Y-79699787D02*
X161025801Y-79699787D01*
X162178201Y-82352213D02*
X161025801Y-82352213D01*
D18*
X162717063Y-80026000D02*
G75*
G02*
X162567203Y-80026000I-74930J0D01*
G01*
X162567203Y-80026000D02*
G75*
G02*
X162717063Y-80026000I74930J0D01*
G01*
%TO.C,SW1*%
D19*
X182427882Y-108203991D02*
X182427882Y-109456544D01*
X182427882Y-108203991D02*
X186005911Y-108203991D01*
X182427882Y-111095456D02*
X182427882Y-111956544D01*
X182427882Y-113595456D02*
X182427882Y-114456544D01*
X182427882Y-116095456D02*
X182427882Y-117375975D01*
X182935883Y-109727994D02*
X182935883Y-115824006D01*
X182935883Y-115824006D02*
X185475889Y-115824006D01*
X183697885Y-114300003D02*
X183697885Y-115316005D01*
X183697885Y-115316005D02*
X184713887Y-115316005D01*
X184713887Y-114300003D02*
X183697885Y-114300003D01*
X184713887Y-115316005D02*
X184713887Y-114300003D01*
X185475889Y-109727994D02*
X182935883Y-109727994D01*
X185475889Y-115824006D02*
X185475889Y-109727994D01*
X186005911Y-109450448D02*
X185983763Y-108203991D01*
X186005911Y-111950448D02*
X186005911Y-111101552D01*
X186005911Y-114450422D02*
X186005911Y-113601552D01*
X186005911Y-117375975D02*
X182427755Y-117375975D01*
X186005911Y-117375975D02*
X186005911Y-116101578D01*
%TO.C,D1*%
D17*
X146715000Y-100490000D02*
X146715000Y-107065000D01*
X147440000Y-107790000D02*
X146715000Y-107065000D01*
X147440000Y-107790000D02*
X150465000Y-107790000D01*
X150465000Y-100490000D02*
X146715000Y-100490000D01*
X150465000Y-107790000D02*
X150465000Y-100490000D01*
X147140000Y-106865000D02*
X146940000Y-106715000D01*
X146940000Y-107015000D01*
X147140000Y-106865000D01*
G36*
X147140000Y-106865000D02*
G01*
X146940000Y-107015000D01*
X146940000Y-106715000D01*
X147140000Y-106865000D01*
G37*
%TO.C,U2*%
D20*
X172365924Y-106172326D02*
X174466000Y-106172326D01*
X174455967Y-108295059D02*
X172356907Y-108295059D01*
D19*
X174889165Y-106092062D02*
G75*
G02*
X174736765Y-106092062I-76200J0D01*
G01*
X174736765Y-106092062D02*
G75*
G02*
X174889165Y-106092062I76200J0D01*
G01*
%TO.C,C5*%
D17*
X176782000Y-108825420D02*
X176782000Y-109106580D01*
X177802000Y-108825420D02*
X177802000Y-109106580D01*
%TO.C,BT1*%
D21*
X121103000Y-123221626D02*
X117103000Y-123221626D01*
X175103000Y-121221626D02*
X175103000Y-125221626D01*
X177103000Y-123221626D02*
X173103000Y-123221626D01*
D14*
X122003000Y-116921626D02*
X122003000Y-116921626D01*
G75*
G02*
X122203000Y-116721626I200000J26D01*
G01*
X172003000Y-116721626D01*
G75*
G02*
X172203000Y-116921626I0J-199974D01*
G01*
X172203000Y-129521626D01*
G75*
G02*
X172003000Y-129721626I-200000J26D01*
G01*
X122203000Y-129721626D01*
G75*
G02*
X122003000Y-129521626I0J200026D01*
G01*
X122003000Y-116921626D01*
%TD*%
%LPC*%
D22*
%TO.C,D5*%
X161697851Y-75348991D03*
D23*
X161697851Y-72808991D03*
%TD*%
D22*
%TO.C,D7*%
X103500000Y-98000000D03*
D23*
X106040000Y-98000000D03*
%TD*%
D24*
%TO.C,HOLE1*%
X183896000Y-76346727D03*
%TD*%
D25*
%TO.C,REF\u002A\u002A*%
X153162000Y-75438000D03*
%TD*%
D22*
%TO.C,D6*%
X108500000Y-89500000D03*
D23*
X111040000Y-89500000D03*
%TD*%
D24*
%TO.C,HOLE2*%
X104287503Y-76297669D03*
%TD*%
D22*
%TO.C,D8*%
X116230000Y-94000000D03*
D23*
X118770000Y-94000000D03*
%TD*%
D26*
%TO.C,J1*%
X171704000Y-75692000D03*
D27*
X171704000Y-78232000D03*
X174244000Y-75692000D03*
X174244000Y-78232000D03*
X176784000Y-75692000D03*
X176784000Y-78232000D03*
%TD*%
D28*
%TO.C,R12*%
X104077000Y-94996000D03*
X105727000Y-94996000D03*
%TD*%
D29*
%TO.C,L1*%
X168851000Y-107950000D03*
X171001000Y-107950000D03*
%TD*%
D30*
%TO.C,Q1*%
X115249962Y-124952000D03*
X113350038Y-124952000D03*
X114300000Y-122952000D03*
%TD*%
D31*
%TO.C,R4*%
X145288000Y-103320000D03*
X145288000Y-104960000D03*
%TD*%
D32*
%TO.C,R7*%
X158242000Y-80010000D03*
X159882002Y-80010000D03*
%TD*%
%TO.C,R9*%
X158253974Y-83312000D03*
X159893976Y-83312000D03*
%TD*%
D28*
%TO.C,R11*%
X109018095Y-86358719D03*
X110668095Y-86358719D03*
%TD*%
D33*
%TO.C,C1*%
X120661000Y-78484000D03*
X120661000Y-80034000D03*
%TD*%
D34*
%TO.C,C2*%
X168910000Y-105677000D03*
X168910000Y-104127000D03*
%TD*%
D35*
%TO.C,R10*%
X165100000Y-75755000D03*
X165100000Y-74105000D03*
%TD*%
D36*
%TO.C,D2*%
X155206000Y-111183000D03*
X156706000Y-111183000D03*
X156706000Y-105733000D03*
X155206000Y-105733000D03*
%TD*%
D34*
%TO.C,C3*%
X178816000Y-106693000D03*
X178816000Y-105143000D03*
%TD*%
D35*
%TO.C,R3*%
X175768000Y-106743000D03*
X175768000Y-105093000D03*
%TD*%
D37*
%TO.C,R14*%
X180710000Y-82550000D03*
X179070000Y-82550000D03*
%TD*%
D38*
%TO.C,R1*%
X179070000Y-113221000D03*
X179070000Y-114871000D03*
%TD*%
D35*
%TO.C,R2*%
X177292000Y-106743000D03*
X177292000Y-105093000D03*
%TD*%
D33*
%TO.C,C4*%
X175768000Y-108191000D03*
X175768000Y-109741000D03*
%TD*%
D28*
%TO.C,R13*%
X116777000Y-90932000D03*
X118427000Y-90932000D03*
%TD*%
D39*
%TO.C,U1*%
X118697500Y-74556000D03*
X118697500Y-75206000D03*
X118697500Y-75856000D03*
X118697500Y-76506000D03*
X118697500Y-77156000D03*
X118697500Y-77806000D03*
X118697500Y-78456000D03*
X118697500Y-79106000D03*
X118697500Y-79756000D03*
X118697500Y-80406000D03*
X112972500Y-80406000D03*
X112972500Y-79756000D03*
X112972500Y-79106000D03*
X112972500Y-78456000D03*
X112972500Y-77806000D03*
X112972500Y-77156000D03*
X112972500Y-76506000D03*
X112972500Y-75856000D03*
X112972500Y-75206000D03*
X112972500Y-74556000D03*
%TD*%
D37*
%TO.C,R6*%
X159882002Y-78740000D03*
X158242000Y-78740000D03*
%TD*%
D36*
%TO.C,D3*%
X109163318Y-119668022D03*
X110663318Y-119668022D03*
X110663318Y-114218022D03*
X109163318Y-114218022D03*
%TD*%
D32*
%TO.C,R8*%
X158242000Y-82042000D03*
X159882002Y-82042000D03*
%TD*%
D33*
%TO.C,C6*%
X165100000Y-77965000D03*
X165100000Y-79515000D03*
%TD*%
D40*
%TO.C,D4*%
X162034818Y-80026000D03*
X162034818Y-80526127D03*
D41*
X162034818Y-81026000D03*
D40*
X162034818Y-81526127D03*
X162034818Y-82026000D03*
X161169184Y-82026000D03*
X161169184Y-81526127D03*
D41*
X161169184Y-81026000D03*
D40*
X161169184Y-80526127D03*
X161169184Y-80026000D03*
%TD*%
D42*
%TO.C,SW1*%
X187055772Y-115275873D03*
X187055772Y-112776000D03*
X187055772Y-110276127D03*
X181355746Y-115275873D03*
X181356000Y-112776000D03*
X181355746Y-110276127D03*
%TD*%
D36*
%TO.C,D1*%
X147840000Y-106865000D03*
X149340000Y-106865000D03*
X149340000Y-101415000D03*
X147840000Y-101415000D03*
%TD*%
D43*
%TO.C,U2*%
X174365924Y-106485000D03*
X174365924Y-106985128D03*
X174365924Y-107485000D03*
X174365924Y-107985128D03*
X172466000Y-107985128D03*
X172466000Y-107485000D03*
X172466000Y-106985128D03*
X172466000Y-106485000D03*
D44*
X173415962Y-107235064D03*
%TD*%
D37*
%TO.C,R5*%
X180710000Y-83820000D03*
X179070000Y-83820000D03*
%TD*%
D33*
%TO.C,C5*%
X177292000Y-108191000D03*
X177292000Y-109741000D03*
%TD*%
D45*
%TO.C,BT1*%
X170353000Y-123221626D03*
D46*
X123603000Y-123221626D03*
%TD*%
%LPD*%
M02*
