M48
; DRILL file KiCad 10.0.5 date 2026-09-01T05:32:08
; FORMAT={-:-/ absolute / inch / decimal}
; #@! TF.CreationDate,2026-09-01T05:32:08-07:00
; #@! TF.GenerationSoftware,Kicad,Pcbnew,10.0.5
; #@! TF.FileFunction,Plated,1,2,PTH
FMAT,2
INCH
; #@! TA.AperFunction,Plated,PTH,ViaDrill
T1C0.0118
; #@! TA.AperFunction,Plated,PTH,ComponentDrill
T2C0.0354
; #@! TA.AperFunction,Plated,PTH,ComponentDrill
T3C0.0394
; #@! TA.AperFunction,Plated,PTH,ComponentDrill
T4C0.0472
; #@! TA.AperFunction,Plated,PTH,ComponentDrill
T5C0.1260
%
G90
G05
T1
X4.22Y-4.67
X4.4246Y-4.9202
X4.5Y-4.92
X4.8148Y-3.1178
X5.6765Y-4.5809
X6.25Y-3.19
X6.26Y-3.99
T2
X4.0748Y-3.8583
X4.1748Y-3.8583
X4.2717Y-3.5236
X4.3717Y-3.5236
X4.576Y-3.7008
X4.676Y-3.7008
X6.3661Y-2.8665
X6.3661Y-2.9665
T3
X6.76Y-2.98
X6.76Y-3.08
X6.86Y-2.98
X6.86Y-3.08
X6.96Y-2.98
X6.96Y-3.08
T4
X4.8663Y-4.8512
X6.7068Y-4.8512
T5
X6.03Y-2.97
M30
