%TF.GenerationSoftware,KiCad,Pcbnew,10.0.5*%
%TF.CreationDate,2026-09-01T05:32:08-07:00*%
%TF.ProjectId,bsidesorl-v1,62736964-6573-46f7-926c-2d76312e6b69,R0*%
%TF.SameCoordinates,Original*%
%TF.FileFunction,Soldermask,Bot*%
%TF.FilePolarity,Negative*%
%FSLAX46Y46*%
G04 Gerber Fmt 4.6, Leading zero omitted, Abs format (unit mm)*
G04 Created by KiCad (PCBNEW 10.0.5) date 2026-09-01 05:32:08*
%MOMM*%
%LPD*%
G01*
G04 APERTURE LIST*
G04 Aperture macros list*
%AMRoundRect*
0 Rectangle with rounded corners*
0 $1 Rounding radius*
0 $2 $3 $4 $5 $6 $7 $8 $9 X,Y pos of 4 corners*
0 Add a 4 corners polygon primitive as box body*
4,1,4,$2,$3,$4,$5,$6,$7,$8,$9,$2,$3,0*
0 Add four circle primitives for the rounded corners*
1,1,$1+$1,$2,$3*
1,1,$1+$1,$4,$5*
1,1,$1+$1,$6,$7*
1,1,$1+$1,$8,$9*
0 Add four rect primitives between the rounded corners*
20,1,$1+$1,$2,$3,$4,$5,0*
20,1,$1+$1,$4,$5,$6,$7,0*
20,1,$1+$1,$6,$7,$8,$9,0*
20,1,$1+$1,$8,$9,$2,$3,0*%
G04 Aperture macros list end*
%ADD10R,1.800000X1.800000*%
%ADD11C,1.800000*%
%ADD12C,3.700000*%
%ADD13C,3.800000*%
%ADD14R,1.700000X1.700000*%
%ADD15C,1.700000*%
%ADD16RoundRect,0.200000X-0.200000X-0.275000X0.200000X-0.275000X0.200000X0.275000X-0.200000X0.275000X0*%
%ADD17RoundRect,0.250000X-0.375000X-0.850000X0.375000X-0.850000X0.375000X0.850000X-0.375000X0.850000X0*%
%ADD18R,0.650013X1.000000*%
%ADD19RoundRect,0.238000X-0.275000X0.200000X-0.275000X-0.200000X0.275000X-0.200000X0.275000X0.200000X0*%
%ADD20RoundRect,0.238000X-0.200000X-0.275000X0.200000X-0.275000X0.200000X0.275000X-0.200000X0.275000X0*%
%ADD21RoundRect,0.225000X-0.250000X0.225000X-0.250000X-0.225000X0.250000X-0.225000X0.250000X0.225000X0*%
%ADD22RoundRect,0.225000X0.250000X-0.225000X0.250000X0.225000X-0.250000X0.225000X-0.250000X-0.225000X0*%
%ADD23RoundRect,0.200000X0.275000X-0.200000X0.275000X0.200000X-0.275000X0.200000X-0.275000X-0.200000X0*%
%ADD24RoundRect,0.205000X0.205000X-0.470000X0.205000X0.470000X-0.205000X0.470000X-0.205000X-0.470000X0*%
%ADD25RoundRect,0.238000X0.200000X0.275000X-0.200000X0.275000X-0.200000X-0.275000X0.200000X-0.275000X0*%
%ADD26RoundRect,0.200000X-0.275000X0.200000X-0.275000X-0.200000X0.275000X-0.200000X0.275000X0.200000X0*%
%ADD27RoundRect,0.100000X0.637500X0.100000X-0.637500X0.100000X-0.637500X-0.100000X0.637500X-0.100000X0*%
%ADD28R,0.664999X0.200000*%
%ADD29R,0.664999X0.400000*%
%ADD30R,2.000000X1.199898*%
%ADD31R,0.521006X0.250013*%
%ADD32R,0.900000X1.600000*%
%ADD33C,2.200000*%
%ADD34R,2.200000X2.200000*%
G04 APERTURE END LIST*
D10*
%TO.C,D5*%
X161697851Y-75348991D03*
D11*
X161697851Y-72808991D03*
%TD*%
D10*
%TO.C,D7*%
X103500000Y-98000000D03*
D11*
X106040000Y-98000000D03*
%TD*%
D12*
%TO.C,HOLE1*%
X183896000Y-76346727D03*
%TD*%
D13*
%TO.C,REF\u002A\u002A*%
X153162000Y-75438000D03*
%TD*%
D10*
%TO.C,D6*%
X108500000Y-89500000D03*
D11*
X111040000Y-89500000D03*
%TD*%
D12*
%TO.C,HOLE2*%
X104287503Y-76297669D03*
%TD*%
D10*
%TO.C,D8*%
X116230000Y-94000000D03*
D11*
X118770000Y-94000000D03*
%TD*%
D14*
%TO.C,J1*%
X171704000Y-75692000D03*
D15*
X171704000Y-78232000D03*
X174244000Y-75692000D03*
X174244000Y-78232000D03*
X176784000Y-75692000D03*
X176784000Y-78232000D03*
%TD*%
D16*
%TO.C,R12*%
X104077000Y-94996000D03*
X105727000Y-94996000D03*
%TD*%
D17*
%TO.C,L1*%
X168851000Y-107950000D03*
X171001000Y-107950000D03*
%TD*%
D18*
%TO.C,Q1*%
X115249962Y-124952000D03*
X113350038Y-124952000D03*
X114300000Y-122952000D03*
%TD*%
D19*
%TO.C,R4*%
X145288000Y-103320000D03*
X145288000Y-104960000D03*
%TD*%
D20*
%TO.C,R7*%
X158242000Y-80010000D03*
X159882002Y-80010000D03*
%TD*%
%TO.C,R9*%
X158253974Y-83312000D03*
X159893976Y-83312000D03*
%TD*%
D16*
%TO.C,R11*%
X109018095Y-86358719D03*
X110668095Y-86358719D03*
%TD*%
D21*
%TO.C,C1*%
X120661000Y-78484000D03*
X120661000Y-80034000D03*
%TD*%
D22*
%TO.C,C2*%
X168910000Y-105677000D03*
X168910000Y-104127000D03*
%TD*%
D23*
%TO.C,R10*%
X165100000Y-75755000D03*
X165100000Y-74105000D03*
%TD*%
D24*
%TO.C,D2*%
X155206000Y-111183000D03*
X156706000Y-111183000D03*
X156706000Y-105733000D03*
X155206000Y-105733000D03*
%TD*%
D22*
%TO.C,C3*%
X178816000Y-106693000D03*
X178816000Y-105143000D03*
%TD*%
D23*
%TO.C,R3*%
X175768000Y-106743000D03*
X175768000Y-105093000D03*
%TD*%
D25*
%TO.C,R14*%
X180710000Y-82550000D03*
X179070000Y-82550000D03*
%TD*%
D26*
%TO.C,R1*%
X179070000Y-113221000D03*
X179070000Y-114871000D03*
%TD*%
D23*
%TO.C,R2*%
X177292000Y-106743000D03*
X177292000Y-105093000D03*
%TD*%
D21*
%TO.C,C4*%
X175768000Y-108191000D03*
X175768000Y-109741000D03*
%TD*%
D16*
%TO.C,R13*%
X116777000Y-90932000D03*
X118427000Y-90932000D03*
%TD*%
D27*
%TO.C,U1*%
X118697500Y-74556000D03*
X118697500Y-75206000D03*
X118697500Y-75856000D03*
X118697500Y-76506000D03*
X118697500Y-77156000D03*
X118697500Y-77806000D03*
X118697500Y-78456000D03*
X118697500Y-79106000D03*
X118697500Y-79756000D03*
X118697500Y-80406000D03*
X112972500Y-80406000D03*
X112972500Y-79756000D03*
X112972500Y-79106000D03*
X112972500Y-78456000D03*
X112972500Y-77806000D03*
X112972500Y-77156000D03*
X112972500Y-76506000D03*
X112972500Y-75856000D03*
X112972500Y-75206000D03*
X112972500Y-74556000D03*
%TD*%
D25*
%TO.C,R6*%
X159882002Y-78740000D03*
X158242000Y-78740000D03*
%TD*%
D24*
%TO.C,D3*%
X109163318Y-119668022D03*
X110663318Y-119668022D03*
X110663318Y-114218022D03*
X109163318Y-114218022D03*
%TD*%
D20*
%TO.C,R8*%
X158242000Y-82042000D03*
X159882002Y-82042000D03*
%TD*%
D21*
%TO.C,C6*%
X165100000Y-77965000D03*
X165100000Y-79515000D03*
%TD*%
D28*
%TO.C,D4*%
X162034818Y-80026000D03*
X162034818Y-80526127D03*
D29*
X162034818Y-81026000D03*
D28*
X162034818Y-81526127D03*
X162034818Y-82026000D03*
X161169184Y-82026000D03*
X161169184Y-81526127D03*
D29*
X161169184Y-81026000D03*
D28*
X161169184Y-80526127D03*
X161169184Y-80026000D03*
%TD*%
D30*
%TO.C,SW1*%
X187055772Y-115275873D03*
X187055772Y-112776000D03*
X187055772Y-110276127D03*
X181355746Y-115275873D03*
X181356000Y-112776000D03*
X181355746Y-110276127D03*
%TD*%
D24*
%TO.C,D1*%
X147840000Y-106865000D03*
X149340000Y-106865000D03*
X149340000Y-101415000D03*
X147840000Y-101415000D03*
%TD*%
D31*
%TO.C,U2*%
X174365924Y-106485000D03*
X174365924Y-106985128D03*
X174365924Y-107485000D03*
X174365924Y-107985128D03*
X172466000Y-107985128D03*
X172466000Y-107485000D03*
X172466000Y-106985128D03*
X172466000Y-106485000D03*
D32*
X173415962Y-107235064D03*
%TD*%
D25*
%TO.C,R5*%
X180710000Y-83820000D03*
X179070000Y-83820000D03*
%TD*%
D21*
%TO.C,C5*%
X177292000Y-108191000D03*
X177292000Y-109741000D03*
%TD*%
D33*
%TO.C,BT1*%
X170353000Y-123221626D03*
D34*
X123603000Y-123221626D03*
%TD*%
M02*
